%TF.GenerationSoftware,Altium Limited,Altium Designer,25.8.1 (18)*%
G04 Layer_Color=0*
%FSLAX45Y45*%
%MOMM*%
%TF.SameCoordinates,304ADD41-B96C-4BE1-A440-764D1465AFBB*%
%TF.FilePolarity,Positive*%
%TF.FileFunction,Plated,1,6,PTH,Drill*%
%TF.Part,Single*%
G01*
G75*
%TA.AperFunction,ComponentDrill*%
%ADD180C,0.65000*%
%ADD181C,0.80000*%
%ADD182C,1.10000*%
%ADD183C,1.10000*%
%ADD184C,1.00000*%
%ADD185C,1.30000*%
%ADD186C,0.99000*%
%ADD187C,0.90000*%
%ADD188C,2.80000*%
%ADD189C,1.80000*%
%TA.AperFunction,ViaDrill,NotFilled*%
%ADD190C,0.30000*%
D180*
X-6550000Y-1423000D02*
D03*
X-2950000D02*
D03*
X-4650000Y1423000D02*
D03*
X-1050000D02*
D03*
X4650000Y-1423000D02*
D03*
X2950000Y1423000D02*
D03*
X6550000D02*
D03*
X1050000Y-1423000D02*
D03*
X-6550000Y-1677000D02*
D03*
X-2950000D02*
D03*
X-4650000Y1676999D02*
D03*
X-1050000D02*
D03*
X4650000Y-1677000D02*
D03*
X2950000Y1676999D02*
D03*
X6550000D02*
D03*
X1050000Y-1677000D02*
D03*
Y-1550000D02*
D03*
X2950000Y1550000D02*
D03*
X6550000D02*
D03*
X-4650000D02*
D03*
X-1050000D02*
D03*
X-6550000Y-1550000D02*
D03*
X-2950000D02*
D03*
X4650000D02*
D03*
D181*
X-8096000Y-2950000D02*
D03*
X-8604000D02*
D03*
X-8350000D02*
D03*
D182*
X4965000Y0D02*
D03*
X6235000D02*
D03*
X5981000D02*
D03*
X5727000D02*
D03*
X5473000D02*
D03*
X5219000D02*
D03*
D183*
X8150000Y-2323000D02*
D03*
X8150000Y-2577000D02*
D03*
D184*
X9800000Y-1625000D02*
D03*
Y-1375000D02*
D03*
D185*
X7799500Y2933999D02*
D03*
X8500500D02*
D03*
D186*
X8375000Y3182999D02*
D03*
X7925000D02*
D03*
D187*
X-3927000Y127000D02*
D03*
Y889000D02*
D03*
Y-381000D02*
D03*
X-3927000Y-635000D02*
D03*
Y635000D02*
D03*
X-3927000Y-889000D02*
D03*
Y381000D02*
D03*
Y-127000D02*
D03*
X-3673000Y127000D02*
D03*
Y-889000D02*
D03*
X-3673000Y-635000D02*
D03*
X-3673000Y-381000D02*
D03*
Y-127000D02*
D03*
Y381000D02*
D03*
X-3673000Y635000D02*
D03*
X-3673000Y889000D02*
D03*
D188*
X-9925000Y-650000D02*
D03*
X-9300000D02*
D03*
X-8675000D02*
D03*
Y650000D02*
D03*
X-9300000D02*
D03*
X-9925000D02*
D03*
X8675000Y-650000D02*
D03*
X9300000D02*
D03*
X9925000D02*
D03*
Y650000D02*
D03*
X9300000D02*
D03*
X8675000D02*
D03*
D189*
X6144000Y-3000000D02*
D03*
X5600000D02*
D03*
X5056000D02*
D03*
Y3000000D02*
D03*
X5600000D02*
D03*
X6144000D02*
D03*
X2544000Y-3000000D02*
D03*
X2000000D02*
D03*
X1456000D02*
D03*
Y3000000D02*
D03*
X2000000D02*
D03*
X2544000D02*
D03*
X-1456000Y-3000000D02*
D03*
X-2000000D02*
D03*
X-2544000D02*
D03*
Y3000000D02*
D03*
X-2000000D02*
D03*
X-1456000D02*
D03*
X-5056000Y-3000000D02*
D03*
X-5600000D02*
D03*
X-6144000D02*
D03*
Y3000000D02*
D03*
X-5600000D02*
D03*
X-5056000D02*
D03*
D190*
X-6120000Y195000D02*
D03*
X-735355Y-98961D02*
D03*
X-550000Y100000D02*
D03*
X205027Y629290D02*
D03*
X800000Y-500000D02*
D03*
X-800000Y-900000D02*
D03*
X-845000Y2859500D02*
D03*
X6755000D02*
D03*
X4550002Y1470000D02*
D03*
Y1570000D02*
D03*
X3155000Y2859500D02*
D03*
X4445000Y-2859500D02*
D03*
X845000D02*
D03*
X-4447500Y2465000D02*
D03*
X-4445000Y2859500D02*
D03*
X-7792500Y425000D02*
D03*
X-3155000Y-2859500D02*
D03*
X-6755000D02*
D03*
X-7342500Y-1352500D02*
D03*
X-7742500D02*
D03*
X-3872501Y3375000D02*
D03*
X-4350000Y1645000D02*
D03*
X-4480000Y1909500D02*
D03*
X-4937500Y1775000D02*
D03*
X-5052499D02*
D03*
X-4562500Y2465000D02*
D03*
X-5020000Y2290500D02*
D03*
X-4750002Y-2612500D02*
D03*
X-7370000Y3210000D02*
D03*
X-4500000Y-2612499D02*
D03*
X210000Y90000D02*
D03*
X300000Y-10000D02*
D03*
X-8184984Y2469733D02*
D03*
X-8265017D02*
D03*
X6060000Y1820000D02*
D03*
X7100000Y-1700000D02*
D03*
X7327836Y-1771022D02*
D03*
X7118619Y630719D02*
D03*
X7363577Y502252D02*
D03*
X-7650000Y2735000D02*
D03*
X-8650000D02*
D03*
X-8750000D02*
D03*
X-7550000D02*
D03*
X-8850000Y3020000D02*
D03*
X-7450000D02*
D03*
X-4087501Y-2944999D02*
D03*
X-487501D02*
D03*
X3512498D02*
D03*
X7112499Y-2944998D02*
D03*
X4087499Y2944998D02*
D03*
X487499D02*
D03*
X-7112501D02*
D03*
X-3512501Y2944999D02*
D03*
X-8000001Y-1410000D02*
D03*
X-25797Y13005D02*
D03*
X29482Y-39022D02*
D03*
X-103708Y50941D02*
D03*
X-160061Y102322D02*
D03*
X55000Y-1380000D02*
D03*
X-55000D02*
D03*
X-6400000Y-1492500D02*
D03*
X-2800000D02*
D03*
X-1842500Y-227500D02*
D03*
X-1073034Y295218D02*
D03*
X-259863Y-1108389D02*
D03*
X-157500Y-1590000D02*
D03*
X-648771Y-719481D02*
D03*
X-5922500Y335000D02*
D03*
X-4800000Y1492500D02*
D03*
X-3265000Y1182500D02*
D03*
X-1200000Y1492500D02*
D03*
X-4160000Y2081499D02*
D03*
X-3375000Y1684500D02*
D03*
X-819000Y1660000D02*
D03*
X-95000D02*
D03*
X-457000D02*
D03*
X-629001Y1840000D02*
D03*
X-267000D02*
D03*
X95000D02*
D03*
X1200000Y-1492500D02*
D03*
X707500Y-932500D02*
D03*
X1108389Y-259863D02*
D03*
X1725000Y-140000D02*
D03*
X1625000D02*
D03*
X7550000Y-3405000D02*
D03*
X8025000Y-3405001D02*
D03*
X8500000Y-3405000D02*
D03*
X4800000Y-1492500D02*
D03*
X1083641Y443710D02*
D03*
X295218Y1073034D02*
D03*
X2800000Y1492500D02*
D03*
X267000Y1660000D02*
D03*
X457000Y1840000D02*
D03*
X629000Y1660000D02*
D03*
X819000Y1840000D02*
D03*
X5045000Y270000D02*
D03*
X7394999Y240000D02*
D03*
X6400000Y1492500D02*
D03*
X6845000Y1350000D02*
D03*
X7730000Y2555000D02*
D03*
X707500Y-807500D02*
D03*
X707500Y-1057500D02*
D03*
X-863378Y869034D02*
D03*
X707500Y-1182500D02*
D03*
X2807500Y602500D02*
D03*
X2692500D02*
D03*
X-713067Y218094D02*
D03*
X-779000Y2192500D02*
D03*
X-55000D02*
D03*
X1540000Y70000D02*
D03*
X6997500Y2325000D02*
D03*
X8550000Y2310000D02*
D03*
X6202500Y925000D02*
D03*
Y-475000D02*
D03*
X6997500Y-1875000D02*
D03*
X1510000Y-560000D02*
D03*
X1480000Y-730000D02*
D03*
X1500000Y-640000D02*
D03*
X926343Y-431369D02*
D03*
X842565Y-418302D02*
D03*
X2275000Y57500D02*
D03*
X1310000Y-420000D02*
D03*
X147383Y783778D02*
D03*
X2692500Y857500D02*
D03*
Y1062500D02*
D03*
X2692500Y1267501D02*
D03*
X2807500Y857500D02*
D03*
Y1062500D02*
D03*
X2807500Y1267501D02*
D03*
X-558579Y275737D02*
D03*
X-642357Y288804D02*
D03*
X-629290Y205027D02*
D03*
X-700000Y134316D02*
D03*
X-783778Y147383D02*
D03*
X1130710Y219289D02*
D03*
X1143777Y303067D02*
D03*
X-2807500Y1367501D02*
D03*
X-2807500Y1162500D02*
D03*
Y957500D02*
D03*
X-2807500Y752500D02*
D03*
X-201424Y-733156D02*
D03*
X-7575000Y-3355000D02*
D03*
X-7212499Y-3375000D02*
D03*
X-7462500Y-3357500D02*
D03*
X-7445000Y-2575000D02*
D03*
X-7342499Y-2462500D02*
D03*
X-6837500Y-2685000D02*
D03*
X-6997500Y-2325000D02*
D03*
X-6425000Y-3430000D02*
D03*
X-6595000Y-3357500D02*
D03*
X-3975000Y-3355000D02*
D03*
X-3612500Y-3375000D02*
D03*
X-3862500Y-3357500D02*
D03*
X-3845000Y-2575000D02*
D03*
X-6202500Y-2325000D02*
D03*
X-3237500Y-2685000D02*
D03*
X-3742500Y-2462500D02*
D03*
X-7417999Y-532500D02*
D03*
X-7415500Y-430000D02*
D03*
X-6997500Y-925000D02*
D03*
X-7275000Y-187500D02*
D03*
X-7907499Y425000D02*
D03*
X-7427500Y550000D02*
D03*
X-7325000Y552500D02*
D03*
X-6997500Y475000D02*
D03*
X-7222499Y550000D02*
D03*
X-6400000Y-1607500D02*
D03*
X-6202500Y-925000D02*
D03*
X-6040000Y-195000D02*
D03*
X-4995000Y-200000D02*
D03*
X-5807500Y335000D02*
D03*
X-4992500Y300000D02*
D03*
X-6202500Y475000D02*
D03*
X-4300000Y140000D02*
D03*
X-4200000D02*
D03*
X-2995000Y-3357500D02*
D03*
X-2825000Y-3430000D02*
D03*
X-690000Y-2020000D02*
D03*
X-2800000Y-1607500D02*
D03*
X-690000Y-1380000D02*
D03*
X-341180Y-1189707D02*
D03*
X25000Y-3355000D02*
D03*
X137500Y-3357500D02*
D03*
X387501Y-3375000D02*
D03*
X155000Y-2575000D02*
D03*
X-170000Y-1255000D02*
D03*
X257501Y-2462500D02*
D03*
X170000Y-1255000D02*
D03*
X-2572500Y-425000D02*
D03*
X-1727500Y-227500D02*
D03*
X-2590000Y365000D02*
D03*
X-1154351Y376535D02*
D03*
X-730088Y-800798D02*
D03*
X-61405Y-873174D02*
D03*
X-484266Y-450313D02*
D03*
X-965300Y292148D02*
D03*
X-829083Y701803D02*
D03*
X-378200Y556379D02*
D03*
X-8750000Y2455000D02*
D03*
X-8650000D02*
D03*
X-7650000D02*
D03*
X-7550000D02*
D03*
X-8130000Y2540000D02*
D03*
X-8030000D02*
D03*
X-8360000Y2610000D02*
D03*
X-7940000D02*
D03*
X-4550000Y995000D02*
D03*
X-4405000Y1000000D02*
D03*
X-4070000Y1563500D02*
D03*
X-6202500Y1875000D02*
D03*
X-4800000Y1607500D02*
D03*
X-6997500Y1875000D02*
D03*
X-4030000Y2060000D02*
D03*
X-8080000Y2760000D02*
D03*
X-8711000Y3373400D02*
D03*
Y2980400D02*
D03*
X-8611000Y3373400D02*
D03*
X-8470000Y2922900D02*
D03*
X-8611000Y2980400D02*
D03*
X-7830000Y2922900D02*
D03*
X-7589000Y2980400D02*
D03*
X-4362500Y2685000D02*
D03*
X-7689000Y2980400D02*
D03*
X-7589000Y3373400D02*
D03*
X-7689000D02*
D03*
X-4775000Y3430000D02*
D03*
X-4605000Y3357500D02*
D03*
X-3987500Y3375000D02*
D03*
X-3265000Y1309500D02*
D03*
X-3265000Y1436500D02*
D03*
X-751301Y779585D02*
D03*
X-3530000Y1563500D02*
D03*
X-3375000Y1569500D02*
D03*
X-1200000Y1607500D02*
D03*
X-673519Y857367D02*
D03*
X-595738Y935149D02*
D03*
X624022Y906864D02*
D03*
X292148Y965300D02*
D03*
X-267000Y1660000D02*
D03*
X95000D02*
D03*
X-629000D02*
D03*
X376535Y1154351D02*
D03*
X457000Y1660000D02*
D03*
X-3857501Y2462500D02*
D03*
X-3800000Y2107500D02*
D03*
X-819000Y1840000D02*
D03*
X-3570000Y2060000D02*
D03*
X-3755000Y2575000D02*
D03*
X-3625000Y3355000D02*
D03*
X-3737500Y3357500D02*
D03*
X-1005000Y3357500D02*
D03*
X-1175000Y3430000D02*
D03*
X-457000Y1840000D02*
D03*
X-257501Y2462500D02*
D03*
X-95000Y1840000D02*
D03*
X267000D02*
D03*
X-762500Y2685000D02*
D03*
X-387500Y3375000D02*
D03*
X-155000Y2575000D02*
D03*
X-25000Y3355000D02*
D03*
X-137500Y3357500D02*
D03*
X1175000Y-3430000D02*
D03*
X1005000Y-3357500D02*
D03*
X2850000Y-3387499D02*
D03*
X3737500Y-3357500D02*
D03*
X762500Y-2685000D02*
D03*
X690000Y-2020000D02*
D03*
X2849998Y-2612500D02*
D03*
X3755000Y-2575000D02*
D03*
X1200000Y-1607500D02*
D03*
X3987500Y-3375000D02*
D03*
X4362500Y-2685000D02*
D03*
X4775000Y-3430000D02*
D03*
X4605000Y-3357500D02*
D03*
X3857501Y-2462500D02*
D03*
X6060000Y-2380000D02*
D03*
X4800000Y-1607500D02*
D03*
X690000Y-1380000D02*
D03*
X297501Y-1225000D02*
D03*
X1189707Y-341180D02*
D03*
X1625000Y140000D02*
D03*
X1725000D02*
D03*
X2057500Y250000D02*
D03*
X3695000Y-1550000D02*
D03*
X3705000Y-1420001D02*
D03*
X3660000Y-1015000D02*
D03*
Y-915000D02*
D03*
X3895000Y-1420001D02*
D03*
X2130000Y0D02*
D03*
X3800000Y207000D02*
D03*
X3700000D02*
D03*
X3900000D02*
D03*
X5637000Y355000D02*
D03*
X7695000Y-3075000D02*
D03*
X8170000D02*
D03*
X6705000Y-1500000D02*
D03*
X6202500Y-925000D02*
D03*
X6997500Y-2325000D02*
D03*
Y-925000D02*
D03*
X7255000Y-590000D02*
D03*
X8645000Y-3075000D02*
D03*
X8550000Y-2295000D02*
D03*
X8700000D02*
D03*
X7285000Y-462500D02*
D03*
X7355000Y-590000D02*
D03*
X7485000Y-590000D02*
D03*
X7585000D02*
D03*
X7185000Y-20000D02*
D03*
X7592500Y240000D02*
D03*
X7600000Y-250000D02*
D03*
X7700000Y-150000D02*
D03*
Y-250000D02*
D03*
X7600000Y-150000D02*
D03*
X7592500Y110000D02*
D03*
X7940000Y300000D02*
D03*
X7840000D02*
D03*
X8070000D02*
D03*
X8170000D02*
D03*
X728320Y639931D02*
D03*
X825547Y542704D02*
D03*
X1012931Y517956D02*
D03*
X1228599Y493208D02*
D03*
X707107Y809637D02*
D03*
X882117Y839689D02*
D03*
X819000Y1660000D02*
D03*
X2800000Y1607500D02*
D03*
X6070999Y355000D02*
D03*
X6997500Y475000D02*
D03*
X6202500D02*
D03*
X3600000Y690000D02*
D03*
X3700000D02*
D03*
X3900000Y690000D02*
D03*
X4000000D02*
D03*
X4117436Y1724979D02*
D03*
X6400000Y1607500D02*
D03*
X3217436Y1724979D02*
D03*
X3467436Y1724980D02*
D03*
X629000Y1840000D02*
D03*
X3742500Y2462500D02*
D03*
X2995000Y3357500D02*
D03*
X3237500Y2685000D02*
D03*
X2825000Y3430000D02*
D03*
X3612500Y3375000D02*
D03*
X4367437Y1724979D02*
D03*
X3845000Y2575000D02*
D03*
X4579937Y1874979D02*
D03*
X6997500Y1875000D02*
D03*
X3862500Y3357500D02*
D03*
X3975000Y3355000D02*
D03*
X6425000Y3430000D02*
D03*
X6837500Y2685000D02*
D03*
X6595000Y3357500D02*
D03*
X7840000Y400000D02*
D03*
X7940000D02*
D03*
X7498000Y1346000D02*
D03*
X8070000Y400000D02*
D03*
X8170000D02*
D03*
X7498000Y1600000D02*
D03*
Y1727000D02*
D03*
X8325000Y1490000D02*
D03*
Y1380000D02*
D03*
X8677500Y1555000D02*
D03*
X9075000Y1540000D02*
D03*
X8975000D02*
D03*
X8325000Y1820000D02*
D03*
Y1710000D02*
D03*
Y1600000D02*
D03*
X8790000D02*
D03*
X8677500Y1755000D02*
D03*
Y1655000D02*
D03*
X8790000Y1700000D02*
D03*
X7498000Y1854000D02*
D03*
X7342499Y2462500D02*
D03*
X8280000Y2435000D02*
D03*
X7445000Y2575000D02*
D03*
X7212500Y3375000D02*
D03*
X7575000Y3355000D02*
D03*
X7462500Y3357500D02*
D03*
X8777500Y1855000D02*
D03*
X8877499D02*
D03*
X8677500D02*
D03*
X9200000Y2100000D02*
D03*
X8525000Y2180000D02*
D03*
X8645000Y2200000D02*
D03*
X9105000D02*
D03*
X3769937Y1964979D02*
D03*
X50000Y-2045000D02*
D03*
X-510885Y-860903D02*
D03*
X-6202500Y-475000D02*
D03*
X-6997500Y2325000D02*
D03*
X-578061Y-793728D02*
D03*
X-6202500Y925000D02*
D03*
X-6997500Y-1875000D02*
D03*
X-1305000Y1400000D02*
D03*
X-2692500Y752500D02*
D03*
X-2692500Y957500D02*
D03*
Y1162500D02*
D03*
X-2692500Y1367501D02*
D03*
X-571646Y359515D02*
D03*
X-487868Y346448D02*
D03*
X-500936Y430225D02*
D03*
X-417158Y417158D02*
D03*
X-376535Y-995253D02*
D03*
X-779000Y1307500D02*
D03*
X1060000Y290000D02*
D03*
X669000Y1307500D02*
D03*
X-55000Y1307500D02*
D03*
X577712Y-253449D02*
D03*
X983986Y-276881D02*
D03*
X913276Y-347591D02*
D03*
X997053Y-360658D02*
D03*
X-762968Y969443D02*
D03*
X-3375000Y1182500D02*
D03*
X-3374999Y1309500D02*
D03*
X-3374999Y1436500D02*
D03*
X-3570000Y1945000D02*
D03*
X-806066Y-28250D02*
D03*
X-889844Y41317D02*
D03*
Y-41317D02*
D03*
X-819133Y-112028D02*
D03*
X55000Y-1800000D02*
D03*
X155000Y-1700000D02*
D03*
X-50000Y-2045000D02*
D03*
X4320002Y1470000D02*
D03*
Y1570000D02*
D03*
X3650000D02*
D03*
Y1470000D02*
D03*
X3420000D02*
D03*
Y1570000D02*
D03*
X-4650000Y1205000D02*
D03*
X-4895000Y-100000D02*
D03*
X-4980000Y500000D02*
D03*
X7840000Y640000D02*
D03*
X7940000D02*
D03*
X7840000Y540000D02*
D03*
X7940000D02*
D03*
X-5107500Y300000D02*
D03*
X8200000Y2545000D02*
D03*
X8955000Y2017500D02*
D03*
X7232499Y2462500D02*
D03*
X3632499D02*
D03*
X-3967501D02*
D03*
X-7232499Y-2462500D02*
D03*
X5450000Y-1970000D02*
D03*
X5550000Y-1970000D02*
D03*
X5850000Y-1970000D02*
D03*
X5350000Y-1855000D02*
D03*
X5650000Y-1855000D02*
D03*
X5750000D02*
D03*
X5750000Y-1744999D02*
D03*
X5650000Y-2080000D02*
D03*
X5450000Y-1745000D02*
D03*
X5350000Y-1745000D02*
D03*
X5850000D02*
D03*
X5650000D02*
D03*
X5550000D02*
D03*
X5350000Y-2080000D02*
D03*
X5450000Y-2080000D02*
D03*
X5550000Y-2079999D02*
D03*
X5750000Y-2080000D02*
D03*
X5850000D02*
D03*
X1850000Y-1970000D02*
D03*
X1950000Y-1970000D02*
D03*
X2250000Y-1970000D02*
D03*
X1750000Y-1855000D02*
D03*
X2050000Y-1855000D02*
D03*
X2150000D02*
D03*
X2150000Y-1744999D02*
D03*
X2050000Y-2080000D02*
D03*
X1850000Y-1745000D02*
D03*
X1750000Y-1745000D02*
D03*
X2250000D02*
D03*
X2050000D02*
D03*
X1950000D02*
D03*
X1750000Y-2080000D02*
D03*
X1850000Y-2080000D02*
D03*
X1950000Y-2079999D02*
D03*
X2150000Y-2080000D02*
D03*
X2250000D02*
D03*
X-2150000Y-1970000D02*
D03*
X-2050000Y-1970000D02*
D03*
X-1750000Y-1970000D02*
D03*
X-2250000Y-1855000D02*
D03*
X-1950000Y-1855000D02*
D03*
X-1850000D02*
D03*
X-1850000Y-1744999D02*
D03*
X-1950000Y-2080000D02*
D03*
X-2150000Y-1745000D02*
D03*
X-2250000Y-1745000D02*
D03*
X-1750000D02*
D03*
X-1950000D02*
D03*
X-2050000D02*
D03*
X-2250000Y-2080000D02*
D03*
X-2150000Y-2080000D02*
D03*
X-2050000Y-2079999D02*
D03*
X-1850000Y-2080000D02*
D03*
X-1750000D02*
D03*
X-5750000Y-1970000D02*
D03*
X-5650000Y-1970000D02*
D03*
X-5350000Y-1970000D02*
D03*
X-5850000Y-1855000D02*
D03*
X-5550000Y-1855000D02*
D03*
X-5450000D02*
D03*
X-5450000Y-1744999D02*
D03*
X-5550000Y-2080000D02*
D03*
X-5850000Y-1745000D02*
D03*
X-5350000D02*
D03*
X-5550000D02*
D03*
X-5650000D02*
D03*
X-5850000Y-2080000D02*
D03*
X-5750000Y-2080000D02*
D03*
X-5650000Y-2079999D02*
D03*
X-5450000Y-2080000D02*
D03*
X-5350000D02*
D03*
X-5750000Y-1745000D02*
D03*
X7850000Y2350000D02*
D03*
X-6820000Y-3367500D02*
D03*
X-3220000D02*
D03*
X780000D02*
D03*
X4380000D02*
D03*
X6820000Y3367500D02*
D03*
X3220000D02*
D03*
X412500Y-1225000D02*
D03*
X-443710Y-928078D02*
D03*
X-4980000Y770000D02*
D03*
X-347591Y913275D02*
D03*
X41317Y889844D02*
D03*
X-417000Y2192500D02*
D03*
X307000Y2192500D02*
D03*
X307000Y1307500D02*
D03*
X-417000D02*
D03*
X669000Y2192500D02*
D03*
X-241525Y1019341D02*
D03*
X359515Y571646D02*
D03*
X346448Y487868D02*
D03*
X275737Y558579D02*
D03*
X288804Y642357D02*
D03*
X218094Y713067D02*
D03*
X134316Y700000D02*
D03*
X7707499Y240000D02*
D03*
X7478076Y110000D02*
D03*
X8975000Y-3095000D02*
D03*
X9100000Y-3075000D02*
D03*
X7284999Y240000D02*
D03*
X8400000Y-2295000D02*
D03*
X7695000Y-2975000D02*
D03*
X8170000D02*
D03*
X8645000D02*
D03*
X4955000Y370000D02*
D03*
Y470000D02*
D03*
X4000000Y410000D02*
D03*
X3900000D02*
D03*
X3700000D02*
D03*
X3600000D02*
D03*
X4054000Y207000D02*
D03*
X3546000D02*
D03*
X3805000Y-1550000D02*
D03*
X3940000Y-915000D02*
D03*
Y-1015000D02*
D03*
X-7672000Y-722499D02*
D03*
X-7275000Y-302499D02*
D03*
X-7857500Y-1352500D02*
D03*
X-7457500D02*
D03*
X-5105000Y-200000D02*
D03*
X-2147500Y292500D02*
D03*
X7830200Y-940000D02*
D03*
X8130200D02*
D03*
X8030200D02*
D03*
X7930200D02*
D03*
X-8500000Y2586000D02*
D03*
X-7800000D02*
D03*
X7940000Y120000D02*
D03*
X7840000D02*
D03*
X-780000Y3367500D02*
D03*
X-4380000D02*
D03*
X-2457500Y-425000D02*
D03*
X-119318Y-730682D02*
D03*
X-58931Y-791069D02*
D03*
X-6040000Y0D02*
D03*
X-6120000Y-65000D02*
D03*
Y65000D02*
D03*
X-6040000Y130000D02*
D03*
X-4249999Y-2612499D02*
D03*
X-4750000Y-3387499D02*
D03*
X-4500000Y-3387498D02*
D03*
X-4250000D02*
D03*
X-649999Y-2612499D02*
D03*
X-900000D02*
D03*
X-1150002Y-2612500D02*
D03*
X-1149999Y-3387499D02*
D03*
X-899999Y-3387498D02*
D03*
X-650000D02*
D03*
X3350001Y-2612499D02*
D03*
X3100000D02*
D03*
X3100000Y-3387498D02*
D03*
X3350000D02*
D03*
X6950001Y-2612499D02*
D03*
X6700000D02*
D03*
X6449998Y-2612500D02*
D03*
X6450000Y-3387499D02*
D03*
X6700000Y-3387498D02*
D03*
X6950000D02*
D03*
X4249999Y2612499D02*
D03*
X4500000Y2612499D02*
D03*
X4750002Y2612500D02*
D03*
X4749999Y3387499D02*
D03*
X4499999Y3387498D02*
D03*
X4250000D02*
D03*
X649999Y2612499D02*
D03*
X900000Y2612499D02*
D03*
X1150002Y2612500D02*
D03*
X1150000Y3387499D02*
D03*
X900000Y3387498D02*
D03*
X650000D02*
D03*
X-3350001Y2612499D02*
D03*
X-3100000Y2612499D02*
D03*
X-2849998Y2612500D02*
D03*
X-2850001Y3387499D02*
D03*
X-3100001Y3387498D02*
D03*
X-3350000D02*
D03*
X-4250001Y-3087500D02*
D03*
X-4750000Y-3087499D02*
D03*
X-4500001Y-3087500D02*
D03*
X-4500000Y-2912499D02*
D03*
X-4750001Y-2912500D02*
D03*
X-4250000Y-2912499D02*
D03*
X-650001Y-3087500D02*
D03*
X-1150000Y-3087499D02*
D03*
X-900001Y-3087500D02*
D03*
X-900000Y-2912499D02*
D03*
X-1150001Y-2912500D02*
D03*
X-650000Y-2912499D02*
D03*
X3349999Y-3087500D02*
D03*
X2850000Y-3087499D02*
D03*
X3099999Y-3087500D02*
D03*
X3100000Y-2912499D02*
D03*
X2849999Y-2912500D02*
D03*
X3350000Y-2912499D02*
D03*
X6949999Y-3087500D02*
D03*
X6450000Y-3087499D02*
D03*
X6699999Y-3087500D02*
D03*
X6700000Y-2912499D02*
D03*
X6449999Y-2912500D02*
D03*
X6950000Y-2912499D02*
D03*
X4250001Y3087500D02*
D03*
X4750000Y3087499D02*
D03*
X4500001Y3087500D02*
D03*
X4500000Y2912499D02*
D03*
X4750001Y2912500D02*
D03*
X4250000Y2912499D02*
D03*
X650001Y3087500D02*
D03*
X1150000Y3087499D02*
D03*
X900001Y3087500D02*
D03*
X900000Y2912499D02*
D03*
X1150001Y2912500D02*
D03*
X650000Y2912499D02*
D03*
X-3349999Y3087500D02*
D03*
X-2850000Y3087499D02*
D03*
X-3099999Y3087500D02*
D03*
X-3100000Y2912499D02*
D03*
X-2849999Y2912500D02*
D03*
X-3350000Y2912499D02*
D03*
X-6755000Y-2986500D02*
D03*
X-7295000D02*
D03*
Y-3113500D02*
D03*
X-6755000D02*
D03*
X-7295000Y-3240500D02*
D03*
X-3155000Y-2986500D02*
D03*
X-3695000D02*
D03*
Y-3113500D02*
D03*
X-3155000D02*
D03*
X-3695000Y-3240500D02*
D03*
X845000Y-2986500D02*
D03*
X305000D02*
D03*
Y-3113500D02*
D03*
X845000D02*
D03*
X305000Y-3240500D02*
D03*
X4445000Y-2986500D02*
D03*
X3905000D02*
D03*
Y-3113500D02*
D03*
X4445000D02*
D03*
X3905000Y-3240500D02*
D03*
X3625000Y-3355000D02*
D03*
X5350000Y2080000D02*
D03*
X5450000D02*
D03*
X5650000Y2079999D02*
D03*
X5750000Y2080000D02*
D03*
X5850000Y2080000D02*
D03*
X5650000Y1745000D02*
D03*
X5550000D02*
D03*
X5350000D02*
D03*
X5850000D02*
D03*
X5750000Y1745000D02*
D03*
X5550000Y2080000D02*
D03*
X5450000Y1745000D02*
D03*
X6755000Y2986500D02*
D03*
X5450000Y1855000D02*
D03*
X5550000D02*
D03*
X5850000Y1855000D02*
D03*
X7295000Y2986500D02*
D03*
X5350000Y1970000D02*
D03*
X5650000Y1970000D02*
D03*
X5750000Y1970000D02*
D03*
X7295000Y3113500D02*
D03*
X6755000D02*
D03*
X7295000Y3240500D02*
D03*
X1750000Y2080000D02*
D03*
X1850000D02*
D03*
X2050000Y2079999D02*
D03*
X2150000Y2080000D02*
D03*
X2250000Y2080000D02*
D03*
X2050000Y1745000D02*
D03*
X1950000D02*
D03*
X1750000D02*
D03*
X2250000D02*
D03*
X2150000Y1745000D02*
D03*
X1950000Y2080000D02*
D03*
X1850000Y1745000D02*
D03*
X3155000Y2986500D02*
D03*
X1850000Y1855000D02*
D03*
X1950000D02*
D03*
X2250000Y1855000D02*
D03*
X3695000Y2986500D02*
D03*
X1750000Y1970000D02*
D03*
X2050000Y1970000D02*
D03*
X2150000Y1970000D02*
D03*
X3695000Y3113500D02*
D03*
X3155000D02*
D03*
X3695000Y3240500D02*
D03*
X-2250000Y2080000D02*
D03*
X-2150000D02*
D03*
X-1950000Y2079999D02*
D03*
X-1850000Y2080000D02*
D03*
X-1750000Y2080000D02*
D03*
X-1950000Y1745000D02*
D03*
X-2050000D02*
D03*
X-2250000D02*
D03*
X-1750000D02*
D03*
X-1850000Y1745000D02*
D03*
X-2050000Y2080000D02*
D03*
X-2150000Y1745000D02*
D03*
X-845000Y2986500D02*
D03*
X-2150000Y1855000D02*
D03*
X-2050000D02*
D03*
X-1750000Y1855000D02*
D03*
X-305000Y2986500D02*
D03*
X-2250000Y1970000D02*
D03*
X-1950000Y1970000D02*
D03*
X-1850000Y1970000D02*
D03*
X-305000Y3113500D02*
D03*
X-845000D02*
D03*
X-272501Y3375000D02*
D03*
X7085000Y-20000D02*
D03*
X6845000Y1150000D02*
D03*
Y1250000D02*
D03*
Y1450000D02*
D03*
Y1550000D02*
D03*
Y1650000D02*
D03*
X6955000Y1350000D02*
D03*
X6955000Y1650000D02*
D03*
Y1550000D02*
D03*
Y1450000D02*
D03*
Y1250000D02*
D03*
Y1150000D02*
D03*
X7498000Y1473000D02*
D03*
X7902000Y1346000D02*
D03*
Y1473000D02*
D03*
Y1600000D02*
D03*
Y1727000D02*
D03*
Y1854000D02*
D03*
X-4200000Y-140000D02*
D03*
X-4300000D02*
D03*
X-6950000Y3387498D02*
D03*
X-6700000D02*
D03*
X-6450000Y3387499D02*
D03*
X-6449998Y2612500D02*
D03*
X-6700000Y2612499D02*
D03*
X-6950001Y2612499D02*
D03*
X8975000Y1260000D02*
D03*
X9075000D02*
D03*
X2130000Y-95000D02*
D03*
X-4445000Y3113500D02*
D03*
X-3905000D02*
D03*
X-5450000Y1970000D02*
D03*
X-5550000Y1970000D02*
D03*
X-5850000Y1970000D02*
D03*
X-3905000Y2986500D02*
D03*
X-5350000Y1855000D02*
D03*
X-5650000Y1855000D02*
D03*
X-5750000D02*
D03*
X-4445000Y2986500D02*
D03*
X-5750000Y1745000D02*
D03*
X-5650000Y2080000D02*
D03*
X-5450000Y1745000D02*
D03*
X-5350000Y1745000D02*
D03*
X-5850000D02*
D03*
X-5650000D02*
D03*
X-5550000D02*
D03*
X-5350000Y2080000D02*
D03*
X-5450000Y2080000D02*
D03*
X-5550000Y2079999D02*
D03*
X-5750000Y2080000D02*
D03*
X-5850000D02*
D03*
X-6950000Y2912499D02*
D03*
X-6449999Y2912500D02*
D03*
X-6700000Y2912499D02*
D03*
X-6699999Y3087500D02*
D03*
X-6450000Y3087499D02*
D03*
X-6949999Y3087500D02*
D03*
%TF.MD5,2d77637e85d1f849e153f76fe6b0ed9d*%
M02*
