%TF.GenerationSoftware,Altium Limited,Altium Designer,25.8.1 (18)*%
G04 Layer_Color=8388736*
%FSLAX45Y45*%
%MOMM*%
%TF.SameCoordinates,304ADD41-B96C-4BE1-A440-764D1465AFBB*%
%TF.FilePolarity,Negative*%
%TF.FileFunction,Soldermask,Top*%
%TF.Part,Single*%
G01*
G75*
%TA.AperFunction,SMDPad,CuDef*%
%ADD96R,0.95160X0.70160*%
G04:AMPARAMS|DCode=97|XSize=1.6516mm|YSize=0.7016mm|CornerRadius=0.1008mm|HoleSize=0mm|Usage=FLASHONLY|Rotation=180.000|XOffset=0mm|YOffset=0mm|HoleType=Round|Shape=RoundedRectangle|*
%AMROUNDEDRECTD97*
21,1,1.65160,0.50000,0,0,180.0*
21,1,1.45000,0.70160,0,0,180.0*
1,1,0.20160,-0.72500,0.25000*
1,1,0.20160,0.72500,0.25000*
1,1,0.20160,0.72500,-0.25000*
1,1,0.20160,-0.72500,-0.25000*
%
%ADD97ROUNDEDRECTD97*%
%ADD98R,0.90160X0.75160*%
%ADD99R,1.05160X2.25160*%
%ADD100R,0.60160X0.70160*%
%ADD101R,3.35160X2.25160*%
G04:AMPARAMS|DCode=102|XSize=1.6516mm|YSize=0.7016mm|CornerRadius=0.1008mm|HoleSize=0mm|Usage=FLASHONLY|Rotation=90.000|XOffset=0mm|YOffset=0mm|HoleType=Round|Shape=RoundedRectangle|*
%AMROUNDEDRECTD102*
21,1,1.65160,0.50000,0,0,90.0*
21,1,1.45000,0.70160,0,0,90.0*
1,1,0.20160,0.25000,0.72500*
1,1,0.20160,0.25000,-0.72500*
1,1,0.20160,-0.25000,-0.72500*
1,1,0.20160,-0.25000,0.72500*
%
%ADD102ROUNDEDRECTD102*%
%ADD103R,0.75160X1.45160*%
%ADD104R,0.75160X0.90160*%
%ADD105R,1.45160X0.55160*%
%ADD106R,1.10000X1.70000*%
%ADD107R,0.70160X0.50160*%
%ADD108R,0.70160X0.95160*%
G04:AMPARAMS|DCode=109|XSize=0.55mm|YSize=1.6mm|CornerRadius=0.1625mm|HoleSize=0mm|Usage=FLASHONLY|Rotation=270.000|XOffset=0mm|YOffset=0mm|HoleType=Round|Shape=RoundedRectangle|*
%AMROUNDEDRECTD109*
21,1,0.55000,1.27500,0,0,270.0*
21,1,0.22500,1.60000,0,0,270.0*
1,1,0.32500,-0.63750,-0.11250*
1,1,0.32500,-0.63750,0.11250*
1,1,0.32500,0.63750,0.11250*
1,1,0.32500,0.63750,-0.11250*
%
%ADD109ROUNDEDRECTD109*%
%ADD110R,1.74000X0.49000*%
G04:AMPARAMS|DCode=111|XSize=0.4016mm|YSize=1.3016mm|CornerRadius=0mm|HoleSize=0mm|Usage=FLASHONLY|Rotation=225.000|XOffset=0mm|YOffset=0mm|HoleType=Round|Shape=Rectangle|*
%AMROTATEDRECTD111*
4,1,4,-0.31820,0.60217,0.60217,-0.31820,0.31820,-0.60217,-0.60217,0.31820,-0.31820,0.60217,0.0*
%
%ADD111ROTATEDRECTD111*%

G04:AMPARAMS|DCode=112|XSize=0.7016mm|YSize=0.9516mm|CornerRadius=0mm|HoleSize=0mm|Usage=FLASHONLY|Rotation=45.000|XOffset=0mm|YOffset=0mm|HoleType=Round|Shape=Rectangle|*
%AMROTATEDRECTD112*
4,1,4,0.08839,-0.58449,-0.58449,0.08839,-0.08839,0.58449,0.58449,-0.08839,0.08839,-0.58449,0.0*
%
%ADD112ROTATEDRECTD112*%

G04:AMPARAMS|DCode=113|XSize=0.7016mm|YSize=0.9516mm|CornerRadius=0mm|HoleSize=0mm|Usage=FLASHONLY|Rotation=135.000|XOffset=0mm|YOffset=0mm|HoleType=Round|Shape=Rectangle|*
%AMROTATEDRECTD113*
4,1,4,0.58449,0.08839,-0.08839,-0.58449,-0.58449,-0.08839,0.08839,0.58449,0.58449,0.08839,0.0*
%
%ADD113ROTATEDRECTD113*%

G04:AMPARAMS|DCode=114|XSize=0.7516mm|YSize=0.9016mm|CornerRadius=0mm|HoleSize=0mm|Usage=FLASHONLY|Rotation=315.000|XOffset=0mm|YOffset=0mm|HoleType=Round|Shape=Rectangle|*
%AMROTATEDRECTD114*
4,1,4,-0.58450,-0.05303,0.05303,0.58450,0.58450,0.05303,-0.05303,-0.58450,-0.58450,-0.05303,0.0*
%
%ADD114ROTATEDRECTD114*%

G04:AMPARAMS|DCode=115|XSize=0.4016mm|YSize=1.3016mm|CornerRadius=0mm|HoleSize=0mm|Usage=FLASHONLY|Rotation=315.000|XOffset=0mm|YOffset=0mm|HoleType=Round|Shape=Rectangle|*
%AMROTATEDRECTD115*
4,1,4,-0.60217,-0.31820,0.31820,0.60217,0.60217,0.31820,-0.31820,-0.60217,-0.60217,-0.31820,0.0*
%
%ADD115ROTATEDRECTD115*%

%ADD116R,1.08160X1.02160*%
G04:AMPARAMS|DCode=117|XSize=1.0816mm|YSize=1.0216mm|CornerRadius=0mm|HoleSize=0mm|Usage=FLASHONLY|Rotation=135.000|XOffset=0mm|YOffset=0mm|HoleType=Round|Shape=Rectangle|*
%AMROTATEDRECTD117*
4,1,4,0.74360,-0.02121,0.02121,-0.74360,-0.74360,0.02121,-0.02121,0.74360,0.74360,-0.02121,0.0*
%
%ADD117ROTATEDRECTD117*%

%ADD118R,1.90160X1.40160*%
G04:AMPARAMS|DCode=119|XSize=0.74mm|YSize=1.24mm|CornerRadius=0.121mm|HoleSize=0mm|Usage=FLASHONLY|Rotation=270.000|XOffset=0mm|YOffset=0mm|HoleType=Round|Shape=RoundedRectangle|*
%AMROUNDEDRECTD119*
21,1,0.74000,0.99800,0,0,270.0*
21,1,0.49800,1.24000,0,0,270.0*
1,1,0.24200,-0.49900,-0.24900*
1,1,0.24200,-0.49900,0.24900*
1,1,0.24200,0.49900,0.24900*
1,1,0.24200,0.49900,-0.24900*
%
%ADD119ROUNDEDRECTD119*%
%ADD120R,1.65000X1.40000*%
%ADD121R,0.50160X0.61160*%
G04:AMPARAMS|DCode=122|XSize=0.34mm|YSize=0.705mm|CornerRadius=0.11mm|HoleSize=0mm|Usage=FLASHONLY|Rotation=180.000|XOffset=0mm|YOffset=0mm|HoleType=Round|Shape=RoundedRectangle|*
%AMROUNDEDRECTD122*
21,1,0.34000,0.48500,0,0,180.0*
21,1,0.12000,0.70500,0,0,180.0*
1,1,0.22000,-0.06000,0.24250*
1,1,0.22000,0.06000,0.24250*
1,1,0.22000,0.06000,-0.24250*
1,1,0.22000,-0.06000,-0.24250*
%
%ADD122ROUNDEDRECTD122*%
%ADD123R,0.63160X0.63160*%
%ADD124R,0.70160X1.25160*%
%ADD125R,2.28160X2.10160*%
%ADD126R,0.70160X1.40160*%
%ADD127R,1.40160X1.90160*%
%ADD128R,0.70160X1.20160*%
%ADD129R,1.06160X1.22160*%
%ADD130R,1.05160X1.20160*%
G04:AMPARAMS|DCode=131|XSize=0.3416mm|YSize=0.7016mm|CornerRadius=0.1008mm|HoleSize=0mm|Usage=FLASHONLY|Rotation=270.000|XOffset=0mm|YOffset=0mm|HoleType=Round|Shape=RoundedRectangle|*
%AMROUNDEDRECTD131*
21,1,0.34160,0.50000,0,0,270.0*
21,1,0.14000,0.70160,0,0,270.0*
1,1,0.20160,-0.25000,-0.07000*
1,1,0.20160,-0.25000,0.07000*
1,1,0.20160,0.25000,0.07000*
1,1,0.20160,0.25000,-0.07000*
%
%ADD131ROUNDEDRECTD131*%
G04:AMPARAMS|DCode=132|XSize=1.7816mm|YSize=1.7816mm|CornerRadius=0.1008mm|HoleSize=0mm|Usage=FLASHONLY|Rotation=270.000|XOffset=0mm|YOffset=0mm|HoleType=Round|Shape=RoundedRectangle|*
%AMROUNDEDRECTD132*
21,1,1.78160,1.58000,0,0,270.0*
21,1,1.58000,1.78160,0,0,270.0*
1,1,0.20160,-0.79000,-0.79000*
1,1,0.20160,-0.79000,0.79000*
1,1,0.20160,0.79000,0.79000*
1,1,0.20160,0.79000,-0.79000*
%
%ADD132ROUNDEDRECTD132*%
G04:AMPARAMS|DCode=133|XSize=0.3416mm|YSize=0.7016mm|CornerRadius=0.1008mm|HoleSize=0mm|Usage=FLASHONLY|Rotation=0.000|XOffset=0mm|YOffset=0mm|HoleType=Round|Shape=RoundedRectangle|*
%AMROUNDEDRECTD133*
21,1,0.34160,0.50000,0,0,0.0*
21,1,0.14000,0.70160,0,0,0.0*
1,1,0.20160,0.07000,-0.25000*
1,1,0.20160,-0.07000,-0.25000*
1,1,0.20160,-0.07000,0.25000*
1,1,0.20160,0.07000,0.25000*
%
%ADD133ROUNDEDRECTD133*%
G04:AMPARAMS|DCode=134|XSize=0.9516mm|YSize=0.8516mm|CornerRadius=0mm|HoleSize=0mm|Usage=FLASHONLY|Rotation=135.000|XOffset=0mm|YOffset=0mm|HoleType=Round|Shape=Rectangle|*
%AMROTATEDRECTD134*
4,1,4,0.63753,-0.03535,0.03535,-0.63753,-0.63753,0.03535,-0.03535,0.63753,0.63753,-0.03535,0.0*
%
%ADD134ROTATEDRECTD134*%

%ADD135R,2.86000X0.75000*%
%ADD136R,0.50160X0.70160*%
%ADD137R,0.61160X0.50160*%
%ADD138R,1.10160X1.70160*%
%ADD139R,0.70160X0.60160*%
%ADD140R,0.90160X0.90160*%
%ADD141R,0.40160X1.25160*%
%ADD142R,5.20160X2.00160*%
%ADD143R,0.90160X1.00160*%
G04:AMPARAMS|DCode=144|XSize=1.1016mm|YSize=1.9016mm|CornerRadius=0mm|HoleSize=0mm|Usage=FLASHONLY|Rotation=135.000|XOffset=0mm|YOffset=0mm|HoleType=Round|Shape=Rectangle|*
%AMROTATEDRECTD144*
4,1,4,1.06179,0.28284,-0.28284,-1.06179,-1.06179,-0.28284,0.28284,1.06179,1.06179,0.28284,0.0*
%
%ADD144ROTATEDRECTD144*%

%ADD145R,1.15160X1.50160*%
%ADD146R,0.61000X0.50000*%
%ADD147R,7.60160X1.90160*%
%TA.AperFunction,ComponentPad*%
%ADD148O,1.62400X1.03980*%
%TA.AperFunction,WasherPad*%
%ADD149C,10.10160*%
%TA.AperFunction,ComponentPad*%
%ADD150C,1.60000*%
%ADD151R,1.80000X2.50000*%
%ADD152R,2.50000X1.80000*%
%ADD153C,2.00000*%
%ADD154O,2.10160X3.10160*%
%ADD155C,1.90160*%
%ADD156C,1.60160*%
%ADD157O,2.50000X1.80000*%
%ADD158C,5.10160*%
%ADD159C,0.10160*%
%ADD160O,2.54160X3.70160*%
%ADD161O,1.80000X2.50000*%
%TA.AperFunction,WasherPad*%
%ADD162C,0.10160*%
G36*
X-8139995Y2740104D02*
X-8139006D01*
X-8138010Y2740006D01*
X-8137052Y2739715D01*
X-8135215Y2738954D01*
X-8134332Y2738482D01*
X-8133983Y2738196D01*
X-8133559Y2737848D01*
X-8132152Y2736441D01*
X-8131803Y2736016D01*
X-8131517Y2735668D01*
X-8131045Y2734785D01*
X-8130284Y2732947D01*
X-8129994Y2731990D01*
X-8129896Y2730994D01*
Y2729999D01*
Y2710271D01*
X-8129847Y2710153D01*
X-8129722Y2710102D01*
X-8129500Y2710080D01*
X-8129255Y2710031D01*
X-8129004Y2710007D01*
D01*
X-8128764Y2709934D01*
X-8128519Y2709885D01*
X-8128287Y2709789D01*
X-8128047Y2709716D01*
X-8127825Y2709597D01*
X-8127594Y2709502D01*
X-8127387Y2709363D01*
X-8127164Y2709244D01*
D01*
X-8126970Y2709085D01*
X-8126762Y2708946D01*
X-8126585Y2708769D01*
X-8126391Y2708610D01*
X-8126231Y2708415D01*
X-8126055Y2708239D01*
X-8125915Y2708030D01*
X-8125756Y2707836D01*
X-8125638Y2707615D01*
X-8125499Y2707407D01*
X-8125403Y2707175D01*
X-8125284Y2706953D01*
X-8125212Y2706714D01*
X-8125116Y2706482D01*
X-8125067Y2706236D01*
X-8124994Y2705996D01*
X-8124969Y2705746D01*
X-8124920Y2705501D01*
Y2705250D01*
X-8124896Y2705000D01*
Y2625000D01*
X-8124920Y2624749D01*
Y2624499D01*
X-8124969Y2624253D01*
X-8124994Y2624004D01*
X-8125067Y2623763D01*
X-8125116Y2623517D01*
X-8125212Y2623286D01*
X-8125284Y2623046D01*
X-8125403Y2622825D01*
X-8125499Y2622593D01*
X-8125638Y2622385D01*
X-8125756Y2622164D01*
X-8125915Y2621970D01*
X-8126055Y2621761D01*
X-8126231Y2621584D01*
X-8126391Y2621390D01*
X-8126585Y2621230D01*
X-8126762Y2621053D01*
X-8126970Y2620915D01*
X-8127164Y2620755D01*
X-8127387Y2620636D01*
X-8127594Y2620498D01*
X-8127825Y2620402D01*
X-8128047Y2620284D01*
D01*
X-8128287Y2620211D01*
X-8128519Y2620115D01*
X-8128764Y2620066D01*
X-8129004Y2619993D01*
D01*
X-8129255Y2619968D01*
X-8129500Y2619920D01*
X-8129722Y2619898D01*
X-8129847Y2619846D01*
X-8129896Y2619728D01*
Y2600000D01*
Y2599006D01*
X-8129994Y2598010D01*
X-8130284Y2597052D01*
X-8131045Y2595215D01*
X-8131517Y2594332D01*
X-8131803Y2593983D01*
X-8132152Y2593558D01*
X-8133559Y2592152D01*
X-8133983Y2591803D01*
X-8134332Y2591517D01*
X-8135215Y2591045D01*
X-8137052Y2590284D01*
X-8138010Y2589994D01*
X-8139006Y2589896D01*
X-8139995D01*
X-8140000Y2589895D01*
X-8160995D01*
X-8161991Y2589993D01*
X-8162948Y2590284D01*
X-8164786Y2591045D01*
X-8165668Y2591517D01*
X-8166017Y2591803D01*
X-8166442Y2592151D01*
X-8167849Y2593558D01*
X-8168197Y2593983D01*
X-8168483Y2594331D01*
X-8168955Y2595214D01*
X-8169716Y2597052D01*
X-8170007Y2598009D01*
X-8170105Y2599005D01*
Y2600000D01*
Y2619728D01*
X-8170154Y2619846D01*
X-8170278Y2619898D01*
X-8170500Y2619920D01*
X-8170745Y2619968D01*
X-8170996Y2619993D01*
D01*
X-8171236Y2620066D01*
X-8171482Y2620115D01*
X-8171714Y2620211D01*
X-8171954Y2620284D01*
D01*
X-8172175Y2620402D01*
X-8172406Y2620498D01*
X-8172615Y2620637D01*
X-8172836Y2620755D01*
D01*
X-8173030Y2620914D01*
X-8173238Y2621053D01*
X-8173415Y2621230D01*
X-8173610Y2621390D01*
X-8173768Y2621583D01*
X-8173946Y2621761D01*
X-8174087Y2621971D01*
X-8174245Y2622164D01*
X-8174362Y2622383D01*
X-8174502Y2622593D01*
X-8174599Y2622826D01*
X-8174716Y2623046D01*
X-8174789Y2623285D01*
X-8174885Y2623517D01*
X-8174934Y2623764D01*
X-8175007Y2624004D01*
X-8175031Y2624252D01*
X-8175080Y2624499D01*
Y2624752D01*
X-8175105Y2625000D01*
Y2705000D01*
X-8175080Y2705248D01*
Y2705501D01*
X-8175031Y2705748D01*
X-8175007Y2705996D01*
D01*
X-8174934Y2706236D01*
X-8174885Y2706482D01*
X-8174789Y2706714D01*
X-8174716Y2706953D01*
X-8174599Y2707173D01*
X-8174502Y2707407D01*
X-8174362Y2707617D01*
X-8174245Y2707836D01*
X-8174087Y2708028D01*
X-8173946Y2708239D01*
X-8173768Y2708416D01*
X-8173610Y2708610D01*
X-8173415Y2708769D01*
X-8173238Y2708946D01*
X-8173030Y2709085D01*
X-8172836Y2709244D01*
X-8172615Y2709363D01*
X-8172406Y2709502D01*
X-8172175Y2709598D01*
X-8171954Y2709716D01*
X-8171714Y2709789D01*
X-8171482Y2709885D01*
X-8171236Y2709934D01*
X-8170996Y2710007D01*
D01*
X-8170745Y2710031D01*
X-8170500Y2710080D01*
X-8170278Y2710102D01*
X-8170154Y2710153D01*
X-8170105Y2710271D01*
Y2730000D01*
Y2730994D01*
X-8170007Y2731990D01*
X-8169716Y2732948D01*
X-8168955Y2734785D01*
X-8168483Y2735668D01*
X-8168197Y2736017D01*
X-8167849Y2736442D01*
X-8166442Y2737848D01*
X-8166017Y2738197D01*
X-8165668Y2738483D01*
X-8164786Y2738955D01*
X-8162948Y2739716D01*
X-8161991Y2740006D01*
X-8160995Y2740105D01*
X-8140000D01*
X-8139995Y2740104D01*
D02*
G37*
D96*
X6722500Y2685000D02*
D03*
X3122500D02*
D03*
X4482437Y1724979D02*
D03*
X877500Y-2685000D02*
D03*
X4477500D02*
D03*
X-877500Y2685000D02*
D03*
X-4447500Y2465000D02*
D03*
X-4477500Y2685000D02*
D03*
X-7792500Y425000D02*
D03*
X-3122500Y-2685000D02*
D03*
X-6722500D02*
D03*
X-7342500Y-1352500D02*
D03*
X-7742500D02*
D03*
X-5052499Y1775000D02*
D03*
X-4937500D02*
D03*
X-4562500Y2465000D02*
D03*
X-1842500Y-227500D02*
D03*
X-57500Y-1590000D02*
D03*
X-5922500Y335000D02*
D03*
X2692500Y602500D02*
D03*
X2807500D02*
D03*
X-7212500Y-3375000D02*
D03*
X-7345000Y-2575000D02*
D03*
X-6837500Y-2685000D02*
D03*
X-3612500Y-3375000D02*
D03*
X-3237500Y-2685000D02*
D03*
X-3745000Y-2575000D02*
D03*
X-7415500Y-430000D02*
D03*
X-7907499Y425000D02*
D03*
X-5807500Y335000D02*
D03*
X-4992500Y300000D02*
D03*
X-2807500Y957500D02*
D03*
X2807500Y857500D02*
D03*
X387500Y-3375000D02*
D03*
X255000Y-2575000D02*
D03*
X-2807500Y1162500D02*
D03*
X-2572500Y-425000D02*
D03*
X-1727500Y-227500D02*
D03*
X2807500Y1062500D02*
D03*
X2807500Y1267501D02*
D03*
X-4362500Y2685000D02*
D03*
X-3987500Y3375000D02*
D03*
X-2807500Y752500D02*
D03*
X-2807500Y1367501D02*
D03*
X-3855000Y2575000D02*
D03*
X-255000D02*
D03*
X-762500Y2685000D02*
D03*
X-387501Y3375000D02*
D03*
X762500Y-2685000D02*
D03*
X3987500Y-3375000D02*
D03*
X3855000Y-2575000D02*
D03*
X4362500Y-2685000D02*
D03*
X297501Y-1225000D02*
D03*
X2057500Y250000D02*
D03*
X7592500Y240000D02*
D03*
Y110000D02*
D03*
X3217437Y1724979D02*
D03*
X3467436Y1724979D02*
D03*
X3745000Y2575000D02*
D03*
X3237500Y2685000D02*
D03*
X3612500Y3375000D02*
D03*
X4117437Y1724979D02*
D03*
X4367437Y1724979D02*
D03*
X6837500Y2685000D02*
D03*
X7212499Y3375000D02*
D03*
X7345000Y2575000D02*
D03*
X4232437Y1724979D02*
D03*
X3582436Y1724979D02*
D03*
X3332436D02*
D03*
X-7857500Y-1352500D02*
D03*
X-7457500D02*
D03*
X-7530499Y-430000D02*
D03*
Y-825000D02*
D03*
X-7415500D02*
D03*
X-7542500Y522500D02*
D03*
X-7657500D02*
D03*
X-2457500Y-425000D02*
D03*
X-5107500Y300000D02*
D03*
X3872500Y-3375000D02*
D03*
X7327499Y3375000D02*
D03*
X272500Y-3375000D02*
D03*
X3727500Y3375000D02*
D03*
X-3727500Y-3375000D02*
D03*
X-7327500D02*
D03*
X-3872501Y3375000D02*
D03*
X-272501D02*
D03*
X-7669500Y-825000D02*
D03*
X57500Y-1590000D02*
D03*
X7707500Y240000D02*
D03*
X1942500Y250000D02*
D03*
X7707500Y110000D02*
D03*
X-7669500Y-429999D02*
D03*
X-7784500D02*
D03*
Y-825000D02*
D03*
X412500Y-1225000D02*
D03*
X2692500Y857500D02*
D03*
Y1062500D02*
D03*
X2692500Y1267501D02*
D03*
X-2692500Y957500D02*
D03*
X-2692500Y752500D02*
D03*
Y1162500D02*
D03*
X-2692500Y1367501D02*
D03*
X3970000Y-2575000D02*
D03*
X7230000Y2575000D02*
D03*
X370000Y-2575000D02*
D03*
X3630000Y2575000D02*
D03*
X-3630000Y-2575000D02*
D03*
X-370000Y2575000D02*
D03*
X-7230000Y-2575000D02*
D03*
X-3970000Y2575000D02*
D03*
D97*
X6755000Y2859500D02*
D03*
X3155000D02*
D03*
X4445000Y-2859500D02*
D03*
X845000D02*
D03*
X-845000Y2859500D02*
D03*
X-4445000D02*
D03*
X-4480000Y2290500D02*
D03*
X-3155000Y-2859500D02*
D03*
X-6755000D02*
D03*
X-5020000Y2290500D02*
D03*
Y2163500D02*
D03*
Y2036500D02*
D03*
Y1909500D02*
D03*
X-4480000D02*
D03*
Y2036500D02*
D03*
Y2163500D02*
D03*
X-3530000Y1690500D02*
D03*
X-4070000Y1563500D02*
D03*
X-3530000D02*
D03*
X-3905000Y3240500D02*
D03*
X-7295000Y-3240500D02*
D03*
X-305000Y3240500D02*
D03*
X-3695000Y-3240500D02*
D03*
X3695000Y3240500D02*
D03*
X305000Y-3240500D02*
D03*
X7295000Y3240500D02*
D03*
X3905000Y-3240500D02*
D03*
X-3530000Y1436500D02*
D03*
Y1309500D02*
D03*
X-4070000Y1309500D02*
D03*
Y1436500D02*
D03*
Y1690500D02*
D03*
X-4445000Y3240500D02*
D03*
Y3113500D02*
D03*
X3905000Y-2859500D02*
D03*
Y-2986500D02*
D03*
Y-3113500D02*
D03*
X4445000Y-3240500D02*
D03*
Y-3113500D02*
D03*
Y-2986500D02*
D03*
X7295000Y2859500D02*
D03*
Y2986500D02*
D03*
Y3113500D02*
D03*
X6755000Y3240500D02*
D03*
Y3113500D02*
D03*
Y2986500D02*
D03*
X305000Y-2859500D02*
D03*
Y-2986500D02*
D03*
Y-3113500D02*
D03*
X845000Y-3240500D02*
D03*
Y-3113500D02*
D03*
Y-2986500D02*
D03*
X3695000Y2859500D02*
D03*
Y2986500D02*
D03*
Y3113500D02*
D03*
X3155000Y3240500D02*
D03*
Y3113500D02*
D03*
Y2986500D02*
D03*
X-3695000Y-2859500D02*
D03*
Y-2986500D02*
D03*
Y-3113500D02*
D03*
X-3155000Y-3240500D02*
D03*
Y-3113500D02*
D03*
Y-2986500D02*
D03*
X-305000Y2859500D02*
D03*
Y2986500D02*
D03*
Y3113500D02*
D03*
X-845000Y3240500D02*
D03*
Y3113500D02*
D03*
Y2986500D02*
D03*
X-7295000Y-2859500D02*
D03*
Y-2986500D02*
D03*
Y-3113500D02*
D03*
X-6755000Y-3240500D02*
D03*
Y-3113500D02*
D03*
Y-2986500D02*
D03*
X-3905000Y2859500D02*
D03*
Y2986500D02*
D03*
Y3113500D02*
D03*
X-4445000Y2986500D02*
D03*
D98*
X4669936Y1724979D02*
D03*
X300001Y-1122500D02*
D03*
X55000Y-1380000D02*
D03*
X-55000D02*
D03*
X-55000Y-1800000D02*
D03*
X-55000Y-1700000D02*
D03*
X-3265000Y1182500D02*
D03*
X707500Y-932500D02*
D03*
X707500Y-1057500D02*
D03*
Y-1182500D02*
D03*
X5045000Y270000D02*
D03*
X7394999Y240000D02*
D03*
X6845000Y1350000D02*
D03*
X707500Y-807500D02*
D03*
X2695000Y500000D02*
D03*
X-7342500Y-2462500D02*
D03*
X-3742500D02*
D03*
X-7417999Y-532500D02*
D03*
X-4995000Y-200000D02*
D03*
X257500Y-2462500D02*
D03*
X-3265000Y1309500D02*
D03*
X-3265000Y1436500D02*
D03*
X-3857500Y2462500D02*
D03*
X-257500D02*
D03*
X3857500Y-2462500D02*
D03*
X3695000Y-1550000D02*
D03*
X7795000Y-3075000D02*
D03*
X6705000Y-1500000D02*
D03*
X8270000Y-3075000D02*
D03*
X8745000Y-3075000D02*
D03*
X7285000Y-380000D02*
D03*
X7285000Y-20000D02*
D03*
X3742500Y2462500D02*
D03*
X3769937Y1874979D02*
D03*
X4669937D02*
D03*
X7342500Y2462500D02*
D03*
X9105000Y2200000D02*
D03*
X8645000D02*
D03*
X597500Y-807500D02*
D03*
X2805000Y500000D02*
D03*
X417000Y2192501D02*
D03*
X307000Y2192501D02*
D03*
X-4995000Y100000D02*
D03*
X-2955000Y-335000D02*
D03*
Y260000D02*
D03*
X-4995001Y200000D02*
D03*
X2805000Y1165000D02*
D03*
X4779936Y1724979D02*
D03*
X3769936D02*
D03*
X3879936D02*
D03*
X4779936Y1874979D02*
D03*
X3879937D02*
D03*
X7285000Y-140000D02*
D03*
X-7527999Y-532500D02*
D03*
X-7417999Y-722500D02*
D03*
X-7527999D02*
D03*
X-7545000Y-627500D02*
D03*
X-7655000D02*
D03*
X-7782000Y-722499D02*
D03*
X-7672000D02*
D03*
X-7655000Y420000D02*
D03*
X-7545000D02*
D03*
X6955000Y1550000D02*
D03*
X-2955000Y360000D02*
D03*
X-2845000D02*
D03*
Y260000D02*
D03*
X-2955000Y160000D02*
D03*
X-2845000D02*
D03*
X-2955000Y60000D02*
D03*
X-2845000D02*
D03*
X-2955000Y-40000D02*
D03*
X-2845000D02*
D03*
X-2955000Y-140000D02*
D03*
X-2845000D02*
D03*
X-2955000Y-240000D02*
D03*
X-2845000D02*
D03*
Y-335000D02*
D03*
X-5105000Y200000D02*
D03*
Y100000D02*
D03*
X-4995000Y0D02*
D03*
X-5105000D02*
D03*
Y-200000D02*
D03*
X-4995000Y-100000D02*
D03*
X-5105000D02*
D03*
X6595000Y-1500000D02*
D03*
X4230000Y-2687500D02*
D03*
X4120000D02*
D03*
X6970000Y2687500D02*
D03*
X7080000D02*
D03*
X630000Y-2687500D02*
D03*
X520000D02*
D03*
X3370000Y2687500D02*
D03*
X3480000D02*
D03*
X-3370000Y-2687500D02*
D03*
X-3480000D02*
D03*
X-6970000D02*
D03*
X-7080000D02*
D03*
X-55000Y1307500D02*
D03*
X55000D02*
D03*
X-778999Y1307500D02*
D03*
X-668999D02*
D03*
X669000Y2192500D02*
D03*
X779000D02*
D03*
X669000Y1307500D02*
D03*
X779000D02*
D03*
X-417000D02*
D03*
X-307000D02*
D03*
X-778999Y2192500D02*
D03*
X-669000D02*
D03*
X-417000Y2192500D02*
D03*
X-307000D02*
D03*
X307000Y1307500D02*
D03*
X417000D02*
D03*
X-55000Y2192500D02*
D03*
X55000Y2192500D02*
D03*
X-4380000Y3367500D02*
D03*
X-6820000Y-3367500D02*
D03*
X-780000Y3367500D02*
D03*
X-3220000Y-3367500D02*
D03*
X3220000Y3367500D02*
D03*
X780000Y-3367500D02*
D03*
X6820000Y3367500D02*
D03*
X4380000Y-3367500D02*
D03*
X-3375000Y1182500D02*
D03*
X-3374999Y1309500D02*
D03*
X-3374999Y1436500D02*
D03*
X-630000Y2687500D02*
D03*
X-520000D02*
D03*
X-4490000Y3367500D02*
D03*
X-4230000Y2687500D02*
D03*
X3805000Y-1550000D02*
D03*
X5155000Y270000D02*
D03*
X8755000Y2200000D02*
D03*
X8995000D02*
D03*
X5045000Y370000D02*
D03*
X5155000D02*
D03*
X5045000Y470000D02*
D03*
X5155000D02*
D03*
X6955000Y1150000D02*
D03*
X6845001D02*
D03*
X6955000Y1350000D02*
D03*
X6955000Y1250000D02*
D03*
X6845001D02*
D03*
X6955000Y1450000D02*
D03*
X6845001D02*
D03*
Y1550000D02*
D03*
X6955000Y1650000D02*
D03*
X6845001D02*
D03*
X55000Y-1480000D02*
D03*
X-55000D02*
D03*
X55000Y-1700000D02*
D03*
X55000Y-1800000D02*
D03*
X597500Y-932500D02*
D03*
X597500Y-1057500D02*
D03*
Y-1182500D02*
D03*
X7395000Y-260000D02*
D03*
X7285000D02*
D03*
X7285000Y240000D02*
D03*
X7394999Y-380000D02*
D03*
X7395000Y-20000D02*
D03*
X7394999Y-140000D02*
D03*
X-7782000Y-532499D02*
D03*
X-7672000D02*
D03*
X410000Y-1122500D02*
D03*
X7905000Y-3075000D02*
D03*
X8380000Y-3075000D02*
D03*
X8855000Y-3075000D02*
D03*
Y-2975000D02*
D03*
X8745000D02*
D03*
X8380001D02*
D03*
X8270000D02*
D03*
X7905000D02*
D03*
X7795000D02*
D03*
X2805000Y755000D02*
D03*
X2695000Y755000D02*
D03*
X2805000Y960000D02*
D03*
X2695001D02*
D03*
X2695000Y1165000D02*
D03*
X-2805000Y855000D02*
D03*
X-2695000D02*
D03*
X-2805000Y650000D02*
D03*
X-2695000D02*
D03*
X-2805000Y1060000D02*
D03*
X-2695000D02*
D03*
X-2805000Y1265000D02*
D03*
X-2695000D02*
D03*
X4490000Y-3367500D02*
D03*
X6710000Y3367500D02*
D03*
X890000Y-3367500D02*
D03*
X3110000Y3367500D02*
D03*
X-3110000Y-3367500D02*
D03*
X-890000Y3367500D02*
D03*
X-6710000Y-3367500D02*
D03*
X-4120000Y2687500D02*
D03*
X3967500Y-2462500D02*
D03*
X7232500Y2462500D02*
D03*
X367500Y-2462500D02*
D03*
X3632500Y2462500D02*
D03*
X-3632500Y-2462500D02*
D03*
X-367500Y2462500D02*
D03*
X-7232500Y-2462500D02*
D03*
X-3967500Y2462500D02*
D03*
X3857500Y-2687500D02*
D03*
X3967500D02*
D03*
X7342500Y2687500D02*
D03*
X7232500D02*
D03*
X257500Y-2687500D02*
D03*
X367500D02*
D03*
X3742500Y2687500D02*
D03*
X3632500D02*
D03*
X-3742500Y-2687500D02*
D03*
X-3632500D02*
D03*
X-257500Y2687500D02*
D03*
X-367500D02*
D03*
X-7342500Y-2687500D02*
D03*
X-7232500D02*
D03*
X-3857500Y2687500D02*
D03*
X-3967500D02*
D03*
D99*
X4550002Y1520000D02*
D03*
X3650000D02*
D03*
X3880000D02*
D03*
X3420000D02*
D03*
X4780002D02*
D03*
X4320002D02*
D03*
D100*
X4494936Y1874979D02*
D03*
X1930000Y-300000D02*
D03*
X4354936Y1874979D02*
D03*
X3594937D02*
D03*
X3454936D02*
D03*
X2070000Y-300000D02*
D03*
X7410000Y110000D02*
D03*
X7270000D02*
D03*
D101*
X4550002Y980000D02*
D03*
X3650000Y980000D02*
D03*
D102*
X-7790500Y270000D02*
D03*
X-7409500Y-270000D02*
D03*
X-7790500D02*
D03*
X-7663500D02*
D03*
X-7536500D02*
D03*
X-7409500Y270000D02*
D03*
X-7536500D02*
D03*
X-7663500D02*
D03*
D103*
X-7305000Y-1207500D02*
D03*
X-7705000D02*
D03*
X-457000Y1660000D02*
D03*
X819000Y1840001D02*
D03*
X457000Y1840000D02*
D03*
X629000Y1660000D02*
D03*
X-629000Y1840000D02*
D03*
X-267000Y1840000D02*
D03*
X95000Y1840000D02*
D03*
X-819000Y1660000D02*
D03*
X267000Y1660000D02*
D03*
X-95000D02*
D03*
X-267000Y1660000D02*
D03*
X629000Y1840000D02*
D03*
X-95000Y1840000D02*
D03*
X819000Y1660000D02*
D03*
X-819000Y1840000D02*
D03*
X-457000D02*
D03*
X95000Y1660000D02*
D03*
X-629001Y1660000D02*
D03*
X457000Y1660000D02*
D03*
X267000Y1840000D02*
D03*
X362000Y2055000D02*
D03*
X724000Y2055000D02*
D03*
X-362001Y1445000D02*
D03*
X724000Y1445000D02*
D03*
X-0D02*
D03*
X-724001Y1445000D02*
D03*
X-362000Y2055000D02*
D03*
X-724000Y2055000D02*
D03*
X0D02*
D03*
X362000Y1445000D02*
D03*
X-7495000Y-1207500D02*
D03*
X-7895000D02*
D03*
X-7800000Y-992500D02*
D03*
X-7400000D02*
D03*
D104*
X-4250000Y1755000D02*
D03*
Y1645000D02*
D03*
X-4350000Y1755000D02*
D03*
Y1645000D02*
D03*
X7112499Y-3054998D02*
D03*
Y-2944999D02*
D03*
X4087499Y3054999D02*
D03*
Y2944999D02*
D03*
X3512498Y-3054999D02*
D03*
Y-2944999D02*
D03*
X487499Y3054999D02*
D03*
Y2944999D02*
D03*
X-487501Y-3054998D02*
D03*
Y-2944999D02*
D03*
X-3512501Y3054999D02*
D03*
Y2944999D02*
D03*
X-4087501Y-3054998D02*
D03*
Y-2944999D02*
D03*
X-7112501Y3054999D02*
D03*
Y2944999D02*
D03*
X8025000Y-3305001D02*
D03*
X7550000Y-3305000D02*
D03*
X8500000D02*
D03*
X7730000Y2555000D02*
D03*
X-7575000Y-3355000D02*
D03*
X-6425000Y-3430000D02*
D03*
X-3975000Y-3355000D02*
D03*
X-7427500Y550000D02*
D03*
X-7222499Y550000D02*
D03*
X-2825000Y-3430000D02*
D03*
X25000Y-3355000D02*
D03*
X-8360000Y2610000D02*
D03*
X-7940000D02*
D03*
X-4550000Y1095000D02*
D03*
X-4775000Y3430000D02*
D03*
X-3625000Y3355000D02*
D03*
X-1175000Y3430000D02*
D03*
X-25000Y3355000D02*
D03*
X1175000Y-3430000D02*
D03*
X3625000Y-3355000D02*
D03*
X4775000Y-3430000D02*
D03*
X8700000Y-2395000D02*
D03*
X2825000Y3430000D02*
D03*
X3975000Y3355000D02*
D03*
X6425000Y3430000D02*
D03*
X7575000Y3355000D02*
D03*
X8525000Y2180000D02*
D03*
X8360000Y2435000D02*
D03*
X542999Y2310000D02*
D03*
Y2200000D02*
D03*
X-7282500Y55001D02*
D03*
Y-54999D02*
D03*
X-7222499Y440000D02*
D03*
X-7427500Y440000D02*
D03*
X-4550000Y1205000D02*
D03*
X3625000Y-2745000D02*
D03*
Y-2855000D02*
D03*
X7575000Y2745000D02*
D03*
Y2855000D02*
D03*
X25000Y-2745000D02*
D03*
Y-2855000D02*
D03*
X3975000Y2745000D02*
D03*
Y2855000D02*
D03*
X-3975000Y-2745000D02*
D03*
Y-2855000D02*
D03*
X-7575000Y-2745000D02*
D03*
Y-2855000D02*
D03*
X181000Y1300000D02*
D03*
Y1190000D02*
D03*
X905000Y2200001D02*
D03*
Y2310000D02*
D03*
X-181000Y1299999D02*
D03*
Y1190000D02*
D03*
X905000Y1300000D02*
D03*
X905000Y1190000D02*
D03*
X-543000Y2200000D02*
D03*
Y2310000D02*
D03*
X-181000Y2200000D02*
D03*
Y2310000D02*
D03*
X-543000Y1300000D02*
D03*
X-543000Y1190000D02*
D03*
X181000Y2200000D02*
D03*
Y2310000D02*
D03*
X543000Y1300000D02*
D03*
Y1189999D02*
D03*
X-25000Y2745000D02*
D03*
Y2855000D02*
D03*
X-8000001Y-1410000D02*
D03*
X8100000Y2545000D02*
D03*
Y2655000D02*
D03*
X8525000Y2070000D02*
D03*
X8275000Y1945000D02*
D03*
Y2055000D02*
D03*
X8200000Y2655000D02*
D03*
Y2545000D02*
D03*
X-7940000Y2720000D02*
D03*
X-8360000D02*
D03*
X8975000Y-3305000D02*
D03*
Y-3195000D02*
D03*
X8360000Y2325001D02*
D03*
X8460000Y2325000D02*
D03*
Y2435000D02*
D03*
X8700000Y-2505000D02*
D03*
X7730000Y2445000D02*
D03*
X8400000Y-2395000D02*
D03*
Y-2505000D02*
D03*
X-8000001Y-1520000D02*
D03*
X7550000Y-3195000D02*
D03*
X8025000D02*
D03*
X8500000D02*
D03*
X4775000Y-3320000D02*
D03*
X6425000Y3320000D02*
D03*
X1175000Y-3320000D02*
D03*
X2825000Y3320000D02*
D03*
X-2825000Y-3320000D02*
D03*
X-1175000Y3320000D02*
D03*
X-6425000Y-3320000D02*
D03*
X-4775000Y3320000D02*
D03*
X5450000Y-1745000D02*
D03*
Y-1855000D02*
D03*
X5750000Y1745000D02*
D03*
Y1855000D02*
D03*
X1850000Y-1745000D02*
D03*
Y-1855000D02*
D03*
X2150000Y1745000D02*
D03*
Y1855000D02*
D03*
X-2150000Y-1745000D02*
D03*
Y-1855000D02*
D03*
X-1850000Y1745000D02*
D03*
Y1855000D02*
D03*
X-5750000Y-1745000D02*
D03*
Y-1855000D02*
D03*
X-5450000Y1745000D02*
D03*
Y1855000D02*
D03*
X5550000Y-1745000D02*
D03*
Y-1855000D02*
D03*
X5650000Y1745000D02*
D03*
Y1855000D02*
D03*
X1950000Y-1745000D02*
D03*
Y-1855000D02*
D03*
X2050000Y1745000D02*
D03*
Y1855000D02*
D03*
X-2050000Y-1745000D02*
D03*
Y-1855000D02*
D03*
X-1950000Y1745000D02*
D03*
Y1855000D02*
D03*
X-5650000Y-1745000D02*
D03*
Y-1855000D02*
D03*
X-5550000Y1745000D02*
D03*
Y1855000D02*
D03*
X3625000Y-3245000D02*
D03*
X7575000Y3245000D02*
D03*
X25000Y-3245000D02*
D03*
X3975000Y3245000D02*
D03*
X-3975000Y-3245000D02*
D03*
X-25000Y3245000D02*
D03*
X-7575000Y-3245000D02*
D03*
X-3625000Y3245000D02*
D03*
X5850000Y-2080000D02*
D03*
Y-1970000D02*
D03*
X5350000Y2080000D02*
D03*
Y1970000D02*
D03*
X2250000Y-2080000D02*
D03*
Y-1970000D02*
D03*
X1750000Y2080000D02*
D03*
Y1970000D02*
D03*
X-1750000Y-2080000D02*
D03*
Y-1970000D02*
D03*
X-2250000Y2080000D02*
D03*
Y1970000D02*
D03*
X-5350000Y-2080000D02*
D03*
Y-1970000D02*
D03*
X-5850000Y2080000D02*
D03*
Y1970000D02*
D03*
X5450000Y-2080000D02*
D03*
Y-1970000D02*
D03*
X5750000Y2080000D02*
D03*
Y1970000D02*
D03*
X1850000Y-2080000D02*
D03*
Y-1970000D02*
D03*
X2150000Y2080000D02*
D03*
Y1970000D02*
D03*
X-2150000Y-2080000D02*
D03*
Y-1970000D02*
D03*
X-1850000Y2080000D02*
D03*
Y1970000D02*
D03*
X-5750000Y-2080000D02*
D03*
Y-1970000D02*
D03*
X-5450000Y2080000D02*
D03*
Y1970000D02*
D03*
X5650000Y-1745000D02*
D03*
Y-1855000D02*
D03*
X5550000Y1745000D02*
D03*
Y1855000D02*
D03*
X2050000Y-1745000D02*
D03*
Y-1855000D02*
D03*
X1950000Y1745000D02*
D03*
Y1855000D02*
D03*
X-1950000Y-1745000D02*
D03*
Y-1855000D02*
D03*
X-2050000Y1745000D02*
D03*
Y1855000D02*
D03*
X-5550000Y-1745000D02*
D03*
Y-1855000D02*
D03*
X-5650000Y1745000D02*
D03*
Y1855000D02*
D03*
X5650000Y-2080000D02*
D03*
Y-1970000D02*
D03*
X5550000Y2080000D02*
D03*
Y1970000D02*
D03*
X2050000Y-2080000D02*
D03*
Y-1970000D02*
D03*
X1950000Y2080000D02*
D03*
Y1970000D02*
D03*
X-1950000Y-2080000D02*
D03*
Y-1970000D02*
D03*
X-2050000Y2080000D02*
D03*
Y1970000D02*
D03*
X-5550000Y-2080000D02*
D03*
Y-1970000D02*
D03*
X-5650000Y2080000D02*
D03*
Y1970000D02*
D03*
X5750000Y-1745000D02*
D03*
Y-1855000D02*
D03*
X5450000Y1745000D02*
D03*
Y1855000D02*
D03*
X2150000Y-1745000D02*
D03*
Y-1855000D02*
D03*
X1850000Y1745000D02*
D03*
Y1855000D02*
D03*
X-1850000Y-1745000D02*
D03*
Y-1855000D02*
D03*
X-2150000Y1745000D02*
D03*
Y1855000D02*
D03*
X-5450000Y-1745000D02*
D03*
Y-1855000D02*
D03*
X-5750000Y1745000D02*
D03*
Y1855000D02*
D03*
X5350000Y-1745000D02*
D03*
Y-1855000D02*
D03*
X5850000Y1745000D02*
D03*
Y1855000D02*
D03*
X1750000Y-1745000D02*
D03*
Y-1855000D02*
D03*
X2250000Y1745000D02*
D03*
Y1855000D02*
D03*
X-2250000Y-1745000D02*
D03*
Y-1855000D02*
D03*
X-1750000Y1745000D02*
D03*
Y1855000D02*
D03*
X-5850000Y-1745000D02*
D03*
Y-1855000D02*
D03*
X-5350000Y1745000D02*
D03*
Y1855000D02*
D03*
X-3625000Y2855000D02*
D03*
Y2745000D02*
D03*
X5550000Y-2080000D02*
D03*
Y-1970000D02*
D03*
X5650000Y2080000D02*
D03*
Y1970000D02*
D03*
X1950000Y-2080000D02*
D03*
Y-1970000D02*
D03*
X2050000Y2080000D02*
D03*
Y1970000D02*
D03*
X-2050000Y-2080000D02*
D03*
Y-1970000D02*
D03*
X-1950000Y2080000D02*
D03*
Y1970000D02*
D03*
X-5650000Y-2080000D02*
D03*
Y-1970000D02*
D03*
X-5550000Y2080000D02*
D03*
Y1970000D02*
D03*
X5350000Y-2080000D02*
D03*
Y-1970000D02*
D03*
X5850000Y2080000D02*
D03*
Y1970000D02*
D03*
X1750000Y-2080000D02*
D03*
Y-1970000D02*
D03*
X2250000Y2080000D02*
D03*
Y1970000D02*
D03*
X-2250000Y-2080000D02*
D03*
Y-1970000D02*
D03*
X-1750000Y2080000D02*
D03*
Y1970000D02*
D03*
X-5850000Y-2080000D02*
D03*
Y-1970000D02*
D03*
X-5350000Y2080000D02*
D03*
Y1970000D02*
D03*
X5850000Y-1745000D02*
D03*
Y-1855000D02*
D03*
X5350000Y1745000D02*
D03*
Y1855000D02*
D03*
X2250000Y-1745000D02*
D03*
Y-1855000D02*
D03*
X1750000Y1745000D02*
D03*
Y1855000D02*
D03*
X-1750000Y-1745000D02*
D03*
Y-1855000D02*
D03*
X-2250000Y1745000D02*
D03*
Y1855000D02*
D03*
X-5350000Y-1745000D02*
D03*
Y-1855000D02*
D03*
X-5850000Y1745000D02*
D03*
Y1855000D02*
D03*
X5750000Y-2080000D02*
D03*
Y-1970000D02*
D03*
X5450000Y2080000D02*
D03*
Y1970000D02*
D03*
X2150000Y-2080000D02*
D03*
Y-1970000D02*
D03*
X1850000Y2080000D02*
D03*
Y1970000D02*
D03*
X-1850000Y-2080000D02*
D03*
Y-1970000D02*
D03*
X-2150000Y2080000D02*
D03*
Y1970000D02*
D03*
X-5450000Y-2080000D02*
D03*
Y-1970000D02*
D03*
X-5750000Y2080000D02*
D03*
Y1970000D02*
D03*
D105*
X9072500Y1877500D02*
D03*
Y1942500D02*
D03*
Y2007500D02*
D03*
Y2072500D02*
D03*
X8677500D02*
D03*
Y2007500D02*
D03*
Y1942500D02*
D03*
Y1877500D02*
D03*
D106*
X310000Y-1380000D02*
D03*
Y-2020000D02*
D03*
X690000Y-1380000D02*
D03*
Y-2020000D02*
D03*
X-690000D02*
D03*
Y-1380000D02*
D03*
X-310000D02*
D03*
Y-2020000D02*
D03*
D107*
X170000Y-1395000D02*
D03*
X-170000Y-1325000D02*
D03*
X170000D02*
D03*
X-8850000Y2950000D02*
D03*
X-7450000D02*
D03*
X5981000Y355000D02*
D03*
X5727000D02*
D03*
X-8850000Y2880000D02*
D03*
X-7450000D02*
D03*
X5727000Y285000D02*
D03*
X5981000D02*
D03*
X-170000Y-1395000D02*
D03*
D108*
X-6400000Y-1492500D02*
D03*
X-2800000D02*
D03*
X-4800000Y1492500D02*
D03*
X-1200000D02*
D03*
X-3375000Y1684500D02*
D03*
X1200000Y-1492500D02*
D03*
X4800000D02*
D03*
X2800000Y1492500D02*
D03*
X6400000D02*
D03*
X-7462500Y-3357500D02*
D03*
X-6595000D02*
D03*
X-3862500D02*
D03*
X-7275000Y-187500D02*
D03*
X-7325000Y552500D02*
D03*
X-6400000Y-1607500D02*
D03*
X-2995000Y-3357500D02*
D03*
X-2800000Y-1607500D02*
D03*
X137500Y-3357500D02*
D03*
X-4800000Y1607500D02*
D03*
X-4030000Y2060000D02*
D03*
X-4605000Y3357500D02*
D03*
X-3375000Y1569500D02*
D03*
X-1200000Y1607500D02*
D03*
X-3570000Y2060000D02*
D03*
X-3737500Y3357500D02*
D03*
X-1005000Y3357500D02*
D03*
X-137500Y3357500D02*
D03*
X1005000Y-3357500D02*
D03*
X3737500D02*
D03*
X4605000D02*
D03*
X4800000Y-1607500D02*
D03*
X1200000D02*
D03*
X2275000Y57500D02*
D03*
X2800000Y1607500D02*
D03*
X6400000D02*
D03*
X2995000Y3357500D02*
D03*
X3862500Y3357500D02*
D03*
X6595000Y3357500D02*
D03*
X7462500Y3357500D02*
D03*
X-7325000Y437500D02*
D03*
X3737500Y-2742500D02*
D03*
Y-2857500D02*
D03*
X4605000Y-3107500D02*
D03*
Y-2992500D02*
D03*
X3737500Y-3107500D02*
D03*
Y-2992500D02*
D03*
X7462500Y2742500D02*
D03*
Y2857500D02*
D03*
X6595000Y3107500D02*
D03*
Y2992500D02*
D03*
X7462500Y3107500D02*
D03*
Y2992500D02*
D03*
X137500Y-2742500D02*
D03*
Y-2857500D02*
D03*
X1005000Y-3107500D02*
D03*
Y-2992500D02*
D03*
X137500Y-3107500D02*
D03*
Y-2992500D02*
D03*
X3862500Y2742500D02*
D03*
Y2857500D02*
D03*
X2995000Y3107500D02*
D03*
Y2992500D02*
D03*
X3862500Y3107500D02*
D03*
Y2992500D02*
D03*
X-3862500Y-2742500D02*
D03*
Y-2857500D02*
D03*
X-2995000Y-3107500D02*
D03*
Y-2992500D02*
D03*
X-3862500Y-3107500D02*
D03*
Y-2992500D02*
D03*
X-1005000Y3107500D02*
D03*
Y2992500D02*
D03*
X-7462500Y-2742500D02*
D03*
Y-2857500D02*
D03*
X-6595000Y-3107500D02*
D03*
Y-2992500D02*
D03*
X-7462500Y-3107500D02*
D03*
Y-2992500D02*
D03*
X-7275000Y-302499D02*
D03*
X-3570000Y1945000D02*
D03*
X-137500Y2742500D02*
D03*
Y2857500D02*
D03*
Y3107500D02*
D03*
Y2992500D02*
D03*
X-4605000Y3242500D02*
D03*
Y3107500D02*
D03*
Y2992500D02*
D03*
X-3737500D02*
D03*
Y3107500D02*
D03*
X7905000Y-142500D02*
D03*
Y-257500D02*
D03*
X2275000Y-57500D02*
D03*
X8400000Y1942500D02*
D03*
Y2057500D02*
D03*
X-4030000Y1945000D02*
D03*
X3737500Y-3242500D02*
D03*
X7462500Y3242500D02*
D03*
X137500Y-3242500D02*
D03*
X3862500Y3242500D02*
D03*
X-3862500Y-3242500D02*
D03*
X-137500Y3242500D02*
D03*
X-7462500Y-3242500D02*
D03*
X-3737500Y3242500D02*
D03*
X4605000Y-3242500D02*
D03*
X6595000Y3242500D02*
D03*
X1005000Y-3242500D02*
D03*
X2995000Y3242500D02*
D03*
X-2995000Y-3242500D02*
D03*
X-1005000Y3242500D02*
D03*
X-6595000Y-3242500D02*
D03*
X-3737500Y2857500D02*
D03*
Y2742500D02*
D03*
D109*
X-2010000Y-227500D02*
D03*
X-2590000Y292500D02*
D03*
X-2010000Y-292500D02*
D03*
Y-162500D02*
D03*
Y-97500D02*
D03*
Y-32500D02*
D03*
Y32500D02*
D03*
Y97500D02*
D03*
Y162500D02*
D03*
Y227500D02*
D03*
Y292500D02*
D03*
X-2590000Y-292500D02*
D03*
Y-227500D02*
D03*
Y-162500D02*
D03*
Y-97500D02*
D03*
Y-32500D02*
D03*
Y32500D02*
D03*
Y97500D02*
D03*
Y162500D02*
D03*
Y227500D02*
D03*
D110*
X-5880000Y195000D02*
D03*
Y-195000D02*
D03*
X-5320000D02*
D03*
Y-130000D02*
D03*
Y-65000D02*
D03*
Y0D02*
D03*
Y65000D02*
D03*
Y130000D02*
D03*
Y195000D02*
D03*
X-5880000Y-130000D02*
D03*
Y-65000D02*
D03*
Y0D02*
D03*
Y65000D02*
D03*
Y130000D02*
D03*
D111*
X-936915Y159099D02*
D03*
X972270Y-123744D02*
D03*
X-795493Y300520D02*
D03*
X-901559Y194454D02*
D03*
X-441941Y654072D02*
D03*
X936915Y-159099D02*
D03*
X229810Y-866205D02*
D03*
X-512652Y583362D02*
D03*
X-123743Y972270D02*
D03*
X-159099Y936915D02*
D03*
X-194454Y901559D02*
D03*
X-229809Y866204D02*
D03*
X-265165Y830849D02*
D03*
X-300520Y795493D02*
D03*
X-335875Y760138D02*
D03*
X-371230Y724783D02*
D03*
X-406586Y689428D02*
D03*
X-477296Y618717D02*
D03*
X-548007Y548007D02*
D03*
X-583362Y512652D02*
D03*
X-618717Y477296D02*
D03*
X-654072Y441941D02*
D03*
X-689428Y406586D02*
D03*
X-724783Y371230D02*
D03*
X-760138Y335875D02*
D03*
X-830849Y265165D02*
D03*
X-866204Y229809D02*
D03*
X-972270Y123743D02*
D03*
X123744Y-972270D02*
D03*
X159099Y-936915D02*
D03*
X194454Y-901560D02*
D03*
X265165Y-830849D02*
D03*
X300520Y-795494D02*
D03*
X335875Y-760139D02*
D03*
X371231Y-724783D02*
D03*
X406586Y-689428D02*
D03*
X441941Y-654073D02*
D03*
X477296Y-618718D02*
D03*
X512652Y-583362D02*
D03*
X548007Y-548007D02*
D03*
X583362Y-512652D02*
D03*
X618718Y-477296D02*
D03*
X654073Y-441941D02*
D03*
X689428Y-406586D02*
D03*
X724783Y-371231D02*
D03*
X760139Y-335875D02*
D03*
X795494Y-300520D02*
D03*
X830849Y-265165D02*
D03*
X866205Y-229810D02*
D03*
X901560Y-194454D02*
D03*
D112*
X-1073034Y295218D02*
D03*
X1108389Y-259863D02*
D03*
X-1154351Y376535D02*
D03*
X-829083Y701803D02*
D03*
X-751301Y779585D02*
D03*
X-673519Y857367D02*
D03*
X-595738Y935149D02*
D03*
X1189707Y-341180D02*
D03*
X-669984Y698268D02*
D03*
X-747766Y620486D02*
D03*
X-592202Y776050D02*
D03*
X-514421Y853832D02*
D03*
D113*
X-259863Y-1108389D02*
D03*
X295218Y1073034D02*
D03*
X-648771Y-719481D02*
D03*
X-730088Y-800798D02*
D03*
X-341180Y-1189707D02*
D03*
X624022Y906864D02*
D03*
X376535Y1154351D02*
D03*
X825547Y542704D02*
D03*
X1228599Y493208D02*
D03*
X1012931Y517956D02*
D03*
X882117Y839689D02*
D03*
X1309916Y574525D02*
D03*
X963434Y921007D02*
D03*
X542705Y825547D02*
D03*
X906864Y624021D02*
D03*
X931613Y436639D02*
D03*
D114*
X-653667Y-1003685D02*
D03*
X-519317Y-1138035D02*
D03*
X-720842Y-936509D02*
D03*
X-586492Y-1070860D02*
D03*
X1083641Y443710D02*
D03*
X-441535Y-1060253D02*
D03*
X-643060Y-858728D02*
D03*
X-575885Y-925903D02*
D03*
X-508710Y-993078D02*
D03*
X1005859Y365928D02*
D03*
D115*
X-123743Y-972270D02*
D03*
X-512652Y-583362D02*
D03*
X159099Y936915D02*
D03*
X-159099Y-936915D02*
D03*
X-548007Y-548007D02*
D03*
X194454Y901559D02*
D03*
X-229809Y-866205D02*
D03*
X-194454Y-901560D02*
D03*
X406586Y689428D02*
D03*
X936915Y159099D02*
D03*
X972270Y123743D02*
D03*
X830849Y265165D02*
D03*
X724783Y371230D02*
D03*
X689428Y406586D02*
D03*
X901560Y194454D02*
D03*
X866205Y229809D02*
D03*
X795494Y300520D02*
D03*
X760139Y335875D02*
D03*
X654073Y441941D02*
D03*
X618718Y477296D02*
D03*
X583362Y512652D02*
D03*
X548007Y548007D02*
D03*
X512652Y583362D02*
D03*
X477296Y618717D02*
D03*
X441941Y654072D02*
D03*
X371231Y724783D02*
D03*
X335875Y760138D02*
D03*
X300520Y795493D02*
D03*
X265165Y830849D02*
D03*
X229810Y866204D02*
D03*
X123744Y972270D02*
D03*
X-972270Y-123744D02*
D03*
X-936915Y-159099D02*
D03*
X-901559Y-194454D02*
D03*
X-866204Y-229810D02*
D03*
X-830849Y-265165D02*
D03*
X-795493Y-300520D02*
D03*
X-760138Y-335875D02*
D03*
X-724783Y-371231D02*
D03*
X-689428Y-406586D02*
D03*
X-654072Y-441941D02*
D03*
X-618717Y-477296D02*
D03*
X-583362Y-512652D02*
D03*
X-477296Y-618718D02*
D03*
X-441941Y-654073D02*
D03*
X-406586Y-689428D02*
D03*
X-371230Y-724783D02*
D03*
X-335875Y-760139D02*
D03*
X-300520Y-795494D02*
D03*
X-265165Y-830849D02*
D03*
D116*
X-4160000Y2081499D02*
D03*
X-8500000Y2744000D02*
D03*
X-8500000Y2586000D02*
D03*
X-7800000Y2744000D02*
D03*
X-7800000Y2586000D02*
D03*
X-4160000Y1923500D02*
D03*
D117*
X-863378Y869034D02*
D03*
X-651246Y1081166D02*
D03*
X-762968Y969443D02*
D03*
X-975101Y757311D02*
D03*
D118*
X1675000Y-140000D02*
D03*
X-4250000Y140000D02*
D03*
X-8700000Y2455000D02*
D03*
X-7600000D02*
D03*
X1675000Y140000D02*
D03*
X7305000Y-590000D02*
D03*
X7535000Y-590000D02*
D03*
X7890000Y400000D02*
D03*
X8120000D02*
D03*
X3650000Y690000D02*
D03*
X3950000Y690000D02*
D03*
X9025000Y1540000D02*
D03*
X-7600000Y2735000D02*
D03*
X-8700000D02*
D03*
X7890000Y120000D02*
D03*
X7305000Y-870000D02*
D03*
X7535000D02*
D03*
X-4250000Y-140000D02*
D03*
X-2850000Y3087500D02*
D03*
Y3387500D02*
D03*
X-6700000Y3387499D02*
D03*
X-4500001Y-2612499D02*
D03*
X-3100000Y3387499D02*
D03*
X-900001Y-2612499D02*
D03*
X900000Y3387499D02*
D03*
X3099998Y-2612500D02*
D03*
X4500000Y3387499D02*
D03*
X6699999Y-2612499D02*
D03*
X-6950000Y3387499D02*
D03*
X-4750000Y-2612499D02*
D03*
X-3350000Y3387499D02*
D03*
X-1150000Y-2612499D02*
D03*
X650000Y3387499D02*
D03*
X2849998Y-2612500D02*
D03*
X4250000Y3387499D02*
D03*
X6450000Y-2612499D02*
D03*
X-6450000Y3387500D02*
D03*
X-4250001Y-2612498D02*
D03*
X-650001D02*
D03*
X1150000Y3387500D02*
D03*
X3349998Y-2612499D02*
D03*
X4750000Y3387500D02*
D03*
X6949999Y-2612498D02*
D03*
X-6450000Y2612499D02*
D03*
X-4250000Y-3387499D02*
D03*
X-2850000Y2612499D02*
D03*
X-650000Y-3387499D02*
D03*
X1150000Y2612499D02*
D03*
X3349998Y-3387500D02*
D03*
X4750000Y2612499D02*
D03*
X6950000Y-3387499D02*
D03*
X-6950001Y2612499D02*
D03*
X-4750001Y-3387499D02*
D03*
X-3350001Y2612499D02*
D03*
X-1150002Y-3387499D02*
D03*
X649999Y2612499D02*
D03*
X2849997Y-3387500D02*
D03*
X4249999Y2612499D02*
D03*
X6449999Y-3387499D02*
D03*
X-6700000Y2612499D02*
D03*
X-4500000Y-3387499D02*
D03*
X-3100000Y2612499D02*
D03*
X-900000Y-3387499D02*
D03*
X900000Y2612499D02*
D03*
X3099998Y-3387500D02*
D03*
X4500000Y2612499D02*
D03*
X6700000Y-3387499D02*
D03*
X4775000Y-2850000D02*
D03*
Y-3150000D02*
D03*
X6425000Y2850000D02*
D03*
Y3150000D02*
D03*
X1175000Y-2850000D02*
D03*
Y-3150000D02*
D03*
X2825000Y2850000D02*
D03*
Y3150000D02*
D03*
X-2825000Y-2850000D02*
D03*
Y-3150000D02*
D03*
X-1175000Y2850000D02*
D03*
Y3150000D02*
D03*
X-6425000Y-2850000D02*
D03*
Y-3150000D02*
D03*
X-4775000Y2850000D02*
D03*
Y3150000D02*
D03*
X6700000Y-3087499D02*
D03*
X4500000Y2912499D02*
D03*
X3099998Y-3087500D02*
D03*
X900000Y2912499D02*
D03*
X-900000Y-3087499D02*
D03*
X-3100000Y2912499D02*
D03*
X-4500000Y-3087499D02*
D03*
X-6700000Y2912499D02*
D03*
X6449999Y-3087500D02*
D03*
X4249999Y2912499D02*
D03*
X2849997Y-3087500D02*
D03*
X649999Y2912499D02*
D03*
X-1150002Y-3087500D02*
D03*
X-3350001Y2912499D02*
D03*
X-4750001Y-3087500D02*
D03*
X-6950001Y2912499D02*
D03*
X6950000Y-3087499D02*
D03*
X4750000Y2912499D02*
D03*
X3349998Y-3087500D02*
D03*
X1150000Y2912499D02*
D03*
X-650000Y-3087499D02*
D03*
X-2850000Y2912499D02*
D03*
X-4250000Y-3087499D02*
D03*
X-6450000Y2912499D02*
D03*
X6949999Y-2912498D02*
D03*
X4750000Y3087500D02*
D03*
X3349998Y-2912499D02*
D03*
X1150000Y3087500D02*
D03*
X-650001Y-2912498D02*
D03*
X-4250001D02*
D03*
X-6450000Y3087500D02*
D03*
X6450000Y-2912499D02*
D03*
X4250000Y3087499D02*
D03*
X2849998Y-2912500D02*
D03*
X650000Y3087499D02*
D03*
X-1150000Y-2912499D02*
D03*
X-3350000Y3087499D02*
D03*
X-4750000Y-2912499D02*
D03*
X-6950000Y3087499D02*
D03*
X6699999Y-2912499D02*
D03*
X4500000Y3087499D02*
D03*
X3099998Y-2912500D02*
D03*
X900000Y3087499D02*
D03*
X-900001Y-2912499D02*
D03*
X-3100000Y3087499D02*
D03*
X-4500001Y-2912499D02*
D03*
X-6700000Y3087499D02*
D03*
X3650000Y410000D02*
D03*
X3950000D02*
D03*
X8120000Y120000D02*
D03*
X9025000Y1260000D02*
D03*
D119*
X1870000Y-95000D02*
D03*
X2130000Y0D02*
D03*
Y-95000D02*
D03*
Y95000D02*
D03*
X1870000D02*
D03*
D120*
X-6997500Y-2325000D02*
D03*
X-6202500D02*
D03*
X-6997500Y-925000D02*
D03*
Y475000D02*
D03*
X-6202500Y-925000D02*
D03*
Y475000D02*
D03*
X-6997500Y1875000D02*
D03*
X-6202500D02*
D03*
X6997500Y-2325000D02*
D03*
X6202500D02*
D03*
Y-925000D02*
D03*
X6997500D02*
D03*
X6202500Y475000D02*
D03*
X6997500D02*
D03*
X6202500Y1875000D02*
D03*
X6997500D02*
D03*
X6202500Y2325000D02*
D03*
X6997500D02*
D03*
Y-1875000D02*
D03*
X6202500D02*
D03*
X-6202500D02*
D03*
X-6997500D02*
D03*
X-6202500Y-475000D02*
D03*
X-6997500D02*
D03*
X6997500D02*
D03*
X6202500D02*
D03*
X6997500Y925000D02*
D03*
X6202500D02*
D03*
X-6202500Y925000D02*
D03*
X-6997500D02*
D03*
X-6202500Y2325000D02*
D03*
X-6997500D02*
D03*
D121*
X50000Y-2045000D02*
D03*
X7800000Y-3185000D02*
D03*
X8275000Y-3185001D02*
D03*
X8750000Y-3185000D02*
D03*
X-50000Y-2045000D02*
D03*
X0Y-1915000D02*
D03*
X7900000Y-3185000D02*
D03*
X7850000Y-3315000D02*
D03*
X8375000Y-3185000D02*
D03*
X8325000Y-3315000D02*
D03*
X8850000Y-3185000D02*
D03*
X8800000Y-3315000D02*
D03*
D122*
X-8100000Y2623250D02*
D03*
X-8050000D02*
D03*
X-8100000Y2706750D02*
D03*
X-8050000D02*
D03*
X-8200000D02*
D03*
Y2623250D02*
D03*
X-8250000D02*
D03*
Y2706750D02*
D03*
D123*
X-4405000Y1100000D02*
D03*
X-4295000Y1150000D02*
D03*
X-4405000Y1200000D02*
D03*
D124*
X-8470000Y2922900D02*
D03*
X-7830000D02*
D03*
X-7910000D02*
D03*
X-8390000D02*
D03*
D125*
X-8661000Y3373400D02*
D03*
Y2980400D02*
D03*
X-7639000D02*
D03*
Y3373400D02*
D03*
D126*
X-3800000Y2107500D02*
D03*
X-3705000Y1897499D02*
D03*
X-3895000Y1897500D02*
D03*
D127*
X3660000Y-965000D02*
D03*
X8790000Y1650000D02*
D03*
Y1420000D02*
D03*
Y1190000D02*
D03*
X3940000Y-965000D02*
D03*
X8510000Y1190000D02*
D03*
Y1420000D02*
D03*
Y1650000D02*
D03*
D128*
X3705000Y-1420001D02*
D03*
X3895000D02*
D03*
Y-1160001D02*
D03*
X3800000D02*
D03*
X3705000D02*
D03*
X3800000Y-1420000D02*
D03*
D129*
Y207000D02*
D03*
X3546000D02*
D03*
X4054000D02*
D03*
Y-707000D02*
D03*
X3800000D02*
D03*
X3546000D02*
D03*
D130*
X8550000Y-2382500D02*
D03*
Y-2517500D02*
D03*
D131*
X7510000Y-275000D02*
D03*
Y-125000D02*
D03*
X7790000D02*
D03*
Y-175000D02*
D03*
Y-225000D02*
D03*
Y-275000D02*
D03*
X7510000Y-225000D02*
D03*
Y-175000D02*
D03*
D132*
X7650000Y-200000D02*
D03*
D133*
X7675000Y-340000D02*
D03*
X7725000D02*
D03*
Y-60000D02*
D03*
X7625000Y-340000D02*
D03*
X7575000D02*
D03*
Y-60000D02*
D03*
X7625000D02*
D03*
X7675000D02*
D03*
D134*
X707107Y809637D02*
D03*
X728320Y639931D02*
D03*
X802566Y714178D02*
D03*
X632860Y735391D02*
D03*
D135*
X7498000Y1346000D02*
D03*
Y1600000D02*
D03*
Y1727000D02*
D03*
Y1854000D02*
D03*
X7902000D02*
D03*
Y1727000D02*
D03*
Y1600000D02*
D03*
X7498000Y1473000D02*
D03*
X7902000D02*
D03*
Y1346000D02*
D03*
D136*
X8235000Y1490000D02*
D03*
Y1380000D02*
D03*
Y1710000D02*
D03*
Y1600000D02*
D03*
Y1820000D02*
D03*
X8165000Y1710000D02*
D03*
X8165000Y1380000D02*
D03*
X8165000Y1490000D02*
D03*
X8165000Y1600000D02*
D03*
Y1820000D02*
D03*
D137*
X8245000Y2430000D02*
D03*
Y2330000D02*
D03*
X8115000Y2380000D02*
D03*
D138*
X-4660000Y770000D02*
D03*
Y500000D02*
D03*
X-4980000D02*
D03*
Y770000D02*
D03*
D139*
X7150000Y-130000D02*
D03*
Y-270000D02*
D03*
X7850000Y2570000D02*
D03*
X7850000Y2430000D02*
D03*
X7980000Y2570000D02*
D03*
Y2430000D02*
D03*
X4400000Y270000D02*
D03*
Y129999D02*
D03*
X3200000Y130000D02*
D03*
Y270000D02*
D03*
X4250000Y270000D02*
D03*
X4250000Y129999D02*
D03*
X3350000Y130000D02*
D03*
Y270000D02*
D03*
D140*
X9100000Y-3175000D02*
D03*
Y-3325000D02*
D03*
X7675000Y-3175000D02*
D03*
Y-3325000D02*
D03*
X8150000D02*
D03*
Y-3175000D02*
D03*
X8625000Y-3325000D02*
D03*
Y-3175000D02*
D03*
D141*
X-8075000Y2922900D02*
D03*
X-8175000D02*
D03*
X-8125000D02*
D03*
X-8225000D02*
D03*
X-8275000D02*
D03*
X-8025000D02*
D03*
X-8325000D02*
D03*
X-7975000D02*
D03*
D142*
X7980200Y-940000D02*
D03*
Y-520000D02*
D03*
D143*
X7000000Y-1150000D02*
D03*
X6650000D02*
D03*
X6560000Y-1350000D02*
D03*
X6740000D02*
D03*
X6910000D02*
D03*
X7090000D02*
D03*
D144*
X1173798Y608112D02*
D03*
X997021Y784889D02*
D03*
D145*
X-8352501Y-1465000D02*
D03*
X-8147501D02*
D03*
X-8752501D02*
D03*
X-8547501D02*
D03*
X-9152501D02*
D03*
X-8947501D02*
D03*
X-9552501D02*
D03*
X-9347501D02*
D03*
X-9952501D02*
D03*
X-9747501D02*
D03*
D146*
X8285500Y2650000D02*
D03*
Y2550000D02*
D03*
X8414500Y2600000D02*
D03*
D147*
X9600000Y1120000D02*
D03*
Y1680000D02*
D03*
D148*
X-6550000Y-1423000D02*
D03*
X-2950000D02*
D03*
X-4650000Y1423000D02*
D03*
X-1050000D02*
D03*
X4650000Y-1423000D02*
D03*
X2950000Y1423000D02*
D03*
X6550000D02*
D03*
X1050000Y-1423000D02*
D03*
X-6550000Y-1677000D02*
D03*
X-2950000D02*
D03*
X-4650000Y1676999D02*
D03*
X-1050000D02*
D03*
X4650000Y-1677000D02*
D03*
X2950000Y1676999D02*
D03*
X6550000D02*
D03*
X1050000Y-1677000D02*
D03*
Y-1550000D02*
D03*
X2950000Y1550000D02*
D03*
X6550000D02*
D03*
X-4650000D02*
D03*
X-1050000D02*
D03*
X-6550000Y-1550000D02*
D03*
X-2950000D02*
D03*
X4650000D02*
D03*
D149*
X-9600000Y-2550000D02*
D03*
Y2550000D02*
D03*
X9600000Y-2550000D02*
D03*
Y2550000D02*
D03*
D150*
X-8096000Y-2950000D02*
D03*
X-8604000D02*
D03*
X-8350000D02*
D03*
D151*
X4965000Y0D02*
D03*
D152*
X8150000Y-2323000D02*
D03*
D153*
X9800000Y-1625000D02*
D03*
Y-1375000D02*
D03*
D154*
X7799500Y2933999D02*
D03*
X8500500D02*
D03*
D155*
X8375000Y3182999D02*
D03*
X7925000D02*
D03*
D156*
X-3927000Y127000D02*
D03*
Y889000D02*
D03*
Y-381000D02*
D03*
X-3927000Y-635000D02*
D03*
Y635000D02*
D03*
X-3927000Y-889000D02*
D03*
Y381000D02*
D03*
Y-127000D02*
D03*
X-3673000Y127000D02*
D03*
Y-889000D02*
D03*
X-3673000Y-635000D02*
D03*
X-3673000Y-381000D02*
D03*
Y-127000D02*
D03*
Y381000D02*
D03*
X-3673000Y635000D02*
D03*
X-3673000Y889000D02*
D03*
D157*
X8150000Y-2577000D02*
D03*
D158*
X-9925000Y-650000D02*
D03*
X-9300000D02*
D03*
X-8675000D02*
D03*
Y650000D02*
D03*
X-9300000D02*
D03*
X-9925000D02*
D03*
X8675000Y-650000D02*
D03*
X9300000D02*
D03*
X9925000D02*
D03*
Y650000D02*
D03*
X9300000D02*
D03*
X8675000D02*
D03*
D159*
X-9300000Y0D02*
D03*
X9300000D02*
D03*
D160*
X6144000Y-3000000D02*
D03*
X5600000D02*
D03*
X5056000D02*
D03*
Y3000000D02*
D03*
X5600000D02*
D03*
X6144000D02*
D03*
X2544000Y-3000000D02*
D03*
X2000000D02*
D03*
X1456000D02*
D03*
Y3000000D02*
D03*
X2000000D02*
D03*
X2544000D02*
D03*
X-1456000Y-3000000D02*
D03*
X-2000000D02*
D03*
X-2544000D02*
D03*
Y3000000D02*
D03*
X-2000000D02*
D03*
X-1456000D02*
D03*
X-5056000Y-3000000D02*
D03*
X-5600000D02*
D03*
X-6144000D02*
D03*
Y3000000D02*
D03*
X-5600000D02*
D03*
X-5056000D02*
D03*
D161*
X6235000Y0D02*
D03*
X5981000D02*
D03*
X5727000D02*
D03*
X5473000D02*
D03*
X5219000D02*
D03*
D162*
X-5600000Y800000D02*
D03*
Y-800000D02*
D03*
X-2000000D02*
D03*
Y800000D02*
D03*
X5600000D02*
D03*
X2000000D02*
D03*
Y-800000D02*
D03*
X5600000D02*
D03*
%TF.MD5,8f6b2b2c13b5f3cf2c765cbaf3afaf05*%
M02*
