%TF.GenerationSoftware,Altium Limited,Altium Designer,25.8.1 (18)*%
G04 Layer_Color=8421504*
%FSLAX45Y45*%
%MOMM*%
%TF.SameCoordinates,304ADD41-B96C-4BE1-A440-764D1465AFBB*%
%TF.FilePolarity,Positive*%
%TF.FileFunction,Paste,Top*%
%TF.Part,Single*%
G01*
G75*
%TA.AperFunction,SMDPad,CuDef*%
%ADD13R,0.85000X0.60000*%
G04:AMPARAMS|DCode=14|XSize=1.55mm|YSize=0.6mm|CornerRadius=0.05mm|HoleSize=0mm|Usage=FLASHONLY|Rotation=180.000|XOffset=0mm|YOffset=0mm|HoleType=Round|Shape=RoundedRectangle|*
%AMROUNDEDRECTD14*
21,1,1.55000,0.50000,0,0,180.0*
21,1,1.45000,0.60000,0,0,180.0*
1,1,0.10000,-0.72500,0.25000*
1,1,0.10000,0.72500,0.25000*
1,1,0.10000,0.72500,-0.25000*
1,1,0.10000,-0.72500,-0.25000*
%
%ADD14ROUNDEDRECTD14*%
%ADD15R,0.80000X0.65000*%
%ADD16R,0.95000X2.15000*%
%ADD17R,0.50000X0.60000*%
%ADD18R,3.25000X2.15000*%
G04:AMPARAMS|DCode=19|XSize=1.55mm|YSize=0.6mm|CornerRadius=0.05mm|HoleSize=0mm|Usage=FLASHONLY|Rotation=90.000|XOffset=0mm|YOffset=0mm|HoleType=Round|Shape=RoundedRectangle|*
%AMROUNDEDRECTD19*
21,1,1.55000,0.50000,0,0,90.0*
21,1,1.45000,0.60000,0,0,90.0*
1,1,0.10000,0.25000,0.72500*
1,1,0.10000,0.25000,-0.72500*
1,1,0.10000,-0.25000,-0.72500*
1,1,0.10000,-0.25000,0.72500*
%
%ADD19ROUNDEDRECTD19*%
%ADD20R,0.65000X1.35000*%
%ADD21R,0.65000X0.80000*%
%ADD22R,1.35000X0.45000*%
%ADD23R,1.00000X1.60000*%
%ADD24R,0.60000X0.40000*%
%ADD25R,0.60000X0.85000*%
G04:AMPARAMS|DCode=26|XSize=0.45mm|YSize=1.5mm|CornerRadius=0.1125mm|HoleSize=0mm|Usage=FLASHONLY|Rotation=270.000|XOffset=0mm|YOffset=0mm|HoleType=Round|Shape=RoundedRectangle|*
%AMROUNDEDRECTD26*
21,1,0.45000,1.27500,0,0,270.0*
21,1,0.22500,1.50000,0,0,270.0*
1,1,0.22500,-0.63750,-0.11250*
1,1,0.22500,-0.63750,0.11250*
1,1,0.22500,0.63750,0.11250*
1,1,0.22500,0.63750,-0.11250*
%
%ADD26ROUNDEDRECTD26*%
G04:AMPARAMS|DCode=28|XSize=0.3mm|YSize=1.2mm|CornerRadius=0mm|HoleSize=0mm|Usage=FLASHONLY|Rotation=225.000|XOffset=0mm|YOffset=0mm|HoleType=Round|Shape=Rectangle|*
%AMROTATEDRECTD28*
4,1,4,-0.31820,0.53033,0.53033,-0.31820,0.31820,-0.53033,-0.53033,0.31820,-0.31820,0.53033,0.0*
%
%ADD28ROTATEDRECTD28*%

G04:AMPARAMS|DCode=29|XSize=0.6mm|YSize=0.85mm|CornerRadius=0mm|HoleSize=0mm|Usage=FLASHONLY|Rotation=45.000|XOffset=0mm|YOffset=0mm|HoleType=Round|Shape=Rectangle|*
%AMROTATEDRECTD29*
4,1,4,0.08839,-0.51265,-0.51265,0.08839,-0.08839,0.51265,0.51265,-0.08839,0.08839,-0.51265,0.0*
%
%ADD29ROTATEDRECTD29*%

G04:AMPARAMS|DCode=30|XSize=0.6mm|YSize=0.85mm|CornerRadius=0mm|HoleSize=0mm|Usage=FLASHONLY|Rotation=135.000|XOffset=0mm|YOffset=0mm|HoleType=Round|Shape=Rectangle|*
%AMROTATEDRECTD30*
4,1,4,0.51265,0.08839,-0.08839,-0.51265,-0.51265,-0.08839,0.08839,0.51265,0.51265,0.08839,0.0*
%
%ADD30ROTATEDRECTD30*%

G04:AMPARAMS|DCode=31|XSize=0.65mm|YSize=0.8mm|CornerRadius=0mm|HoleSize=0mm|Usage=FLASHONLY|Rotation=315.000|XOffset=0mm|YOffset=0mm|HoleType=Round|Shape=Rectangle|*
%AMROTATEDRECTD31*
4,1,4,-0.51265,-0.05303,0.05303,0.51265,0.51265,0.05303,-0.05303,-0.51265,-0.51265,-0.05303,0.0*
%
%ADD31ROTATEDRECTD31*%

G04:AMPARAMS|DCode=32|XSize=0.3mm|YSize=1.2mm|CornerRadius=0mm|HoleSize=0mm|Usage=FLASHONLY|Rotation=315.000|XOffset=0mm|YOffset=0mm|HoleType=Round|Shape=Rectangle|*
%AMROTATEDRECTD32*
4,1,4,-0.53033,-0.31820,0.31820,0.53033,0.53033,0.31820,-0.31820,-0.53033,-0.53033,-0.31820,0.0*
%
%ADD32ROTATEDRECTD32*%

%ADD33R,0.98000X0.92000*%
G04:AMPARAMS|DCode=34|XSize=0.98mm|YSize=0.92mm|CornerRadius=0mm|HoleSize=0mm|Usage=FLASHONLY|Rotation=135.000|XOffset=0mm|YOffset=0mm|HoleType=Round|Shape=Rectangle|*
%AMROTATEDRECTD34*
4,1,4,0.67175,-0.02121,0.02121,-0.67175,-0.67175,0.02121,-0.02121,0.67175,0.67175,-0.02121,0.0*
%
%ADD34ROTATEDRECTD34*%

%ADD35R,1.80000X1.30000*%
G04:AMPARAMS|DCode=36|XSize=0.6mm|YSize=1.1mm|CornerRadius=0.051mm|HoleSize=0mm|Usage=FLASHONLY|Rotation=270.000|XOffset=0mm|YOffset=0mm|HoleType=Round|Shape=RoundedRectangle|*
%AMROUNDEDRECTD36*
21,1,0.60000,0.99800,0,0,270.0*
21,1,0.49800,1.10000,0,0,270.0*
1,1,0.10200,-0.49900,-0.24900*
1,1,0.10200,-0.49900,0.24900*
1,1,0.10200,0.49900,0.24900*
1,1,0.10200,0.49900,-0.24900*
%
%ADD36ROUNDEDRECTD36*%
%ADD37R,1.55000X1.30000*%
%ADD38R,0.40000X0.51000*%
G04:AMPARAMS|DCode=39|XSize=0.2mm|YSize=0.565mm|CornerRadius=0.04mm|HoleSize=0mm|Usage=FLASHONLY|Rotation=180.000|XOffset=0mm|YOffset=0mm|HoleType=Round|Shape=RoundedRectangle|*
%AMROUNDEDRECTD39*
21,1,0.20000,0.48500,0,0,180.0*
21,1,0.12000,0.56500,0,0,180.0*
1,1,0.08000,-0.06000,0.24250*
1,1,0.08000,0.06000,0.24250*
1,1,0.08000,0.06000,-0.24250*
1,1,0.08000,-0.06000,-0.24250*
%
%ADD39ROUNDEDRECTD39*%
%ADD40R,0.53000X0.53000*%
%ADD41R,0.60000X1.15000*%
%ADD42R,2.18000X2.00000*%
%ADD43R,0.60000X1.30000*%
%ADD44R,1.30000X1.80000*%
%ADD45R,0.60000X1.10000*%
%ADD46R,0.96000X1.12000*%
%ADD47R,0.95000X1.10000*%
G04:AMPARAMS|DCode=48|XSize=0.24mm|YSize=0.6mm|CornerRadius=0.05mm|HoleSize=0mm|Usage=FLASHONLY|Rotation=270.000|XOffset=0mm|YOffset=0mm|HoleType=Round|Shape=RoundedRectangle|*
%AMROUNDEDRECTD48*
21,1,0.24000,0.50000,0,0,270.0*
21,1,0.14000,0.60000,0,0,270.0*
1,1,0.10000,-0.25000,-0.07000*
1,1,0.10000,-0.25000,0.07000*
1,1,0.10000,0.25000,0.07000*
1,1,0.10000,0.25000,-0.07000*
%
%ADD48ROUNDEDRECTD48*%
G04:AMPARAMS|DCode=50|XSize=0.24mm|YSize=0.6mm|CornerRadius=0.05mm|HoleSize=0mm|Usage=FLASHONLY|Rotation=0.000|XOffset=0mm|YOffset=0mm|HoleType=Round|Shape=RoundedRectangle|*
%AMROUNDEDRECTD50*
21,1,0.24000,0.50000,0,0,0.0*
21,1,0.14000,0.60000,0,0,0.0*
1,1,0.10000,0.07000,-0.25000*
1,1,0.10000,-0.07000,-0.25000*
1,1,0.10000,-0.07000,0.25000*
1,1,0.10000,0.07000,0.25000*
%
%ADD50ROUNDEDRECTD50*%
G04:AMPARAMS|DCode=51|XSize=0.85mm|YSize=0.75mm|CornerRadius=0mm|HoleSize=0mm|Usage=FLASHONLY|Rotation=135.000|XOffset=0mm|YOffset=0mm|HoleType=Round|Shape=Rectangle|*
%AMROTATEDRECTD51*
4,1,4,0.56569,-0.03535,0.03535,-0.56569,-0.56569,0.03535,-0.03535,0.56569,0.56569,-0.03535,0.0*
%
%ADD51ROTATEDRECTD51*%

%ADD52R,2.76000X0.65000*%
%ADD53R,0.40000X0.60000*%
%ADD54R,0.51000X0.40000*%
%ADD55R,0.60000X0.50000*%
%ADD56R,0.80000X0.80000*%
%ADD57R,0.30000X1.15000*%
%ADD58R,5.10000X1.90000*%
%ADD59R,0.80000X0.90000*%
G04:AMPARAMS|DCode=60|XSize=1mm|YSize=1.8mm|CornerRadius=0mm|HoleSize=0mm|Usage=FLASHONLY|Rotation=135.000|XOffset=0mm|YOffset=0mm|HoleType=Round|Shape=Rectangle|*
%AMROTATEDRECTD60*
4,1,4,0.98995,0.28284,-0.28284,-0.98995,-0.98995,-0.28284,0.28284,0.98995,0.98995,0.28284,0.0*
%
%ADD60ROTATEDRECTD60*%

%ADD61R,1.05000X1.40000*%
%ADD62R,7.50000X1.80000*%
%ADD163R,1.55000X0.30000*%
G04:AMPARAMS|DCode=164|XSize=1.55mm|YSize=1.55mm|CornerRadius=0mm|HoleSize=0mm|Usage=FLASHONLY|Rotation=270.000|XOffset=0mm|YOffset=0mm|HoleType=Round|Shape=RoundedRectangle|*
%AMROUNDEDRECTD164*
21,1,1.55000,1.55000,0,0,270.0*
21,1,1.55000,1.55000,0,0,270.0*
1,1,0.00000,-0.77500,-0.77500*
1,1,0.00000,-0.77500,0.77500*
1,1,0.00000,0.77500,0.77500*
1,1,0.00000,0.77500,-0.77500*
%
%ADD164ROUNDEDRECTD164*%
G36*
X-8135000Y2600000D02*
X-8135000Y2599005D01*
X-8135761Y2597168D01*
X-8137168Y2595761D01*
X-8139005Y2595000D01*
X-8139999Y2595000D01*
X-8140000Y2595000D01*
X-8160000Y2595000D01*
X-8160995D01*
X-8162832Y2595761D01*
X-8164238Y2597167D01*
X-8164999Y2599005D01*
X-8164999Y2599999D01*
X-8165000Y2600000D01*
X-8165000Y2620000D01*
X-8165097Y2620975D01*
X-8165843Y2622777D01*
X-8167223Y2624156D01*
X-8169025Y2624902D01*
X-8170000Y2624998D01*
Y2625000D01*
Y2655000D01*
X-8130000D01*
Y2624999D01*
X-8130976Y2624903D01*
X-8132778Y2624157D01*
X-8134158Y2622777D01*
X-8134904Y2620975D01*
X-8135000Y2619999D01*
X-8135000Y2620000D01*
X-8135000Y2600000D01*
D02*
G37*
G36*
Y2729999D02*
X-8135000Y2730994D01*
X-8135761Y2732831D01*
X-8137168Y2734238D01*
X-8139005Y2734999D01*
X-8139999Y2734999D01*
X-8140000Y2734999D01*
X-8160000Y2735000D01*
X-8160995D01*
X-8162832Y2734238D01*
X-8164238Y2732832D01*
X-8164999Y2730994D01*
X-8164999Y2730000D01*
X-8165000D01*
X-8165000Y2710000D01*
X-8165097Y2709025D01*
X-8165843Y2707222D01*
X-8167223Y2705843D01*
X-8169025Y2705097D01*
X-8170000Y2705001D01*
Y2705000D01*
Y2675000D01*
X-8130000D01*
Y2705000D01*
X-8130976Y2705096D01*
X-8132778Y2705842D01*
X-8134158Y2707222D01*
X-8134904Y2709024D01*
X-8135000Y2710000D01*
X-8135000D01*
X-8135000Y2729999D01*
D02*
G37*
D13*
X6722500Y2685000D02*
D03*
X3122500D02*
D03*
X4482437Y1724979D02*
D03*
X877500Y-2685000D02*
D03*
X4477500D02*
D03*
X-877500Y2685000D02*
D03*
X-4447500Y2465000D02*
D03*
X-4477500Y2685000D02*
D03*
X-7792500Y425000D02*
D03*
X-3122500Y-2685000D02*
D03*
X-6722500D02*
D03*
X-7342500Y-1352500D02*
D03*
X-7742500D02*
D03*
X-5052499Y1775000D02*
D03*
X-4937500D02*
D03*
X-4562500Y2465000D02*
D03*
X-1842500Y-227500D02*
D03*
X-57500Y-1590000D02*
D03*
X-5922500Y335000D02*
D03*
X2692500Y602500D02*
D03*
X2807500D02*
D03*
X-7212500Y-3375000D02*
D03*
X-7345000Y-2575000D02*
D03*
X-6837500Y-2685000D02*
D03*
X-3612500Y-3375000D02*
D03*
X-3237500Y-2685000D02*
D03*
X-3745000Y-2575000D02*
D03*
X-7415500Y-430000D02*
D03*
X-7907499Y425000D02*
D03*
X-5807500Y335000D02*
D03*
X-4992500Y300000D02*
D03*
X-2807500Y957500D02*
D03*
X2807500Y857500D02*
D03*
X387500Y-3375000D02*
D03*
X255000Y-2575000D02*
D03*
X-2807500Y1162500D02*
D03*
X-2572500Y-425000D02*
D03*
X-1727500Y-227500D02*
D03*
X2807500Y1062500D02*
D03*
X2807500Y1267501D02*
D03*
X-4362500Y2685000D02*
D03*
X-3987500Y3375000D02*
D03*
X-2807500Y752500D02*
D03*
X-2807500Y1367501D02*
D03*
X-3855000Y2575000D02*
D03*
X-255000D02*
D03*
X-762500Y2685000D02*
D03*
X-387501Y3375000D02*
D03*
X762500Y-2685000D02*
D03*
X3987500Y-3375000D02*
D03*
X3855000Y-2575000D02*
D03*
X4362500Y-2685000D02*
D03*
X297501Y-1225000D02*
D03*
X2057500Y250000D02*
D03*
X7592500Y240000D02*
D03*
Y110000D02*
D03*
X3217437Y1724979D02*
D03*
X3467436Y1724979D02*
D03*
X3745000Y2575000D02*
D03*
X3237500Y2685000D02*
D03*
X3612500Y3375000D02*
D03*
X4117437Y1724979D02*
D03*
X4367437Y1724979D02*
D03*
X6837500Y2685000D02*
D03*
X7212499Y3375000D02*
D03*
X7345000Y2575000D02*
D03*
X4232437Y1724979D02*
D03*
X3582436Y1724979D02*
D03*
X3332436D02*
D03*
X-7857500Y-1352500D02*
D03*
X-7457500D02*
D03*
X-7530499Y-430000D02*
D03*
Y-825000D02*
D03*
X-7415500D02*
D03*
X-7542500Y522500D02*
D03*
X-7657500D02*
D03*
X-2457500Y-425000D02*
D03*
X-5107500Y300000D02*
D03*
X3872500Y-3375000D02*
D03*
X7327499Y3375000D02*
D03*
X272500Y-3375000D02*
D03*
X3727500Y3375000D02*
D03*
X-3727500Y-3375000D02*
D03*
X-7327500D02*
D03*
X-3872501Y3375000D02*
D03*
X-272501D02*
D03*
X-7669500Y-825000D02*
D03*
X57500Y-1590000D02*
D03*
X7707500Y240000D02*
D03*
X1942500Y250000D02*
D03*
X7707500Y110000D02*
D03*
X-7669500Y-429999D02*
D03*
X-7784500D02*
D03*
Y-825000D02*
D03*
X412500Y-1225000D02*
D03*
X2692500Y857500D02*
D03*
Y1062500D02*
D03*
X2692500Y1267501D02*
D03*
X-2692500Y957500D02*
D03*
X-2692500Y752500D02*
D03*
Y1162500D02*
D03*
X-2692500Y1367501D02*
D03*
X3970000Y-2575000D02*
D03*
X7230000Y2575000D02*
D03*
X370000Y-2575000D02*
D03*
X3630000Y2575000D02*
D03*
X-3630000Y-2575000D02*
D03*
X-370000Y2575000D02*
D03*
X-7230000Y-2575000D02*
D03*
X-3970000Y2575000D02*
D03*
D14*
X6755000Y2859500D02*
D03*
X3155000D02*
D03*
X4445000Y-2859500D02*
D03*
X845000D02*
D03*
X-845000Y2859500D02*
D03*
X-4445000D02*
D03*
X-4480000Y2290500D02*
D03*
X-3155000Y-2859500D02*
D03*
X-6755000D02*
D03*
X-5020000Y2290500D02*
D03*
Y2163500D02*
D03*
Y2036500D02*
D03*
Y1909500D02*
D03*
X-4480000D02*
D03*
Y2036500D02*
D03*
Y2163500D02*
D03*
X-3530000Y1690500D02*
D03*
X-4070000Y1563500D02*
D03*
X-3530000D02*
D03*
X-3905000Y3240500D02*
D03*
X-7295000Y-3240500D02*
D03*
X-305000Y3240500D02*
D03*
X-3695000Y-3240500D02*
D03*
X3695000Y3240500D02*
D03*
X305000Y-3240500D02*
D03*
X7295000Y3240500D02*
D03*
X3905000Y-3240500D02*
D03*
X-3530000Y1436500D02*
D03*
Y1309500D02*
D03*
X-4070000Y1309500D02*
D03*
Y1436500D02*
D03*
Y1690500D02*
D03*
X-4445000Y3240500D02*
D03*
Y3113500D02*
D03*
X3905000Y-2859500D02*
D03*
Y-2986500D02*
D03*
Y-3113500D02*
D03*
X4445000Y-3240500D02*
D03*
Y-3113500D02*
D03*
Y-2986500D02*
D03*
X7295000Y2859500D02*
D03*
Y2986500D02*
D03*
Y3113500D02*
D03*
X6755000Y3240500D02*
D03*
Y3113500D02*
D03*
Y2986500D02*
D03*
X305000Y-2859500D02*
D03*
Y-2986500D02*
D03*
Y-3113500D02*
D03*
X845000Y-3240500D02*
D03*
Y-3113500D02*
D03*
Y-2986500D02*
D03*
X3695000Y2859500D02*
D03*
Y2986500D02*
D03*
Y3113500D02*
D03*
X3155000Y3240500D02*
D03*
Y3113500D02*
D03*
Y2986500D02*
D03*
X-3695000Y-2859500D02*
D03*
Y-2986500D02*
D03*
Y-3113500D02*
D03*
X-3155000Y-3240500D02*
D03*
Y-3113500D02*
D03*
Y-2986500D02*
D03*
X-305000Y2859500D02*
D03*
Y2986500D02*
D03*
Y3113500D02*
D03*
X-845000Y3240500D02*
D03*
Y3113500D02*
D03*
Y2986500D02*
D03*
X-7295000Y-2859500D02*
D03*
Y-2986500D02*
D03*
Y-3113500D02*
D03*
X-6755000Y-3240500D02*
D03*
Y-3113500D02*
D03*
Y-2986500D02*
D03*
X-3905000Y2859500D02*
D03*
Y2986500D02*
D03*
Y3113500D02*
D03*
X-4445000Y2986500D02*
D03*
D15*
X4669936Y1724979D02*
D03*
X300001Y-1122500D02*
D03*
X55000Y-1380000D02*
D03*
X-55000D02*
D03*
X-55000Y-1800000D02*
D03*
X-55000Y-1700000D02*
D03*
X-3265000Y1182500D02*
D03*
X707500Y-932500D02*
D03*
X707500Y-1057500D02*
D03*
Y-1182500D02*
D03*
X5045000Y270000D02*
D03*
X7394999Y240000D02*
D03*
X6845000Y1350000D02*
D03*
X707500Y-807500D02*
D03*
X2695000Y500000D02*
D03*
X-7342500Y-2462500D02*
D03*
X-3742500D02*
D03*
X-7417999Y-532500D02*
D03*
X-4995000Y-200000D02*
D03*
X257500Y-2462500D02*
D03*
X-3265000Y1309500D02*
D03*
X-3265000Y1436500D02*
D03*
X-3857500Y2462500D02*
D03*
X-257500D02*
D03*
X3857500Y-2462500D02*
D03*
X3695000Y-1550000D02*
D03*
X7795000Y-3075000D02*
D03*
X6705000Y-1500000D02*
D03*
X8270000Y-3075000D02*
D03*
X8745000Y-3075000D02*
D03*
X7285000Y-380000D02*
D03*
X7285000Y-20000D02*
D03*
X3742500Y2462500D02*
D03*
X3769937Y1874979D02*
D03*
X4669937D02*
D03*
X7342500Y2462500D02*
D03*
X9105000Y2200000D02*
D03*
X8645000D02*
D03*
X597500Y-807500D02*
D03*
X2805000Y500000D02*
D03*
X417000Y2192501D02*
D03*
X307000Y2192501D02*
D03*
X-4995000Y100000D02*
D03*
X-2955000Y-335000D02*
D03*
Y260000D02*
D03*
X-4995001Y200000D02*
D03*
X2805000Y1165000D02*
D03*
X4779936Y1724979D02*
D03*
X3769936D02*
D03*
X3879936D02*
D03*
X4779936Y1874979D02*
D03*
X3879937D02*
D03*
X7285000Y-140000D02*
D03*
X-7527999Y-532500D02*
D03*
X-7417999Y-722500D02*
D03*
X-7527999D02*
D03*
X-7545000Y-627500D02*
D03*
X-7655000D02*
D03*
X-7782000Y-722499D02*
D03*
X-7672000D02*
D03*
X-7655000Y420000D02*
D03*
X-7545000D02*
D03*
X6955000Y1550000D02*
D03*
X-2955000Y360000D02*
D03*
X-2845000D02*
D03*
Y260000D02*
D03*
X-2955000Y160000D02*
D03*
X-2845000D02*
D03*
X-2955000Y60000D02*
D03*
X-2845000D02*
D03*
X-2955000Y-40000D02*
D03*
X-2845000D02*
D03*
X-2955000Y-140000D02*
D03*
X-2845000D02*
D03*
X-2955000Y-240000D02*
D03*
X-2845000D02*
D03*
Y-335000D02*
D03*
X-5105000Y200000D02*
D03*
Y100000D02*
D03*
X-4995000Y0D02*
D03*
X-5105000D02*
D03*
Y-200000D02*
D03*
X-4995000Y-100000D02*
D03*
X-5105000D02*
D03*
X6595000Y-1500000D02*
D03*
X4230000Y-2687500D02*
D03*
X4120000D02*
D03*
X6970000Y2687500D02*
D03*
X7080000D02*
D03*
X630000Y-2687500D02*
D03*
X520000D02*
D03*
X3370000Y2687500D02*
D03*
X3480000D02*
D03*
X-3370000Y-2687500D02*
D03*
X-3480000D02*
D03*
X-6970000D02*
D03*
X-7080000D02*
D03*
X-55000Y1307500D02*
D03*
X55000D02*
D03*
X-778999Y1307500D02*
D03*
X-668999D02*
D03*
X669000Y2192500D02*
D03*
X779000D02*
D03*
X669000Y1307500D02*
D03*
X779000D02*
D03*
X-417000D02*
D03*
X-307000D02*
D03*
X-778999Y2192500D02*
D03*
X-669000D02*
D03*
X-417000Y2192500D02*
D03*
X-307000D02*
D03*
X307000Y1307500D02*
D03*
X417000D02*
D03*
X-55000Y2192500D02*
D03*
X55000Y2192500D02*
D03*
X-4380000Y3367500D02*
D03*
X-6820000Y-3367500D02*
D03*
X-780000Y3367500D02*
D03*
X-3220000Y-3367500D02*
D03*
X3220000Y3367500D02*
D03*
X780000Y-3367500D02*
D03*
X6820000Y3367500D02*
D03*
X4380000Y-3367500D02*
D03*
X-3375000Y1182500D02*
D03*
X-3374999Y1309500D02*
D03*
X-3374999Y1436500D02*
D03*
X-630000Y2687500D02*
D03*
X-520000D02*
D03*
X-4490000Y3367500D02*
D03*
X-4230000Y2687500D02*
D03*
X3805000Y-1550000D02*
D03*
X5155000Y270000D02*
D03*
X8755000Y2200000D02*
D03*
X8995000D02*
D03*
X5045000Y370000D02*
D03*
X5155000D02*
D03*
X5045000Y470000D02*
D03*
X5155000D02*
D03*
X6955000Y1150000D02*
D03*
X6845001D02*
D03*
X6955000Y1350000D02*
D03*
X6955000Y1250000D02*
D03*
X6845001D02*
D03*
X6955000Y1450000D02*
D03*
X6845001D02*
D03*
Y1550000D02*
D03*
X6955000Y1650000D02*
D03*
X6845001D02*
D03*
X55000Y-1480000D02*
D03*
X-55000D02*
D03*
X55000Y-1700000D02*
D03*
X55000Y-1800000D02*
D03*
X597500Y-932500D02*
D03*
X597500Y-1057500D02*
D03*
Y-1182500D02*
D03*
X7395000Y-260000D02*
D03*
X7285000D02*
D03*
X7285000Y240000D02*
D03*
X7394999Y-380000D02*
D03*
X7395000Y-20000D02*
D03*
X7394999Y-140000D02*
D03*
X-7782000Y-532499D02*
D03*
X-7672000D02*
D03*
X410000Y-1122500D02*
D03*
X7905000Y-3075000D02*
D03*
X8380000Y-3075000D02*
D03*
X8855000Y-3075000D02*
D03*
Y-2975000D02*
D03*
X8745000D02*
D03*
X8380001D02*
D03*
X8270000D02*
D03*
X7905000D02*
D03*
X7795000D02*
D03*
X2805000Y755000D02*
D03*
X2695000Y755000D02*
D03*
X2805000Y960000D02*
D03*
X2695001D02*
D03*
X2695000Y1165000D02*
D03*
X-2805000Y855000D02*
D03*
X-2695000D02*
D03*
X-2805000Y650000D02*
D03*
X-2695000D02*
D03*
X-2805000Y1060000D02*
D03*
X-2695000D02*
D03*
X-2805000Y1265000D02*
D03*
X-2695000D02*
D03*
X4490000Y-3367500D02*
D03*
X6710000Y3367500D02*
D03*
X890000Y-3367500D02*
D03*
X3110000Y3367500D02*
D03*
X-3110000Y-3367500D02*
D03*
X-890000Y3367500D02*
D03*
X-6710000Y-3367500D02*
D03*
X-4120000Y2687500D02*
D03*
X3967500Y-2462500D02*
D03*
X7232500Y2462500D02*
D03*
X367500Y-2462500D02*
D03*
X3632500Y2462500D02*
D03*
X-3632500Y-2462500D02*
D03*
X-367500Y2462500D02*
D03*
X-7232500Y-2462500D02*
D03*
X-3967500Y2462500D02*
D03*
X3857500Y-2687500D02*
D03*
X3967500D02*
D03*
X7342500Y2687500D02*
D03*
X7232500D02*
D03*
X257500Y-2687500D02*
D03*
X367500D02*
D03*
X3742500Y2687500D02*
D03*
X3632500D02*
D03*
X-3742500Y-2687500D02*
D03*
X-3632500D02*
D03*
X-257500Y2687500D02*
D03*
X-367500D02*
D03*
X-7342500Y-2687500D02*
D03*
X-7232500D02*
D03*
X-3857500Y2687500D02*
D03*
X-3967500D02*
D03*
D16*
X4550002Y1520000D02*
D03*
X3650000D02*
D03*
X3880000D02*
D03*
X3420000D02*
D03*
X4780002D02*
D03*
X4320002D02*
D03*
D17*
X4494936Y1874979D02*
D03*
X1930000Y-300000D02*
D03*
X4354936Y1874979D02*
D03*
X3594937D02*
D03*
X3454936D02*
D03*
X2070000Y-300000D02*
D03*
X7410000Y110000D02*
D03*
X7270000D02*
D03*
D18*
X4550002Y980000D02*
D03*
X3650000Y980000D02*
D03*
D19*
X-7790500Y270000D02*
D03*
X-7409500Y-270000D02*
D03*
X-7790500D02*
D03*
X-7663500D02*
D03*
X-7536500D02*
D03*
X-7409500Y270000D02*
D03*
X-7536500D02*
D03*
X-7663500D02*
D03*
D20*
X-7305000Y-1207500D02*
D03*
X-7705000D02*
D03*
X-457000Y1660000D02*
D03*
X819000Y1840001D02*
D03*
X457000Y1840000D02*
D03*
X629000Y1660000D02*
D03*
X-629000Y1840000D02*
D03*
X-267000Y1840000D02*
D03*
X95000Y1840000D02*
D03*
X-819000Y1660000D02*
D03*
X267000Y1660000D02*
D03*
X-95000D02*
D03*
X-267000Y1660000D02*
D03*
X629000Y1840000D02*
D03*
X-95000Y1840000D02*
D03*
X819000Y1660000D02*
D03*
X-819000Y1840000D02*
D03*
X-457000D02*
D03*
X95000Y1660000D02*
D03*
X-629001Y1660000D02*
D03*
X457000Y1660000D02*
D03*
X267000Y1840000D02*
D03*
X362000Y2055000D02*
D03*
X724000Y2055000D02*
D03*
X-362001Y1445000D02*
D03*
X724000Y1445000D02*
D03*
X-0D02*
D03*
X-724001Y1445000D02*
D03*
X-362000Y2055000D02*
D03*
X-724000Y2055000D02*
D03*
X0D02*
D03*
X362000Y1445000D02*
D03*
X-7495000Y-1207500D02*
D03*
X-7895000D02*
D03*
X-7800000Y-992500D02*
D03*
X-7400000D02*
D03*
D21*
X-4250000Y1755000D02*
D03*
Y1645000D02*
D03*
X-4350000Y1755000D02*
D03*
Y1645000D02*
D03*
X7112499Y-3054998D02*
D03*
Y-2944999D02*
D03*
X4087499Y3054999D02*
D03*
Y2944999D02*
D03*
X3512498Y-3054999D02*
D03*
Y-2944999D02*
D03*
X487499Y3054999D02*
D03*
Y2944999D02*
D03*
X-487501Y-3054998D02*
D03*
Y-2944999D02*
D03*
X-3512501Y3054999D02*
D03*
Y2944999D02*
D03*
X-4087501Y-3054998D02*
D03*
Y-2944999D02*
D03*
X-7112501Y3054999D02*
D03*
Y2944999D02*
D03*
X8025000Y-3305001D02*
D03*
X7550000Y-3305000D02*
D03*
X8500000D02*
D03*
X7730000Y2555000D02*
D03*
X-7575000Y-3355000D02*
D03*
X-6425000Y-3430000D02*
D03*
X-3975000Y-3355000D02*
D03*
X-7427500Y550000D02*
D03*
X-7222499Y550000D02*
D03*
X-2825000Y-3430000D02*
D03*
X25000Y-3355000D02*
D03*
X-8360000Y2610000D02*
D03*
X-7940000D02*
D03*
X-4550000Y1095000D02*
D03*
X-4775000Y3430000D02*
D03*
X-3625000Y3355000D02*
D03*
X-1175000Y3430000D02*
D03*
X-25000Y3355000D02*
D03*
X1175000Y-3430000D02*
D03*
X3625000Y-3355000D02*
D03*
X4775000Y-3430000D02*
D03*
X8700000Y-2395000D02*
D03*
X2825000Y3430000D02*
D03*
X3975000Y3355000D02*
D03*
X6425000Y3430000D02*
D03*
X7575000Y3355000D02*
D03*
X8525000Y2180000D02*
D03*
X8360000Y2435000D02*
D03*
X542999Y2310000D02*
D03*
Y2200000D02*
D03*
X-7282500Y55001D02*
D03*
Y-54999D02*
D03*
X-7222499Y440000D02*
D03*
X-7427500Y440000D02*
D03*
X-4550000Y1205000D02*
D03*
X3625000Y-2745000D02*
D03*
Y-2855000D02*
D03*
X7575000Y2745000D02*
D03*
Y2855000D02*
D03*
X25000Y-2745000D02*
D03*
Y-2855000D02*
D03*
X3975000Y2745000D02*
D03*
Y2855000D02*
D03*
X-3975000Y-2745000D02*
D03*
Y-2855000D02*
D03*
X-7575000Y-2745000D02*
D03*
Y-2855000D02*
D03*
X181000Y1300000D02*
D03*
Y1190000D02*
D03*
X905000Y2200001D02*
D03*
Y2310000D02*
D03*
X-181000Y1299999D02*
D03*
Y1190000D02*
D03*
X905000Y1300000D02*
D03*
X905000Y1190000D02*
D03*
X-543000Y2200000D02*
D03*
Y2310000D02*
D03*
X-181000Y2200000D02*
D03*
Y2310000D02*
D03*
X-543000Y1300000D02*
D03*
X-543000Y1190000D02*
D03*
X181000Y2200000D02*
D03*
Y2310000D02*
D03*
X543000Y1300000D02*
D03*
Y1189999D02*
D03*
X-25000Y2745000D02*
D03*
Y2855000D02*
D03*
X-8000001Y-1410000D02*
D03*
X8100000Y2545000D02*
D03*
Y2655000D02*
D03*
X8525000Y2070000D02*
D03*
X8275000Y1945000D02*
D03*
Y2055000D02*
D03*
X8200000Y2655000D02*
D03*
Y2545000D02*
D03*
X-7940000Y2720000D02*
D03*
X-8360000D02*
D03*
X8975000Y-3305000D02*
D03*
Y-3195000D02*
D03*
X8360000Y2325001D02*
D03*
X8460000Y2325000D02*
D03*
Y2435000D02*
D03*
X8700000Y-2505000D02*
D03*
X7730000Y2445000D02*
D03*
X8400000Y-2395000D02*
D03*
Y-2505000D02*
D03*
X-8000001Y-1520000D02*
D03*
X7550000Y-3195000D02*
D03*
X8025000D02*
D03*
X8500000D02*
D03*
X4775000Y-3320000D02*
D03*
X6425000Y3320000D02*
D03*
X1175000Y-3320000D02*
D03*
X2825000Y3320000D02*
D03*
X-2825000Y-3320000D02*
D03*
X-1175000Y3320000D02*
D03*
X-6425000Y-3320000D02*
D03*
X-4775000Y3320000D02*
D03*
X5450000Y-1745000D02*
D03*
Y-1855000D02*
D03*
X5750000Y1745000D02*
D03*
Y1855000D02*
D03*
X1850000Y-1745000D02*
D03*
Y-1855000D02*
D03*
X2150000Y1745000D02*
D03*
Y1855000D02*
D03*
X-2150000Y-1745000D02*
D03*
Y-1855000D02*
D03*
X-1850000Y1745000D02*
D03*
Y1855000D02*
D03*
X-5750000Y-1745000D02*
D03*
Y-1855000D02*
D03*
X-5450000Y1745000D02*
D03*
Y1855000D02*
D03*
X5550000Y-1745000D02*
D03*
Y-1855000D02*
D03*
X5650000Y1745000D02*
D03*
Y1855000D02*
D03*
X1950000Y-1745000D02*
D03*
Y-1855000D02*
D03*
X2050000Y1745000D02*
D03*
Y1855000D02*
D03*
X-2050000Y-1745000D02*
D03*
Y-1855000D02*
D03*
X-1950000Y1745000D02*
D03*
Y1855000D02*
D03*
X-5650000Y-1745000D02*
D03*
Y-1855000D02*
D03*
X-5550000Y1745000D02*
D03*
Y1855000D02*
D03*
X3625000Y-3245000D02*
D03*
X7575000Y3245000D02*
D03*
X25000Y-3245000D02*
D03*
X3975000Y3245000D02*
D03*
X-3975000Y-3245000D02*
D03*
X-25000Y3245000D02*
D03*
X-7575000Y-3245000D02*
D03*
X-3625000Y3245000D02*
D03*
X5850000Y-2080000D02*
D03*
Y-1970000D02*
D03*
X5350000Y2080000D02*
D03*
Y1970000D02*
D03*
X2250000Y-2080000D02*
D03*
Y-1970000D02*
D03*
X1750000Y2080000D02*
D03*
Y1970000D02*
D03*
X-1750000Y-2080000D02*
D03*
Y-1970000D02*
D03*
X-2250000Y2080000D02*
D03*
Y1970000D02*
D03*
X-5350000Y-2080000D02*
D03*
Y-1970000D02*
D03*
X-5850000Y2080000D02*
D03*
Y1970000D02*
D03*
X5450000Y-2080000D02*
D03*
Y-1970000D02*
D03*
X5750000Y2080000D02*
D03*
Y1970000D02*
D03*
X1850000Y-2080000D02*
D03*
Y-1970000D02*
D03*
X2150000Y2080000D02*
D03*
Y1970000D02*
D03*
X-2150000Y-2080000D02*
D03*
Y-1970000D02*
D03*
X-1850000Y2080000D02*
D03*
Y1970000D02*
D03*
X-5750000Y-2080000D02*
D03*
Y-1970000D02*
D03*
X-5450000Y2080000D02*
D03*
Y1970000D02*
D03*
X5650000Y-1745000D02*
D03*
Y-1855000D02*
D03*
X5550000Y1745000D02*
D03*
Y1855000D02*
D03*
X2050000Y-1745000D02*
D03*
Y-1855000D02*
D03*
X1950000Y1745000D02*
D03*
Y1855000D02*
D03*
X-1950000Y-1745000D02*
D03*
Y-1855000D02*
D03*
X-2050000Y1745000D02*
D03*
Y1855000D02*
D03*
X-5550000Y-1745000D02*
D03*
Y-1855000D02*
D03*
X-5650000Y1745000D02*
D03*
Y1855000D02*
D03*
X5650000Y-2080000D02*
D03*
Y-1970000D02*
D03*
X5550000Y2080000D02*
D03*
Y1970000D02*
D03*
X2050000Y-2080000D02*
D03*
Y-1970000D02*
D03*
X1950000Y2080000D02*
D03*
Y1970000D02*
D03*
X-1950000Y-2080000D02*
D03*
Y-1970000D02*
D03*
X-2050000Y2080000D02*
D03*
Y1970000D02*
D03*
X-5550000Y-2080000D02*
D03*
Y-1970000D02*
D03*
X-5650000Y2080000D02*
D03*
Y1970000D02*
D03*
X5750000Y-1745000D02*
D03*
Y-1855000D02*
D03*
X5450000Y1745000D02*
D03*
Y1855000D02*
D03*
X2150000Y-1745000D02*
D03*
Y-1855000D02*
D03*
X1850000Y1745000D02*
D03*
Y1855000D02*
D03*
X-1850000Y-1745000D02*
D03*
Y-1855000D02*
D03*
X-2150000Y1745000D02*
D03*
Y1855000D02*
D03*
X-5450000Y-1745000D02*
D03*
Y-1855000D02*
D03*
X-5750000Y1745000D02*
D03*
Y1855000D02*
D03*
X5350000Y-1745000D02*
D03*
Y-1855000D02*
D03*
X5850000Y1745000D02*
D03*
Y1855000D02*
D03*
X1750000Y-1745000D02*
D03*
Y-1855000D02*
D03*
X2250000Y1745000D02*
D03*
Y1855000D02*
D03*
X-2250000Y-1745000D02*
D03*
Y-1855000D02*
D03*
X-1750000Y1745000D02*
D03*
Y1855000D02*
D03*
X-5850000Y-1745000D02*
D03*
Y-1855000D02*
D03*
X-5350000Y1745000D02*
D03*
Y1855000D02*
D03*
X-3625000Y2855000D02*
D03*
Y2745000D02*
D03*
X5550000Y-2080000D02*
D03*
Y-1970000D02*
D03*
X5650000Y2080000D02*
D03*
Y1970000D02*
D03*
X1950000Y-2080000D02*
D03*
Y-1970000D02*
D03*
X2050000Y2080000D02*
D03*
Y1970000D02*
D03*
X-2050000Y-2080000D02*
D03*
Y-1970000D02*
D03*
X-1950000Y2080000D02*
D03*
Y1970000D02*
D03*
X-5650000Y-2080000D02*
D03*
Y-1970000D02*
D03*
X-5550000Y2080000D02*
D03*
Y1970000D02*
D03*
X5350000Y-2080000D02*
D03*
Y-1970000D02*
D03*
X5850000Y2080000D02*
D03*
Y1970000D02*
D03*
X1750000Y-2080000D02*
D03*
Y-1970000D02*
D03*
X2250000Y2080000D02*
D03*
Y1970000D02*
D03*
X-2250000Y-2080000D02*
D03*
Y-1970000D02*
D03*
X-1750000Y2080000D02*
D03*
Y1970000D02*
D03*
X-5850000Y-2080000D02*
D03*
Y-1970000D02*
D03*
X-5350000Y2080000D02*
D03*
Y1970000D02*
D03*
X5850000Y-1745000D02*
D03*
Y-1855000D02*
D03*
X5350000Y1745000D02*
D03*
Y1855000D02*
D03*
X2250000Y-1745000D02*
D03*
Y-1855000D02*
D03*
X1750000Y1745000D02*
D03*
Y1855000D02*
D03*
X-1750000Y-1745000D02*
D03*
Y-1855000D02*
D03*
X-2250000Y1745000D02*
D03*
Y1855000D02*
D03*
X-5350000Y-1745000D02*
D03*
Y-1855000D02*
D03*
X-5850000Y1745000D02*
D03*
Y1855000D02*
D03*
X5750000Y-2080000D02*
D03*
Y-1970000D02*
D03*
X5450000Y2080000D02*
D03*
Y1970000D02*
D03*
X2150000Y-2080000D02*
D03*
Y-1970000D02*
D03*
X1850000Y2080000D02*
D03*
Y1970000D02*
D03*
X-1850000Y-2080000D02*
D03*
Y-1970000D02*
D03*
X-2150000Y2080000D02*
D03*
Y1970000D02*
D03*
X-5450000Y-2080000D02*
D03*
Y-1970000D02*
D03*
X-5750000Y2080000D02*
D03*
Y1970000D02*
D03*
D22*
X9072500Y1877500D02*
D03*
Y1942500D02*
D03*
Y2007500D02*
D03*
Y2072500D02*
D03*
X8677500D02*
D03*
Y2007500D02*
D03*
Y1942500D02*
D03*
Y1877500D02*
D03*
D23*
X310000Y-1380000D02*
D03*
Y-2020000D02*
D03*
X690000Y-1380000D02*
D03*
Y-2020000D02*
D03*
X-690000D02*
D03*
Y-1380000D02*
D03*
X-4660000Y770000D02*
D03*
Y500000D02*
D03*
X-4980000D02*
D03*
Y770000D02*
D03*
X-310000Y-1380000D02*
D03*
Y-2020000D02*
D03*
D24*
X170000Y-1395000D02*
D03*
X-170000Y-1325000D02*
D03*
X170000D02*
D03*
X-8850000Y2950000D02*
D03*
X-7450000D02*
D03*
X5981000Y355000D02*
D03*
X5727000D02*
D03*
X-8850000Y2880000D02*
D03*
X-7450000D02*
D03*
X5727000Y285000D02*
D03*
X5981000D02*
D03*
X-170000Y-1395000D02*
D03*
D25*
X-6400000Y-1492500D02*
D03*
X-2800000D02*
D03*
X-4800000Y1492500D02*
D03*
X-1200000D02*
D03*
X-3375000Y1684500D02*
D03*
X1200000Y-1492500D02*
D03*
X4800000D02*
D03*
X2800000Y1492500D02*
D03*
X6400000D02*
D03*
X-7462500Y-3357500D02*
D03*
X-6595000D02*
D03*
X-3862500D02*
D03*
X-7275000Y-187500D02*
D03*
X-7325000Y552500D02*
D03*
X-6400000Y-1607500D02*
D03*
X-2995000Y-3357500D02*
D03*
X-2800000Y-1607500D02*
D03*
X137500Y-3357500D02*
D03*
X-4800000Y1607500D02*
D03*
X-4030000Y2060000D02*
D03*
X-4605000Y3357500D02*
D03*
X-3375000Y1569500D02*
D03*
X-1200000Y1607500D02*
D03*
X-3570000Y2060000D02*
D03*
X-3737500Y3357500D02*
D03*
X-1005000Y3357500D02*
D03*
X-137500Y3357500D02*
D03*
X1005000Y-3357500D02*
D03*
X3737500D02*
D03*
X4605000D02*
D03*
X4800000Y-1607500D02*
D03*
X1200000D02*
D03*
X2275000Y57500D02*
D03*
X2800000Y1607500D02*
D03*
X6400000D02*
D03*
X2995000Y3357500D02*
D03*
X3862500Y3357500D02*
D03*
X6595000Y3357500D02*
D03*
X7462500Y3357500D02*
D03*
X-7325000Y437500D02*
D03*
X3737500Y-2742500D02*
D03*
Y-2857500D02*
D03*
X4605000Y-3107500D02*
D03*
Y-2992500D02*
D03*
X3737500Y-3107500D02*
D03*
Y-2992500D02*
D03*
X7462500Y2742500D02*
D03*
Y2857500D02*
D03*
X6595000Y3107500D02*
D03*
Y2992500D02*
D03*
X7462500Y3107500D02*
D03*
Y2992500D02*
D03*
X137500Y-2742500D02*
D03*
Y-2857500D02*
D03*
X1005000Y-3107500D02*
D03*
Y-2992500D02*
D03*
X137500Y-3107500D02*
D03*
Y-2992500D02*
D03*
X3862500Y2742500D02*
D03*
Y2857500D02*
D03*
X2995000Y3107500D02*
D03*
Y2992500D02*
D03*
X3862500Y3107500D02*
D03*
Y2992500D02*
D03*
X-3862500Y-2742500D02*
D03*
Y-2857500D02*
D03*
X-2995000Y-3107500D02*
D03*
Y-2992500D02*
D03*
X-3862500Y-3107500D02*
D03*
Y-2992500D02*
D03*
X-1005000Y3107500D02*
D03*
Y2992500D02*
D03*
X-7462500Y-2742500D02*
D03*
Y-2857500D02*
D03*
X-6595000Y-3107500D02*
D03*
Y-2992500D02*
D03*
X-7462500Y-3107500D02*
D03*
Y-2992500D02*
D03*
X-7275000Y-302499D02*
D03*
X-3570000Y1945000D02*
D03*
X-137500Y2742500D02*
D03*
Y2857500D02*
D03*
Y3107500D02*
D03*
Y2992500D02*
D03*
X-4605000Y3242500D02*
D03*
Y3107500D02*
D03*
Y2992500D02*
D03*
X-3737500D02*
D03*
Y3107500D02*
D03*
X7905000Y-142500D02*
D03*
Y-257500D02*
D03*
X2275000Y-57500D02*
D03*
X8400000Y1942500D02*
D03*
Y2057500D02*
D03*
X-4030000Y1945000D02*
D03*
X3737500Y-3242500D02*
D03*
X7462500Y3242500D02*
D03*
X137500Y-3242500D02*
D03*
X3862500Y3242500D02*
D03*
X-3862500Y-3242500D02*
D03*
X-137500Y3242500D02*
D03*
X-7462500Y-3242500D02*
D03*
X-3737500Y3242500D02*
D03*
X4605000Y-3242500D02*
D03*
X6595000Y3242500D02*
D03*
X1005000Y-3242500D02*
D03*
X2995000Y3242500D02*
D03*
X-2995000Y-3242500D02*
D03*
X-1005000Y3242500D02*
D03*
X-6595000Y-3242500D02*
D03*
X-3737500Y2857500D02*
D03*
Y2742500D02*
D03*
D26*
X-2010000Y-227500D02*
D03*
X-2590000Y292500D02*
D03*
X-2010000Y-292500D02*
D03*
Y-162500D02*
D03*
Y-97500D02*
D03*
Y-32500D02*
D03*
Y32500D02*
D03*
Y97500D02*
D03*
Y162500D02*
D03*
Y227500D02*
D03*
Y292500D02*
D03*
X-2590000Y-292500D02*
D03*
Y-227500D02*
D03*
Y-162500D02*
D03*
Y-97500D02*
D03*
Y-32500D02*
D03*
Y32500D02*
D03*
Y97500D02*
D03*
Y162500D02*
D03*
Y227500D02*
D03*
D28*
X-936915Y159099D02*
D03*
X972270Y-123744D02*
D03*
X-795493Y300520D02*
D03*
X-901559Y194454D02*
D03*
X-441941Y654072D02*
D03*
X936915Y-159099D02*
D03*
X229810Y-866205D02*
D03*
X-512652Y583362D02*
D03*
X-123743Y972270D02*
D03*
X-159099Y936915D02*
D03*
X-194454Y901559D02*
D03*
X-229809Y866204D02*
D03*
X-265165Y830849D02*
D03*
X-300520Y795493D02*
D03*
X-335875Y760138D02*
D03*
X-371230Y724783D02*
D03*
X-406586Y689428D02*
D03*
X-477296Y618717D02*
D03*
X-548007Y548007D02*
D03*
X-583362Y512652D02*
D03*
X-618717Y477296D02*
D03*
X-654072Y441941D02*
D03*
X-689428Y406586D02*
D03*
X-724783Y371230D02*
D03*
X-760138Y335875D02*
D03*
X-830849Y265165D02*
D03*
X-866204Y229809D02*
D03*
X-972270Y123743D02*
D03*
X123744Y-972270D02*
D03*
X159099Y-936915D02*
D03*
X194454Y-901560D02*
D03*
X265165Y-830849D02*
D03*
X300520Y-795494D02*
D03*
X335875Y-760139D02*
D03*
X371231Y-724783D02*
D03*
X406586Y-689428D02*
D03*
X441941Y-654073D02*
D03*
X477296Y-618718D02*
D03*
X512652Y-583362D02*
D03*
X548007Y-548007D02*
D03*
X583362Y-512652D02*
D03*
X618718Y-477296D02*
D03*
X654073Y-441941D02*
D03*
X689428Y-406586D02*
D03*
X724783Y-371231D02*
D03*
X760139Y-335875D02*
D03*
X795494Y-300520D02*
D03*
X830849Y-265165D02*
D03*
X866205Y-229810D02*
D03*
X901560Y-194454D02*
D03*
D29*
X-1073034Y295218D02*
D03*
X1108389Y-259863D02*
D03*
X-1154351Y376535D02*
D03*
X-829083Y701803D02*
D03*
X-751301Y779585D02*
D03*
X-673519Y857367D02*
D03*
X-595738Y935149D02*
D03*
X1189707Y-341180D02*
D03*
X-669984Y698268D02*
D03*
X-747766Y620486D02*
D03*
X-592202Y776050D02*
D03*
X-514421Y853832D02*
D03*
D30*
X-259863Y-1108389D02*
D03*
X295218Y1073034D02*
D03*
X-648771Y-719481D02*
D03*
X-730088Y-800798D02*
D03*
X-341180Y-1189707D02*
D03*
X624022Y906864D02*
D03*
X376535Y1154351D02*
D03*
X825547Y542704D02*
D03*
X1228599Y493208D02*
D03*
X1012931Y517956D02*
D03*
X882117Y839689D02*
D03*
X1309916Y574525D02*
D03*
X963434Y921007D02*
D03*
X542705Y825547D02*
D03*
X906864Y624021D02*
D03*
X931613Y436639D02*
D03*
D31*
X-653667Y-1003685D02*
D03*
X-519317Y-1138035D02*
D03*
X-720842Y-936509D02*
D03*
X-586492Y-1070860D02*
D03*
X1083641Y443710D02*
D03*
X-441535Y-1060253D02*
D03*
X-643060Y-858728D02*
D03*
X-575885Y-925903D02*
D03*
X-508710Y-993078D02*
D03*
X1005859Y365928D02*
D03*
D32*
X-123743Y-972270D02*
D03*
X-512652Y-583362D02*
D03*
X159099Y936915D02*
D03*
X-159099Y-936915D02*
D03*
X-548007Y-548007D02*
D03*
X194454Y901559D02*
D03*
X-229809Y-866205D02*
D03*
X-194454Y-901560D02*
D03*
X406586Y689428D02*
D03*
X936915Y159099D02*
D03*
X972270Y123743D02*
D03*
X830849Y265165D02*
D03*
X724783Y371230D02*
D03*
X689428Y406586D02*
D03*
X901560Y194454D02*
D03*
X866205Y229809D02*
D03*
X795494Y300520D02*
D03*
X760139Y335875D02*
D03*
X654073Y441941D02*
D03*
X618718Y477296D02*
D03*
X583362Y512652D02*
D03*
X548007Y548007D02*
D03*
X512652Y583362D02*
D03*
X477296Y618717D02*
D03*
X441941Y654072D02*
D03*
X371231Y724783D02*
D03*
X335875Y760138D02*
D03*
X300520Y795493D02*
D03*
X265165Y830849D02*
D03*
X229810Y866204D02*
D03*
X123744Y972270D02*
D03*
X-972270Y-123744D02*
D03*
X-936915Y-159099D02*
D03*
X-901559Y-194454D02*
D03*
X-866204Y-229810D02*
D03*
X-830849Y-265165D02*
D03*
X-795493Y-300520D02*
D03*
X-760138Y-335875D02*
D03*
X-724783Y-371231D02*
D03*
X-689428Y-406586D02*
D03*
X-654072Y-441941D02*
D03*
X-618717Y-477296D02*
D03*
X-583362Y-512652D02*
D03*
X-477296Y-618718D02*
D03*
X-441941Y-654073D02*
D03*
X-406586Y-689428D02*
D03*
X-371230Y-724783D02*
D03*
X-335875Y-760139D02*
D03*
X-300520Y-795494D02*
D03*
X-265165Y-830849D02*
D03*
D33*
X-4160000Y2081499D02*
D03*
X-8500000Y2744000D02*
D03*
X-8500000Y2586000D02*
D03*
X-7800000Y2744000D02*
D03*
X-7800000Y2586000D02*
D03*
X-4160000Y1923500D02*
D03*
D34*
X-863378Y869034D02*
D03*
X-651246Y1081166D02*
D03*
X-762968Y969443D02*
D03*
X-975101Y757311D02*
D03*
D35*
X1675000Y-140000D02*
D03*
X-4250000Y140000D02*
D03*
X-8700000Y2455000D02*
D03*
X-7600000D02*
D03*
X1675000Y140000D02*
D03*
X7305000Y-590000D02*
D03*
X7535000Y-590000D02*
D03*
X7890000Y400000D02*
D03*
X8120000D02*
D03*
X3650000Y690000D02*
D03*
X3950000Y690000D02*
D03*
X9025000Y1540000D02*
D03*
X-7600000Y2735000D02*
D03*
X-8700000D02*
D03*
X7890000Y120000D02*
D03*
X7305000Y-870000D02*
D03*
X7535000D02*
D03*
X-4250000Y-140000D02*
D03*
X-2850000Y3087500D02*
D03*
Y3387500D02*
D03*
X-6700000Y3387499D02*
D03*
X-4500001Y-2612499D02*
D03*
X-3100000Y3387499D02*
D03*
X-900001Y-2612499D02*
D03*
X900000Y3387499D02*
D03*
X3099998Y-2612500D02*
D03*
X4500000Y3387499D02*
D03*
X6699999Y-2612499D02*
D03*
X-6950000Y3387499D02*
D03*
X-4750000Y-2612499D02*
D03*
X-3350000Y3387499D02*
D03*
X-1150000Y-2612499D02*
D03*
X650000Y3387499D02*
D03*
X2849998Y-2612500D02*
D03*
X4250000Y3387499D02*
D03*
X6450000Y-2612499D02*
D03*
X-6450000Y3387500D02*
D03*
X-4250001Y-2612498D02*
D03*
X-650001D02*
D03*
X1150000Y3387500D02*
D03*
X3349998Y-2612499D02*
D03*
X4750000Y3387500D02*
D03*
X6949999Y-2612498D02*
D03*
X-6450000Y2612499D02*
D03*
X-4250000Y-3387499D02*
D03*
X-2850000Y2612499D02*
D03*
X-650000Y-3387499D02*
D03*
X1150000Y2612499D02*
D03*
X3349998Y-3387500D02*
D03*
X4750000Y2612499D02*
D03*
X6950000Y-3387499D02*
D03*
X-6950001Y2612499D02*
D03*
X-4750001Y-3387499D02*
D03*
X-3350001Y2612499D02*
D03*
X-1150002Y-3387499D02*
D03*
X649999Y2612499D02*
D03*
X2849997Y-3387500D02*
D03*
X4249999Y2612499D02*
D03*
X6449999Y-3387499D02*
D03*
X-6700000Y2612499D02*
D03*
X-4500000Y-3387499D02*
D03*
X-3100000Y2612499D02*
D03*
X-900000Y-3387499D02*
D03*
X900000Y2612499D02*
D03*
X3099998Y-3387500D02*
D03*
X4500000Y2612499D02*
D03*
X6700000Y-3387499D02*
D03*
X4775000Y-2850000D02*
D03*
Y-3150000D02*
D03*
X6425000Y2850000D02*
D03*
Y3150000D02*
D03*
X1175000Y-2850000D02*
D03*
Y-3150000D02*
D03*
X2825000Y2850000D02*
D03*
Y3150000D02*
D03*
X-2825000Y-2850000D02*
D03*
Y-3150000D02*
D03*
X-1175000Y2850000D02*
D03*
Y3150000D02*
D03*
X-6425000Y-2850000D02*
D03*
Y-3150000D02*
D03*
X-4775000Y2850000D02*
D03*
Y3150000D02*
D03*
X6700000Y-3087499D02*
D03*
X4500000Y2912499D02*
D03*
X3099998Y-3087500D02*
D03*
X900000Y2912499D02*
D03*
X-900000Y-3087499D02*
D03*
X-3100000Y2912499D02*
D03*
X-4500000Y-3087499D02*
D03*
X-6700000Y2912499D02*
D03*
X6449999Y-3087500D02*
D03*
X4249999Y2912499D02*
D03*
X2849997Y-3087500D02*
D03*
X649999Y2912499D02*
D03*
X-1150002Y-3087500D02*
D03*
X-3350001Y2912499D02*
D03*
X-4750001Y-3087500D02*
D03*
X-6950001Y2912499D02*
D03*
X6950000Y-3087499D02*
D03*
X4750000Y2912499D02*
D03*
X3349998Y-3087500D02*
D03*
X1150000Y2912499D02*
D03*
X-650000Y-3087499D02*
D03*
X-2850000Y2912499D02*
D03*
X-4250000Y-3087499D02*
D03*
X-6450000Y2912499D02*
D03*
X6949999Y-2912498D02*
D03*
X4750000Y3087500D02*
D03*
X3349998Y-2912499D02*
D03*
X1150000Y3087500D02*
D03*
X-650001Y-2912498D02*
D03*
X-4250001D02*
D03*
X-6450000Y3087500D02*
D03*
X6450000Y-2912499D02*
D03*
X4250000Y3087499D02*
D03*
X2849998Y-2912500D02*
D03*
X650000Y3087499D02*
D03*
X-1150000Y-2912499D02*
D03*
X-3350000Y3087499D02*
D03*
X-4750000Y-2912499D02*
D03*
X-6950000Y3087499D02*
D03*
X6699999Y-2912499D02*
D03*
X4500000Y3087499D02*
D03*
X3099998Y-2912500D02*
D03*
X900000Y3087499D02*
D03*
X-900001Y-2912499D02*
D03*
X-3100000Y3087499D02*
D03*
X-4500001Y-2912499D02*
D03*
X-6700000Y3087499D02*
D03*
X3650000Y410000D02*
D03*
X3950000D02*
D03*
X8120000Y120000D02*
D03*
X9025000Y1260000D02*
D03*
D36*
X1870000Y-95000D02*
D03*
X2130000Y0D02*
D03*
Y-95000D02*
D03*
Y95000D02*
D03*
X1870000D02*
D03*
D37*
X-6997500Y-2325000D02*
D03*
X-6202500D02*
D03*
X-6997500Y-925000D02*
D03*
Y475000D02*
D03*
X-6202500Y-925000D02*
D03*
Y475000D02*
D03*
X-6997500Y1875000D02*
D03*
X-6202500D02*
D03*
X6997500Y-2325000D02*
D03*
X6202500D02*
D03*
Y-925000D02*
D03*
X6997500D02*
D03*
X6202500Y475000D02*
D03*
X6997500D02*
D03*
X6202500Y1875000D02*
D03*
X6997500D02*
D03*
X6202500Y2325000D02*
D03*
X6997500D02*
D03*
Y-1875000D02*
D03*
X6202500D02*
D03*
X-6202500D02*
D03*
X-6997500D02*
D03*
X-6202500Y-475000D02*
D03*
X-6997500D02*
D03*
X6997500D02*
D03*
X6202500D02*
D03*
X6997500Y925000D02*
D03*
X6202500D02*
D03*
X-6202500Y925000D02*
D03*
X-6997500D02*
D03*
X-6202500Y2325000D02*
D03*
X-6997500D02*
D03*
D38*
X50000Y-2045000D02*
D03*
X7800000Y-3185000D02*
D03*
X8275000Y-3185001D02*
D03*
X8750000Y-3185000D02*
D03*
X-50000Y-2045000D02*
D03*
X0Y-1915000D02*
D03*
X7900000Y-3185000D02*
D03*
X7850000Y-3315000D02*
D03*
X8375000Y-3185000D02*
D03*
X8325000Y-3315000D02*
D03*
X8850000Y-3185000D02*
D03*
X8800000Y-3315000D02*
D03*
D39*
X-8100000Y2623250D02*
D03*
X-8050000D02*
D03*
X-8100000Y2706750D02*
D03*
X-8050000D02*
D03*
X-8200000D02*
D03*
Y2623250D02*
D03*
X-8250000D02*
D03*
Y2706750D02*
D03*
D40*
X-4405000Y1100000D02*
D03*
X-4295000Y1150000D02*
D03*
X-4405000Y1200000D02*
D03*
D41*
X-8470000Y2922900D02*
D03*
X-7830000D02*
D03*
X-7910000D02*
D03*
X-8390000D02*
D03*
D42*
X-8661000Y3373400D02*
D03*
Y2980400D02*
D03*
X-7639000D02*
D03*
Y3373400D02*
D03*
D43*
X-3800000Y2107500D02*
D03*
X-3705000Y1897499D02*
D03*
X-3895000Y1897500D02*
D03*
D44*
X3660000Y-965000D02*
D03*
X8790000Y1650000D02*
D03*
Y1420000D02*
D03*
Y1190000D02*
D03*
X3940000Y-965000D02*
D03*
X8510000Y1190000D02*
D03*
Y1420000D02*
D03*
Y1650000D02*
D03*
D45*
X3705000Y-1420001D02*
D03*
X3895000D02*
D03*
Y-1160001D02*
D03*
X3800000D02*
D03*
X3705000D02*
D03*
X3800000Y-1420000D02*
D03*
D46*
Y207000D02*
D03*
X3546000D02*
D03*
X4054000D02*
D03*
Y-707000D02*
D03*
X3800000D02*
D03*
X3546000D02*
D03*
D47*
X8550000Y-2382500D02*
D03*
Y-2517500D02*
D03*
D48*
X7510000Y-275000D02*
D03*
Y-125000D02*
D03*
X7790000D02*
D03*
Y-175000D02*
D03*
Y-225000D02*
D03*
Y-275000D02*
D03*
X7510000Y-225000D02*
D03*
Y-175000D02*
D03*
D50*
X7675000Y-340000D02*
D03*
X7725000D02*
D03*
Y-60000D02*
D03*
X7625000Y-340000D02*
D03*
X7575000D02*
D03*
Y-60000D02*
D03*
X7625000D02*
D03*
X7675000D02*
D03*
D51*
X707107Y809637D02*
D03*
X728320Y639931D02*
D03*
X802566Y714178D02*
D03*
X632860Y735391D02*
D03*
D52*
X7498000Y1346000D02*
D03*
Y1600000D02*
D03*
Y1727000D02*
D03*
Y1854000D02*
D03*
X7902000D02*
D03*
Y1727000D02*
D03*
Y1600000D02*
D03*
X7498000Y1473000D02*
D03*
X7902000D02*
D03*
Y1346000D02*
D03*
D53*
X8235000Y1490000D02*
D03*
Y1380000D02*
D03*
Y1710000D02*
D03*
Y1600000D02*
D03*
Y1820000D02*
D03*
X8165000Y1710000D02*
D03*
X8165000Y1380000D02*
D03*
X8165000Y1490000D02*
D03*
X8165000Y1600000D02*
D03*
Y1820000D02*
D03*
D54*
X8245000Y2430000D02*
D03*
Y2330000D02*
D03*
X8115000Y2380000D02*
D03*
X8285500Y2650000D02*
D03*
Y2550000D02*
D03*
X8414500Y2600000D02*
D03*
D55*
X7150000Y-130000D02*
D03*
Y-270000D02*
D03*
X7850000Y2570000D02*
D03*
X7850000Y2430000D02*
D03*
X7980000Y2570000D02*
D03*
Y2430000D02*
D03*
X4400000Y270000D02*
D03*
Y129999D02*
D03*
X3200000Y130000D02*
D03*
Y270000D02*
D03*
X4250000Y270000D02*
D03*
X4250000Y129999D02*
D03*
X3350000Y130000D02*
D03*
Y270000D02*
D03*
D56*
X9100000Y-3175000D02*
D03*
Y-3325000D02*
D03*
X7675000Y-3175000D02*
D03*
Y-3325000D02*
D03*
X8150000D02*
D03*
Y-3175000D02*
D03*
X8625000Y-3325000D02*
D03*
Y-3175000D02*
D03*
D57*
X-8075000Y2922900D02*
D03*
X-8175000D02*
D03*
X-8125000D02*
D03*
X-8225000D02*
D03*
X-8275000D02*
D03*
X-8025000D02*
D03*
X-8325000D02*
D03*
X-7975000D02*
D03*
D58*
X7980200Y-940000D02*
D03*
Y-520000D02*
D03*
D59*
X7000000Y-1150000D02*
D03*
X6650000D02*
D03*
X6560000Y-1350000D02*
D03*
X6740000D02*
D03*
X6910000D02*
D03*
X7090000D02*
D03*
D60*
X1173798Y608112D02*
D03*
X997021Y784889D02*
D03*
D61*
X-8352501Y-1465000D02*
D03*
X-8147501D02*
D03*
X-8752501D02*
D03*
X-8547501D02*
D03*
X-9152501D02*
D03*
X-8947501D02*
D03*
X-9552501D02*
D03*
X-9347501D02*
D03*
X-9952501D02*
D03*
X-9747501D02*
D03*
D62*
X9600000Y1120000D02*
D03*
Y1680000D02*
D03*
D163*
X-5880000Y195000D02*
D03*
Y-195000D02*
D03*
X-5320000D02*
D03*
Y-130000D02*
D03*
Y-65000D02*
D03*
Y0D02*
D03*
Y65000D02*
D03*
Y130000D02*
D03*
Y195000D02*
D03*
X-5880000Y-130000D02*
D03*
Y-65000D02*
D03*
Y0D02*
D03*
Y65000D02*
D03*
Y130000D02*
D03*
D164*
X7650000Y-200000D02*
D03*
%TF.MD5,fc1683e764c1d37b0bfaba953fb14db6*%
M02*
