%TF.GenerationSoftware,Altium Limited,Altium Designer,25.8.1 (18)*%
G04 Layer_Color=128*
%FSLAX45Y45*%
%MOMM*%
%TF.SameCoordinates,304ADD41-B96C-4BE1-A440-764D1465AFBB*%
%TF.FilePolarity,Positive*%
%TF.FileFunction,Paste,Bot*%
%TF.Part,Single*%
G01*
G75*
%TA.AperFunction,SMDPad,CuDef*%
%ADD86R,0.15000X0.15000*%
D86*
X-6450000Y3357500D02*
D03*
X-4750001Y-3357500D02*
D03*
X-2850000Y3357500D02*
D03*
X-1150000Y-3357500D02*
D03*
X1150000Y3357500D02*
D03*
X2850001Y-3357499D02*
D03*
X4750000Y3357500D02*
D03*
X6450001Y-3357499D02*
D03*
X-6700000Y3357500D02*
D03*
X-4500001Y-3357500D02*
D03*
X-3100000Y3357500D02*
D03*
X-900000Y-3357500D02*
D03*
X900000Y3357500D02*
D03*
X3100001Y-3357499D02*
D03*
X4500000Y3357500D02*
D03*
X6700001Y-3357499D02*
D03*
X-6950000Y3357500D02*
D03*
X-4250001Y-3357500D02*
D03*
X-3350000Y3357500D02*
D03*
X-650000Y-3357500D02*
D03*
X650000Y3357500D02*
D03*
X3350001Y-3357499D02*
D03*
X4250000Y3357500D02*
D03*
X6950001Y-3357499D02*
D03*
X-6450000Y2642500D02*
D03*
X-4750001Y-2642500D02*
D03*
X-2850000Y2642500D02*
D03*
X-1150000Y-2642500D02*
D03*
X1150000Y2642500D02*
D03*
X2850001Y-2642499D02*
D03*
X4750000Y2642500D02*
D03*
X6450001Y-2642499D02*
D03*
X-6700000Y2642500D02*
D03*
X-4500001Y-2642500D02*
D03*
X-3100000Y2642500D02*
D03*
X-900000Y-2642500D02*
D03*
X900000Y2642500D02*
D03*
X3100001Y-2642499D02*
D03*
X4500000Y2642500D02*
D03*
X6700001Y-2642499D02*
D03*
X-6950000Y2642500D02*
D03*
X-4250001Y-2642500D02*
D03*
X-3350000Y2642500D02*
D03*
X-650000Y-2642499D02*
D03*
X650000Y2642500D02*
D03*
X3350001Y-2642499D02*
D03*
X4250000Y2642500D02*
D03*
X6950001Y-2642499D02*
D03*
X6950001Y-2657499D02*
D03*
X4250000Y2657500D02*
D03*
X3350001Y-2657499D02*
D03*
X650000Y2657500D02*
D03*
X-650000Y-2657500D02*
D03*
X-3350000Y2657500D02*
D03*
X-4250001Y-2657500D02*
D03*
X-6950000Y2657500D02*
D03*
X6450001Y-3117499D02*
D03*
X6450001Y-3132499D02*
D03*
X4750000Y3117500D02*
D03*
Y3132500D02*
D03*
X2850001Y-3117499D02*
D03*
Y-3132499D02*
D03*
X1150000Y3117500D02*
D03*
Y3132500D02*
D03*
X-1150000Y-3117499D02*
D03*
Y-3132500D02*
D03*
X-2850000Y3117500D02*
D03*
Y3132500D02*
D03*
X-4750001Y-3117500D02*
D03*
X-4750001Y-3132500D02*
D03*
X-6450000Y3117500D02*
D03*
Y3132500D02*
D03*
X6700001Y-2657499D02*
D03*
X4500000Y2657500D02*
D03*
X3100001Y-2657499D02*
D03*
X900000Y2657500D02*
D03*
X-900000Y-2657500D02*
D03*
X-3100000Y2657500D02*
D03*
X-4500001Y-2657500D02*
D03*
X-6700000Y2657500D02*
D03*
X6700001Y-3117499D02*
D03*
X6700001Y-3132499D02*
D03*
X4500000Y3117500D02*
D03*
Y3132500D02*
D03*
X3100001Y-3117499D02*
D03*
X3100001Y-3132499D02*
D03*
X900000Y3117500D02*
D03*
Y3132500D02*
D03*
X-900000Y-3117500D02*
D03*
Y-3132500D02*
D03*
X-3100000Y3117500D02*
D03*
Y3132500D02*
D03*
X-4500001Y-3117500D02*
D03*
Y-3132500D02*
D03*
X-6700000Y3117500D02*
D03*
Y3132500D02*
D03*
X6450001Y-2657499D02*
D03*
X4750000Y2657500D02*
D03*
X2850001Y-2657499D02*
D03*
X1150000Y2657500D02*
D03*
X-1150000Y-2657500D02*
D03*
X-2850000Y2657500D02*
D03*
X-4750001Y-2657500D02*
D03*
X-6450000Y2657500D02*
D03*
X6950001Y-3117498D02*
D03*
Y-3132499D02*
D03*
X4250000Y3117500D02*
D03*
Y3132500D02*
D03*
X3350001Y-3117499D02*
D03*
Y-3132499D02*
D03*
X650000Y3117500D02*
D03*
Y3132500D02*
D03*
X-650000Y-3117500D02*
D03*
X-650000Y-3132500D02*
D03*
X-3350000Y3117500D02*
D03*
Y3132500D02*
D03*
X-4250001Y-3117500D02*
D03*
Y-3132500D02*
D03*
X-6950000Y3117500D02*
D03*
Y3132500D02*
D03*
X6950001Y-3342498D02*
D03*
X4250000Y3342500D02*
D03*
X3350001Y-3342498D02*
D03*
X650000Y3342500D02*
D03*
X-650000Y-3342499D02*
D03*
X-3350000Y3342500D02*
D03*
X-4250001Y-3342500D02*
D03*
X-6950000Y3342500D02*
D03*
X6950001Y-2882499D02*
D03*
X6950001Y-2867498D02*
D03*
X4250000Y2882500D02*
D03*
Y2867500D02*
D03*
X3350001Y-2882499D02*
D03*
Y-2867499D02*
D03*
X650000Y2882500D02*
D03*
Y2867500D02*
D03*
X-650000Y-2882500D02*
D03*
X-650000Y-2867499D02*
D03*
X-3350000Y2882500D02*
D03*
Y2867500D02*
D03*
X-4250001Y-2882500D02*
D03*
Y-2867499D02*
D03*
X-6950000Y2882500D02*
D03*
Y2867500D02*
D03*
X6700001Y-3342498D02*
D03*
X4500000Y3342500D02*
D03*
X3100001Y-3342499D02*
D03*
X900000Y3342500D02*
D03*
X-900000Y-3342499D02*
D03*
X-3100000Y3342500D02*
D03*
X-4500001Y-3342500D02*
D03*
X-6700000Y3342500D02*
D03*
X6700001Y-2882499D02*
D03*
X6700001Y-2867498D02*
D03*
X4500000Y2882500D02*
D03*
Y2867500D02*
D03*
X3100001Y-2882499D02*
D03*
X3100001Y-2867499D02*
D03*
X900000Y2882500D02*
D03*
Y2867500D02*
D03*
X-900000Y-2882500D02*
D03*
Y-2867499D02*
D03*
X-3100000Y2882500D02*
D03*
Y2867500D02*
D03*
X-4500001Y-2882500D02*
D03*
Y-2867499D02*
D03*
X-6700000Y2882500D02*
D03*
Y2867500D02*
D03*
X6450001Y-3342498D02*
D03*
X4750000Y3342500D02*
D03*
X2850001Y-3342499D02*
D03*
X1150000Y3342500D02*
D03*
X-1150000Y-3342499D02*
D03*
X-2850000Y3342500D02*
D03*
X-4750001Y-3342499D02*
D03*
X-6450000Y3342500D02*
D03*
X6450001Y-2882499D02*
D03*
X6450001Y-2867498D02*
D03*
X4750000Y2882500D02*
D03*
Y2867500D02*
D03*
X2850001Y-2882499D02*
D03*
Y-2867499D02*
D03*
X1150000Y2882500D02*
D03*
Y2867500D02*
D03*
X-1150000Y-2882500D02*
D03*
Y-2867499D02*
D03*
X-2850000Y2882500D02*
D03*
Y2867500D02*
D03*
X-4750001Y-2882500D02*
D03*
X-4750001Y-2867499D02*
D03*
X-6450000Y2882500D02*
D03*
Y2867500D02*
D03*
%TF.MD5,04492872138fd61ade2c7d1db4d727e3*%
M02*
