%TF.GenerationSoftware,Altium Limited,Altium Designer,25.8.1 (18)*%
G04 Layer_Color=65535*
%FSLAX45Y45*%
%MOMM*%
%TF.SameCoordinates,304ADD41-B96C-4BE1-A440-764D1465AFBB*%
%TF.FilePolarity,Positive*%
%TF.FileFunction,Legend,Top*%
%TF.Part,Single*%
G01*
G75*
%TA.AperFunction,NonConductor*%
%ADD88C,0.30000*%
%ADD89C,0.40000*%
%ADD90C,0.20000*%
%ADD91C,0.25000*%
%ADD92C,0.60000*%
%ADD93C,0.10000*%
%ADD94R,0.76500X4.83000*%
G36*
X-8481644Y1871747D02*
Y1871562D01*
Y1870451D01*
X-8481829Y1868784D01*
X-8482015Y1866747D01*
Y1864711D01*
X-8482200Y1862674D01*
X-8482385Y1860822D01*
Y1859341D01*
X-8483311Y1838602D01*
Y1838417D01*
Y1837861D01*
Y1836750D01*
Y1835454D01*
X-8483496Y1833417D01*
Y1831010D01*
Y1828048D01*
Y1824529D01*
X-8492939D01*
X-8495532Y1824715D01*
X-8541268D01*
X-8544786Y1824529D01*
X-8556451D01*
Y1824715D01*
Y1825640D01*
Y1826751D01*
X-8556266Y1828418D01*
Y1830270D01*
X-8556081Y1832492D01*
Y1835084D01*
X-8555896Y1837676D01*
Y1843416D01*
X-8555711Y1849157D01*
X-8555525Y1854526D01*
Y1857119D01*
Y1859341D01*
Y1859526D01*
Y1859896D01*
Y1860822D01*
Y1862118D01*
Y1863785D01*
Y1866007D01*
X-8555711Y1868599D01*
Y1871932D01*
X-8552192D01*
X-8550341Y1871747D01*
X-8543304D01*
X-8540527Y1871562D01*
X-8531269D01*
X-8524788Y1871376D01*
X-8505716D01*
X-8500161Y1871562D01*
X-8493865D01*
X-8487755Y1871747D01*
X-8481644Y1871932D01*
Y1871747D01*
D02*
G37*
G36*
X-7341762Y1867303D02*
Y1866933D01*
X-7341947Y1866192D01*
Y1865081D01*
X-7342133Y1863600D01*
X-7342318Y1862118D01*
Y1860081D01*
X-7342503Y1858045D01*
X-7342873Y1855452D01*
X-7343058Y1852860D01*
X-7343244Y1849897D01*
X-7343614Y1846749D01*
X-7343799Y1843231D01*
X-7344169Y1839713D01*
X-7344355Y1835825D01*
X-7344725Y1831751D01*
X-7345095Y1827307D01*
X-7345466Y1822863D01*
X-7345651Y1818234D01*
X-7346021Y1813420D01*
X-7346762Y1803050D01*
X-7347502Y1792125D01*
X-7348243Y1780460D01*
X-7348984Y1768424D01*
X-7349724Y1755833D01*
X-7350465Y1742686D01*
Y1742501D01*
Y1741945D01*
Y1740834D01*
X-7350650Y1739538D01*
Y1737872D01*
X-7350835Y1735835D01*
Y1733613D01*
X-7351021Y1731021D01*
X-7351206Y1728243D01*
Y1725095D01*
X-7351391Y1721762D01*
X-7351576Y1718244D01*
X-7351761Y1714541D01*
X-7351946Y1710652D01*
X-7352132Y1702320D01*
X-7352502Y1693617D01*
X-7352872Y1684729D01*
X-7353428Y1666213D01*
X-7353613Y1657139D01*
X-7353798Y1648437D01*
X-7353983Y1640104D01*
Y1632327D01*
X-7363797D01*
X-7366204Y1632512D01*
X-7408052D01*
X-7411570Y1632327D01*
X-7423235D01*
X-7422319Y1653397D01*
X-7422495Y1652695D01*
X-7422865Y1651584D01*
X-7423421Y1650288D01*
X-7424161Y1648622D01*
X-7425272Y1647140D01*
X-7426568Y1645474D01*
X-7428235Y1643807D01*
X-7428420Y1643622D01*
X-7429161Y1643067D01*
X-7430272Y1642326D01*
X-7431568Y1641400D01*
X-7433419Y1640289D01*
X-7435641Y1638808D01*
X-7438234Y1637512D01*
X-7441196Y1636031D01*
X-7441567Y1635845D01*
X-7442493Y1635475D01*
X-7444159Y1634734D01*
X-7446381Y1633994D01*
X-7448788Y1633068D01*
X-7451751Y1632142D01*
X-7454899Y1631216D01*
X-7458232Y1630290D01*
X-7458602D01*
X-7459158Y1630105D01*
X-7459713Y1629920D01*
X-7461565Y1629550D01*
X-7463972Y1629179D01*
X-7466749Y1628809D01*
X-7470082Y1628439D01*
X-7473415Y1628254D01*
X-7477119Y1628068D01*
X-7478785D01*
X-7479896Y1628254D01*
X-7481377D01*
X-7483229Y1628439D01*
X-7485266Y1628624D01*
X-7487303Y1628809D01*
X-7492117Y1629550D01*
X-7497487Y1630661D01*
X-7503042Y1632142D01*
X-7508597Y1634179D01*
X-7508782D01*
X-7509152Y1634549D01*
X-7510078Y1634734D01*
X-7511004Y1635290D01*
X-7512300Y1636031D01*
X-7513782Y1636771D01*
X-7517115Y1638623D01*
X-7521188Y1641030D01*
X-7525262Y1644178D01*
X-7529521Y1647511D01*
X-7533594Y1651584D01*
X-7533779Y1651770D01*
X-7533965Y1652140D01*
X-7534520Y1652695D01*
X-7535261Y1653621D01*
X-7536187Y1654732D01*
X-7537112Y1656028D01*
X-7538223Y1657510D01*
X-7539334Y1659176D01*
X-7541927Y1663065D01*
X-7544519Y1667694D01*
X-7546926Y1672693D01*
X-7548963Y1678248D01*
Y1678434D01*
X-7549148Y1678989D01*
X-7549333Y1679730D01*
X-7549704Y1680841D01*
X-7550074Y1682322D01*
X-7550630Y1683989D01*
X-7551000Y1685840D01*
X-7551370Y1688062D01*
X-7551926Y1690284D01*
X-7552296Y1692691D01*
X-7553222Y1698246D01*
X-7553777Y1703986D01*
X-7553963Y1710097D01*
Y1710282D01*
Y1711208D01*
Y1712319D01*
X-7553777Y1714171D01*
X-7553592Y1716207D01*
X-7553407Y1718615D01*
X-7553222Y1721392D01*
X-7552852Y1724540D01*
X-7552296Y1727873D01*
X-7551741Y1731391D01*
X-7551000Y1735094D01*
X-7550074Y1739168D01*
X-7549148Y1743056D01*
X-7547852Y1747130D01*
X-7546556Y1751389D01*
X-7544889Y1755463D01*
X-7544704Y1755648D01*
X-7544519Y1756388D01*
X-7543964Y1757685D01*
X-7543223Y1759166D01*
X-7542297Y1761018D01*
X-7541186Y1763240D01*
X-7539890Y1765647D01*
X-7538409Y1768239D01*
X-7535076Y1773794D01*
X-7531002Y1779534D01*
X-7526188Y1785274D01*
X-7523780Y1788052D01*
X-7521003Y1790459D01*
X-7520818Y1790644D01*
X-7520262Y1791014D01*
X-7519522Y1791755D01*
X-7518411Y1792496D01*
X-7516929Y1793607D01*
X-7515263Y1794903D01*
X-7513411Y1796199D01*
X-7511189Y1797680D01*
X-7508782Y1799162D01*
X-7506190Y1800643D01*
X-7503412Y1802124D01*
X-7500450Y1803606D01*
X-7494154Y1806383D01*
X-7487303Y1808790D01*
X-7487118D01*
X-7486377Y1808976D01*
X-7485451Y1809346D01*
X-7483970Y1809716D01*
X-7482303Y1810087D01*
X-7480266Y1810457D01*
X-7477859Y1811012D01*
X-7475267Y1811568D01*
X-7472489Y1811938D01*
X-7469342Y1812494D01*
X-7466009Y1812864D01*
X-7462491Y1813420D01*
X-7455084Y1813975D01*
X-7447307Y1814160D01*
X-7443604D01*
X-7442122Y1813975D01*
X-7440456D01*
X-7438419Y1813790D01*
X-7434160Y1813605D01*
X-7429161Y1813234D01*
X-7423791Y1812494D01*
X-7418236Y1811753D01*
Y1811938D01*
Y1812494D01*
X-7418051Y1813605D01*
Y1814901D01*
X-7417866Y1816753D01*
Y1819160D01*
X-7417680Y1821752D01*
Y1824900D01*
X-7417495Y1828603D01*
X-7417310Y1832677D01*
X-7417125Y1837306D01*
Y1842305D01*
X-7416940Y1847860D01*
X-7416755Y1853971D01*
Y1860452D01*
X-7416569Y1867488D01*
X-7413051D01*
X-7411200Y1867303D01*
X-7404163D01*
X-7401201Y1867118D01*
X-7392127D01*
X-7385832Y1866933D01*
X-7367500D01*
X-7364723Y1867118D01*
X-7355279D01*
X-7348613Y1867303D01*
X-7341762Y1867488D01*
Y1867303D01*
D02*
G37*
G36*
X-8101869Y1802865D02*
X-8106868Y1708430D01*
X-8107424Y1688803D01*
X-8101869D01*
X-8099832Y1688618D01*
X-8089463D01*
X-8083908Y1688432D01*
X-8057984D01*
X-8053170Y1688618D01*
X-8042616D01*
X-8036875Y1688803D01*
X-8025210Y1688988D01*
X-8019470Y1689173D01*
X-8013915Y1689358D01*
X-8008545Y1689543D01*
X-8003546Y1689729D01*
X-8007619Y1632327D01*
X-8030209D01*
X-8036135Y1632512D01*
X-8158530D01*
X-8175380Y1632327D01*
X-8192230D01*
Y1632512D01*
Y1632883D01*
X-8192045Y1633438D01*
Y1634179D01*
X-8191859Y1635290D01*
Y1636586D01*
X-8191674Y1637882D01*
X-8191489Y1639549D01*
X-8191304Y1643252D01*
X-8190748Y1647326D01*
X-8190378Y1652140D01*
X-8190008Y1657139D01*
X-8189452Y1662509D01*
X-8188897Y1668064D01*
X-8187971Y1679359D01*
X-8187601Y1684914D01*
X-8187045Y1690284D01*
X-8186675Y1695469D01*
X-8186304Y1700283D01*
Y1700468D01*
Y1700839D01*
X-8186119Y1701394D01*
Y1702320D01*
Y1703431D01*
X-8185934Y1704727D01*
Y1706394D01*
X-8185749Y1708060D01*
X-8185564Y1710097D01*
X-8185379Y1712134D01*
X-8185008Y1717133D01*
X-8184638Y1722503D01*
X-8184268Y1728614D01*
X-8183897Y1735279D01*
X-8183527Y1742316D01*
X-8182971Y1749908D01*
X-8182601Y1757685D01*
X-8182231Y1765647D01*
X-8181860Y1773979D01*
X-8181120Y1790644D01*
Y1790829D01*
Y1791200D01*
Y1791755D01*
Y1792681D01*
X-8180935Y1793792D01*
Y1794903D01*
Y1796569D01*
X-8180749Y1798236D01*
Y1801939D01*
X-8180564Y1806568D01*
X-8180379Y1811568D01*
X-8180194Y1817123D01*
X-8180009Y1822863D01*
X-8179824Y1828973D01*
X-8179638Y1835454D01*
Y1841935D01*
X-8179268Y1854897D01*
Y1861192D01*
Y1867303D01*
X-8173343D01*
X-8170936Y1867118D01*
X-8158530D01*
X-8151308Y1866933D01*
X-8125014D01*
X-8122422Y1867118D01*
X-8113164D01*
X-8109646Y1867303D01*
X-8105757D01*
X-8101869Y1867488D01*
X-8097795D01*
X-8101869Y1802865D01*
D02*
G37*
G36*
X-9738736Y1812309D02*
X-9744847Y1685840D01*
X-9746328Y1632327D01*
X-9821691D01*
X-9818728Y1672138D01*
X-9812247Y1796940D01*
X-9810210Y1867118D01*
X-9796693D01*
X-9790583Y1866933D01*
X-9760401D01*
X-9757808Y1867118D01*
X-9748550D01*
X-9741699Y1867303D01*
X-9734663Y1867488D01*
X-9738736Y1812309D01*
D02*
G37*
G36*
X-9845207Y1858045D02*
Y1857859D01*
Y1857489D01*
Y1856748D01*
X-9845392Y1855452D01*
Y1853601D01*
X-9845577Y1852304D01*
Y1851008D01*
Y1849527D01*
X-9845762Y1847675D01*
Y1845824D01*
X-9845947Y1843602D01*
X-9847058Y1825455D01*
Y1825270D01*
Y1824529D01*
Y1823419D01*
Y1821752D01*
X-9847243Y1819715D01*
Y1817123D01*
Y1813975D01*
Y1810457D01*
X-9848910D01*
X-9850762Y1810642D01*
X-9853169D01*
X-9856317Y1810827D01*
X-9859835D01*
X-9863723Y1811012D01*
X-9867982Y1811198D01*
X-9872426D01*
X-9877055Y1811383D01*
X-9886684Y1811568D01*
X-9896312Y1811753D01*
X-9928902D01*
X-9931309Y1811568D01*
X-9943345D01*
X-9946678Y1811383D01*
X-9950751D01*
X-9955380Y1811198D01*
X-9960565Y1811012D01*
X-9962417Y1779164D01*
X-9958158D01*
X-9956491Y1778979D01*
X-9945752D01*
X-9942234Y1778793D01*
X-9914088D01*
X-9911866Y1778979D01*
X-9905756D01*
X-9901867Y1779164D01*
X-9897609Y1779349D01*
X-9892609D01*
X-9887054Y1779534D01*
X-9880758Y1779719D01*
X-9873907Y1780090D01*
X-9870204D01*
X-9866316Y1780275D01*
Y1779904D01*
Y1779164D01*
X-9866501Y1777682D01*
X-9866686Y1775831D01*
X-9866871Y1773424D01*
X-9867056Y1770461D01*
X-9867241Y1767313D01*
X-9867427Y1763610D01*
X-9867797Y1759351D01*
X-9867982Y1754907D01*
X-9868352Y1750278D01*
X-9868538Y1745093D01*
X-9868908Y1739723D01*
X-9869278Y1734168D01*
X-9869463Y1728428D01*
X-9869834Y1722318D01*
X-9884277D01*
X-9887795Y1722503D01*
X-9929087D01*
X-9932235Y1722318D01*
X-9939456D01*
X-9943530Y1722133D01*
X-9947789D01*
X-9956677Y1721762D01*
X-9966120Y1721392D01*
X-9967787Y1687692D01*
X-9941308D01*
X-9938715Y1687877D01*
X-9925198D01*
X-9921310Y1688062D01*
X-9916866D01*
X-9882240Y1688803D01*
X-9880758D01*
X-9879833Y1688988D01*
X-9877426D01*
X-9875759Y1689173D01*
X-9873907D01*
X-9871871Y1689358D01*
X-9869463D01*
X-9866686Y1689543D01*
X-9863723Y1689729D01*
X-9860390Y1689914D01*
X-9856687Y1690284D01*
X-9852798Y1690469D01*
Y1690099D01*
Y1689173D01*
X-9852984Y1687692D01*
X-9853169Y1685470D01*
X-9853354Y1682878D01*
X-9853539Y1679730D01*
X-9853909Y1676212D01*
X-9854095Y1672323D01*
X-9854465Y1668064D01*
X-9854650Y1663620D01*
X-9855020Y1658806D01*
X-9855206Y1653806D01*
X-9855946Y1643252D01*
X-9856502Y1632327D01*
X-9878537D01*
X-9884647Y1632512D01*
X-9949270D01*
X-10022781Y1632327D01*
X-10050000D01*
Y1632512D01*
Y1632883D01*
X-10049815Y1633438D01*
Y1634364D01*
X-10049630Y1635475D01*
Y1636956D01*
X-10049445Y1638438D01*
X-10049260Y1640104D01*
X-10049074Y1644178D01*
X-10048519Y1648807D01*
X-10048149Y1653806D01*
X-10047778Y1659547D01*
X-10047223Y1665287D01*
X-10046667Y1671582D01*
X-10045741Y1684174D01*
X-10045371Y1690469D01*
X-10044816Y1696765D01*
X-10044445Y1702690D01*
X-10044075Y1708245D01*
Y1708616D01*
X-10043890Y1709541D01*
Y1711208D01*
X-10043705Y1713615D01*
X-10043519Y1716393D01*
X-10043334Y1719911D01*
X-10043149Y1724170D01*
X-10042779Y1728799D01*
X-10042594Y1733983D01*
X-10042223Y1739909D01*
X-10041853Y1746204D01*
X-10041483Y1753055D01*
X-10041297Y1760462D01*
X-10040927Y1768239D01*
X-10040557Y1776757D01*
X-10040186Y1785459D01*
Y1785645D01*
Y1786015D01*
Y1786756D01*
Y1787496D01*
X-10040001Y1788607D01*
Y1790089D01*
Y1791570D01*
X-10039816Y1793236D01*
Y1797125D01*
X-10039631Y1801569D01*
X-10039446Y1806383D01*
X-10039261Y1811568D01*
X-10038890Y1822122D01*
X-10038705Y1827492D01*
Y1832677D01*
X-10038520Y1837491D01*
X-10038335Y1841935D01*
Y1845824D01*
Y1847675D01*
Y1849157D01*
X-10038520Y1867118D01*
X-10011301D01*
X-10004449Y1866933D01*
X-9876129D01*
X-9860020Y1867118D01*
X-9844651D01*
X-9845207Y1858045D01*
D02*
G37*
G36*
X-8482015Y1809901D02*
Y1809716D01*
Y1809161D01*
X-8482200Y1808420D01*
Y1806568D01*
X-8482570Y1804161D01*
X-8482755Y1801013D01*
X-8482940Y1797495D01*
X-8483311Y1793607D01*
X-8483681Y1789163D01*
X-8484051Y1784719D01*
X-8484422Y1779904D01*
X-8484977Y1769906D01*
X-8485718Y1759907D01*
X-8486088Y1755092D01*
X-8486273Y1750463D01*
Y1750278D01*
Y1749352D01*
X-8486459Y1748056D01*
Y1746389D01*
X-8486644Y1744167D01*
Y1741575D01*
X-8486829Y1738612D01*
X-8487014Y1735279D01*
Y1731761D01*
X-8487199Y1727873D01*
X-8487384Y1723614D01*
X-8487570Y1719355D01*
Y1714726D01*
X-8487755Y1710097D01*
X-8487940Y1700283D01*
Y1700098D01*
Y1699728D01*
Y1699172D01*
Y1698431D01*
Y1697320D01*
Y1696024D01*
Y1694728D01*
Y1693062D01*
X-8488125Y1689358D01*
Y1685099D01*
Y1680470D01*
Y1675286D01*
X-8488310Y1669916D01*
Y1664361D01*
Y1653066D01*
X-8488495Y1647511D01*
Y1642141D01*
Y1637142D01*
Y1632327D01*
X-8499235D01*
X-8502012Y1632512D01*
X-8549415D01*
X-8553489Y1632327D01*
X-8567006D01*
Y1632698D01*
X-8566821Y1633438D01*
Y1634734D01*
X-8566635Y1636401D01*
X-8566450Y1638438D01*
X-8566265Y1640845D01*
X-8566080Y1643437D01*
X-8565710Y1646215D01*
X-8565154Y1652325D01*
X-8564599Y1658436D01*
X-8564043Y1664546D01*
X-8563858Y1667324D01*
X-8563673Y1669916D01*
Y1670101D01*
Y1670471D01*
X-8563488Y1671212D01*
Y1672323D01*
X-8563302Y1673619D01*
X-8563117Y1675101D01*
Y1676952D01*
X-8562932Y1678989D01*
X-8562747Y1681396D01*
X-8562562Y1683803D01*
X-8562377Y1686581D01*
X-8562191Y1689543D01*
X-8561821Y1692691D01*
X-8561636Y1696209D01*
X-8561451Y1699728D01*
X-8561266Y1703431D01*
Y1703616D01*
Y1704357D01*
X-8561080Y1705468D01*
Y1706949D01*
X-8560895Y1708986D01*
Y1711208D01*
X-8560710Y1713800D01*
X-8560525Y1716763D01*
Y1720096D01*
X-8560340Y1723614D01*
X-8560155Y1727317D01*
X-8559969Y1731206D01*
X-8559784Y1735465D01*
Y1739723D01*
X-8559414Y1748797D01*
Y1749167D01*
Y1749908D01*
X-8559229Y1751389D01*
Y1753241D01*
Y1755648D01*
X-8559044Y1758610D01*
Y1761943D01*
X-8558858Y1765832D01*
X-8558673Y1769906D01*
Y1774535D01*
X-8558488Y1779719D01*
X-8558303Y1785089D01*
Y1790829D01*
X-8558118Y1796940D01*
Y1803235D01*
X-8557933Y1809901D01*
X-8552378D01*
X-8550156Y1809716D01*
X-8539046D01*
X-8532565Y1809531D01*
X-8509234D01*
X-8506642Y1809716D01*
X-8497383D01*
X-8493865Y1809901D01*
X-8489977D01*
X-8486088Y1810087D01*
X-8482015D01*
Y1809901D01*
D02*
G37*
G36*
X-9061029Y1813975D02*
X-9059177Y1813790D01*
X-9056770Y1813605D01*
X-9053807Y1813234D01*
X-9050474Y1812494D01*
X-9046771Y1811753D01*
Y1811568D01*
Y1810827D01*
Y1809716D01*
Y1808420D01*
Y1806568D01*
X-9046586Y1804532D01*
Y1802310D01*
Y1799902D01*
X-9046400Y1794718D01*
X-9046215Y1789348D01*
X-9046030Y1784163D01*
Y1781571D01*
X-9045845Y1779349D01*
X-9044549Y1749908D01*
X-9044734D01*
X-9045104Y1750093D01*
X-9045845D01*
X-9046771Y1750278D01*
X-9047882Y1750463D01*
X-9049178Y1750648D01*
X-9052141Y1751204D01*
X-9055474Y1751759D01*
X-9058992Y1752130D01*
X-9062325Y1752315D01*
X-9065287Y1752500D01*
X-9066769D01*
X-9068620Y1752315D01*
X-9070842Y1752130D01*
X-9073435Y1751759D01*
X-9076027Y1751389D01*
X-9078805Y1750648D01*
X-9081397Y1749722D01*
X-9081767Y1749537D01*
X-9082508Y1749167D01*
X-9083804Y1748611D01*
X-9085285Y1747686D01*
X-9087137Y1746575D01*
X-9088989Y1745278D01*
X-9091026Y1743612D01*
X-9093062Y1741575D01*
X-9093247Y1741390D01*
X-9093803Y1740649D01*
X-9094729Y1739353D01*
X-9096025Y1737872D01*
X-9097321Y1735835D01*
X-9098617Y1733613D01*
X-9099913Y1730836D01*
X-9101210Y1727873D01*
X-9101395Y1727503D01*
X-9101580Y1726947D01*
X-9101765Y1726392D01*
X-9101950Y1725466D01*
X-9102321Y1724355D01*
X-9102506Y1723059D01*
X-9102876Y1721392D01*
X-9103246Y1719726D01*
X-9103617Y1717689D01*
X-9103987Y1715467D01*
X-9104357Y1713060D01*
X-9104728Y1710467D01*
X-9105098Y1707505D01*
X-9105468Y1704357D01*
X-9105654Y1701024D01*
Y1700839D01*
Y1700098D01*
X-9105839Y1699172D01*
Y1697691D01*
X-9106024Y1696024D01*
Y1693802D01*
X-9106209Y1691395D01*
Y1688618D01*
X-9106394Y1685655D01*
X-9106579Y1682137D01*
Y1678619D01*
X-9106765Y1674730D01*
Y1670657D01*
X-9106950Y1666398D01*
Y1661954D01*
Y1657325D01*
Y1657139D01*
Y1656954D01*
Y1656399D01*
Y1655658D01*
Y1654547D01*
Y1653436D01*
Y1652140D01*
X-9106765Y1650659D01*
Y1646955D01*
X-9106579Y1642696D01*
X-9106394Y1637882D01*
X-9106209Y1632327D01*
X-9115653D01*
X-9118245Y1632512D01*
X-9165277D01*
X-9168980Y1632327D01*
X-9180646D01*
X-9175646Y1710467D01*
X-9173980Y1752685D01*
Y1752870D01*
Y1753241D01*
Y1753796D01*
Y1754722D01*
Y1755648D01*
Y1756944D01*
X-9173795Y1759907D01*
Y1763425D01*
Y1767498D01*
Y1771757D01*
Y1776201D01*
Y1776386D01*
Y1776757D01*
Y1777497D01*
Y1778423D01*
Y1779719D01*
Y1781201D01*
Y1782867D01*
Y1784904D01*
Y1787311D01*
Y1789718D01*
X-9173980Y1792496D01*
Y1795644D01*
Y1798791D01*
Y1802310D01*
X-9174165Y1806198D01*
Y1810087D01*
X-9170647D01*
X-9168980Y1809901D01*
X-9161944D01*
X-9156389Y1809716D01*
X-9150279D01*
X-9144353Y1809531D01*
X-9127874D01*
X-9125281Y1809716D01*
X-9116393D01*
X-9109912Y1809901D01*
X-9102876Y1810087D01*
X-9103608Y1791244D01*
X-9103432Y1792125D01*
X-9103246Y1793236D01*
X-9102876Y1794533D01*
X-9102321Y1796014D01*
X-9101395Y1797680D01*
X-9100284Y1799347D01*
X-9098802Y1800828D01*
X-9098617Y1801013D01*
X-9098062Y1801569D01*
X-9097136Y1802310D01*
X-9095840Y1803235D01*
X-9094358Y1804346D01*
X-9092692Y1805457D01*
X-9090655Y1806754D01*
X-9088618Y1807865D01*
X-9088433Y1808050D01*
X-9087693Y1808420D01*
X-9086396Y1808976D01*
X-9084915Y1809716D01*
X-9083249Y1810457D01*
X-9081212Y1811198D01*
X-9076768Y1812494D01*
X-9076397D01*
X-9075657Y1812679D01*
X-9074361Y1813049D01*
X-9072694Y1813420D01*
X-9070842Y1813605D01*
X-9068620Y1813975D01*
X-9066213Y1814160D01*
X-9062510D01*
X-9061029Y1813975D01*
D02*
G37*
G36*
X-8657922D02*
X-8654774Y1813790D01*
X-8651256Y1813420D01*
X-8646997Y1813049D01*
X-8642739Y1812309D01*
X-8638295Y1811383D01*
X-8638109D01*
X-8637739Y1811198D01*
X-8637184Y1811012D01*
X-8636258Y1810827D01*
X-8635332Y1810642D01*
X-8634036Y1810272D01*
X-8631258Y1809346D01*
X-8628111Y1808235D01*
X-8624778Y1806939D01*
X-8621259Y1805272D01*
X-8618112Y1803421D01*
X-8617926D01*
X-8617741Y1803235D01*
X-8616630Y1802495D01*
X-8615149Y1801384D01*
X-8613297Y1799902D01*
X-8611075Y1798051D01*
X-8608668Y1796014D01*
X-8606446Y1793422D01*
X-8604224Y1790644D01*
X-8604039Y1790274D01*
X-8603298Y1789348D01*
X-8602372Y1787867D01*
X-8601076Y1785830D01*
X-8599780Y1783423D01*
X-8598669Y1780645D01*
X-8597558Y1777497D01*
X-8596632Y1774350D01*
Y1774164D01*
Y1773979D01*
X-8596262Y1772868D01*
X-8596077Y1771202D01*
X-8595706Y1768980D01*
X-8595336Y1766202D01*
X-8595151Y1763240D01*
X-8594781Y1760092D01*
Y1756759D01*
Y1756388D01*
Y1756018D01*
Y1755463D01*
Y1754722D01*
Y1753796D01*
X-8594966Y1752500D01*
Y1751204D01*
Y1749352D01*
X-8595151Y1747500D01*
X-8595336Y1745278D01*
Y1742686D01*
X-8595521Y1739723D01*
X-8595706Y1736576D01*
X-8596077Y1732872D01*
X-8596262Y1728984D01*
X-8599225Y1668620D01*
Y1668435D01*
Y1667879D01*
Y1666953D01*
X-8599410Y1665657D01*
Y1664176D01*
Y1662324D01*
X-8599595Y1660287D01*
Y1657880D01*
Y1655288D01*
X-8599780Y1652510D01*
Y1649362D01*
Y1646215D01*
X-8599965Y1639549D01*
Y1632327D01*
X-8609594D01*
X-8612001Y1632512D01*
X-8660144D01*
X-8667366Y1632327D01*
X-8674772D01*
Y1632512D01*
Y1633253D01*
X-8674587Y1634364D01*
Y1635845D01*
X-8674402Y1637697D01*
X-8674217Y1639919D01*
X-8674032Y1642511D01*
X-8673847Y1645659D01*
X-8673661Y1648992D01*
X-8673291Y1652695D01*
X-8673106Y1656584D01*
X-8672736Y1661028D01*
X-8672550Y1665657D01*
X-8672180Y1670471D01*
X-8671995Y1675841D01*
X-8671625Y1681211D01*
Y1681581D01*
Y1682507D01*
X-8671439Y1683989D01*
Y1686025D01*
X-8671254Y1688618D01*
X-8671069Y1691395D01*
X-8670884Y1694358D01*
X-8670699Y1697691D01*
X-8670514Y1704727D01*
X-8670143Y1711578D01*
Y1714911D01*
X-8669958Y1718059D01*
Y1720837D01*
Y1723244D01*
Y1723429D01*
Y1723984D01*
Y1724910D01*
Y1726021D01*
X-8670143Y1727503D01*
X-8670328Y1729169D01*
X-8670699Y1732687D01*
X-8671439Y1736761D01*
X-8672550Y1740649D01*
X-8674217Y1744167D01*
X-8675143Y1745649D01*
X-8676254Y1746945D01*
X-8676624Y1747315D01*
X-8677365Y1748056D01*
X-8678661Y1748982D01*
X-8680512Y1750278D01*
X-8682920Y1751389D01*
X-8685697Y1752500D01*
X-8688660Y1753241D01*
X-8692178Y1753426D01*
X-8693659D01*
X-8695326Y1753055D01*
X-8697363Y1752685D01*
X-8699955Y1751944D01*
X-8702547Y1751019D01*
X-8705510Y1749537D01*
X-8708473Y1747686D01*
X-8708843Y1747500D01*
X-8709769Y1746575D01*
X-8711250Y1745278D01*
X-8712917Y1743427D01*
X-8714953Y1741020D01*
X-8716990Y1738057D01*
X-8718842Y1734539D01*
X-8720694Y1730465D01*
Y1730280D01*
X-8720879Y1729910D01*
X-8721064Y1729169D01*
X-8721434Y1728243D01*
X-8721805Y1726947D01*
X-8722175Y1725466D01*
X-8722730Y1723614D01*
X-8723101Y1721392D01*
X-8723656Y1718800D01*
X-8724212Y1716022D01*
X-8724767Y1712874D01*
X-8725323Y1709356D01*
X-8725878Y1705468D01*
X-8726248Y1701209D01*
X-8726804Y1696580D01*
X-8727174Y1691580D01*
Y1691210D01*
Y1690284D01*
X-8727359Y1688803D01*
X-8727545Y1686766D01*
Y1684174D01*
X-8727730Y1681211D01*
X-8727915Y1677693D01*
X-8728100Y1673990D01*
X-8728470Y1669731D01*
X-8728656Y1665102D01*
X-8728841Y1660102D01*
X-8729026Y1655103D01*
X-8729211Y1649548D01*
X-8729396Y1643993D01*
X-8729767Y1632327D01*
X-8739210D01*
X-8741802Y1632512D01*
X-8789390D01*
X-8793093Y1632327D01*
X-8805314D01*
Y1632512D01*
Y1632883D01*
X-8805129Y1633438D01*
Y1634179D01*
X-8804944Y1635290D01*
X-8804759Y1636586D01*
Y1637882D01*
X-8804574Y1639549D01*
X-8804389Y1641400D01*
X-8804203Y1643437D01*
X-8803648Y1648066D01*
X-8803092Y1653251D01*
X-8802537Y1658991D01*
X-8801981Y1665287D01*
X-8801426Y1672138D01*
X-8800870Y1679359D01*
X-8800315Y1686951D01*
X-8799574Y1694913D01*
X-8799019Y1703061D01*
X-8798648Y1711393D01*
X-8798093Y1719911D01*
Y1720096D01*
Y1720466D01*
Y1721022D01*
X-8797908Y1721948D01*
Y1723059D01*
Y1724355D01*
X-8797723Y1726021D01*
Y1727688D01*
X-8797537Y1729725D01*
Y1731946D01*
X-8797167Y1736761D01*
X-8796982Y1742316D01*
X-8796797Y1748426D01*
X-8796426Y1754907D01*
X-8796241Y1761943D01*
X-8795871Y1769535D01*
X-8795686Y1777312D01*
X-8795501Y1785274D01*
X-8795315Y1793422D01*
X-8794945Y1810087D01*
X-8791427D01*
X-8789575Y1809901D01*
X-8782539D01*
X-8779576Y1809716D01*
X-8770133D01*
X-8763467Y1809531D01*
X-8745135D01*
X-8742358Y1809716D01*
X-8733470D01*
X-8726989Y1809901D01*
X-8720694Y1810087D01*
X-8722291Y1790434D01*
X-8721805Y1791570D01*
X-8721249Y1792866D01*
X-8720138Y1794347D01*
X-8718842Y1795829D01*
X-8718657Y1796014D01*
X-8718101Y1796569D01*
X-8717175Y1797310D01*
X-8715879Y1798236D01*
X-8714398Y1799347D01*
X-8712731Y1800643D01*
X-8710695Y1801939D01*
X-8708473Y1803235D01*
X-8708102Y1803421D01*
X-8707362Y1803791D01*
X-8706065Y1804532D01*
X-8704399Y1805457D01*
X-8702362Y1806383D01*
X-8700140Y1807309D01*
X-8697733Y1808235D01*
X-8695141Y1809161D01*
X-8694770Y1809346D01*
X-8693844Y1809531D01*
X-8692363Y1810087D01*
X-8690511Y1810457D01*
X-8688289Y1811198D01*
X-8685512Y1811753D01*
X-8682734Y1812309D01*
X-8679772Y1812864D01*
X-8679401D01*
X-8678290Y1813049D01*
X-8676624Y1813234D01*
X-8674402Y1813605D01*
X-8671810Y1813790D01*
X-8669032Y1813975D01*
X-8665884Y1814160D01*
X-8659218D01*
X-8657922Y1813975D01*
D02*
G37*
G36*
X-8355546D02*
X-8352028Y1813790D01*
X-8347954Y1813605D01*
X-8343510Y1813234D01*
X-8338881Y1812864D01*
X-8338326D01*
X-8337585Y1812679D01*
X-8336659D01*
X-8335363Y1812494D01*
X-8333882Y1812123D01*
X-8332030Y1811938D01*
X-8329993Y1811568D01*
X-8327771Y1811198D01*
X-8325364Y1810827D01*
X-8322587Y1810272D01*
X-8319809Y1809716D01*
X-8316661Y1809161D01*
X-8313328Y1808420D01*
X-8309810Y1807679D01*
X-8306107Y1806754D01*
X-8305551Y1800458D01*
Y1800273D01*
X-8305366Y1799532D01*
Y1798236D01*
X-8305181Y1796755D01*
Y1794903D01*
X-8304996Y1792866D01*
X-8304811Y1788237D01*
Y1787867D01*
Y1787126D01*
X-8304626Y1785645D01*
Y1783423D01*
X-8304440Y1780830D01*
X-8304255Y1777497D01*
X-8304070Y1773609D01*
X-8303700Y1768980D01*
X-8302589Y1749908D01*
X-8302959Y1750093D01*
X-8303885Y1750278D01*
X-8305366Y1750648D01*
X-8307218Y1751204D01*
X-8309625Y1751759D01*
X-8312402Y1752500D01*
X-8315550Y1753241D01*
X-8318883Y1754166D01*
X-8322587Y1754907D01*
X-8326290Y1755648D01*
X-8333882Y1756944D01*
X-8341474Y1757870D01*
X-8345177Y1758240D01*
X-8350547D01*
X-8351658Y1758055D01*
X-8352954D01*
X-8355916Y1757685D01*
X-8359249Y1757129D01*
X-8362768Y1756203D01*
X-8366471Y1755092D01*
X-8369989Y1753426D01*
X-8370174D01*
X-8370359Y1753241D01*
X-8371470Y1752500D01*
X-8373137Y1751574D01*
X-8374989Y1750093D01*
X-8377211Y1748056D01*
X-8379433Y1745834D01*
X-8381469Y1743242D01*
X-8383321Y1740094D01*
Y1739909D01*
X-8383506Y1739723D01*
X-8383691Y1739168D01*
X-8384062Y1738612D01*
X-8384617Y1736761D01*
X-8385358Y1734354D01*
X-8386284Y1731206D01*
X-8386839Y1727688D01*
X-8387395Y1723799D01*
X-8387580Y1719540D01*
Y1719355D01*
Y1718985D01*
Y1718429D01*
Y1717504D01*
X-8387395Y1716393D01*
Y1715282D01*
X-8387024Y1712504D01*
X-8386654Y1709356D01*
X-8386099Y1706023D01*
X-8385173Y1702690D01*
X-8383877Y1699542D01*
X-8383691Y1699172D01*
X-8383136Y1698246D01*
X-8382210Y1696950D01*
X-8380914Y1695098D01*
X-8379247Y1693247D01*
X-8377025Y1691395D01*
X-8374618Y1689543D01*
X-8371656Y1687877D01*
X-8371470D01*
X-8371285Y1687692D01*
X-8370174Y1687321D01*
X-8368323Y1686581D01*
X-8366101Y1686025D01*
X-8363323Y1685285D01*
X-8360175Y1684544D01*
X-8356472Y1684174D01*
X-8352769Y1683989D01*
X-8350547D01*
X-8349065Y1684174D01*
X-8347214D01*
X-8344992Y1684544D01*
X-8342399Y1684729D01*
X-8339807Y1685099D01*
X-8339437D01*
X-8338511Y1685285D01*
X-8337030Y1685470D01*
X-8335363Y1685840D01*
X-8333141Y1686210D01*
X-8330919Y1686581D01*
X-8326475Y1687507D01*
X-8326105D01*
X-8325364Y1687877D01*
X-8323883Y1688247D01*
X-8321846Y1688803D01*
X-8319254Y1689358D01*
X-8315921Y1690284D01*
X-8312032Y1691395D01*
X-8307403Y1692691D01*
Y1692506D01*
Y1692136D01*
X-8307588Y1691580D01*
Y1690654D01*
X-8307773Y1689543D01*
X-8307958Y1688062D01*
X-8308144Y1686581D01*
X-8308329Y1684729D01*
X-8308699Y1682692D01*
X-8308884Y1680470D01*
X-8309255Y1678063D01*
X-8309625Y1675471D01*
X-8310551Y1669731D01*
X-8311662Y1663250D01*
X-8316291Y1634920D01*
X-8316661D01*
X-8317587Y1634549D01*
X-8319068Y1634364D01*
X-8321105Y1633809D01*
X-8323698Y1633253D01*
X-8326660Y1632698D01*
X-8330178Y1632142D01*
X-8333882Y1631587D01*
X-8337955Y1630846D01*
X-8342214Y1630290D01*
X-8346658Y1629735D01*
X-8351287Y1629179D01*
X-8360916Y1628439D01*
X-8370730Y1628068D01*
X-8373878D01*
X-8375544Y1628254D01*
X-8377396D01*
X-8379433Y1628439D01*
X-8381840Y1628624D01*
X-8387024Y1628994D01*
X-8392579Y1629735D01*
X-8398134Y1630661D01*
X-8403689Y1631957D01*
X-8403874D01*
X-8404430Y1632142D01*
X-8405356Y1632512D01*
X-8406467Y1632883D01*
X-8407948Y1633253D01*
X-8409800Y1633994D01*
X-8411651Y1634734D01*
X-8413873Y1635660D01*
X-8418503Y1637882D01*
X-8423687Y1640474D01*
X-8428872Y1643993D01*
X-8434057Y1647881D01*
X-8434242Y1648066D01*
X-8434612Y1648437D01*
X-8435353Y1649177D01*
X-8436279Y1649918D01*
X-8437390Y1651214D01*
X-8438686Y1652510D01*
X-8440167Y1653992D01*
X-8441834Y1655843D01*
X-8443500Y1657880D01*
X-8445166Y1659917D01*
X-8448499Y1664731D01*
X-8451647Y1670101D01*
X-8454240Y1676026D01*
Y1676212D01*
X-8454610Y1676952D01*
X-8454980Y1677878D01*
X-8455351Y1679359D01*
X-8455906Y1681211D01*
X-8456647Y1683248D01*
X-8457202Y1685655D01*
X-8457943Y1688432D01*
X-8458684Y1691395D01*
X-8459239Y1694728D01*
X-8459980Y1698061D01*
X-8460535Y1701764D01*
X-8460906Y1705653D01*
X-8461276Y1709727D01*
X-8461646Y1718244D01*
Y1718429D01*
Y1719170D01*
Y1720281D01*
X-8461461Y1721948D01*
Y1723799D01*
X-8461276Y1726021D01*
X-8461091Y1728614D01*
X-8460720Y1731391D01*
X-8460350Y1734354D01*
X-8459795Y1737687D01*
X-8458684Y1744538D01*
X-8456832Y1751944D01*
X-8454425Y1759351D01*
Y1759536D01*
X-8454054Y1760277D01*
X-8453684Y1761203D01*
X-8453129Y1762684D01*
X-8452388Y1764351D01*
X-8451462Y1766387D01*
X-8450351Y1768424D01*
X-8449055Y1770831D01*
X-8446092Y1776016D01*
X-8442389Y1781571D01*
X-8437945Y1786941D01*
X-8432946Y1792125D01*
X-8432760Y1792311D01*
X-8432205Y1792681D01*
X-8431464Y1793422D01*
X-8430353Y1794347D01*
X-8429057Y1795273D01*
X-8427391Y1796569D01*
X-8425539Y1797866D01*
X-8423502Y1799347D01*
X-8421280Y1800643D01*
X-8418873Y1802124D01*
X-8413318Y1805087D01*
X-8407393Y1807679D01*
X-8404245Y1808790D01*
X-8401097Y1809716D01*
X-8400912D01*
X-8400356Y1809901D01*
X-8399430Y1810087D01*
X-8398134Y1810457D01*
X-8396468Y1810827D01*
X-8394431Y1811198D01*
X-8392209Y1811568D01*
X-8389802Y1811938D01*
X-8387024Y1812309D01*
X-8384062Y1812679D01*
X-8380914Y1813049D01*
X-8377581Y1813420D01*
X-8370545Y1813975D01*
X-8362953Y1814160D01*
X-8358694D01*
X-8355546Y1813975D01*
D02*
G37*
G36*
X-9404882D02*
X-9401364Y1813790D01*
X-9397290Y1813605D01*
X-9392846Y1813234D01*
X-9388217Y1812864D01*
X-9387661D01*
X-9386921Y1812679D01*
X-9385995D01*
X-9384699Y1812494D01*
X-9383217Y1812123D01*
X-9381366Y1811938D01*
X-9379329Y1811568D01*
X-9377107Y1811198D01*
X-9374700Y1810827D01*
X-9371922Y1810272D01*
X-9369145Y1809716D01*
X-9365997Y1809161D01*
X-9362664Y1808420D01*
X-9359146Y1807679D01*
X-9355443Y1806754D01*
X-9354887Y1800458D01*
Y1800273D01*
X-9354702Y1799532D01*
Y1798236D01*
X-9354517Y1796755D01*
Y1794903D01*
X-9354332Y1792866D01*
X-9354146Y1788237D01*
Y1787867D01*
Y1787126D01*
X-9353961Y1785645D01*
Y1783423D01*
X-9353776Y1780830D01*
X-9353591Y1777497D01*
X-9353406Y1773609D01*
X-9353035Y1768980D01*
X-9351924Y1749908D01*
X-9352295Y1750093D01*
X-9353221Y1750278D01*
X-9354702Y1750648D01*
X-9356554Y1751204D01*
X-9358961Y1751759D01*
X-9361738Y1752500D01*
X-9364886Y1753241D01*
X-9368219Y1754166D01*
X-9371922Y1754907D01*
X-9375626Y1755648D01*
X-9383217Y1756944D01*
X-9390809Y1757870D01*
X-9394513Y1758240D01*
X-9399882D01*
X-9400993Y1758055D01*
X-9402290D01*
X-9405252Y1757685D01*
X-9408585Y1757129D01*
X-9412103Y1756203D01*
X-9415807Y1755092D01*
X-9419325Y1753426D01*
X-9419510D01*
X-9419695Y1753241D01*
X-9420806Y1752500D01*
X-9422473Y1751574D01*
X-9424324Y1750093D01*
X-9426546Y1748056D01*
X-9428768Y1745834D01*
X-9430805Y1743242D01*
X-9432657Y1740094D01*
Y1739909D01*
X-9432842Y1739723D01*
X-9433027Y1739168D01*
X-9433397Y1738612D01*
X-9433953Y1736761D01*
X-9434694Y1734354D01*
X-9435619Y1731206D01*
X-9436175Y1727688D01*
X-9436730Y1723799D01*
X-9436916Y1719540D01*
Y1719355D01*
Y1718985D01*
Y1718429D01*
Y1717504D01*
X-9436730Y1716393D01*
Y1715282D01*
X-9436360Y1712504D01*
X-9435990Y1709356D01*
X-9435434Y1706023D01*
X-9434508Y1702690D01*
X-9433212Y1699542D01*
X-9433027Y1699172D01*
X-9432472Y1698246D01*
X-9431546Y1696950D01*
X-9430250Y1695098D01*
X-9428583Y1693247D01*
X-9426361Y1691395D01*
X-9423954Y1689543D01*
X-9420991Y1687877D01*
X-9420806D01*
X-9420621Y1687692D01*
X-9419510Y1687321D01*
X-9417658Y1686581D01*
X-9415436Y1686025D01*
X-9412659Y1685285D01*
X-9409511Y1684544D01*
X-9405808Y1684174D01*
X-9402104Y1683989D01*
X-9399882D01*
X-9398401Y1684174D01*
X-9396549D01*
X-9394327Y1684544D01*
X-9391735Y1684729D01*
X-9389143Y1685099D01*
X-9388772D01*
X-9387847Y1685285D01*
X-9386365Y1685470D01*
X-9384699Y1685840D01*
X-9382477Y1686210D01*
X-9380255Y1686581D01*
X-9375811Y1687507D01*
X-9375440D01*
X-9374700Y1687877D01*
X-9373218Y1688247D01*
X-9371182Y1688803D01*
X-9368589Y1689358D01*
X-9365256Y1690284D01*
X-9361368Y1691395D01*
X-9356739Y1692691D01*
Y1692506D01*
Y1692136D01*
X-9356924Y1691580D01*
Y1690654D01*
X-9357109Y1689543D01*
X-9357294Y1688062D01*
X-9357479Y1686581D01*
X-9357665Y1684729D01*
X-9358035Y1682692D01*
X-9358220Y1680470D01*
X-9358590Y1678063D01*
X-9358961Y1675471D01*
X-9359887Y1669731D01*
X-9360998Y1663250D01*
X-9365627Y1634920D01*
X-9365997D01*
X-9366923Y1634549D01*
X-9368404Y1634364D01*
X-9370441Y1633809D01*
X-9373033Y1633253D01*
X-9375996Y1632698D01*
X-9379514Y1632142D01*
X-9383217Y1631587D01*
X-9387291Y1630846D01*
X-9391550Y1630290D01*
X-9395994Y1629735D01*
X-9400623Y1629179D01*
X-9410252Y1628439D01*
X-9420065Y1628068D01*
X-9423213D01*
X-9424880Y1628254D01*
X-9426731D01*
X-9428768Y1628439D01*
X-9431175Y1628624D01*
X-9436360Y1628994D01*
X-9441915Y1629735D01*
X-9447470Y1630661D01*
X-9453025Y1631957D01*
X-9453210D01*
X-9453766Y1632142D01*
X-9454692Y1632512D01*
X-9455803Y1632883D01*
X-9457284Y1633253D01*
X-9459136Y1633994D01*
X-9460987Y1634734D01*
X-9463209Y1635660D01*
X-9467838Y1637882D01*
X-9473023Y1640474D01*
X-9478208Y1643993D01*
X-9483392Y1647881D01*
X-9483577Y1648066D01*
X-9483948Y1648437D01*
X-9484688Y1649177D01*
X-9485614Y1649918D01*
X-9486725Y1651214D01*
X-9488021Y1652510D01*
X-9489503Y1653992D01*
X-9491169Y1655843D01*
X-9492836Y1657880D01*
X-9494502Y1659917D01*
X-9497835Y1664731D01*
X-9500983Y1670101D01*
X-9503575Y1676026D01*
Y1676212D01*
X-9503946Y1676952D01*
X-9504316Y1677878D01*
X-9504686Y1679359D01*
X-9505242Y1681211D01*
X-9505983Y1683248D01*
X-9506538Y1685655D01*
X-9507279Y1688432D01*
X-9508019Y1691395D01*
X-9508575Y1694728D01*
X-9509315Y1698061D01*
X-9509871Y1701764D01*
X-9510241Y1705653D01*
X-9510612Y1709727D01*
X-9510982Y1718244D01*
Y1718429D01*
Y1719170D01*
Y1720281D01*
X-9510797Y1721948D01*
Y1723799D01*
X-9510612Y1726021D01*
X-9510426Y1728614D01*
X-9510056Y1731391D01*
X-9509686Y1734354D01*
X-9509130Y1737687D01*
X-9508019Y1744538D01*
X-9506168Y1751944D01*
X-9503761Y1759351D01*
Y1759536D01*
X-9503390Y1760277D01*
X-9503020Y1761203D01*
X-9502464Y1762684D01*
X-9501724Y1764351D01*
X-9500798Y1766387D01*
X-9499687Y1768424D01*
X-9498391Y1770831D01*
X-9495428Y1776016D01*
X-9491725Y1781571D01*
X-9487281Y1786941D01*
X-9482281Y1792125D01*
X-9482096Y1792311D01*
X-9481541Y1792681D01*
X-9480800Y1793422D01*
X-9479689Y1794347D01*
X-9478393Y1795273D01*
X-9476726Y1796569D01*
X-9474875Y1797866D01*
X-9472838Y1799347D01*
X-9470616Y1800643D01*
X-9468209Y1802124D01*
X-9462654Y1805087D01*
X-9456728Y1807679D01*
X-9453581Y1808790D01*
X-9450433Y1809716D01*
X-9450248D01*
X-9449692Y1809901D01*
X-9448766Y1810087D01*
X-9447470Y1810457D01*
X-9445804Y1810827D01*
X-9443767Y1811198D01*
X-9441545Y1811568D01*
X-9439138Y1811938D01*
X-9436360Y1812309D01*
X-9433397Y1812679D01*
X-9430250Y1813049D01*
X-9426917Y1813420D01*
X-9419880Y1813975D01*
X-9412289Y1814160D01*
X-9408030D01*
X-9404882Y1813975D01*
D02*
G37*
G36*
X-7647101D02*
X-7645064D01*
X-7642657Y1813790D01*
X-7640065Y1813605D01*
X-7637287Y1813234D01*
X-7634325Y1813049D01*
X-7628214Y1812123D01*
X-7621548Y1811012D01*
X-7615067Y1809346D01*
X-7614882D01*
X-7614327Y1809161D01*
X-7613401Y1808790D01*
X-7612290Y1808420D01*
X-7610809Y1807865D01*
X-7609142Y1807309D01*
X-7607290Y1806568D01*
X-7605254Y1805643D01*
X-7600810Y1803606D01*
X-7596366Y1800828D01*
X-7591922Y1797680D01*
X-7587848Y1793977D01*
X-7587663Y1793792D01*
X-7587478Y1793422D01*
X-7586922Y1792866D01*
X-7586367Y1791940D01*
X-7585441Y1791014D01*
X-7584700Y1789533D01*
X-7583774Y1788052D01*
X-7582848Y1786200D01*
X-7581923Y1784163D01*
X-7580997Y1781941D01*
X-7580071Y1779534D01*
X-7579330Y1776757D01*
X-7578775Y1773794D01*
X-7578219Y1770646D01*
X-7578034Y1767313D01*
X-7577849Y1763795D01*
Y1763610D01*
Y1763425D01*
Y1762684D01*
Y1761943D01*
Y1760647D01*
X-7578034Y1759166D01*
Y1757499D01*
X-7578219Y1755277D01*
Y1752685D01*
X-7578404Y1749722D01*
X-7578775Y1746204D01*
X-7578960Y1742316D01*
X-7579145Y1737872D01*
X-7579515Y1733057D01*
X-7580071Y1727688D01*
X-7580441Y1721762D01*
Y1721392D01*
Y1720837D01*
X-7580626Y1720281D01*
Y1719355D01*
Y1718429D01*
X-7580812Y1715652D01*
X-7580997Y1712319D01*
X-7581367Y1708245D01*
X-7581552Y1703616D01*
X-7581923Y1698246D01*
X-7582293Y1692136D01*
X-7582478Y1685285D01*
X-7582848Y1678063D01*
X-7583219Y1670101D01*
X-7583589Y1661398D01*
X-7583959Y1652325D01*
X-7584145Y1642696D01*
X-7584515Y1632327D01*
X-7593958D01*
X-7596366Y1632512D01*
X-7642657D01*
X-7645990Y1632327D01*
X-7657285D01*
Y1632512D01*
X-7657100Y1633438D01*
Y1634734D01*
X-7656915Y1636586D01*
X-7656730Y1639178D01*
X-7656359Y1642326D01*
X-7656174Y1645844D01*
X-7655804Y1650288D01*
X-7655434Y1655103D01*
X-7655063Y1660658D01*
X-7654693Y1666953D01*
X-7654137Y1673804D01*
X-7653582Y1681396D01*
X-7653212Y1689543D01*
X-7652656Y1698617D01*
X-7652111Y1708054D01*
X-7652471Y1707875D01*
X-7652841Y1707319D01*
X-7653397Y1706764D01*
X-7654137Y1706023D01*
X-7655063Y1705283D01*
X-7656174Y1704542D01*
X-7657655Y1703986D01*
X-7657841D01*
X-7658396Y1703801D01*
X-7659322Y1703431D01*
X-7660618Y1702875D01*
X-7662470Y1702320D01*
X-7664692Y1701579D01*
X-7667284Y1700839D01*
X-7670432Y1699913D01*
X-7670617D01*
X-7670802Y1699728D01*
X-7671913Y1699542D01*
X-7673395Y1698987D01*
X-7675431Y1698431D01*
X-7677468Y1697691D01*
X-7679875Y1696950D01*
X-7681912Y1696209D01*
X-7683949Y1695469D01*
X-7684134D01*
X-7684690Y1695098D01*
X-7685616Y1694728D01*
X-7686727Y1694358D01*
X-7689319Y1693062D01*
X-7692096Y1691395D01*
X-7692282Y1691210D01*
X-7692652Y1691025D01*
X-7693763Y1689914D01*
X-7695244Y1688432D01*
X-7695800Y1687692D01*
X-7696355Y1686766D01*
Y1686581D01*
X-7696540Y1686396D01*
X-7696911Y1685285D01*
X-7697281Y1683618D01*
X-7697466Y1681581D01*
Y1681396D01*
Y1680841D01*
X-7697281Y1680100D01*
X-7697096Y1679174D01*
X-7696726Y1677878D01*
X-7695985Y1676767D01*
X-7695244Y1675471D01*
X-7694133Y1674360D01*
X-7693948Y1674175D01*
X-7693393Y1673990D01*
X-7692652Y1673434D01*
X-7691356Y1672879D01*
X-7689689Y1672323D01*
X-7687652Y1671953D01*
X-7685245Y1671582D01*
X-7682283Y1671397D01*
X-7680061D01*
X-7677839Y1671582D01*
X-7675246Y1671768D01*
X-7675061D01*
X-7674506Y1671953D01*
X-7673395Y1672138D01*
X-7671913Y1672323D01*
X-7669876Y1672879D01*
X-7667284Y1673434D01*
X-7663951Y1674175D01*
X-7660063Y1675101D01*
Y1674915D01*
X-7660248Y1674360D01*
X-7660618Y1673249D01*
X-7660988Y1671953D01*
X-7661544Y1670286D01*
X-7662099Y1668064D01*
X-7662840Y1665657D01*
X-7663581Y1663065D01*
X-7664507Y1659917D01*
X-7665432Y1656584D01*
X-7666358Y1652881D01*
X-7667469Y1648992D01*
X-7668580Y1644918D01*
X-7669876Y1640474D01*
X-7671173Y1635660D01*
X-7672469Y1630846D01*
X-7672654D01*
X-7673209Y1630661D01*
X-7674135D01*
X-7675246Y1630476D01*
X-7676728Y1630290D01*
X-7678394Y1629920D01*
X-7680246Y1629735D01*
X-7682468Y1629550D01*
X-7687097Y1628994D01*
X-7692096Y1628439D01*
X-7697281Y1628254D01*
X-7702466Y1628068D01*
X-7704502D01*
X-7705984Y1628254D01*
X-7707835D01*
X-7710057Y1628439D01*
X-7712465Y1628624D01*
X-7715057Y1628809D01*
X-7720797Y1629550D01*
X-7726722Y1630661D01*
X-7732833Y1631957D01*
X-7738573Y1633994D01*
X-7738758D01*
X-7739129Y1634364D01*
X-7740054Y1634734D01*
X-7740980Y1635105D01*
X-7742276Y1635845D01*
X-7743573Y1636586D01*
X-7746906Y1638808D01*
X-7750424Y1641585D01*
X-7754312Y1644918D01*
X-7757830Y1648992D01*
X-7761163Y1653806D01*
Y1653992D01*
X-7761534Y1654362D01*
X-7761904Y1655103D01*
X-7762459Y1656214D01*
X-7763015Y1657510D01*
X-7763756Y1658991D01*
X-7764311Y1660658D01*
X-7765052Y1662509D01*
X-7766533Y1666768D01*
X-7767829Y1671397D01*
X-7768755Y1676397D01*
X-7768940Y1678989D01*
X-7769125Y1681581D01*
Y1681767D01*
Y1681952D01*
Y1683063D01*
X-7768940Y1684729D01*
X-7768755Y1686766D01*
X-7768385Y1689358D01*
X-7768014Y1692136D01*
X-7767274Y1695098D01*
X-7766348Y1698061D01*
Y1698246D01*
X-7766163Y1698431D01*
X-7765792Y1699357D01*
X-7765052Y1701024D01*
X-7764126Y1703061D01*
X-7762830Y1705283D01*
X-7761348Y1708060D01*
X-7759497Y1710838D01*
X-7757275Y1713615D01*
X-7756904Y1713985D01*
X-7756164Y1714911D01*
X-7754868Y1716393D01*
X-7753016Y1718059D01*
X-7750979Y1720096D01*
X-7748387Y1722318D01*
X-7745609Y1724540D01*
X-7742647Y1726577D01*
X-7742462D01*
X-7742276Y1726762D01*
X-7741721Y1727132D01*
X-7741165Y1727503D01*
X-7739314Y1728614D01*
X-7736721Y1729910D01*
X-7733574Y1731391D01*
X-7729685Y1733057D01*
X-7725426Y1734909D01*
X-7720427Y1736576D01*
X-7720242D01*
X-7719871Y1736761D01*
X-7718945Y1736946D01*
X-7717834Y1737316D01*
X-7716538Y1737872D01*
X-7714872Y1738242D01*
X-7713020Y1738798D01*
X-7710798Y1739353D01*
X-7708391Y1740094D01*
X-7705799Y1740649D01*
X-7702836Y1741390D01*
X-7699688Y1742131D01*
X-7696355Y1743056D01*
X-7692837Y1743797D01*
X-7689134Y1744538D01*
X-7685245Y1745278D01*
X-7684875D01*
X-7683764Y1745649D01*
X-7682097Y1745834D01*
X-7680061Y1746389D01*
X-7677653Y1746945D01*
X-7675246Y1747500D01*
X-7669876Y1748797D01*
X-7669506D01*
X-7668765Y1749167D01*
X-7667469Y1749537D01*
X-7665988Y1749908D01*
X-7662840Y1750833D01*
X-7661359Y1751389D01*
X-7660063Y1751759D01*
X-7659877D01*
X-7659507Y1751944D01*
X-7658396Y1752685D01*
X-7657100Y1753426D01*
X-7655804Y1754537D01*
X-7655619Y1754722D01*
X-7655063Y1755463D01*
X-7654323Y1756388D01*
X-7653767Y1757499D01*
X-7653582Y1757685D01*
X-7653397Y1758425D01*
X-7653212Y1759536D01*
Y1760832D01*
Y1761018D01*
Y1761573D01*
X-7653397Y1762314D01*
X-7653767Y1763240D01*
X-7654137Y1764351D01*
X-7654878Y1765462D01*
X-7655989Y1766573D01*
X-7657285Y1767684D01*
X-7657470Y1767869D01*
X-7658026Y1768054D01*
X-7659137Y1768609D01*
X-7660433Y1769165D01*
X-7662285Y1769535D01*
X-7664692Y1770091D01*
X-7667469Y1770276D01*
X-7670802Y1770461D01*
X-7672098D01*
X-7673765Y1770276D01*
X-7675802D01*
X-7678764Y1769906D01*
X-7682097Y1769535D01*
X-7685986Y1769165D01*
X-7690615Y1768424D01*
X-7695615Y1767498D01*
X-7701170Y1766573D01*
X-7707465Y1765091D01*
X-7713946Y1763610D01*
X-7721167Y1761758D01*
X-7728759Y1759536D01*
X-7736721Y1757129D01*
X-7745239Y1754166D01*
Y1754352D01*
X-7745054Y1755092D01*
X-7744869Y1756018D01*
X-7744684Y1757499D01*
X-7744498Y1758981D01*
X-7744128Y1760832D01*
X-7743573Y1765091D01*
X-7742832Y1769535D01*
X-7742276Y1773794D01*
X-7741906Y1775831D01*
X-7741721Y1777682D01*
X-7741536Y1779349D01*
X-7741351Y1780645D01*
Y1781015D01*
X-7741165Y1781941D01*
X-7740980Y1783608D01*
X-7740610Y1785830D01*
X-7740425Y1787311D01*
X-7740240Y1788978D01*
X-7740054Y1790829D01*
X-7739684Y1792681D01*
X-7739499Y1794903D01*
X-7739129Y1797310D01*
X-7738758Y1800088D01*
X-7738388Y1802865D01*
X-7738203D01*
X-7737832Y1803050D01*
X-7737092Y1803235D01*
X-7736166Y1803421D01*
X-7734870Y1803606D01*
X-7733388Y1803976D01*
X-7731722Y1804346D01*
X-7729870Y1804717D01*
X-7727833Y1805087D01*
X-7725426Y1805457D01*
X-7720427Y1806383D01*
X-7714687Y1807494D01*
X-7708391Y1808605D01*
X-7701910Y1809531D01*
X-7694874Y1810642D01*
X-7687838Y1811568D01*
X-7680431Y1812494D01*
X-7673209Y1813049D01*
X-7665988Y1813605D01*
X-7658952Y1813975D01*
X-7652286Y1814160D01*
X-7648953D01*
X-7647101Y1813975D01*
D02*
G37*
G36*
X-7881151D02*
X-7879299D01*
X-7877077Y1813790D01*
X-7874485Y1813605D01*
X-7871707Y1813420D01*
X-7868745Y1813049D01*
X-7865412Y1812494D01*
X-7858561Y1811383D01*
X-7851154Y1809716D01*
X-7843747Y1807494D01*
X-7843562D01*
X-7842822Y1807124D01*
X-7841896Y1806754D01*
X-7840414Y1806383D01*
X-7838748Y1805643D01*
X-7836711Y1804717D01*
X-7834489Y1803791D01*
X-7832082Y1802680D01*
X-7826897Y1800088D01*
X-7821157Y1796755D01*
X-7815602Y1792866D01*
X-7810232Y1788422D01*
X-7810047Y1788237D01*
X-7809677Y1787867D01*
X-7808936Y1787126D01*
X-7808010Y1786200D01*
X-7806899Y1785089D01*
X-7805418Y1783608D01*
X-7804122Y1781941D01*
X-7802455Y1780090D01*
X-7800789Y1778053D01*
X-7799122Y1775831D01*
X-7795789Y1771017D01*
X-7792642Y1765462D01*
X-7789864Y1759351D01*
Y1759166D01*
X-7789494Y1758610D01*
X-7789309Y1757685D01*
X-7788753Y1756388D01*
X-7788383Y1754907D01*
X-7787827Y1753055D01*
X-7787087Y1751019D01*
X-7786531Y1748611D01*
X-7785976Y1746019D01*
X-7785235Y1743427D01*
X-7784309Y1737316D01*
X-7783568Y1730836D01*
X-7783198Y1723799D01*
Y1723614D01*
Y1723059D01*
Y1721948D01*
Y1720651D01*
X-7783383Y1718985D01*
X-7783568Y1717133D01*
X-7783754Y1714911D01*
X-7783939Y1712504D01*
X-7784309Y1709912D01*
X-7784679Y1707134D01*
X-7785605Y1701209D01*
X-7787087Y1694913D01*
X-7789123Y1688618D01*
Y1688432D01*
X-7789309Y1687877D01*
X-7789679Y1686951D01*
X-7790234Y1685840D01*
X-7790975Y1684359D01*
X-7791716Y1682507D01*
X-7792642Y1680470D01*
X-7793753Y1678434D01*
X-7796530Y1673619D01*
X-7800048Y1668249D01*
X-7804122Y1662694D01*
X-7806344Y1659917D01*
X-7808936Y1657139D01*
X-7809121Y1656954D01*
X-7809492Y1656584D01*
X-7810417Y1655658D01*
X-7811343Y1654732D01*
X-7812825Y1653621D01*
X-7814491Y1652140D01*
X-7816343Y1650659D01*
X-7818565Y1648992D01*
X-7820972Y1647140D01*
X-7823564Y1645474D01*
X-7826527Y1643622D01*
X-7829675Y1641771D01*
X-7833008Y1639919D01*
X-7836526Y1638253D01*
X-7840229Y1636771D01*
X-7844118Y1635290D01*
X-7844303D01*
X-7845043Y1634920D01*
X-7846154Y1634549D01*
X-7847821Y1634179D01*
X-7849858Y1633623D01*
X-7852080Y1633068D01*
X-7854672Y1632327D01*
X-7857635Y1631772D01*
X-7860968Y1631031D01*
X-7864486Y1630290D01*
X-7868189Y1629735D01*
X-7872078Y1629179D01*
X-7880410Y1628439D01*
X-7889113Y1628068D01*
X-7891335D01*
X-7892816Y1628254D01*
X-7894853D01*
X-7897075Y1628439D01*
X-7899667Y1628624D01*
X-7902630Y1628809D01*
X-7905778Y1629179D01*
X-7909111Y1629550D01*
X-7916147Y1630661D01*
X-7923739Y1632327D01*
X-7931331Y1634364D01*
X-7931516D01*
X-7932257Y1634734D01*
X-7933183Y1635105D01*
X-7934664Y1635475D01*
X-7936330Y1636216D01*
X-7938367Y1636956D01*
X-7940589Y1637882D01*
X-7942996Y1638993D01*
X-7948366Y1641771D01*
X-7953921Y1644918D01*
X-7959661Y1648622D01*
X-7965031Y1653066D01*
X-7965216Y1653251D01*
X-7965587Y1653621D01*
X-7966327Y1654362D01*
X-7967253Y1655288D01*
X-7968364Y1656399D01*
X-7969660Y1657880D01*
X-7971142Y1659547D01*
X-7972808Y1661398D01*
X-7974289Y1663435D01*
X-7976141Y1665842D01*
X-7979474Y1670842D01*
X-7982807Y1676397D01*
X-7985584Y1682692D01*
Y1682878D01*
X-7985955Y1683433D01*
X-7986140Y1684359D01*
X-7986695Y1685655D01*
X-7987251Y1687321D01*
X-7987806Y1689173D01*
X-7988362Y1691210D01*
X-7988917Y1693617D01*
X-7989658Y1696209D01*
X-7990214Y1699172D01*
X-7991325Y1705283D01*
X-7992065Y1711763D01*
X-7992436Y1718800D01*
Y1718985D01*
Y1719726D01*
Y1720651D01*
X-7992250Y1721948D01*
Y1723614D01*
X-7992065Y1725651D01*
X-7991880Y1727873D01*
X-7991695Y1730465D01*
X-7991325Y1733057D01*
X-7990769Y1735835D01*
X-7989658Y1741945D01*
X-7988177Y1748241D01*
X-7985955Y1754722D01*
Y1754907D01*
X-7985584Y1755463D01*
X-7985214Y1756388D01*
X-7984659Y1757685D01*
X-7983918Y1759166D01*
X-7982992Y1760832D01*
X-7982066Y1762869D01*
X-7980770Y1765091D01*
X-7977808Y1769906D01*
X-7974289Y1775090D01*
X-7969845Y1780460D01*
X-7964846Y1785645D01*
X-7964661Y1785830D01*
X-7964105Y1786200D01*
X-7963365Y1786941D01*
X-7962254Y1787867D01*
X-7960772Y1788978D01*
X-7959106Y1790459D01*
X-7957069Y1791755D01*
X-7954847Y1793422D01*
X-7952440Y1795088D01*
X-7949662Y1796755D01*
X-7946700Y1798606D01*
X-7943552Y1800273D01*
X-7940219Y1802124D01*
X-7936515Y1803791D01*
X-7928924Y1806754D01*
X-7928739D01*
X-7927998Y1807124D01*
X-7926887Y1807494D01*
X-7925220Y1807865D01*
X-7923369Y1808420D01*
X-7920962Y1809161D01*
X-7918369Y1809716D01*
X-7915407Y1810457D01*
X-7912259Y1811198D01*
X-7908741Y1811753D01*
X-7905222Y1812494D01*
X-7901334Y1813049D01*
X-7893372Y1813790D01*
X-7884854Y1814160D01*
X-7882817D01*
X-7881151Y1813975D01*
D02*
G37*
G36*
X-8923821D02*
X-8921969D01*
X-8919747Y1813790D01*
X-8917155Y1813605D01*
X-8914377Y1813420D01*
X-8911414Y1813049D01*
X-8908081Y1812494D01*
X-8901230Y1811383D01*
X-8893824Y1809716D01*
X-8886417Y1807494D01*
X-8886232D01*
X-8885491Y1807124D01*
X-8884565Y1806754D01*
X-8883084Y1806383D01*
X-8881418Y1805643D01*
X-8879381Y1804717D01*
X-8877159Y1803791D01*
X-8874752Y1802680D01*
X-8869567Y1800088D01*
X-8863827Y1796755D01*
X-8858272Y1792866D01*
X-8852902Y1788422D01*
X-8852717Y1788237D01*
X-8852347Y1787867D01*
X-8851606Y1787126D01*
X-8850680Y1786200D01*
X-8849569Y1785089D01*
X-8848088Y1783608D01*
X-8846792Y1781941D01*
X-8845125Y1780090D01*
X-8843459Y1778053D01*
X-8841792Y1775831D01*
X-8838459Y1771017D01*
X-8835311Y1765462D01*
X-8832534Y1759351D01*
Y1759166D01*
X-8832163Y1758610D01*
X-8831978Y1757685D01*
X-8831423Y1756388D01*
X-8831052Y1754907D01*
X-8830497Y1753055D01*
X-8829756Y1751019D01*
X-8829201Y1748611D01*
X-8828645Y1746019D01*
X-8827905Y1743427D01*
X-8826979Y1737316D01*
X-8826238Y1730836D01*
X-8825868Y1723799D01*
Y1723614D01*
Y1723059D01*
Y1721948D01*
Y1720651D01*
X-8826053Y1718985D01*
X-8826238Y1717133D01*
X-8826423Y1714911D01*
X-8826608Y1712504D01*
X-8826979Y1709912D01*
X-8827349Y1707134D01*
X-8828275Y1701209D01*
X-8829756Y1694913D01*
X-8831793Y1688618D01*
Y1688432D01*
X-8831978Y1687877D01*
X-8832349Y1686951D01*
X-8832904Y1685840D01*
X-8833645Y1684359D01*
X-8834385Y1682507D01*
X-8835311Y1680470D01*
X-8836422Y1678434D01*
X-8839200Y1673619D01*
X-8842718Y1668249D01*
X-8846792Y1662694D01*
X-8849014Y1659917D01*
X-8851606Y1657139D01*
X-8851791Y1656954D01*
X-8852161Y1656584D01*
X-8853087Y1655658D01*
X-8854013Y1654732D01*
X-8855494Y1653621D01*
X-8857161Y1652140D01*
X-8859013Y1650659D01*
X-8861234Y1648992D01*
X-8863642Y1647140D01*
X-8866234Y1645474D01*
X-8869197Y1643622D01*
X-8872344Y1641771D01*
X-8875677Y1639919D01*
X-8879196Y1638253D01*
X-8882899Y1636771D01*
X-8886787Y1635290D01*
X-8886973D01*
X-8887713Y1634920D01*
X-8888824Y1634549D01*
X-8890491Y1634179D01*
X-8892528Y1633623D01*
X-8894750Y1633068D01*
X-8897342Y1632327D01*
X-8900305Y1631772D01*
X-8903638Y1631031D01*
X-8907156Y1630290D01*
X-8910859Y1629735D01*
X-8914747Y1629179D01*
X-8923080Y1628439D01*
X-8931783Y1628068D01*
X-8934005D01*
X-8935486Y1628254D01*
X-8937523D01*
X-8939745Y1628439D01*
X-8942337Y1628624D01*
X-8945300Y1628809D01*
X-8948448Y1629179D01*
X-8951781Y1629550D01*
X-8958817Y1630661D01*
X-8966409Y1632327D01*
X-8974001Y1634364D01*
X-8974186D01*
X-8974926Y1634734D01*
X-8975852Y1635105D01*
X-8977334Y1635475D01*
X-8979000Y1636216D01*
X-8981037Y1636956D01*
X-8983259Y1637882D01*
X-8985666Y1638993D01*
X-8991036Y1641771D01*
X-8996591Y1644918D01*
X-9002331Y1648622D01*
X-9007701Y1653066D01*
X-9007886Y1653251D01*
X-9008256Y1653621D01*
X-9008997Y1654362D01*
X-9009923Y1655288D01*
X-9011034Y1656399D01*
X-9012330Y1657880D01*
X-9013811Y1659547D01*
X-9015478Y1661398D01*
X-9016959Y1663435D01*
X-9018811Y1665842D01*
X-9022144Y1670842D01*
X-9025477Y1676397D01*
X-9028254Y1682692D01*
Y1682878D01*
X-9028625Y1683433D01*
X-9028810Y1684359D01*
X-9029365Y1685655D01*
X-9029921Y1687321D01*
X-9030476Y1689173D01*
X-9031032Y1691210D01*
X-9031587Y1693617D01*
X-9032328Y1696209D01*
X-9032883Y1699172D01*
X-9033994Y1705283D01*
X-9034735Y1711763D01*
X-9035105Y1718800D01*
Y1718985D01*
Y1719726D01*
Y1720651D01*
X-9034920Y1721948D01*
Y1723614D01*
X-9034735Y1725651D01*
X-9034550Y1727873D01*
X-9034365Y1730465D01*
X-9033994Y1733057D01*
X-9033439Y1735835D01*
X-9032328Y1741945D01*
X-9030847Y1748241D01*
X-9028625Y1754722D01*
Y1754907D01*
X-9028254Y1755463D01*
X-9027884Y1756388D01*
X-9027328Y1757685D01*
X-9026588Y1759166D01*
X-9025662Y1760832D01*
X-9024736Y1762869D01*
X-9023440Y1765091D01*
X-9020477Y1769906D01*
X-9016959Y1775090D01*
X-9012515Y1780460D01*
X-9007516Y1785645D01*
X-9007330Y1785830D01*
X-9006775Y1786200D01*
X-9006034Y1786941D01*
X-9004923Y1787867D01*
X-9003442Y1788978D01*
X-9001775Y1790459D01*
X-8999739Y1791755D01*
X-8997517Y1793422D01*
X-8995110Y1795088D01*
X-8992332Y1796755D01*
X-8989369Y1798606D01*
X-8986222Y1800273D01*
X-8982889Y1802124D01*
X-8979185Y1803791D01*
X-8971593Y1806754D01*
X-8971408D01*
X-8970668Y1807124D01*
X-8969557Y1807494D01*
X-8967890Y1807865D01*
X-8966038Y1808420D01*
X-8963631Y1809161D01*
X-8961039Y1809716D01*
X-8958076Y1810457D01*
X-8954928Y1811198D01*
X-8951410Y1811753D01*
X-8947892Y1812494D01*
X-8944004Y1813049D01*
X-8936042Y1813790D01*
X-8927524Y1814160D01*
X-8925487D01*
X-8923821Y1813975D01*
D02*
G37*
G36*
X-9233788Y1854156D02*
Y1853415D01*
X-9233974Y1851934D01*
Y1850268D01*
X-9234159Y1847860D01*
Y1845268D01*
X-9234344Y1842305D01*
X-9234529Y1838972D01*
Y1835454D01*
X-9234714Y1831751D01*
X-9235085Y1823789D01*
X-9235270Y1815456D01*
X-9235455Y1807309D01*
X-9197311D01*
Y1807124D01*
Y1806939D01*
Y1806383D01*
Y1805643D01*
X-9197496Y1803791D01*
Y1801384D01*
X-9197681Y1798236D01*
Y1794903D01*
X-9197866Y1791014D01*
X-9198051Y1786941D01*
X-9198237Y1782682D01*
Y1778238D01*
X-9198607Y1769535D01*
Y1765276D01*
X-9198792Y1761388D01*
Y1757685D01*
Y1754537D01*
X-9237492D01*
X-9239158Y1715837D01*
Y1715467D01*
Y1714541D01*
X-9239343Y1713245D01*
Y1711578D01*
Y1709727D01*
X-9239529Y1707690D01*
Y1705838D01*
Y1704172D01*
Y1703801D01*
Y1702875D01*
Y1701394D01*
X-9239343Y1699728D01*
X-9239158Y1697691D01*
X-9238973Y1695654D01*
X-9238603Y1693802D01*
X-9238047Y1691951D01*
Y1691765D01*
X-9237677Y1691210D01*
X-9237307Y1690469D01*
X-9236936Y1689543D01*
X-9235455Y1687507D01*
X-9234344Y1686581D01*
X-9233233Y1685840D01*
X-9233048D01*
X-9232677Y1685655D01*
X-9231937Y1685285D01*
X-9231011Y1685099D01*
X-9229900Y1684729D01*
X-9228419Y1684359D01*
X-9225271Y1684174D01*
X-9222864D01*
X-9220271Y1684359D01*
X-9217494Y1684729D01*
X-9217309D01*
X-9216568Y1684914D01*
X-9215457Y1685099D01*
X-9213605Y1685470D01*
X-9212309Y1685655D01*
X-9211013Y1685840D01*
X-9209347Y1686210D01*
X-9207495Y1686581D01*
X-9205458Y1686951D01*
X-9203236Y1687507D01*
X-9200829Y1688062D01*
X-9198051Y1688618D01*
Y1688432D01*
X-9198237Y1687877D01*
X-9198422Y1686951D01*
X-9198607Y1685655D01*
X-9198792Y1684174D01*
X-9199162Y1682322D01*
X-9199533Y1680470D01*
X-9199903Y1678248D01*
X-9200829Y1673804D01*
X-9201570Y1668805D01*
X-9202495Y1663991D01*
X-9203421Y1659547D01*
X-9207495Y1634364D01*
X-9207680D01*
X-9208236Y1634179D01*
X-9209347Y1633994D01*
X-9210643Y1633809D01*
X-9212124Y1633438D01*
X-9213976Y1633068D01*
X-9216013Y1632698D01*
X-9218049Y1632142D01*
X-9222679Y1631401D01*
X-9227493Y1630476D01*
X-9231937Y1629735D01*
X-9233974Y1629365D01*
X-9235825Y1629179D01*
X-9236196D01*
X-9236751Y1628994D01*
X-9237492D01*
X-9239343Y1628809D01*
X-9241751Y1628624D01*
X-9244528Y1628439D01*
X-9247676Y1628254D01*
X-9251009Y1628068D01*
X-9258045D01*
X-9259527Y1628254D01*
X-9261193D01*
X-9263045Y1628439D01*
X-9267118Y1628624D01*
X-9271562Y1629179D01*
X-9276192Y1629735D01*
X-9280635Y1630661D01*
X-9280821D01*
X-9281191Y1630846D01*
X-9281746D01*
X-9282487Y1631216D01*
X-9284709Y1631772D01*
X-9287487Y1632698D01*
X-9290634Y1633994D01*
X-9293782Y1635660D01*
X-9297115Y1637697D01*
X-9300263Y1640104D01*
X-9300633Y1640474D01*
X-9301559Y1641400D01*
X-9302855Y1642882D01*
X-9304522Y1644733D01*
X-9306374Y1647140D01*
X-9308225Y1649918D01*
X-9309892Y1652881D01*
X-9311188Y1656214D01*
Y1656399D01*
X-9311373Y1656584D01*
Y1657139D01*
X-9311558Y1657880D01*
X-9312114Y1659547D01*
X-9312484Y1661954D01*
X-9313040Y1664916D01*
X-9313595Y1668064D01*
X-9313780Y1671582D01*
X-9313965Y1675286D01*
Y1675656D01*
Y1676026D01*
Y1676767D01*
Y1677508D01*
Y1678619D01*
Y1679915D01*
Y1681396D01*
Y1681581D01*
Y1682322D01*
X-9313780Y1683618D01*
Y1685470D01*
X-9313595Y1686581D01*
Y1687877D01*
X-9313410Y1689543D01*
Y1691210D01*
X-9313225Y1693247D01*
X-9313040Y1695284D01*
X-9312854Y1697691D01*
X-9312669Y1700283D01*
X-9309151Y1754537D01*
X-9335074D01*
Y1754722D01*
Y1755277D01*
Y1756018D01*
X-9334889Y1757314D01*
Y1758610D01*
X-9334704Y1760462D01*
Y1762314D01*
X-9334519Y1764536D01*
Y1766943D01*
X-9334334Y1769535D01*
X-9334148Y1775275D01*
X-9333778Y1781571D01*
X-9333593Y1788422D01*
X-9333037Y1807309D01*
X-9305077D01*
Y1807494D01*
Y1807865D01*
X-9304892Y1808420D01*
Y1809346D01*
X-9304707Y1810272D01*
Y1811568D01*
X-9304522Y1813234D01*
X-9304337Y1815086D01*
X-9304152Y1817493D01*
X-9303966Y1820086D01*
X-9303781Y1823233D01*
X-9303596Y1826751D01*
X-9303411Y1830640D01*
X-9303041Y1835084D01*
X-9302855Y1840083D01*
X-9271562Y1846379D01*
X-9271192D01*
X-9270637Y1846564D01*
X-9269896Y1846749D01*
X-9268970Y1846935D01*
X-9267674Y1847120D01*
X-9266193Y1847490D01*
X-9264156Y1848046D01*
X-9261934Y1848416D01*
X-9259156Y1848971D01*
X-9256194Y1849712D01*
X-9252675Y1850453D01*
X-9248602Y1851379D01*
X-9244158Y1852304D01*
X-9239343Y1853415D01*
X-9233788Y1854526D01*
Y1854156D01*
D02*
G37*
G36*
X-9611897Y1813975D02*
X-9609861D01*
X-9607453Y1813790D01*
X-9604861Y1813605D01*
X-9602084Y1813420D01*
X-9599306Y1813049D01*
X-9592825Y1812123D01*
X-9586159Y1811012D01*
X-9579493Y1809531D01*
X-9579308D01*
X-9578753Y1809346D01*
X-9577827Y1808976D01*
X-9576531Y1808605D01*
X-9574864Y1808050D01*
X-9573198Y1807494D01*
X-9571161Y1806754D01*
X-9568939Y1805828D01*
X-9564125Y1803606D01*
X-9558940Y1800643D01*
X-9553941Y1797310D01*
X-9548941Y1793236D01*
X-9548756Y1793051D01*
X-9548386Y1792681D01*
X-9547645Y1792125D01*
X-9546904Y1791200D01*
X-9545793Y1790089D01*
X-9544682Y1788792D01*
X-9543201Y1787311D01*
X-9541905Y1785645D01*
X-9538942Y1781756D01*
X-9535979Y1777312D01*
X-9533202Y1772313D01*
X-9530795Y1767128D01*
Y1766943D01*
X-9530610Y1766573D01*
X-9530239Y1765647D01*
X-9529869Y1764536D01*
X-9529499Y1763240D01*
X-9529128Y1761758D01*
X-9528573Y1759907D01*
X-9528017Y1757870D01*
X-9527647Y1755648D01*
X-9527091Y1753241D01*
X-9526166Y1747871D01*
X-9525610Y1742131D01*
X-9525425Y1736020D01*
Y1735835D01*
Y1735650D01*
Y1735094D01*
Y1734354D01*
Y1733243D01*
X-9525610Y1732132D01*
Y1730836D01*
X-9525795Y1729354D01*
X-9526166Y1725836D01*
X-9526721Y1721577D01*
X-9527462Y1716763D01*
X-9528388Y1711393D01*
X-9644857Y1711208D01*
Y1711208D01*
Y1710838D01*
Y1709912D01*
Y1709727D01*
Y1709171D01*
Y1708430D01*
X-9644672Y1707319D01*
X-9644487Y1705838D01*
X-9644302Y1704357D01*
X-9643376Y1700839D01*
X-9642080Y1696950D01*
X-9641154Y1694913D01*
X-9640043Y1692876D01*
X-9638747Y1691025D01*
X-9637080Y1689173D01*
X-9635414Y1687507D01*
X-9633377Y1686025D01*
X-9633192D01*
X-9632821Y1685655D01*
X-9632266Y1685285D01*
X-9631340Y1684914D01*
X-9630044Y1684359D01*
X-9628748Y1683618D01*
X-9627081Y1682878D01*
X-9625415Y1682322D01*
X-9623378Y1681581D01*
X-9621156Y1680841D01*
X-9618749Y1680285D01*
X-9616156Y1679545D01*
X-9610416Y1678804D01*
X-9604120Y1678434D01*
X-9601158D01*
X-9599862Y1678619D01*
X-9596899Y1678804D01*
X-9593381Y1678989D01*
X-9589122Y1679545D01*
X-9584678Y1680100D01*
X-9579679Y1680841D01*
X-9579493D01*
X-9579123Y1681026D01*
X-9578197D01*
X-9577086Y1681396D01*
X-9575790Y1681581D01*
X-9574124Y1681952D01*
X-9572087Y1682322D01*
X-9569680Y1682878D01*
X-9567087Y1683433D01*
X-9564125Y1684174D01*
X-9560977Y1684914D01*
X-9557459Y1685655D01*
X-9553755Y1686581D01*
X-9549682Y1687692D01*
X-9545238Y1688803D01*
X-9540609Y1689914D01*
Y1689729D01*
X-9540794Y1689173D01*
Y1688432D01*
X-9540979Y1687136D01*
X-9541349Y1685470D01*
X-9541720Y1683433D01*
X-9542090Y1680841D01*
X-9542460Y1677878D01*
X-9543016Y1674360D01*
X-9543756Y1670286D01*
X-9544497Y1665842D01*
X-9545238Y1660843D01*
X-9546164Y1655103D01*
X-9547275Y1648992D01*
X-9548200Y1642141D01*
X-9549497Y1634734D01*
X-9549682D01*
X-9550422Y1634549D01*
X-9551533Y1634364D01*
X-9553200Y1633994D01*
X-9555052Y1633809D01*
X-9557088Y1633438D01*
X-9559495Y1632883D01*
X-9562088Y1632512D01*
X-9567828Y1631587D01*
X-9573753Y1630846D01*
X-9579493Y1629920D01*
X-9582271Y1629735D01*
X-9584863Y1629365D01*
X-9585419D01*
X-9586159Y1629179D01*
X-9587085D01*
X-9588381Y1628994D01*
X-9589678D01*
X-9591344Y1628809D01*
X-9593196D01*
X-9597269Y1628439D01*
X-9601899Y1628254D01*
X-9606713Y1628068D01*
X-9617267D01*
X-9619304Y1628254D01*
X-9621711D01*
X-9624304Y1628439D01*
X-9627081Y1628624D01*
X-9630044Y1628809D01*
X-9636339Y1629179D01*
X-9643005Y1629920D01*
X-9649486Y1630846D01*
X-9649671D01*
X-9650227Y1631031D01*
X-9651153Y1631216D01*
X-9652264Y1631401D01*
X-9653745Y1631772D01*
X-9655597Y1632142D01*
X-9657448Y1632512D01*
X-9659670Y1633068D01*
X-9664299Y1634549D01*
X-9669299Y1636216D01*
X-9674298Y1638438D01*
X-9679298Y1640845D01*
X-9679483D01*
X-9679853Y1641215D01*
X-9680594Y1641585D01*
X-9681335Y1642141D01*
X-9682446Y1642882D01*
X-9683742Y1643807D01*
X-9686705Y1645844D01*
X-9690038Y1648622D01*
X-9693556Y1651770D01*
X-9697259Y1655288D01*
X-9700592Y1659176D01*
Y1659361D01*
X-9700962Y1659732D01*
X-9701333Y1660287D01*
X-9702073Y1661213D01*
X-9702629Y1662139D01*
X-9703555Y1663435D01*
X-9704480Y1664916D01*
X-9705406Y1666583D01*
X-9707443Y1670471D01*
X-9709665Y1674730D01*
X-9711702Y1679730D01*
X-9713554Y1685099D01*
Y1685285D01*
X-9713739Y1685840D01*
X-9713924Y1686581D01*
X-9714294Y1687692D01*
X-9714479Y1688988D01*
X-9714850Y1690654D01*
X-9715220Y1692506D01*
X-9715590Y1694543D01*
X-9716146Y1696765D01*
X-9716516Y1699172D01*
X-9717072Y1704357D01*
X-9717627Y1709912D01*
X-9717812Y1715837D01*
Y1716022D01*
Y1716763D01*
Y1718059D01*
X-9717627Y1719540D01*
Y1721577D01*
X-9717257Y1723984D01*
X-9717072Y1726577D01*
X-9716701Y1729539D01*
X-9716331Y1732687D01*
X-9715590Y1736020D01*
X-9714109Y1743242D01*
X-9711887Y1751019D01*
X-9710591Y1754907D01*
X-9709110Y1758796D01*
X-9708924Y1758981D01*
X-9708739Y1759721D01*
X-9708184Y1760832D01*
X-9707443Y1762314D01*
X-9706702Y1763980D01*
X-9705591Y1766202D01*
X-9704295Y1768424D01*
X-9702999Y1770831D01*
X-9699666Y1776201D01*
X-9695778Y1781756D01*
X-9691334Y1787126D01*
X-9688927Y1789533D01*
X-9686334Y1791940D01*
X-9686149Y1792125D01*
X-9685779Y1792496D01*
X-9684853Y1793051D01*
X-9683927Y1793977D01*
X-9682446Y1794903D01*
X-9680964Y1796014D01*
X-9679113Y1797310D01*
X-9677076Y1798606D01*
X-9674669Y1799902D01*
X-9672262Y1801384D01*
X-9666707Y1804161D01*
X-9660781Y1806754D01*
X-9654115Y1808976D01*
X-9653930D01*
X-9653375Y1809161D01*
X-9652264Y1809531D01*
X-9650967Y1809716D01*
X-9649301Y1810272D01*
X-9647264Y1810642D01*
X-9645042Y1811012D01*
X-9642635Y1811568D01*
X-9639858Y1812123D01*
X-9636895Y1812494D01*
X-9630599Y1813420D01*
X-9623933Y1813975D01*
X-9616897Y1814160D01*
X-9613564D01*
X-9611897Y1813975D01*
D02*
G37*
%LPC*%
G36*
X-7431197Y1763425D02*
X-7436382D01*
X-7437678Y1763240D01*
X-7439160Y1763054D01*
X-7442863Y1762684D01*
X-7446937Y1761943D01*
X-7451195Y1761018D01*
X-7455639Y1759536D01*
X-7459713Y1757499D01*
X-7459898D01*
X-7460083Y1757314D01*
X-7460639Y1756944D01*
X-7461380Y1756388D01*
X-7463416Y1755092D01*
X-7465638Y1753055D01*
X-7468416Y1750463D01*
X-7471008Y1747500D01*
X-7473600Y1743612D01*
X-7476008Y1739353D01*
Y1739168D01*
X-7476193Y1738798D01*
X-7476563Y1738057D01*
X-7476933Y1737316D01*
X-7477304Y1736205D01*
X-7477674Y1734724D01*
X-7478785Y1731576D01*
X-7479711Y1727873D01*
X-7480637Y1723799D01*
X-7481377Y1719355D01*
X-7481563Y1714911D01*
Y1714726D01*
Y1714541D01*
Y1713430D01*
X-7481377Y1711578D01*
X-7481192Y1709356D01*
X-7480822Y1706949D01*
X-7480266Y1704172D01*
X-7479526Y1701394D01*
X-7478600Y1698617D01*
X-7478415Y1698246D01*
X-7478044Y1697506D01*
X-7477304Y1696209D01*
X-7476193Y1694728D01*
X-7474897Y1693062D01*
X-7473415Y1691210D01*
X-7471564Y1689543D01*
X-7469342Y1687877D01*
X-7468971Y1687692D01*
X-7468231Y1687321D01*
X-7466935Y1686581D01*
X-7465268Y1686025D01*
X-7463046Y1685285D01*
X-7460824Y1684544D01*
X-7458047Y1684174D01*
X-7455269Y1683989D01*
X-7453973D01*
X-7452306Y1684174D01*
X-7450270Y1684544D01*
X-7448048Y1685099D01*
X-7445640Y1685840D01*
X-7443048Y1686951D01*
X-7440456Y1688432D01*
X-7440085Y1688618D01*
X-7439345Y1689358D01*
X-7438049Y1690469D01*
X-7436382Y1691951D01*
X-7434716Y1693802D01*
X-7432864Y1696209D01*
X-7430827Y1698987D01*
X-7429161Y1702320D01*
Y1702505D01*
X-7428975Y1702690D01*
X-7428790Y1703246D01*
X-7428420Y1703986D01*
X-7428050Y1704912D01*
X-7427679Y1706023D01*
X-7426753Y1708801D01*
X-7425643Y1712134D01*
X-7424717Y1716022D01*
X-7423791Y1720466D01*
X-7423050Y1725466D01*
Y1725651D01*
Y1726021D01*
X-7422865Y1726947D01*
X-7422680Y1728058D01*
Y1729354D01*
X-7422495Y1731021D01*
X-7422310Y1732872D01*
X-7422124Y1735094D01*
X-7421939Y1737687D01*
X-7421569Y1740464D01*
X-7421384Y1743427D01*
X-7421199Y1746575D01*
X-7421013Y1750093D01*
X-7420828Y1753796D01*
Y1757870D01*
X-7420643Y1761943D01*
X-7420828D01*
X-7421754Y1762129D01*
X-7422865Y1762499D01*
X-7424532Y1762684D01*
X-7426383Y1763054D01*
X-7428605Y1763240D01*
X-7431197Y1763425D01*
D02*
G37*
G36*
X-7885965Y1758240D02*
X-7887632D01*
X-7889483Y1758055D01*
X-7891705Y1757685D01*
X-7894483Y1756944D01*
X-7897260Y1756203D01*
X-7900223Y1754907D01*
X-7903186Y1753241D01*
X-7903556Y1753055D01*
X-7904482Y1752315D01*
X-7905778Y1751204D01*
X-7907444Y1749537D01*
X-7909111Y1747500D01*
X-7911148Y1744908D01*
X-7912814Y1741945D01*
X-7914481Y1738427D01*
Y1738242D01*
X-7914666Y1738057D01*
X-7914851Y1737501D01*
X-7915036Y1736761D01*
X-7915777Y1734724D01*
X-7916332Y1732132D01*
X-7917073Y1728984D01*
X-7917814Y1725281D01*
X-7918184Y1721207D01*
X-7918369Y1716763D01*
Y1716578D01*
Y1716022D01*
Y1715096D01*
X-7918184Y1713985D01*
Y1712504D01*
X-7917999Y1710838D01*
X-7917258Y1707134D01*
X-7916332Y1703061D01*
X-7914851Y1698802D01*
X-7912814Y1694543D01*
X-7911703Y1692691D01*
X-7910222Y1691025D01*
X-7910037D01*
X-7909852Y1690654D01*
X-7908741Y1689729D01*
X-7907074Y1688247D01*
X-7904667Y1686766D01*
X-7901704Y1685099D01*
X-7898186Y1683618D01*
X-7894112Y1682692D01*
X-7891890Y1682507D01*
X-7889668Y1682322D01*
X-7888002D01*
X-7886336Y1682507D01*
X-7883928Y1682878D01*
X-7881336Y1683433D01*
X-7878559Y1684359D01*
X-7875596Y1685470D01*
X-7872818Y1687136D01*
X-7872448Y1687321D01*
X-7871522Y1688062D01*
X-7870226Y1689173D01*
X-7868560Y1690840D01*
X-7866708Y1693062D01*
X-7864856Y1695654D01*
X-7863005Y1698802D01*
X-7861338Y1702320D01*
Y1702505D01*
X-7861153Y1702875D01*
X-7860968Y1703431D01*
X-7860783Y1704172D01*
X-7860412Y1705097D01*
X-7860042Y1706208D01*
X-7859301Y1708986D01*
X-7858561Y1712319D01*
X-7857820Y1716022D01*
X-7857450Y1720281D01*
X-7857264Y1724540D01*
Y1724725D01*
Y1724910D01*
Y1725466D01*
Y1726206D01*
X-7857450Y1728058D01*
X-7857635Y1730280D01*
X-7858005Y1732872D01*
X-7858561Y1735835D01*
X-7859301Y1738798D01*
X-7860412Y1741575D01*
X-7860597Y1741945D01*
X-7860968Y1742871D01*
X-7861708Y1744167D01*
X-7862819Y1746019D01*
X-7864116Y1747871D01*
X-7865782Y1749908D01*
X-7867819Y1751759D01*
X-7870226Y1753611D01*
X-7870596Y1753796D01*
X-7871337Y1754352D01*
X-7872818Y1755092D01*
X-7874670Y1756018D01*
X-7877077Y1756759D01*
X-7879670Y1757499D01*
X-7882632Y1758055D01*
X-7885965Y1758240D01*
D02*
G37*
G36*
X-8928635D02*
X-8930301D01*
X-8932153Y1758055D01*
X-8934375Y1757685D01*
X-8937153Y1756944D01*
X-8939930Y1756203D01*
X-8942893Y1754907D01*
X-8945855Y1753241D01*
X-8946226Y1753055D01*
X-8947152Y1752315D01*
X-8948448Y1751204D01*
X-8950114Y1749537D01*
X-8951781Y1747500D01*
X-8953817Y1744908D01*
X-8955484Y1741945D01*
X-8957150Y1738427D01*
Y1738242D01*
X-8957336Y1738057D01*
X-8957521Y1737501D01*
X-8957706Y1736761D01*
X-8958447Y1734724D01*
X-8959002Y1732132D01*
X-8959743Y1728984D01*
X-8960483Y1725281D01*
X-8960854Y1721207D01*
X-8961039Y1716763D01*
Y1716578D01*
Y1716022D01*
Y1715096D01*
X-8960854Y1713985D01*
Y1712504D01*
X-8960669Y1710838D01*
X-8959928Y1707134D01*
X-8959002Y1703061D01*
X-8957521Y1698802D01*
X-8955484Y1694543D01*
X-8954373Y1692691D01*
X-8952892Y1691025D01*
X-8952707D01*
X-8952521Y1690654D01*
X-8951410Y1689729D01*
X-8949744Y1688247D01*
X-8947337Y1686766D01*
X-8944374Y1685099D01*
X-8940856Y1683618D01*
X-8936782Y1682692D01*
X-8934560Y1682507D01*
X-8932338Y1682322D01*
X-8930672D01*
X-8929005Y1682507D01*
X-8926598Y1682878D01*
X-8924006Y1683433D01*
X-8921228Y1684359D01*
X-8918266Y1685470D01*
X-8915488Y1687136D01*
X-8915118Y1687321D01*
X-8914192Y1688062D01*
X-8912896Y1689173D01*
X-8911229Y1690840D01*
X-8909378Y1693062D01*
X-8907526Y1695654D01*
X-8905674Y1698802D01*
X-8904008Y1702320D01*
Y1702505D01*
X-8903823Y1702875D01*
X-8903638Y1703431D01*
X-8903452Y1704172D01*
X-8903082Y1705097D01*
X-8902712Y1706208D01*
X-8901971Y1708986D01*
X-8901230Y1712319D01*
X-8900490Y1716022D01*
X-8900119Y1720281D01*
X-8899934Y1724540D01*
Y1724725D01*
Y1724910D01*
Y1725466D01*
Y1726206D01*
X-8900119Y1728058D01*
X-8900305Y1730280D01*
X-8900675Y1732872D01*
X-8901230Y1735835D01*
X-8901971Y1738798D01*
X-8903082Y1741575D01*
X-8903267Y1741945D01*
X-8903638Y1742871D01*
X-8904378Y1744167D01*
X-8905489Y1746019D01*
X-8906785Y1747871D01*
X-8908452Y1749908D01*
X-8910489Y1751759D01*
X-8912896Y1753611D01*
X-8913266Y1753796D01*
X-8914007Y1754352D01*
X-8915488Y1755092D01*
X-8917340Y1756018D01*
X-8919747Y1756759D01*
X-8922339Y1757499D01*
X-8925302Y1758055D01*
X-8928635Y1758240D01*
D02*
G37*
G36*
X-9616527Y1768424D02*
X-9618193D01*
X-9619304Y1768239D01*
X-9620600Y1768054D01*
X-9621896Y1767869D01*
X-9625044Y1766943D01*
X-9625229D01*
X-9625785Y1766758D01*
X-9626526Y1766387D01*
X-9627451Y1765832D01*
X-9629859Y1764536D01*
X-9632451Y1762684D01*
X-9632636Y1762499D01*
X-9633006Y1762314D01*
X-9633562Y1761758D01*
X-9634303Y1761018D01*
X-9636154Y1758981D01*
X-9638006Y1756574D01*
Y1756388D01*
X-9638376Y1756018D01*
X-9638747Y1755277D01*
X-9639302Y1754352D01*
X-9640413Y1752130D01*
X-9641339Y1749537D01*
Y1749352D01*
X-9641524Y1748982D01*
X-9641709Y1748241D01*
X-9642080Y1747500D01*
X-9642635Y1745649D01*
X-9643376Y1743612D01*
X-9595047D01*
X-9595233Y1744167D01*
Y1744538D01*
Y1745093D01*
Y1745464D01*
Y1746389D01*
X-9595418Y1747871D01*
X-9595603Y1749722D01*
X-9595788Y1751759D01*
X-9596344Y1753796D01*
X-9596899Y1756018D01*
X-9597825Y1758055D01*
X-9598010Y1758240D01*
X-9598380Y1758981D01*
X-9598936Y1759907D01*
X-9599677Y1761018D01*
X-9600788Y1762314D01*
X-9602084Y1763610D01*
X-9603565Y1764721D01*
X-9605417Y1765832D01*
X-9605602Y1766017D01*
X-9606342Y1766202D01*
X-9607268Y1766573D01*
X-9608564Y1767128D01*
X-9610231Y1767684D01*
X-9612083Y1768054D01*
X-9614305Y1768239D01*
X-9616527Y1768424D01*
D02*
G37*
%LPD*%
D88*
X-5005000Y2370000D02*
G03*
X-5005000Y2370000I-15000J0D01*
G01*
X-3460000Y-889000D02*
G03*
X-3460000Y-889000I-10000J0D01*
G01*
X-4055000Y1770000D02*
G03*
X-4055000Y1770000I-15000J0D01*
G01*
X7730000Y10000D02*
G03*
X7730000Y10000I-5000J0D01*
G01*
X-7855000Y-270000D02*
G03*
X-7855000Y-270000I-15000J0D01*
G01*
X1089802Y56568D02*
G03*
X1089802Y56568I-15000J0D01*
G01*
X3920000Y-2780000D02*
G03*
X3920000Y-2780000I-15000J0D01*
G01*
X7310000Y2780000D02*
G03*
X7310000Y2780000I-15000J0D01*
G01*
X320000Y-2780000D02*
G03*
X320000Y-2780000I-15000J0D01*
G01*
X3710000Y2780000D02*
G03*
X3710000Y2780000I-15000J0D01*
G01*
X-3680000Y-2780000D02*
G03*
X-3680000Y-2780000I-15000J0D01*
G01*
X-290000Y2780000D02*
G03*
X-290000Y2780000I-15000J0D01*
G01*
X-7280000Y-2780000D02*
G03*
X-7280000Y-2780000I-15000J0D01*
G01*
X-3890000Y2780000D02*
G03*
X-3890000Y2780000I-15000J0D01*
G01*
X3556000Y-813001D02*
G03*
X3556000Y-813001I-10000J0D01*
G01*
X-10000000Y1100000D02*
Y1300000D01*
X-10100000Y1200000D02*
X-9900000D01*
X-9800000D02*
X-9600000D01*
X-9700000Y1100000D02*
Y1300000D01*
X-9500000Y1200000D02*
X-9300000D01*
X-9400000Y1100000D02*
Y1300000D01*
X-9200000Y1200000D02*
X-9000000D01*
X-9100000Y1100000D02*
Y1300000D01*
X-8900000Y1200000D02*
X-8700000D01*
X-8800000Y1100000D02*
Y1300000D01*
X-8600000Y1200000D02*
X-8400000D01*
X-8500000Y1100000D02*
Y1300000D01*
X-8300000Y1200000D02*
X-8100000D01*
X-8200000Y1100000D02*
Y1300000D01*
X-8300000Y900000D02*
X-8100000D01*
X-8200000Y800000D02*
Y1000000D01*
X-8300000Y600000D02*
X-8100000D01*
X-8200000Y500000D02*
Y700000D01*
X-8300000Y300000D02*
X-8100000D01*
X-8200000Y200000D02*
Y400000D01*
Y-100000D02*
Y100000D01*
X-8300000Y0D02*
X-8100000D01*
X-8200000Y-400000D02*
Y-200000D01*
X-8300000Y-300000D02*
X-8100000D01*
X-8200000Y-700000D02*
Y-500000D01*
X-8300000Y-600000D02*
X-8100000D01*
X-8200000Y-1000000D02*
Y-800000D01*
X-8300000Y-900000D02*
X-8100000D01*
X-8200000Y-1300000D02*
Y-1100000D01*
X-8300000Y-1200000D02*
X-8100000D01*
X-8500000Y-1300000D02*
Y-1100000D01*
X-8600000Y-1200000D02*
X-8400000D01*
X-8800000Y-1300000D02*
Y-1100000D01*
X-8900000Y-1200000D02*
X-8700000D01*
X-9100000Y-1300000D02*
Y-1100000D01*
X-9200000Y-1200000D02*
X-9000000D01*
X-9400000Y-1300000D02*
Y-1100000D01*
X-9500000Y-1200000D02*
X-9300000D01*
X-9700000Y-1300000D02*
Y-1100000D01*
X-9800000Y-1200000D02*
X-9600000D01*
X-10100000D02*
X-9900000D01*
X-10000000Y-1300000D02*
Y-1100000D01*
X7200000Y-1893700D02*
X8800000Y-1887400D01*
X7200000Y-1893700D02*
Y-1106300D01*
X8800000Y-1100000D01*
X8600000Y-1450000D02*
Y-1250000D01*
X8500000Y-1350000D02*
X8700000D01*
X8500000Y-1650000D02*
X8700000D01*
X7935000Y1930000D02*
Y2220000D01*
X7465000Y1930000D02*
Y2220000D01*
X7935000D01*
Y980000D02*
Y1270000D01*
X7465000Y980000D02*
Y1270000D01*
Y980000D02*
X7935000D01*
X10035000Y-1870000D02*
Y-1130000D01*
X8880000D02*
X10035000D01*
X8880000Y-1870000D02*
X10035000D01*
X8880000D02*
Y-1130000D01*
X7580000Y-1453581D02*
X7594282Y-1446440D01*
X7615706Y-1425016D01*
Y-1574984D01*
X7789955Y-1446440D02*
X7775672Y-1432157D01*
X7754248Y-1425016D01*
X7725683D01*
X7704259Y-1432157D01*
X7689976Y-1446440D01*
Y-1460723D01*
X7697117Y-1475005D01*
X7704259Y-1482147D01*
X7718542Y-1489288D01*
X7761390Y-1503571D01*
X7775672Y-1510712D01*
X7782813Y-1517853D01*
X7789955Y-1532136D01*
Y-1553560D01*
X7775672Y-1567843D01*
X7754248Y-1574984D01*
X7725683D01*
X7704259Y-1567843D01*
X7689976Y-1553560D01*
X7941351Y-1425016D02*
Y-1574984D01*
X8027047D01*
X8043472Y-1425016D02*
Y-1574984D01*
X8074894Y-1503571D02*
X8139166D01*
X8160589Y-1496429D01*
X8167731Y-1489288D01*
X8174872Y-1475005D01*
Y-1453581D01*
X8167731Y-1439299D01*
X8160589Y-1432157D01*
X8139166Y-1425016D01*
X8074894D01*
Y-1574984D01*
X8251284Y-1425016D02*
X8237002Y-1432157D01*
X8222719Y-1446440D01*
X8215578Y-1460723D01*
X8208436Y-1482147D01*
Y-1517853D01*
X8215578Y-1539277D01*
X8222719Y-1553560D01*
X8237002Y-1567843D01*
X8251284Y-1574984D01*
X8279850D01*
X8294132Y-1567843D01*
X8308415Y-1553560D01*
X8315556Y-1539277D01*
X8322698Y-1517853D01*
Y-1482147D01*
X8315556Y-1460723D01*
X8308415Y-1446440D01*
X8294132Y-1432157D01*
X8279850Y-1425016D01*
X8251284D01*
D89*
X-4809000Y2250000D02*
G03*
X-4809000Y2250000I-20000J0D01*
G01*
X7390000Y1971035D02*
G03*
X7390000Y1971035I-20000J0D01*
G01*
X-3859000Y1650000D02*
G03*
X-3859000Y1650000I-20000J0D01*
G01*
X-7730000Y-79000D02*
G03*
X-7730000Y-79000I-20000J0D01*
G01*
X4116000Y-2900000D02*
G03*
X4116000Y-2900000I-20000J0D01*
G01*
X7124000Y2900000D02*
G03*
X7124000Y2900000I-20000J0D01*
G01*
X516000Y-2900000D02*
G03*
X516000Y-2900000I-20000J0D01*
G01*
X3524000Y2900000D02*
G03*
X3524000Y2900000I-20000J0D01*
G01*
X-3484000Y-2900000D02*
G03*
X-3484000Y-2900000I-20000J0D01*
G01*
X-476000Y2900000D02*
G03*
X-476000Y2900000I-20000J0D01*
G01*
X-7084000Y-2900000D02*
G03*
X-7084000Y-2900000I-20000J0D01*
G01*
X-4076000Y2900000D02*
G03*
X-4076000Y2900000I-20000J0D01*
G01*
X-8570000Y-360000D02*
Y360000D01*
X-10030000Y-360000D02*
Y360000D01*
X8570000Y-360000D02*
Y360000D01*
X10030000Y-360000D02*
Y360000D01*
X-5834235Y-2504761D02*
X-5748539D01*
X-5719974Y-2495239D01*
X-5710452Y-2485717D01*
X-5700931Y-2466674D01*
Y-2438108D01*
X-5710452Y-2419065D01*
X-5719974Y-2409543D01*
X-5748539Y-2400021D01*
X-5834235D01*
Y-2599979D01*
X-5589526Y-2400021D02*
Y-2599979D01*
X-5656178Y-2400021D02*
X-5522873D01*
X-5489547Y-2447630D02*
Y-2438108D01*
X-5480025Y-2419065D01*
X-5470504Y-2409543D01*
X-5451460Y-2400021D01*
X-5413373D01*
X-5394330Y-2409543D01*
X-5384808Y-2419065D01*
X-5375286Y-2438108D01*
Y-2457152D01*
X-5384808Y-2476195D01*
X-5403851Y-2504761D01*
X-5499069Y-2599979D01*
X-5365764D01*
X-2238997Y-2504761D02*
X-2153300D01*
X-2124735Y-2495239D01*
X-2115213Y-2485717D01*
X-2105692Y-2466674D01*
Y-2438108D01*
X-2115213Y-2419065D01*
X-2124735Y-2409543D01*
X-2153300Y-2400021D01*
X-2238997D01*
Y-2599979D01*
X-1994287Y-2400021D02*
Y-2599979D01*
X-2060939Y-2400021D02*
X-1927634D01*
X-1808612D02*
X-1903830Y-2533326D01*
X-1761003D01*
X-1808612Y-2400021D02*
Y-2599979D01*
X1770525Y-2504761D02*
X1856221D01*
X1884787Y-2495239D01*
X1894308Y-2485717D01*
X1903830Y-2466674D01*
Y-2438108D01*
X1894308Y-2419065D01*
X1884787Y-2409543D01*
X1856221Y-2400021D01*
X1770525D01*
Y-2599979D01*
X2015235Y-2400021D02*
Y-2599979D01*
X1948583Y-2400021D02*
X2081887D01*
X2219953Y-2428587D02*
X2210431Y-2409543D01*
X2181866Y-2400021D01*
X2162822D01*
X2134257Y-2409543D01*
X2115213Y-2438108D01*
X2105692Y-2485717D01*
Y-2533326D01*
X2115213Y-2571413D01*
X2134257Y-2590457D01*
X2162822Y-2599979D01*
X2172344D01*
X2200909Y-2590457D01*
X2219953Y-2571413D01*
X2229475Y-2542848D01*
Y-2533326D01*
X2219953Y-2504761D01*
X2200909Y-2485717D01*
X2172344Y-2476195D01*
X2162822D01*
X2134257Y-2485717D01*
X2115213Y-2504761D01*
X2105692Y-2533326D01*
X5365764Y-2504761D02*
X5451461D01*
X5480026Y-2495239D01*
X5489548Y-2485717D01*
X5499069Y-2466674D01*
Y-2438108D01*
X5489548Y-2419065D01*
X5480026Y-2409543D01*
X5451461Y-2400021D01*
X5365764D01*
Y-2599979D01*
X5610474Y-2400021D02*
Y-2599979D01*
X5543822Y-2400021D02*
X5677127D01*
X5748540D02*
X5719975Y-2409543D01*
X5710453Y-2428587D01*
Y-2447630D01*
X5719975Y-2466674D01*
X5739018Y-2476195D01*
X5777105Y-2485717D01*
X5805670Y-2495239D01*
X5824714Y-2514282D01*
X5834236Y-2533326D01*
Y-2561891D01*
X5824714Y-2580935D01*
X5815192Y-2590457D01*
X5786627Y-2599979D01*
X5748540D01*
X5719975Y-2590457D01*
X5710453Y-2580935D01*
X5700931Y-2561891D01*
Y-2533326D01*
X5710453Y-2514282D01*
X5729496Y-2495239D01*
X5758062Y-2485717D01*
X5796149Y-2476195D01*
X5815192Y-2466674D01*
X5824714Y-2447630D01*
Y-2428587D01*
X5815192Y-2409543D01*
X5786627Y-2400021D01*
X5748540D01*
X5365764Y2495239D02*
X5451461D01*
X5480026Y2504761D01*
X5489548Y2514283D01*
X5499069Y2533326D01*
Y2561892D01*
X5489548Y2580935D01*
X5480026Y2590457D01*
X5451461Y2599979D01*
X5365764D01*
Y2400022D01*
X5610474Y2599979D02*
Y2400022D01*
X5543822Y2599979D02*
X5677127D01*
X5834236D02*
X5739018Y2400022D01*
X5700931Y2599979D02*
X5834236D01*
X1765765Y2495239D02*
X1851461D01*
X1880026Y2504761D01*
X1889548Y2514283D01*
X1899069Y2533326D01*
Y2561892D01*
X1889548Y2580935D01*
X1880026Y2590457D01*
X1851461Y2599979D01*
X1765765D01*
Y2400022D01*
X2010474Y2599979D02*
Y2400022D01*
X1943822Y2599979D02*
X2077127D01*
X2215192D02*
X2119975D01*
X2110453Y2514283D01*
X2119975Y2523805D01*
X2148540Y2533326D01*
X2177105D01*
X2205670Y2523805D01*
X2224714Y2504761D01*
X2234236Y2476196D01*
Y2457152D01*
X2224714Y2428587D01*
X2205670Y2409543D01*
X2177105Y2400022D01*
X2148540D01*
X2119975Y2409543D01*
X2110453Y2419065D01*
X2100931Y2438109D01*
X-2234236Y2495239D02*
X-2148540D01*
X-2119974Y2504761D01*
X-2110452Y2514283D01*
X-2100931Y2533326D01*
Y2561892D01*
X-2110452Y2580935D01*
X-2119974Y2590457D01*
X-2148540Y2599979D01*
X-2234236D01*
Y2400022D01*
X-1989526Y2599979D02*
Y2400022D01*
X-2056178Y2599979D02*
X-1922873D01*
X-1880025D02*
X-1775286D01*
X-1832417Y2523805D01*
X-1803851D01*
X-1784808Y2514283D01*
X-1775286Y2504761D01*
X-1765764Y2476196D01*
Y2457152D01*
X-1775286Y2428587D01*
X-1794330Y2409543D01*
X-1822895Y2400022D01*
X-1851460D01*
X-1880025Y2409543D01*
X-1889547Y2419065D01*
X-1899069Y2438109D01*
X-5791388Y2495239D02*
X-5705692D01*
X-5677126Y2504761D01*
X-5667605Y2514283D01*
X-5658083Y2533326D01*
Y2561892D01*
X-5667605Y2580935D01*
X-5677126Y2590457D01*
X-5705692Y2599979D01*
X-5791388D01*
Y2400022D01*
X-5546678Y2599979D02*
Y2400022D01*
X-5613330Y2599979D02*
X-5480026D01*
X-5456221Y2561892D02*
X-5437178Y2571413D01*
X-5408612Y2599979D01*
Y2400022D01*
D90*
X-4800000Y2350000D02*
G03*
X-4700000Y2350000I50000J0D01*
G01*
X8945000Y1895000D02*
G03*
X8945000Y1895000I-40000J0D01*
G01*
X9075000Y1805000D02*
G03*
X9075000Y1805000I-10000J0D01*
G01*
X4304937Y1874979D02*
G03*
X4304937Y1874979I-10000J0D01*
G01*
X3404936D02*
G03*
X3404936Y1874979I-10000J0D01*
G01*
X7160000Y-330000D02*
G03*
X7160000Y-330000I-10000J0D01*
G01*
X-3850000Y1750000D02*
G03*
X-3750000Y1750000I50000J0D01*
G01*
X-7850000Y-50000D02*
G03*
X-7850000Y50000I0J50000D01*
G01*
X888528Y0D02*
G03*
X888528Y0I-40000J0D01*
G01*
X4125000Y-2800000D02*
G03*
X4225000Y-2800000I50000J0D01*
G01*
X7075000Y2800000D02*
G03*
X6975000Y2800000I-50000J0D01*
G01*
X525000Y-2800000D02*
G03*
X625000Y-2800000I50000J0D01*
G01*
X3475000Y2800000D02*
G03*
X3375000Y2800000I-50000J0D01*
G01*
X-3475000Y-2800000D02*
G03*
X-3375000Y-2800000I50000J0D01*
G01*
X-525000Y2800000D02*
G03*
X-625000Y2800000I-50000J0D01*
G01*
X-7075000Y-2800000D02*
G03*
X-6975000Y-2800000I50000J0D01*
G01*
X-4125000Y2800000D02*
G03*
X-4225000Y2800000I-50000J0D01*
G01*
X3610000Y-510000D02*
G03*
X3610000Y-510000I-50000J0D01*
G01*
X7860000Y2630000D02*
G03*
X7860000Y2630000I-10000J0D01*
G01*
X7990000D02*
G03*
X7990000Y2630000I-10000J0D01*
G01*
X5732000Y225000D02*
G03*
X5732000Y225000I-5000J0D01*
G01*
X5986000Y225000D02*
G03*
X5986000Y225000I-5000J0D01*
G01*
X8300000Y1380000D02*
G03*
X8300000Y1380000I-5000J0D01*
G01*
Y1490000D02*
G03*
X8300000Y1490000I-5000J0D01*
G01*
Y1600000D02*
G03*
X8300000Y1600000I-5000J0D01*
G01*
Y1710000D02*
G03*
X8300000Y1710000I-5000J0D01*
G01*
Y1820000D02*
G03*
X8300000Y1820000I-5000J0D01*
G01*
X-165000Y-1265000D02*
G03*
X-165000Y-1265000I-5000J0D01*
G01*
X175000D02*
G03*
X175000Y-1265000I-5000J0D01*
G01*
X4410000Y70000D02*
G03*
X4410000Y70000I-10000J0D01*
G01*
X3210000Y330000D02*
G03*
X3210000Y330000I-10000J0D01*
G01*
X4260000Y70000D02*
G03*
X4260000Y70000I-10000J0D01*
G01*
X3360000Y330000D02*
G03*
X3360000Y330000I-10000J0D01*
G01*
X2140000Y-300000D02*
G03*
X2140000Y-300000I-10000J0D01*
G01*
X7480000Y110000D02*
G03*
X7480000Y110000I-10000J0D01*
G01*
X-4900000Y1850000D02*
Y2350000D01*
X-4600000Y1850000D02*
Y2350000D01*
X-4700000D02*
X-4600000D01*
X-4900000D02*
X-4800000D01*
X-4900000Y1850000D02*
X-4600000D01*
X8775000Y1825000D02*
Y2125000D01*
X8975000D01*
X8775000Y1825000D02*
X8975000D01*
Y2125000D01*
X275000Y-1900000D02*
Y-1500000D01*
X725000D01*
Y-1900000D02*
Y-1500000D01*
X275000Y-1900000D02*
X725000D01*
X434500Y2022500D02*
X517000Y2022500D01*
Y1942500D02*
Y2022500D01*
X207000D02*
X289500Y2022500D01*
X207000Y1942500D02*
Y2022500D01*
X-4070000Y1040500D02*
X-3530000D01*
Y-1040500D02*
Y1040500D01*
X-4070000Y-1040500D02*
Y1040500D01*
Y-1040500D02*
X-3530000D01*
X3850000Y1065000D02*
X3985000Y1065000D01*
X3315000Y1435000D02*
X3315000Y1065000D01*
X3985000Y1065000D02*
Y1435000D01*
X3315000Y1065000D02*
X3450000Y1065000D01*
X4750002Y1065000D02*
X4885001D01*
X4215002Y1065000D02*
Y1435000D01*
X4885001Y1065000D02*
X4885002Y1435000D01*
X4215002Y1065000D02*
X4350002Y1065000D01*
X4404936Y1832479D02*
X4444936D01*
X4404936Y1917479D02*
X4444937D01*
X3504937Y1832479D02*
X3544937D01*
X3504937Y1917479D02*
X3544937D01*
X7970000Y225000D02*
Y295000D01*
X7810000Y225000D02*
Y295000D01*
X7385000Y-765000D02*
Y-695000D01*
X7225000Y-765000D02*
Y-695000D01*
X7615000D02*
X7615000Y-765000D01*
X7455000D02*
Y-695000D01*
X-2115000Y-345000D02*
Y345000D01*
X-2485000Y-345000D02*
Y345000D01*
Y-345000D02*
X-2115000D01*
X-2485000Y345000D02*
X-2115000D01*
X-4170000Y-35000D02*
Y35000D01*
X-4330000Y-35000D02*
Y35000D01*
X-4880000Y577500D02*
X-4760000D01*
X-4880000Y422500D02*
X-4760000D01*
X-4350000Y1230000D02*
X-4307500D01*
Y1216500D02*
Y1230000D01*
X-4350000Y1070000D02*
X-4307500D01*
Y1083500D01*
X-4880000Y847500D02*
X-4760000D01*
X-4880000Y692500D02*
X-4760000D01*
X-5430000Y-255000D02*
Y255000D01*
X-5770000Y-255000D02*
X-5770000Y255000D01*
X-5770000Y-255000D02*
X-5430000D01*
X-5770000Y255000D02*
X-5430000Y255000D01*
X7800000Y3132999D02*
Y3382999D01*
X8500000Y3132999D02*
Y3382999D01*
X7900000Y2782999D02*
X8400000D01*
X7990000Y-2750000D02*
X7990001Y-2150000D01*
X7990000Y-2750000D02*
X8310000D01*
X8310000Y-2150000D02*
X8310000Y-2750000D01*
X7990001Y-2150000D02*
X8310000D01*
X7192500Y-220000D02*
Y-180000D01*
X7107500Y-220000D02*
Y-180000D01*
X6500000Y-1280000D02*
Y-1180000D01*
X6570000D01*
X6800000Y-1280000D02*
Y-1180000D01*
X6730000D02*
X6800000D01*
X6850000Y-1280000D02*
Y-1180000D01*
X6920000D01*
X7150000Y-1280000D02*
Y-1180000D01*
X7080000D02*
X7150000D01*
X796500Y2022500D02*
X879000D01*
Y1942500D02*
Y2022500D01*
X569000D02*
X651500D01*
X569000Y1942500D02*
Y2022500D01*
X-517000Y1477500D02*
X-434501D01*
X-517000D02*
Y1557500D01*
X-289500Y1477500D02*
X-207001D01*
Y1557500D01*
X569000Y1477500D02*
X651500D01*
X569000D02*
Y1557500D01*
X796500Y1477500D02*
X879000D01*
Y1557500D01*
X-155000Y1477500D02*
X-72500D01*
X-155000D02*
Y1557500D01*
X72500Y1477500D02*
X155000D01*
Y1557500D01*
X-879001Y1477500D02*
X-796501D01*
X-879001D02*
Y1557500D01*
X-651501Y1477500D02*
X-569001D01*
Y1557500D01*
X-289500Y2022500D02*
X-207000D01*
Y1942500D02*
Y2022500D01*
X-517000D02*
X-434500D01*
X-517000Y1942500D02*
Y2022500D01*
X-651500Y2022500D02*
X-569000D01*
Y1942500D02*
Y2022500D01*
X-879000D02*
X-796500D01*
X-879000Y1942500D02*
Y2022500D01*
X72500D02*
X155000D01*
Y1942500D02*
Y2022500D01*
X-155000D02*
X-72500D01*
X-155000Y1942500D02*
Y2022500D01*
X207000Y1477500D02*
X289500D01*
X207000D02*
Y1557500D01*
X434500Y1477500D02*
X516999D01*
Y1557500D01*
X-8620001Y2560000D02*
Y2630000D01*
X-8780000Y2560000D02*
Y2630000D01*
X-3950000Y1250000D02*
X-3650000D01*
X-3950000Y1750000D02*
X-3850000D01*
X-3750000D02*
X-3650000D01*
Y1250000D02*
Y1750000D01*
X-3950000Y1250000D02*
Y1750000D01*
X-2930000Y3192500D02*
Y3282500D01*
X-2770000Y3192500D02*
Y3282500D01*
X1110158Y791960D02*
X1180869Y721249D01*
X989950Y671752D02*
X1060661Y601041D01*
X866206Y675287D02*
X901561Y710642D01*
X866206Y745997D02*
X901561Y710642D01*
X-8285000Y2605000D02*
Y2645000D01*
X3955000Y-1340001D02*
Y-1240001D01*
X3645000Y-1340001D02*
Y-1240001D01*
X3955000D01*
X3645000Y-1340001D02*
X3955000D01*
X1955000Y-155000D02*
X2045000D01*
X1955000Y155000D02*
X2045000D01*
X1955000Y-155000D02*
Y155000D01*
X2045000Y-155000D02*
Y155000D01*
X7480000Y-72500D02*
Y-30000D01*
X7522500D01*
X7480000Y-370000D02*
Y-327500D01*
Y-370000D02*
X7522500D01*
X7777500D02*
X7820000D01*
Y-327500D01*
Y-72500D02*
Y-30000D01*
X7777500D02*
X7820000D01*
X-7850000Y-150000D02*
X-7350000Y-150000D01*
X-7850000Y150000D02*
X-7350000Y150000D01*
X-7850000Y50000D02*
X-7850000Y150000D01*
X-7850000Y-50000D02*
X-7850000Y-150000D01*
X-7350000Y-150000D02*
Y150000D01*
X-1018233Y0D02*
X-968736Y-49497D01*
X-1018233Y0D02*
X-968736Y49497D01*
X0Y1018233D02*
X49497Y968736D01*
X-49497D02*
X0Y1018233D01*
X968736Y49497D02*
X1018234Y-0D01*
X968736Y-49498D02*
X1018234Y-0D01*
X-49497Y-968736D02*
X0Y-1018234D01*
X49498Y-968736D01*
X-3730000Y2072500D02*
X-3650000D01*
Y1972500D02*
Y2072500D01*
X-3950000Y2072500D02*
X-3870000Y2072500D01*
X-3950000Y1972500D02*
Y2072500D01*
X4025000Y-3300000D02*
Y-2800000D01*
X4325000Y-3300000D02*
Y-2800000D01*
X4225000D02*
X4325000D01*
X4025000D02*
X4125000D01*
X4025000Y-3300000D02*
X4325000D01*
X7175000Y2800000D02*
Y3300000D01*
X6875000Y2800000D02*
Y3300000D01*
Y2800000D02*
X6975000D01*
X7075000D02*
X7175000D01*
X6875000Y3300000D02*
X7175000D01*
X425000Y-3300000D02*
Y-2800000D01*
X725000Y-3300000D02*
Y-2800000D01*
X625000D02*
X725000D01*
X425000D02*
X525000D01*
X425000Y-3300000D02*
X725000D01*
X3575000Y2800000D02*
Y3300000D01*
X3275000Y2800000D02*
Y3300000D01*
Y2800000D02*
X3375000D01*
X3475000D02*
X3575000D01*
X3275000Y3300000D02*
X3575000D01*
X-3575000Y-3300000D02*
Y-2800000D01*
X-3275000Y-3300000D02*
Y-2800000D01*
X-3375000D02*
X-3275000D01*
X-3575000D02*
X-3475000D01*
X-3575000Y-3300000D02*
X-3275000D01*
X-425000Y2800000D02*
Y3300000D01*
X-725000Y2800000D02*
Y3300000D01*
Y2800000D02*
X-625000D01*
X-525000D02*
X-425000D01*
X-725000Y3300000D02*
X-425000D01*
X-7175000Y-3300000D02*
Y-2800000D01*
X-6875000Y-3300000D02*
Y-2800000D01*
X-6975000D02*
X-6875000D01*
X-7175000D02*
X-7075000D01*
X-7175000Y-3300000D02*
X-6875000D01*
X-4025000Y2800000D02*
Y3300000D01*
X-4325000Y2800000D02*
Y3300000D01*
Y2800000D02*
X-4225000D01*
X-4125000D02*
X-4025000D01*
X-4325000Y3300000D02*
X-4025000D01*
X3463500Y107000D02*
X4136500D01*
X3463500Y-607001D02*
Y107000D01*
Y-607001D02*
X4136500D01*
Y107000D01*
X-725000Y-1500000D02*
X-275000D01*
X-725000Y-1900000D02*
Y-1500000D01*
Y-1900000D02*
X-275000D01*
Y-1500000D01*
X6310000Y-1810000D02*
X6890000D01*
Y-2390000D02*
Y-1810000D01*
X6310000Y-2390000D02*
X6890000D01*
X6310000D02*
Y-1810000D01*
X-6890000D02*
X-6310000D01*
Y-2390000D02*
Y-1810000D01*
X-6890000Y-2390000D02*
X-6310000D01*
X-6890000D02*
Y-1810000D01*
Y-410000D02*
X-6310000D01*
Y-990000D02*
Y-410000D01*
X-6890000Y-990000D02*
X-6310000D01*
X-6890000D02*
Y-410000D01*
X6310000D02*
X6890000D01*
Y-990000D02*
Y-410000D01*
X6310000Y-990000D02*
X6890000D01*
X6310000D02*
Y-410000D01*
Y990000D02*
X6890000D01*
Y410000D02*
Y990000D01*
X6310000Y410000D02*
X6890000D01*
X6310000D02*
Y990000D01*
X-6890000Y990000D02*
X-6310000D01*
Y410000D02*
Y990000D01*
X-6890000Y410000D02*
X-6310000D01*
X-6890000D02*
Y990000D01*
X6310000Y2390000D02*
X6890000D01*
Y1810000D02*
Y2390000D01*
X6310000Y1810000D02*
X6890000D01*
X6310000D02*
Y2390000D01*
X-6890000D02*
X-6310000D01*
Y1810000D02*
Y2390000D01*
X-6890000Y1810000D02*
X-6310000D01*
X-6890000D02*
Y2390000D01*
X-8826500Y-3191500D02*
X-7873500D01*
Y-2708500D01*
X-8826500D02*
X-7873500D01*
X-8826500Y-3191500D02*
Y-2708500D01*
X-8260000Y-1405000D02*
X-8240001D01*
X-8260000Y-1525000D02*
X-8240001D01*
X-8660000Y-1405000D02*
X-8640000D01*
X-8660000Y-1525000D02*
X-8640000D01*
X-9060001Y-1405000D02*
X-9040001D01*
X-9060001Y-1525000D02*
X-9040001D01*
X-9460001Y-1405000D02*
X-9440001D01*
X-9460001Y-1525000D02*
X-9440001D01*
X-9860001Y-1405000D02*
X-9840001D01*
X-9860001Y-1525000D02*
X-9840001D01*
X4855000Y-3045000D02*
Y-2955000D01*
X4695000Y-3045000D02*
Y-2955000D01*
X6345000Y2955000D02*
Y3045000D01*
X6505000Y2955000D02*
Y3045000D01*
X1255000Y-3045000D02*
Y-2955000D01*
X1095000Y-3045000D02*
Y-2955000D01*
X2745000Y2955000D02*
Y3045000D01*
X2905000Y2955000D02*
Y3045000D01*
X-2745000Y-3045000D02*
Y-2955000D01*
X-2905000Y-3045000D02*
Y-2955000D01*
X-1255000Y2955000D02*
Y3045000D01*
X-1095000Y2955000D02*
Y3045000D01*
X-6345000Y-3045000D02*
Y-2955000D01*
X-6505000Y-3045000D02*
Y-2955000D01*
X-4855000Y2955000D02*
Y3045000D01*
X-4695000Y2955000D02*
Y3045000D01*
X6619999Y-3282499D02*
Y-3192499D01*
X6779999Y-3282499D02*
Y-3192499D01*
X4420000Y2717499D02*
Y2807499D01*
X4580000Y2717499D02*
Y2807499D01*
X3019998Y-3282500D02*
Y-3192500D01*
X3179998Y-3282500D02*
Y-3192500D01*
X820000Y2717499D02*
Y2807499D01*
X980000Y2717499D02*
Y2807499D01*
X-980001Y-3282499D02*
Y-3192499D01*
X-820001Y-3282499D02*
Y-3192499D01*
X-3180000Y2717499D02*
Y2807499D01*
X-3020000Y2717499D02*
Y2807499D01*
X-4580000Y-3282499D02*
Y-3192499D01*
X-4420001Y-3282499D02*
Y-3192499D01*
X-6780000Y2717499D02*
Y2807499D01*
X-6620000Y2717499D02*
Y2807499D01*
X6369998Y-3282499D02*
Y-3192499D01*
X6529998Y-3282499D02*
Y-3192499D01*
X4169999Y2717499D02*
Y2807499D01*
X4329999Y2717499D02*
Y2807499D01*
X2769997Y-3282500D02*
Y-3192500D01*
X2929997Y-3282500D02*
Y-3192500D01*
X569999Y2717499D02*
Y2807499D01*
X729999Y2717499D02*
Y2807499D01*
X-1230002Y-3282499D02*
Y-3192499D01*
X-1070002Y-3282499D02*
Y-3192499D01*
X-3430001Y2717499D02*
Y2807499D01*
X-3270001Y2717499D02*
Y2807499D01*
X-4830002Y-3282499D02*
Y-3192499D01*
X-4670002Y-3282499D02*
Y-3192499D01*
X-7030001Y2717499D02*
Y2807499D01*
X-6870001Y2717499D02*
Y2807499D01*
X6869999Y-3282499D02*
Y-3192499D01*
X7029999Y-3282499D02*
Y-3192499D01*
X4670000Y2717499D02*
Y2807499D01*
X4830000Y2717499D02*
Y2807499D01*
X3269998Y-3282500D02*
Y-3192500D01*
X3429998Y-3282500D02*
Y-3192500D01*
X1070000Y2717499D02*
Y2807499D01*
X1230000Y2717499D02*
Y2807499D01*
X-730001Y-3282499D02*
Y-3192499D01*
X-570001Y-3282499D02*
Y-3192499D01*
X-2930000Y2717499D02*
Y2807499D01*
X-2770000Y2717499D02*
Y2807499D01*
X-4330000Y-3282499D02*
Y-3192499D01*
X-4170001Y-3282499D02*
Y-3192499D01*
X-6530000Y2717499D02*
Y2807499D01*
X-6370000Y2717499D02*
Y2807499D01*
X7029999Y-2807498D02*
Y-2717498D01*
X6869999Y-2807498D02*
Y-2717498D01*
X4830000Y3192500D02*
Y3282500D01*
X4670000Y3192500D02*
Y3282500D01*
X3429998Y-2807499D02*
Y-2717499D01*
X3269998Y-2807499D02*
Y-2717499D01*
X1230000Y3192500D02*
Y3282500D01*
X1070000Y3192500D02*
Y3282500D01*
X-570001Y-2807498D02*
Y-2717498D01*
X-730001Y-2807498D02*
Y-2717498D01*
X-4170001Y-2807498D02*
Y-2717498D01*
X-4330001Y-2807498D02*
Y-2717498D01*
X-6370000Y3192500D02*
Y3282500D01*
X-6530000Y3192500D02*
Y3282500D01*
X6530000Y-2807499D02*
Y-2717499D01*
X6370000Y-2807499D02*
Y-2717499D01*
X4330000Y3192499D02*
Y3282499D01*
X4170001Y3192499D02*
Y3282499D01*
X2929998Y-2807500D02*
Y-2717500D01*
X2769998Y-2807500D02*
Y-2717500D01*
X730001Y3192499D02*
Y3282499D01*
X570001Y3192499D02*
Y3282499D01*
X-1070000Y-2807499D02*
Y-2717499D01*
X-1230000Y-2807499D02*
Y-2717499D01*
X-3270000Y3192499D02*
Y3282499D01*
X-3429999Y3192499D02*
Y3282499D01*
X-4670000Y-2807499D02*
Y-2717499D01*
X-4830000Y-2807499D02*
Y-2717499D01*
X-6869999Y3192499D02*
Y3282499D01*
X-7029999Y3192499D02*
Y3282499D01*
X6779999Y-2807499D02*
Y-2717499D01*
X6619999Y-2807499D02*
Y-2717499D01*
X4580000Y3192499D02*
Y3282499D01*
X4420000Y3192499D02*
Y3282499D01*
X3179998Y-2807500D02*
Y-2717500D01*
X3019998Y-2807500D02*
Y-2717500D01*
X980000Y3192499D02*
Y3282499D01*
X820000Y3192499D02*
Y3282499D01*
X-820001Y-2807499D02*
Y-2717499D01*
X-980001Y-2807499D02*
Y-2717499D01*
X-3020000Y3192499D02*
Y3282499D01*
X-3180000Y3192499D02*
Y3282499D01*
X-4420001Y-2807499D02*
Y-2717499D01*
X-4580000Y-2807499D02*
Y-2717499D01*
X-6620000Y3192499D02*
Y3282499D01*
X-6780000Y3192499D02*
Y3282499D01*
X-80000Y-1990000D02*
Y-1940000D01*
X-60000D01*
X80000D02*
X80000Y-1990000D01*
X60000Y-1940000D02*
X80000D01*
X8140000Y2300000D02*
X8190000D01*
X8140000D02*
X8140000Y2320000D01*
Y2460000D02*
X8190000Y2460001D01*
X8140000Y2440000D02*
Y2460000D01*
X8350000Y2680000D02*
X8390000D01*
X8390000Y2660000D02*
X8390000Y2680000D01*
X8350000Y2520000D02*
X8390000Y2519999D01*
Y2539999D01*
X7930000Y-3290000D02*
Y-3240000D01*
X7910000Y-3290000D02*
X7930000D01*
X7770000Y-3240000D02*
X7770000Y-3290000D01*
X7790000D01*
X8405000Y-3290000D02*
Y-3240000D01*
X8385000Y-3290000D02*
X8405000Y-3290000D01*
X8245000Y-3240000D02*
X8245000Y-3290001D01*
X8265000Y-3290000D01*
X8880000Y-3290000D02*
Y-3240000D01*
X8860000Y-3290000D02*
X8880000D01*
X8720000D02*
Y-3240000D01*
Y-3290000D02*
X8740000Y-3290000D01*
X7680200Y-980000D02*
Y-480000D01*
X8280200Y-980000D02*
Y-480000D01*
X9200000Y1240000D02*
Y1560000D01*
X10000000Y1240000D02*
Y1560000D01*
X4830000Y-160000D02*
X6370000D01*
Y160000D01*
X4830000D02*
X6370000D01*
X4830000Y-160000D02*
Y160000D01*
X-8597000Y3116400D02*
Y3237400D01*
X-7703000Y3116400D02*
Y3237400D01*
X-8597000Y3509400D02*
Y3658400D01*
X-7703000D01*
Y3509400D02*
Y3658400D01*
X7807500Y2480000D02*
X7807500Y2520000D01*
X7892500Y2480000D02*
Y2520000D01*
X7937500Y2480000D02*
Y2520000D01*
X8022500Y2480000D02*
Y2520001D01*
X9060000Y-3390000D02*
X9140000D01*
X4357500Y179999D02*
Y220000D01*
X4442500Y179999D02*
Y220000D01*
X3242500Y180000D02*
X3242500Y220001D01*
X3157499D02*
X3157500Y180000D01*
X4207499Y180000D02*
Y220000D01*
X4292499Y220000D02*
X4292500Y179999D01*
X3392500Y180000D02*
Y220000D01*
X3307500Y180000D02*
Y220000D01*
X1980000Y-342500D02*
X2020000D01*
X1980000Y-257500D02*
X2020000D01*
X7320000Y152500D02*
X7360000D01*
X7320000Y67500D02*
X7360000D01*
X-7955000Y-1105000D02*
Y-1025000D01*
X-7872500D01*
X-7645000Y-1105000D02*
Y-1025000D01*
X-7727500D02*
X-7645000D01*
X-7555000Y-1105000D02*
Y-1025000D01*
X-7472500D01*
X-7245000Y-1105000D02*
Y-1025000D01*
X-7327500D02*
X-7245000D01*
X7635000Y-3390000D02*
X7715000Y-3390000D01*
X8110001Y-3390000D02*
X8190000Y-3390000D01*
X8585001D02*
X8665000D01*
X-7520000Y2560000D02*
Y2630000D01*
X-7680000Y2560000D02*
Y2630000D01*
X3570000Y585000D02*
X3570000Y515000D01*
X3730000Y515000D02*
Y585000D01*
X3870000Y515000D02*
Y585000D01*
X4030000Y585000D02*
X4030000Y515000D01*
X3765000Y-1045000D02*
X3835000D01*
X3765000Y-885000D02*
X3835000D01*
X8040000Y225000D02*
Y295000D01*
X8200000Y295000D02*
X8200000Y225000D01*
X8615000Y1270000D02*
X8685000D01*
X8615000Y1110000D02*
X8685000Y1110000D01*
X1595000Y-35000D02*
Y35000D01*
X1755000Y-35000D02*
Y35000D01*
X8615000Y1500000D02*
X8685000D01*
X8615000Y1340000D02*
X8685000D01*
X8615000Y1730000D02*
X8685000D01*
X8615000Y1570000D02*
X8685000D01*
X8945000Y1365000D02*
Y1435000D01*
X9105000Y1365000D02*
Y1435000D01*
X5921013Y-354257D02*
X6040987D01*
X5921013Y-394249D02*
Y-314266D01*
Y-299983D02*
X6040987Y-220000D01*
X5921013D02*
X6040987Y-299983D01*
X5667012Y-406817D02*
X5786987D01*
X5667012D02*
Y-355399D01*
X5672726Y-338260D01*
X5678438Y-332547D01*
X5689865Y-326834D01*
X5701291D01*
X5712717Y-332547D01*
X5718430Y-338260D01*
X5724143Y-355399D01*
Y-406817D01*
Y-366825D02*
X5786987Y-326834D01*
X5667012Y-299983D02*
X5786987Y-220000D01*
X5667012D02*
X5786987Y-299983D01*
X5430152Y-386821D02*
X5532987D01*
X5481570Y-438239D02*
Y-335403D01*
X5413013Y-288556D02*
Y-225713D01*
X5458717Y-259991D01*
Y-242852D01*
X5464431Y-231426D01*
X5470143Y-225713D01*
X5487283Y-220000D01*
X5498709D01*
X5515848Y-225713D01*
X5527274Y-237139D01*
X5532987Y-254278D01*
Y-271417D01*
X5527274Y-288556D01*
X5521561Y-294270D01*
X5510135Y-299983D01*
X4933578Y-464519D02*
X4922151Y-470232D01*
X4910726Y-481659D01*
X4905012Y-493085D01*
Y-515937D01*
X4910726Y-527363D01*
X4922151Y-538789D01*
X4933578Y-544502D01*
X4950717Y-550215D01*
X4979282D01*
X4996421Y-544502D01*
X5007847Y-538789D01*
X5019274Y-527363D01*
X5024987Y-515937D01*
Y-493085D01*
X5019274Y-481659D01*
X5007847Y-470232D01*
X4996421Y-464519D01*
X4905012Y-396534D02*
X4910726Y-407960D01*
X4922151Y-419386D01*
X4933578Y-425099D01*
X4950717Y-430812D01*
X4979282D01*
X4996421Y-425099D01*
X5007847Y-419386D01*
X5019274Y-407960D01*
X5024987Y-396534D01*
Y-373681D01*
X5019274Y-362256D01*
X5007847Y-350829D01*
X4996421Y-345116D01*
X4979282Y-339403D01*
X4950717D01*
X4933578Y-345116D01*
X4922151Y-350829D01*
X4910726Y-362256D01*
X4905012Y-373681D01*
Y-396534D01*
Y-311409D02*
X5024987D01*
X4905012D02*
X5024987Y-265705D01*
X4905012Y-220000D02*
X5024987Y-265705D01*
X4905012Y-220000D02*
X5024987D01*
X-8980722Y-2490013D02*
Y-2609987D01*
X-8912166D01*
X-8813329Y-2518578D02*
X-8819043Y-2507152D01*
X-8830469Y-2495726D01*
X-8841895Y-2490013D01*
X-8864747D01*
X-8876173Y-2495726D01*
X-8887599Y-2507152D01*
X-8893312Y-2518578D01*
X-8899025Y-2535717D01*
Y-2564283D01*
X-8893312Y-2581422D01*
X-8887599Y-2592848D01*
X-8876173Y-2604274D01*
X-8864747Y-2609987D01*
X-8841895D01*
X-8830469Y-2604274D01*
X-8819043Y-2592848D01*
X-8813329Y-2581422D01*
X-8779622Y-2490013D02*
Y-2609987D01*
Y-2490013D02*
X-8739631D01*
X-8722492Y-2495726D01*
X-8711066Y-2507152D01*
X-8705352Y-2518578D01*
X-8699639Y-2535717D01*
Y-2564283D01*
X-8705352Y-2581422D01*
X-8711066Y-2592848D01*
X-8722492Y-2604274D01*
X-8739631Y-2609987D01*
X-8779622D01*
X-8492827Y-2518578D02*
X-8498540Y-2507152D01*
X-8509966Y-2495726D01*
X-8521392Y-2490013D01*
X-8544244D01*
X-8555670Y-2495726D01*
X-8567096Y-2507152D01*
X-8572810Y-2518578D01*
X-8578523Y-2535717D01*
Y-2564283D01*
X-8572810Y-2581422D01*
X-8567096Y-2592848D01*
X-8555670Y-2604274D01*
X-8544244Y-2609987D01*
X-8521392D01*
X-8509966Y-2604274D01*
X-8498540Y-2592848D01*
X-8492827Y-2581422D01*
X-8424841Y-2490013D02*
X-8436267Y-2495726D01*
X-8447693Y-2507152D01*
X-8453407Y-2518578D01*
X-8459119Y-2535717D01*
Y-2564283D01*
X-8453407Y-2581422D01*
X-8447693Y-2592848D01*
X-8436267Y-2604274D01*
X-8424841Y-2609987D01*
X-8401989D01*
X-8390563Y-2604274D01*
X-8379137Y-2592848D01*
X-8373423Y-2581422D01*
X-8367710Y-2564283D01*
Y-2535717D01*
X-8373423Y-2518578D01*
X-8379137Y-2507152D01*
X-8390563Y-2495726D01*
X-8401989Y-2490013D01*
X-8424841D01*
X-8339716D02*
Y-2609987D01*
Y-2490013D02*
X-8259734Y-2609987D01*
Y-2490013D02*
Y-2609987D01*
X-8186606Y-2490013D02*
Y-2609987D01*
X-8226598Y-2490013D02*
X-8146615D01*
X-8132332D02*
Y-2609987D01*
Y-2490013D02*
X-8080915D01*
X-8063776Y-2495726D01*
X-8058062Y-2501439D01*
X-8052349Y-2512865D01*
Y-2524291D01*
X-8058062Y-2535717D01*
X-8063776Y-2541431D01*
X-8080915Y-2547143D01*
X-8132332D01*
X-8092341D02*
X-8052349Y-2609987D01*
X-7934089D02*
X-7979794Y-2490013D01*
X-8025498Y-2609987D01*
X-8008359Y-2569996D02*
X-7951228D01*
X-7826112Y-2507152D02*
X-7837538Y-2495726D01*
X-7854677Y-2490013D01*
X-7877530D01*
X-7894669Y-2495726D01*
X-7906095Y-2507152D01*
Y-2518578D01*
X-7900382Y-2530004D01*
X-7894669Y-2535717D01*
X-7883243Y-2541431D01*
X-7848964Y-2552856D01*
X-7837538Y-2558570D01*
X-7831825Y-2564283D01*
X-7826112Y-2575709D01*
Y-2592848D01*
X-7837538Y-2604274D01*
X-7854677Y-2609987D01*
X-7877530D01*
X-7894669Y-2604274D01*
X-7906095Y-2592848D01*
X-7759269Y-2490013D02*
Y-2609987D01*
X-7799261Y-2490013D02*
X-7719278D01*
X-4220000Y-829013D02*
X-4294270D01*
Y-948987D01*
X-4220000D01*
X-4294270Y-886144D02*
X-4248565D01*
X-4529077Y-566443D02*
Y-686417D01*
Y-566443D02*
X-4477659D01*
X-4460520Y-572156D01*
X-4454807Y-577869D01*
X-4449094Y-589295D01*
Y-600721D01*
X-4454807Y-612148D01*
X-4460520Y-617861D01*
X-4477659Y-623574D01*
X-4529077D01*
X-4489085D02*
X-4449094Y-686417D01*
X-4422242Y-703557D02*
X-4342260Y-566443D01*
X-4334261D02*
X-4305696Y-686417D01*
X-4277130Y-566443D02*
X-4305696Y-686417D01*
X-4277130Y-566443D02*
X-4248565Y-686417D01*
X-4220000Y-566443D02*
X-4248565Y-686417D01*
X-4406817Y-321013D02*
Y-440987D01*
Y-321013D02*
X-4355399D01*
X-4338260Y-326726D01*
X-4332547Y-332439D01*
X-4326834Y-343865D01*
Y-355291D01*
X-4332547Y-366717D01*
X-4338260Y-372431D01*
X-4355399Y-378144D01*
X-4406817D01*
X-4366825D02*
X-4326834Y-440987D01*
X-4220000Y-338152D02*
X-4231426Y-326726D01*
X-4248565Y-321013D01*
X-4271417D01*
X-4288557Y-326726D01*
X-4299983Y-338152D01*
Y-349578D01*
X-4294270Y-361004D01*
X-4288557Y-366717D01*
X-4277131Y-372431D01*
X-4242852Y-383856D01*
X-4231426Y-389570D01*
X-4225713Y-395283D01*
X-4220000Y-406709D01*
Y-423848D01*
X-4231426Y-435274D01*
X-4248565Y-440987D01*
X-4271417D01*
X-4288557Y-435274D01*
X-4299983Y-423848D01*
X-4800490Y-84152D02*
Y-186987D01*
X-4851907Y-135570D02*
X-4749072D01*
X-4645095Y-67013D02*
X-4702225D01*
X-4707938Y-118431D01*
X-4702225Y-112717D01*
X-4685086Y-107004D01*
X-4667947D01*
X-4650808Y-112717D01*
X-4639381Y-124144D01*
X-4633668Y-141283D01*
Y-152709D01*
X-4639381Y-169848D01*
X-4650808Y-181274D01*
X-4667947Y-186987D01*
X-4685086D01*
X-4702225Y-181274D01*
X-4707938Y-175561D01*
X-4713651Y-164135D01*
X-4606817Y-67013D02*
X-4561113Y-186987D01*
X-4515408Y-67013D02*
X-4561113Y-186987D01*
X-4465705Y-67013D02*
X-4482844Y-72726D01*
X-4494270Y-89865D01*
X-4499983Y-118431D01*
Y-135570D01*
X-4494270Y-164135D01*
X-4482844Y-181274D01*
X-4465705Y-186987D01*
X-4454278D01*
X-4437139Y-181274D01*
X-4425713Y-164135D01*
X-4420000Y-135570D01*
Y-118431D01*
X-4425713Y-89865D01*
X-4437139Y-72726D01*
X-4454278Y-67013D01*
X-4465705D01*
X-4664519Y158422D02*
X-4670232Y169848D01*
X-4681659Y181274D01*
X-4693085Y186987D01*
X-4715937D01*
X-4727363Y181274D01*
X-4738789Y169848D01*
X-4744502Y158422D01*
X-4750215Y141283D01*
Y112717D01*
X-4744502Y95578D01*
X-4738789Y84152D01*
X-4727363Y72726D01*
X-4715937Y67013D01*
X-4693085D01*
X-4681659Y72726D01*
X-4670232Y84152D01*
X-4664519Y95578D01*
X-4596534Y186987D02*
X-4607960Y181274D01*
X-4619386Y169848D01*
X-4625099Y158422D01*
X-4630812Y141283D01*
Y112717D01*
X-4625099Y95578D01*
X-4619386Y84152D01*
X-4607960Y72726D01*
X-4596534Y67013D01*
X-4573681D01*
X-4562256Y72726D01*
X-4550829Y84152D01*
X-4545116Y95578D01*
X-4539403Y112717D01*
Y141283D01*
X-4545116Y158422D01*
X-4550829Y169848D01*
X-4562256Y181274D01*
X-4573681Y186987D01*
X-4596534D01*
X-4511409D02*
Y67013D01*
Y186987D02*
X-4465705Y67013D01*
X-4420000Y186987D02*
X-4465705Y67013D01*
X-4420000Y186987D02*
Y67013D01*
X-4333690Y412422D02*
X-4339403Y423848D01*
X-4350829Y435274D01*
X-4362255Y440987D01*
X-4385108D01*
X-4396534Y435274D01*
X-4407960Y423848D01*
X-4413673Y412422D01*
X-4419386Y395283D01*
Y366717D01*
X-4413673Y349578D01*
X-4407960Y338152D01*
X-4396534Y326726D01*
X-4385108Y321013D01*
X-4362255D01*
X-4350829Y326726D01*
X-4339403Y338152D01*
X-4333690Y349578D01*
X-4259991Y440987D02*
Y321013D01*
X-4299983Y440987D02*
X-4220000D01*
X-4536503Y694987D02*
Y575013D01*
Y694987D02*
X-4485086D01*
X-4467947Y689274D01*
X-4462234Y683561D01*
X-4456521Y672135D01*
Y660709D01*
X-4462234Y649283D01*
X-4467947Y643569D01*
X-4485086Y637856D01*
X-4536503D02*
X-4485086D01*
X-4467947Y632144D01*
X-4462234Y626430D01*
X-4456521Y615004D01*
Y597865D01*
X-4462234Y586439D01*
X-4467947Y580726D01*
X-4485086Y575013D01*
X-4536503D01*
X-4429669Y694987D02*
Y575013D01*
X-4349686Y694987D02*
X-4429669Y615004D01*
X-4401104Y643569D02*
X-4349686Y575013D01*
X-4271418Y677848D02*
Y575013D01*
X-4322835Y626430D02*
X-4220000D01*
X-4536503Y948987D02*
Y829013D01*
Y948987D02*
X-4485086D01*
X-4467947Y943274D01*
X-4462234Y937561D01*
X-4456521Y926135D01*
Y914709D01*
X-4462234Y903283D01*
X-4467947Y897569D01*
X-4485086Y891856D01*
X-4536503D02*
X-4485086D01*
X-4467947Y886144D01*
X-4462234Y880430D01*
X-4456521Y869004D01*
Y851865D01*
X-4462234Y840439D01*
X-4467947Y834726D01*
X-4485086Y829013D01*
X-4536503D01*
X-4429669Y948987D02*
Y829013D01*
X-4349686Y948987D02*
X-4429669Y869004D01*
X-4401104Y897569D02*
X-4349686Y829013D01*
X-4322835Y880430D02*
X-4220000D01*
X-3380000Y948987D02*
Y829013D01*
Y948987D02*
X-3340009D01*
X-3322869Y943274D01*
X-3311443Y931848D01*
X-3305730Y920422D01*
X-3300017Y903283D01*
Y874717D01*
X-3305730Y857578D01*
X-3311443Y846152D01*
X-3322869Y834726D01*
X-3340009Y829013D01*
X-3380000D01*
X-3273166Y948987D02*
Y829013D01*
Y948987D02*
X-3221748D01*
X-3204609Y943274D01*
X-3198896Y937561D01*
X-3193183Y926135D01*
Y914709D01*
X-3198896Y903283D01*
X-3204609Y897569D01*
X-3221748Y891856D01*
X-3273166D02*
X-3221748D01*
X-3204609Y886144D01*
X-3198896Y880430D01*
X-3193183Y869004D01*
Y851865D01*
X-3198896Y840439D01*
X-3204609Y834726D01*
X-3221748Y829013D01*
X-3273166D01*
X-3086349Y948987D02*
X-3143480Y829013D01*
X-3166332Y948987D02*
X-3086349D01*
X-3380000Y694987D02*
Y575013D01*
Y694987D02*
X-3340009D01*
X-3322869Y689274D01*
X-3311443Y677848D01*
X-3305730Y666422D01*
X-3300017Y649283D01*
Y620717D01*
X-3305730Y603578D01*
X-3311443Y592152D01*
X-3322869Y580726D01*
X-3340009Y575013D01*
X-3380000D01*
X-3273166Y694987D02*
Y575013D01*
Y694987D02*
X-3221748D01*
X-3204609Y689274D01*
X-3198896Y683561D01*
X-3193183Y672135D01*
Y660709D01*
X-3198896Y649283D01*
X-3204609Y643569D01*
X-3221748Y637856D01*
X-3273166D02*
X-3221748D01*
X-3204609Y632144D01*
X-3198896Y626430D01*
X-3193183Y615004D01*
Y597865D01*
X-3198896Y586439D01*
X-3204609Y580726D01*
X-3221748Y575013D01*
X-3273166D01*
X-3097775Y677848D02*
X-3103488Y689274D01*
X-3120627Y694987D01*
X-3132053D01*
X-3149193Y689274D01*
X-3160619Y672135D01*
X-3166332Y643569D01*
Y615004D01*
X-3160619Y592152D01*
X-3149193Y580726D01*
X-3132053Y575013D01*
X-3126340D01*
X-3109201Y580726D01*
X-3097775Y592152D01*
X-3092062Y609291D01*
Y615004D01*
X-3097775Y632144D01*
X-3109201Y643569D01*
X-3126340Y649283D01*
X-3132053D01*
X-3149193Y643569D01*
X-3160619Y632144D01*
X-3166332Y615004D01*
X-3380000Y440987D02*
Y321013D01*
Y440987D02*
X-3340009D01*
X-3322869Y435274D01*
X-3311443Y423848D01*
X-3305730Y412422D01*
X-3300017Y395283D01*
Y366717D01*
X-3305730Y349578D01*
X-3311443Y338152D01*
X-3322869Y326726D01*
X-3340009Y321013D01*
X-3380000D01*
X-3273166Y440987D02*
Y321013D01*
Y440987D02*
X-3221748D01*
X-3204609Y435274D01*
X-3198896Y429561D01*
X-3193183Y418135D01*
Y406709D01*
X-3198896Y395283D01*
X-3204609Y389569D01*
X-3221748Y383856D01*
X-3273166D02*
X-3221748D01*
X-3204609Y378144D01*
X-3198896Y372430D01*
X-3193183Y361004D01*
Y343865D01*
X-3198896Y332439D01*
X-3204609Y326726D01*
X-3221748Y321013D01*
X-3273166D01*
X-3097775Y440987D02*
X-3154906D01*
X-3160619Y389569D01*
X-3154906Y395283D01*
X-3137766Y400996D01*
X-3120627D01*
X-3103488Y395283D01*
X-3092062Y383856D01*
X-3086349Y366717D01*
Y355291D01*
X-3092062Y338152D01*
X-3103488Y326726D01*
X-3120627Y321013D01*
X-3137766D01*
X-3154906Y326726D01*
X-3160619Y332439D01*
X-3166332Y343865D01*
X-3380000Y186987D02*
Y67013D01*
Y186987D02*
X-3340009D01*
X-3322869Y181274D01*
X-3311443Y169848D01*
X-3305730Y158422D01*
X-3300017Y141283D01*
Y112717D01*
X-3305730Y95578D01*
X-3311443Y84152D01*
X-3322869Y72726D01*
X-3340009Y67013D01*
X-3380000D01*
X-3273166Y186987D02*
Y67013D01*
Y186987D02*
X-3221748D01*
X-3204609Y181274D01*
X-3198896Y175561D01*
X-3193183Y164135D01*
Y152709D01*
X-3198896Y141283D01*
X-3204609Y135569D01*
X-3221748Y129856D01*
X-3273166D02*
X-3221748D01*
X-3204609Y124144D01*
X-3198896Y118430D01*
X-3193183Y107004D01*
Y89865D01*
X-3198896Y78439D01*
X-3204609Y72726D01*
X-3221748Y67013D01*
X-3273166D01*
X-3109201Y186987D02*
X-3166332Y107004D01*
X-3080636D01*
X-3109201Y186987D02*
Y67013D01*
X-3380000Y-67013D02*
Y-186987D01*
Y-67013D02*
X-3340009D01*
X-3322869Y-72726D01*
X-3311443Y-84152D01*
X-3305730Y-95578D01*
X-3300017Y-112717D01*
Y-141283D01*
X-3305730Y-158422D01*
X-3311443Y-169848D01*
X-3322869Y-181274D01*
X-3340009Y-186987D01*
X-3380000D01*
X-3273166Y-67013D02*
Y-186987D01*
Y-67013D02*
X-3221748D01*
X-3204609Y-72726D01*
X-3198896Y-78439D01*
X-3193183Y-89865D01*
Y-101291D01*
X-3198896Y-112717D01*
X-3204609Y-118431D01*
X-3221748Y-124144D01*
X-3273166D02*
X-3221748D01*
X-3204609Y-129856D01*
X-3198896Y-135570D01*
X-3193183Y-146996D01*
Y-164135D01*
X-3198896Y-175561D01*
X-3204609Y-181274D01*
X-3221748Y-186987D01*
X-3273166D01*
X-3154906Y-67013D02*
X-3092062D01*
X-3126340Y-112717D01*
X-3109201D01*
X-3097775Y-118431D01*
X-3092062Y-124144D01*
X-3086349Y-141283D01*
Y-152709D01*
X-3092062Y-169848D01*
X-3103488Y-181274D01*
X-3120627Y-186987D01*
X-3137766D01*
X-3154906Y-181274D01*
X-3160619Y-175561D01*
X-3166332Y-164135D01*
X-3380000Y-321013D02*
Y-440987D01*
Y-321013D02*
X-3340009D01*
X-3322869Y-326726D01*
X-3311443Y-338152D01*
X-3305730Y-349578D01*
X-3300017Y-366717D01*
Y-395283D01*
X-3305730Y-412422D01*
X-3311443Y-423848D01*
X-3322869Y-435274D01*
X-3340009Y-440987D01*
X-3380000D01*
X-3273166Y-321013D02*
Y-440987D01*
Y-321013D02*
X-3221748D01*
X-3204609Y-326726D01*
X-3198896Y-332439D01*
X-3193183Y-343865D01*
Y-355291D01*
X-3198896Y-366717D01*
X-3204609Y-372431D01*
X-3221748Y-378144D01*
X-3273166D02*
X-3221748D01*
X-3204609Y-383856D01*
X-3198896Y-389570D01*
X-3193183Y-400996D01*
Y-418135D01*
X-3198896Y-429561D01*
X-3204609Y-435274D01*
X-3221748Y-440987D01*
X-3273166D01*
X-3160619Y-349578D02*
Y-343865D01*
X-3154906Y-332439D01*
X-3149193Y-326726D01*
X-3137766Y-321013D01*
X-3114914D01*
X-3103488Y-326726D01*
X-3097775Y-332439D01*
X-3092062Y-343865D01*
Y-355291D01*
X-3097775Y-366717D01*
X-3109201Y-383856D01*
X-3166332Y-440987D01*
X-3086349D01*
X-3380000Y-575013D02*
Y-694987D01*
Y-575013D02*
X-3340009D01*
X-3322869Y-580726D01*
X-3311443Y-592152D01*
X-3305730Y-603578D01*
X-3300017Y-620717D01*
Y-649283D01*
X-3305730Y-666422D01*
X-3311443Y-677848D01*
X-3322869Y-689274D01*
X-3340009Y-694987D01*
X-3380000D01*
X-3273166Y-575013D02*
Y-694987D01*
Y-575013D02*
X-3221748D01*
X-3204609Y-580726D01*
X-3198896Y-586439D01*
X-3193183Y-597865D01*
Y-609291D01*
X-3198896Y-620717D01*
X-3204609Y-626431D01*
X-3221748Y-632144D01*
X-3273166D02*
X-3221748D01*
X-3204609Y-637856D01*
X-3198896Y-643570D01*
X-3193183Y-654996D01*
Y-672135D01*
X-3198896Y-683561D01*
X-3204609Y-689274D01*
X-3221748Y-694987D01*
X-3273166D01*
X-3166332Y-597865D02*
X-3154906Y-592152D01*
X-3137766Y-575013D01*
Y-694987D01*
X-3380000Y-829013D02*
Y-948987D01*
Y-829013D02*
X-3340009D01*
X-3322869Y-834726D01*
X-3311443Y-846152D01*
X-3305730Y-857578D01*
X-3300017Y-874717D01*
Y-903283D01*
X-3305730Y-920422D01*
X-3311443Y-931848D01*
X-3322869Y-943274D01*
X-3340009Y-948987D01*
X-3380000D01*
X-3273166Y-829013D02*
Y-948987D01*
Y-829013D02*
X-3221748D01*
X-3204609Y-834726D01*
X-3198896Y-840439D01*
X-3193183Y-851865D01*
Y-863291D01*
X-3198896Y-874717D01*
X-3204609Y-880431D01*
X-3221748Y-886144D01*
X-3273166D02*
X-3221748D01*
X-3204609Y-891856D01*
X-3198896Y-897570D01*
X-3193183Y-908996D01*
Y-926135D01*
X-3198896Y-937561D01*
X-3204609Y-943274D01*
X-3221748Y-948987D01*
X-3273166D01*
X-3132053Y-829013D02*
X-3149193Y-834726D01*
X-3160619Y-851865D01*
X-3166332Y-880431D01*
Y-897570D01*
X-3160619Y-926135D01*
X-3149193Y-943274D01*
X-3132053Y-948987D01*
X-3120627D01*
X-3103488Y-943274D01*
X-3092062Y-926135D01*
X-3086349Y-897570D01*
Y-880431D01*
X-3092062Y-851865D01*
X-3103488Y-834726D01*
X-3120627Y-829013D01*
X-3132053D01*
X-759944Y-2190013D02*
Y-2309987D01*
Y-2190013D02*
X-708527D01*
X-691388Y-2195726D01*
X-685675Y-2201439D01*
X-679962Y-2212865D01*
Y-2224291D01*
X-685675Y-2235717D01*
X-691388Y-2241431D01*
X-708527Y-2247144D01*
X-759944D02*
X-708527D01*
X-691388Y-2252857D01*
X-685675Y-2258570D01*
X-679962Y-2269996D01*
Y-2287135D01*
X-685675Y-2298561D01*
X-691388Y-2304274D01*
X-708527Y-2309987D01*
X-759944D01*
X-618832Y-2190013D02*
X-630258Y-2195726D01*
X-641684Y-2207152D01*
X-647397Y-2218578D01*
X-653110Y-2235717D01*
Y-2264283D01*
X-647397Y-2281422D01*
X-641684Y-2292848D01*
X-630258Y-2304274D01*
X-618832Y-2309987D01*
X-595980D01*
X-584554Y-2304274D01*
X-573127Y-2292848D01*
X-567414Y-2281422D01*
X-561701Y-2264283D01*
Y-2235717D01*
X-567414Y-2218578D01*
X-573127Y-2207152D01*
X-584554Y-2195726D01*
X-595980Y-2190013D01*
X-618832D01*
X-499429D02*
X-510855Y-2195726D01*
X-522281Y-2207152D01*
X-527994Y-2218578D01*
X-533707Y-2235717D01*
Y-2264283D01*
X-527994Y-2281422D01*
X-522281Y-2292848D01*
X-510855Y-2304274D01*
X-499429Y-2309987D01*
X-476576D01*
X-465150Y-2304274D01*
X-453724Y-2292848D01*
X-448011Y-2281422D01*
X-442298Y-2264283D01*
Y-2235717D01*
X-448011Y-2218578D01*
X-453724Y-2207152D01*
X-465150Y-2195726D01*
X-476576Y-2190013D01*
X-499429D01*
X-374312D02*
Y-2309987D01*
X-414304Y-2190013D02*
X-334321D01*
X-285760D02*
X-302899Y-2195726D01*
X-314326Y-2212865D01*
X-320038Y-2241431D01*
Y-2258570D01*
X-314326Y-2287135D01*
X-302899Y-2304274D01*
X-285760Y-2309987D01*
X-274334D01*
X-257195Y-2304274D01*
X-245769Y-2287135D01*
X-240056Y-2258570D01*
Y-2241431D01*
X-245769Y-2212865D01*
X-257195Y-2195726D01*
X-274334Y-2190013D01*
X-285760D01*
X353175D02*
Y-2309987D01*
Y-2190013D02*
X404592D01*
X421731Y-2195726D01*
X427444Y-2201439D01*
X433157Y-2212865D01*
Y-2224291D01*
X427444Y-2235717D01*
X421731Y-2241431D01*
X404592Y-2247144D01*
X353175D01*
X393166D02*
X433157Y-2309987D01*
X539992Y-2207152D02*
X528565Y-2195726D01*
X511426Y-2190013D01*
X488574D01*
X471435Y-2195726D01*
X460009Y-2207152D01*
Y-2218578D01*
X465722Y-2230004D01*
X471435Y-2235717D01*
X482861Y-2241431D01*
X517139Y-2252857D01*
X528565Y-2258570D01*
X534279Y-2264283D01*
X539992Y-2275709D01*
Y-2292848D01*
X528565Y-2304274D01*
X511426Y-2309987D01*
X488574D01*
X471435Y-2304274D01*
X460009Y-2292848D01*
X606834Y-2190013D02*
Y-2309987D01*
X566843Y-2190013D02*
X646826D01*
X7347504Y842848D02*
X7336078Y854274D01*
X7318939Y859987D01*
X7296087D01*
X7278948Y854274D01*
X7267521Y842848D01*
Y831422D01*
X7273234Y819996D01*
X7278948Y814283D01*
X7290374Y808569D01*
X7324652Y797143D01*
X7336078Y791430D01*
X7341791Y785717D01*
X7347504Y774291D01*
Y757152D01*
X7336078Y745726D01*
X7318939Y740013D01*
X7296087D01*
X7278948Y745726D01*
X7267521Y757152D01*
X7374356Y859987D02*
X7402921Y740013D01*
X7431486Y859987D02*
X7402921Y740013D01*
X7431486Y859987D02*
X7460052Y740013D01*
X7488617Y859987D02*
X7460052Y740013D01*
X7512612Y859987D02*
Y740013D01*
Y859987D02*
X7552603D01*
X7569742Y854274D01*
X7581168Y842848D01*
X7586881Y831422D01*
X7592594Y814283D01*
Y785717D01*
X7586881Y768578D01*
X7581168Y757152D01*
X7569742Y745726D01*
X7552603Y740013D01*
X7512612D01*
X7713711Y797143D02*
X7765129D01*
X7782268Y802856D01*
X7787981Y808569D01*
X7793694Y819996D01*
Y837135D01*
X7787981Y848561D01*
X7782268Y854274D01*
X7765129Y859987D01*
X7713711D01*
Y740013D01*
X7820545Y859987D02*
Y740013D01*
Y859987D02*
X7871963D01*
X7889102Y854274D01*
X7894815Y848561D01*
X7900528Y837135D01*
Y825709D01*
X7894815Y814283D01*
X7889102Y808569D01*
X7871963Y802856D01*
X7820545D01*
X7860537D02*
X7900528Y740013D01*
X7961658Y859987D02*
X7950232Y854274D01*
X7938806Y842848D01*
X7933093Y831422D01*
X7927380Y814283D01*
Y785717D01*
X7933093Y768578D01*
X7938806Y757152D01*
X7950232Y745726D01*
X7961658Y740013D01*
X7984510D01*
X7995936Y745726D01*
X8007362Y757152D01*
X8013076Y768578D01*
X8018789Y785717D01*
Y814283D01*
X8013076Y831422D01*
X8007362Y842848D01*
X7995936Y854274D01*
X7984510Y859987D01*
X7961658D01*
X8132479Y831422D02*
X8126766Y842848D01*
X8115339Y854274D01*
X8103913Y859987D01*
X8081061D01*
X8069635Y854274D01*
X8058209Y842848D01*
X8052496Y831422D01*
X8046783Y814283D01*
Y785717D01*
X8052496Y768578D01*
X8058209Y757152D01*
X8069635Y745726D01*
X8081061Y740013D01*
X8103913D01*
X8115339Y745726D01*
X8126766Y757152D01*
X8132479Y768578D01*
Y785717D01*
X8103913D02*
X8132479D01*
X8704279Y3251556D02*
X8692852Y3245842D01*
X8681426Y3234416D01*
X8675713Y3222990D01*
X8670000Y3205851D01*
Y3177286D01*
X8675713Y3160147D01*
X8681426Y3148720D01*
X8692852Y3137294D01*
X8704279Y3131581D01*
X8727131D01*
X8738557Y3137294D01*
X8749983Y3148720D01*
X8755696Y3160147D01*
X8761409Y3177286D01*
Y3205851D01*
X8755696Y3222990D01*
X8749983Y3234416D01*
X8738557Y3245842D01*
X8727131Y3251556D01*
X8704279D01*
X8789403D02*
Y3131581D01*
Y3251556D02*
X8869386Y3131581D01*
Y3251556D02*
Y3131581D01*
X8902522Y3114442D02*
X8982505Y3251556D01*
X9024782D02*
X9013355Y3245842D01*
X9001929Y3234416D01*
X8996216Y3222990D01*
X8990503Y3205851D01*
Y3177286D01*
X8996216Y3160147D01*
X9001929Y3148720D01*
X9013355Y3137294D01*
X9024782Y3131581D01*
X9047634D01*
X9059060Y3137294D01*
X9070486Y3148720D01*
X9076199Y3160147D01*
X9081912Y3177286D01*
Y3205851D01*
X9076199Y3222990D01*
X9070486Y3234416D01*
X9059060Y3245842D01*
X9047634Y3251556D01*
X9024782D01*
X9109906D02*
Y3131581D01*
Y3251556D02*
X9184176D01*
X9109906Y3194425D02*
X9155611D01*
X9197888Y3251556D02*
Y3131581D01*
Y3251556D02*
X9272157D01*
X9197888Y3194425D02*
X9243592D01*
X7414107Y-2390013D02*
X7476951D01*
X7442672Y-2435717D01*
X7459811D01*
X7471237Y-2441430D01*
X7476951Y-2447143D01*
X7482663Y-2464283D01*
Y-2475709D01*
X7476951Y-2492848D01*
X7465524Y-2504274D01*
X7448385Y-2509987D01*
X7431246D01*
X7414107Y-2504274D01*
X7408394Y-2498561D01*
X7402681Y-2487135D01*
X7520941Y-2390013D02*
X7583785D01*
X7549506Y-2435717D01*
X7566646D01*
X7578071Y-2441430D01*
X7583785Y-2447143D01*
X7589498Y-2464283D01*
Y-2475709D01*
X7583785Y-2492848D01*
X7572358Y-2504274D01*
X7555219Y-2509987D01*
X7538080D01*
X7520941Y-2504274D01*
X7515228Y-2498561D01*
X7509515Y-2487135D01*
X7644914Y-2390013D02*
X7627775Y-2395726D01*
X7622062Y-2407152D01*
Y-2418578D01*
X7627775Y-2430004D01*
X7639201Y-2435717D01*
X7662054Y-2441430D01*
X7679193Y-2447143D01*
X7690619Y-2458570D01*
X7696332Y-2469996D01*
Y-2487135D01*
X7690619Y-2498561D01*
X7684906Y-2504274D01*
X7667766Y-2509987D01*
X7644914D01*
X7627775Y-2504274D01*
X7622062Y-2498561D01*
X7616349Y-2487135D01*
Y-2469996D01*
X7622062Y-2458570D01*
X7633488Y-2447143D01*
X7650627Y-2441430D01*
X7673480Y-2435717D01*
X7684906Y-2430004D01*
X7690619Y-2418578D01*
Y-2407152D01*
X7684906Y-2395726D01*
X7667766Y-2390013D01*
X7644914D01*
X7757461D02*
X7740322Y-2395726D01*
X7728896Y-2412865D01*
X7723183Y-2441430D01*
Y-2458570D01*
X7728896Y-2487135D01*
X7740322Y-2504274D01*
X7757461Y-2509987D01*
X7768888D01*
X7786027Y-2504274D01*
X7797453Y-2487135D01*
X7803166Y-2458570D01*
Y-2441430D01*
X7797453Y-2412865D01*
X7786027Y-2395726D01*
X7768888Y-2390013D01*
X7757461D01*
X7830017D02*
Y-2509987D01*
X7910000Y-2390013D02*
X7830017Y-2469996D01*
X7858583Y-2441430D02*
X7910000Y-2509987D01*
X-10030000Y1559987D02*
Y1440013D01*
Y1559987D02*
X-9978583D01*
X-9961444Y1554274D01*
X-9955730Y1548561D01*
X-9950017Y1537135D01*
Y1525709D01*
X-9955730Y1514283D01*
X-9961444Y1508569D01*
X-9978583Y1502857D01*
X-10030000D01*
X-9990009D02*
X-9950017Y1440013D01*
X-9923166Y1485717D02*
X-9854609D01*
Y1497144D01*
X-9860322Y1508569D01*
X-9866035Y1514283D01*
X-9877462Y1519996D01*
X-9894601D01*
X-9906027Y1514283D01*
X-9917453Y1502857D01*
X-9923166Y1485717D01*
Y1474291D01*
X-9917453Y1457152D01*
X-9906027Y1445726D01*
X-9894601Y1440013D01*
X-9877462D01*
X-9866035Y1445726D01*
X-9854609Y1457152D01*
X-9828901Y1519996D02*
X-9794622Y1440013D01*
X-9760344Y1519996D02*
X-9794622Y1440013D01*
X-9555245D02*
X-9600949Y1559987D01*
X-9646654Y1440013D01*
X-9629515Y1480004D02*
X-9572384D01*
X-9432985Y1559987D02*
Y1440013D01*
X-9313582Y1559987D02*
Y1440013D01*
Y1559987D02*
X-9233600Y1440013D01*
Y1559987D02*
Y1440013D01*
X-9171898Y1519996D02*
X-9183325Y1514283D01*
X-9194751Y1502857D01*
X-9200464Y1485717D01*
Y1474291D01*
X-9194751Y1457152D01*
X-9183325Y1445726D01*
X-9171898Y1440013D01*
X-9154759D01*
X-9143333Y1445726D01*
X-9131907Y1457152D01*
X-9126194Y1474291D01*
Y1485717D01*
X-9131907Y1502857D01*
X-9143333Y1514283D01*
X-9154759Y1519996D01*
X-9171898D01*
X-9099914D02*
X-9065635Y1440013D01*
X-9031357Y1519996D02*
X-9065635Y1440013D01*
X-8911954Y1531422D02*
Y1537135D01*
X-8906241Y1548561D01*
X-8900528Y1554274D01*
X-8889102Y1559987D01*
X-8866249D01*
X-8854823Y1554274D01*
X-8849110Y1548561D01*
X-8843397Y1537135D01*
Y1525709D01*
X-8849110Y1514283D01*
X-8860536Y1497144D01*
X-8917667Y1440013D01*
X-8837684D01*
X-8776554Y1559987D02*
X-8793694Y1554274D01*
X-8805120Y1537135D01*
X-8810833Y1508569D01*
Y1491430D01*
X-8805120Y1462865D01*
X-8793694Y1445726D01*
X-8776554Y1440013D01*
X-8765128D01*
X-8747989Y1445726D01*
X-8736563Y1462865D01*
X-8730850Y1491430D01*
Y1508569D01*
X-8736563Y1537135D01*
X-8747989Y1554274D01*
X-8765128Y1559987D01*
X-8776554D01*
X-8698286Y1531422D02*
Y1537135D01*
X-8692572Y1548561D01*
X-8686859Y1554274D01*
X-8675433Y1559987D01*
X-8652581D01*
X-8641155Y1554274D01*
X-8635442Y1548561D01*
X-8629729Y1537135D01*
Y1525709D01*
X-8635442Y1514283D01*
X-8646868Y1497144D01*
X-8703999Y1440013D01*
X-8624016D01*
X-8528608Y1559987D02*
X-8585738D01*
X-8591451Y1508569D01*
X-8585738Y1514283D01*
X-8568599Y1519996D01*
X-8551460D01*
X-8534321Y1514283D01*
X-8522895Y1502857D01*
X-8517182Y1485717D01*
Y1474291D01*
X-8522895Y1457152D01*
X-8534321Y1445726D01*
X-8551460Y1440013D01*
X-8568599D01*
X-8585738Y1445726D01*
X-8591451Y1451439D01*
X-8597164Y1462865D01*
X-8396065Y1559987D02*
Y1440013D01*
X-8219531Y1559987D02*
Y1468578D01*
X-8225244Y1451439D01*
X-8230957Y1445726D01*
X-8242384Y1440013D01*
X-8253810D01*
X-8265236Y1445726D01*
X-8270949Y1451439D01*
X-8276662Y1468578D01*
Y1480004D01*
X-8188681Y1559987D02*
Y1440013D01*
Y1559987D02*
X-8114411D01*
X-8188681Y1502857D02*
X-8142976D01*
X-8066421Y1559987D02*
X-8077847Y1554274D01*
X-8089273Y1542848D01*
X-8094986Y1531422D01*
X-8100699Y1514283D01*
Y1485717D01*
X-8094986Y1468578D01*
X-8089273Y1457152D01*
X-8077847Y1445726D01*
X-8066421Y1440013D01*
X-8043569D01*
X-8032143Y1445726D01*
X-8020716Y1457152D01*
X-8015003Y1468578D01*
X-8009290Y1485717D01*
Y1514283D01*
X-8015003Y1531422D01*
X-8020716Y1542848D01*
X-8032143Y1554274D01*
X-8043569Y1559987D01*
X-8066421D01*
X-7901313Y1542848D02*
X-7912740Y1554274D01*
X-7929879Y1559987D01*
X-7952731D01*
X-7969870Y1554274D01*
X-7981296Y1542848D01*
Y1531422D01*
X-7975583Y1519996D01*
X-7969870Y1514283D01*
X-7958444Y1508569D01*
X-7924166Y1497144D01*
X-7912740Y1491430D01*
X-7907026Y1485717D01*
X-7901313Y1474291D01*
Y1457152D01*
X-7912740Y1445726D01*
X-7929879Y1440013D01*
X-7952731D01*
X-7969870Y1445726D01*
X-7981296Y1457152D01*
X-7834470Y1559987D02*
Y1440013D01*
X-7874462Y1559987D02*
X-7794479D01*
X-7705927D02*
X-7780197D01*
Y1440013D01*
X-7705927D01*
X-7780197Y1502857D02*
X-7734492D01*
X-7685931Y1559987D02*
Y1440013D01*
Y1559987D02*
X-7634514D01*
X-7617374Y1554274D01*
X-7611661Y1548561D01*
X-7605948Y1537135D01*
Y1525709D01*
X-7611661Y1514283D01*
X-7617374Y1508569D01*
X-7634514Y1502857D01*
X-7685931D01*
X-7645939D02*
X-7605948Y1440013D01*
D91*
X192000Y1840000D02*
G03*
X192000Y1840000I-12500J0D01*
G01*
X-5867500Y260000D02*
G03*
X-5867500Y260000I-12500J0D01*
G01*
X554000Y1840000D02*
G03*
X554000Y1840000I-12500J0D01*
G01*
X-167000Y1660000D02*
G03*
X-167000Y1660000I-12500J0D01*
G01*
X919000D02*
G03*
X919000Y1660000I-12500J0D01*
G01*
X195000D02*
G03*
X195000Y1660000I-12500J0D01*
G01*
X-529000Y1659999D02*
G03*
X-529000Y1659999I-12500J0D01*
G01*
X-532000Y1840000D02*
G03*
X-532000Y1840000I-12500J0D01*
G01*
X-894000D02*
G03*
X-894000Y1840000I-12500J0D01*
G01*
X-170000Y1840000D02*
G03*
X-170000Y1840000I-12500J0D01*
G01*
X557000Y1660000D02*
G03*
X557000Y1660000I-12500J0D01*
G01*
X3975000Y-1160001D02*
G03*
X3975000Y-1160001I-10000J0D01*
G01*
X2150000Y-180000D02*
G03*
X2150000Y-180000I-12500J0D01*
G01*
X-7970000Y-1207499D02*
G03*
X-7970000Y-1207499I-12500J0D01*
G01*
X-7570000D02*
G03*
X-7570000Y-1207499I-12500J0D01*
G01*
D92*
X-2185000Y-245000D02*
G03*
X-2185000Y-245000I-30000J0D01*
G01*
X-5640000Y155000D02*
G03*
X-5640000Y155000I-30000J0D01*
G01*
D93*
X-2005000Y-345000D02*
G03*
X-2005000Y-345000I-5000J0D01*
G01*
D94*
X-7911720Y-2950028D02*
D03*
%TF.MD5,e6de5b5ce58d323f31fd6fb0414513f6*%
M02*
