%TF.GenerationSoftware,Altium Limited,Altium Designer,25.8.1 (18)*%
G04 Layer_Color=16711935*
%FSLAX45Y45*%
%MOMM*%
%TF.SameCoordinates,304ADD41-B96C-4BE1-A440-764D1465AFBB*%
%TF.FilePolarity,Negative*%
%TF.FileFunction,Soldermask,Bot*%
%TF.Part,Single*%
G01*
G75*
%TA.AperFunction,ComponentPad*%
%ADD148O,1.62400X1.03980*%
%TA.AperFunction,WasherPad*%
%ADD149C,10.10160*%
%TA.AperFunction,ComponentPad*%
%ADD150C,1.60000*%
%ADD151R,1.80000X2.50000*%
%ADD152R,2.50000X1.80000*%
%ADD153C,2.00000*%
%ADD154O,2.10160X3.10160*%
%ADD155C,1.90160*%
%ADD156C,1.60160*%
%ADD157O,2.50000X1.80000*%
%ADD158C,5.10160*%
%ADD159C,0.10160*%
%ADD160O,2.54160X3.70160*%
%ADD161O,1.80000X2.50000*%
%TA.AperFunction,WasherPad*%
%ADD162C,0.10160*%
D148*
X-6550000Y-1423000D02*
D03*
X-2950000D02*
D03*
X-4650000Y1423000D02*
D03*
X-1050000D02*
D03*
X4650000Y-1423000D02*
D03*
X2950000Y1423000D02*
D03*
X6550000D02*
D03*
X1050000Y-1423000D02*
D03*
X-6550000Y-1677000D02*
D03*
X-2950000D02*
D03*
X-4650000Y1676999D02*
D03*
X-1050000D02*
D03*
X4650000Y-1677000D02*
D03*
X2950000Y1676999D02*
D03*
X6550000D02*
D03*
X1050000Y-1677000D02*
D03*
Y-1550000D02*
D03*
X2950000Y1550000D02*
D03*
X6550000D02*
D03*
X-4650000D02*
D03*
X-1050000D02*
D03*
X-6550000Y-1550000D02*
D03*
X-2950000D02*
D03*
X4650000D02*
D03*
D149*
X-9600000Y-2550000D02*
D03*
Y2550000D02*
D03*
X9600000Y-2550000D02*
D03*
Y2550000D02*
D03*
D150*
X-8096000Y-2950000D02*
D03*
X-8604000D02*
D03*
X-8350000D02*
D03*
D151*
X4965000Y0D02*
D03*
D152*
X8150000Y-2323000D02*
D03*
D153*
X9800000Y-1625000D02*
D03*
Y-1375000D02*
D03*
D154*
X7799500Y2933999D02*
D03*
X8500500D02*
D03*
D155*
X8375000Y3182999D02*
D03*
X7925000D02*
D03*
D156*
X-3927000Y127000D02*
D03*
Y889000D02*
D03*
Y-381000D02*
D03*
X-3927000Y-635000D02*
D03*
Y635000D02*
D03*
X-3927000Y-889000D02*
D03*
Y381000D02*
D03*
Y-127000D02*
D03*
X-3673000Y127000D02*
D03*
Y-889000D02*
D03*
X-3673000Y-635000D02*
D03*
X-3673000Y-381000D02*
D03*
Y-127000D02*
D03*
Y381000D02*
D03*
X-3673000Y635000D02*
D03*
X-3673000Y889000D02*
D03*
D157*
X8150000Y-2577000D02*
D03*
D158*
X-9925000Y-650000D02*
D03*
X-9300000D02*
D03*
X-8675000D02*
D03*
Y650000D02*
D03*
X-9300000D02*
D03*
X-9925000D02*
D03*
X8675000Y-650000D02*
D03*
X9300000D02*
D03*
X9925000D02*
D03*
Y650000D02*
D03*
X9300000D02*
D03*
X8675000D02*
D03*
D159*
X-9300000Y0D02*
D03*
X9300000D02*
D03*
D160*
X6144000Y-3000000D02*
D03*
X5600000D02*
D03*
X5056000D02*
D03*
Y3000000D02*
D03*
X5600000D02*
D03*
X6144000D02*
D03*
X2544000Y-3000000D02*
D03*
X2000000D02*
D03*
X1456000D02*
D03*
Y3000000D02*
D03*
X2000000D02*
D03*
X2544000D02*
D03*
X-1456000Y-3000000D02*
D03*
X-2000000D02*
D03*
X-2544000D02*
D03*
Y3000000D02*
D03*
X-2000000D02*
D03*
X-1456000D02*
D03*
X-5056000Y-3000000D02*
D03*
X-5600000D02*
D03*
X-6144000D02*
D03*
Y3000000D02*
D03*
X-5600000D02*
D03*
X-5056000D02*
D03*
D161*
X6235000Y0D02*
D03*
X5981000D02*
D03*
X5727000D02*
D03*
X5473000D02*
D03*
X5219000D02*
D03*
D162*
X-5600000Y800000D02*
D03*
Y-800000D02*
D03*
X-2000000D02*
D03*
Y800000D02*
D03*
X5600000D02*
D03*
X2000000D02*
D03*
Y-800000D02*
D03*
X5600000D02*
D03*
%TF.MD5,4169d1eef6948f4d0d47dea2f3c4c7d5*%
M02*
