%TF.GenerationSoftware,Altium Limited,Altium Designer,26.3.0 (6)*%
G04 Layer_Physical_Order=2*
G04 Layer_Color=15238730*
%FSLAX45Y45*%
%MOMM*%
%TF.SameCoordinates,B802E6D7-E220-4502-B456-AB3D52F6952B*%
%TF.FilePolarity,Positive*%
%TF.FileFunction,Copper,L2,Bot,Signal*%
%TF.Part,Single*%
G01*
G75*
%TA.AperFunction,Conductor*%
%ADD10C,0.25400*%
%ADD11C,1.00000*%
%TA.AperFunction,ComponentPad*%
%ADD12C,1.50000*%
%ADD13C,2.00000*%
%ADD14C,5.00000*%
%TA.AperFunction,ViaPad*%
%ADD15C,1.00000*%
G36*
X4713443Y3068959D02*
X4754535Y3057949D01*
X4793836Y3041670D01*
X4830676Y3020401D01*
X4864424Y2994504D01*
X4894503Y2964425D01*
X4920400Y2930676D01*
X4941670Y2893836D01*
X4957949Y2854535D01*
X4968959Y2813443D01*
X4974512Y2771270D01*
Y2750000D01*
Y-2750000D01*
Y-2771270D01*
X4968959Y-2813443D01*
X4957949Y-2854535D01*
X4941669Y-2893837D01*
X4920400Y-2930676D01*
X4894504Y-2964424D01*
X4864425Y-2994504D01*
X4830675Y-3020401D01*
X4793836Y-3041670D01*
X4754535Y-3057949D01*
X4713443Y-3068959D01*
X4671270Y-3074512D01*
X-4671269D01*
X-4713443Y-3068959D01*
X-4754535Y-3057949D01*
X-4793837Y-3041670D01*
X-4830676Y-3020401D01*
X-4864424Y-2994504D01*
X-4894504Y-2964425D01*
X-4920401Y-2930676D01*
X-4941670Y-2893836D01*
X-4957949Y-2854535D01*
X-4968959Y-2813443D01*
X-4974512Y-2771271D01*
Y-2750000D01*
Y2750000D01*
Y2771269D01*
X-4968959Y2813443D01*
X-4957949Y2854535D01*
X-4941670Y2893837D01*
X-4920401Y2930676D01*
X-4894504Y2964424D01*
X-4864425Y2994504D01*
X-4830676Y3020401D01*
X-4793836Y3041670D01*
X-4754535Y3057949D01*
X-4713443Y3068959D01*
X-4671270Y3074512D01*
X4671270D01*
X4713443Y3068959D01*
D02*
G37*
%LPC*%
G36*
X-3912700Y2875400D02*
X-3916509D01*
X-3948402Y2866854D01*
X-3976997Y2850345D01*
X-4000345Y2826997D01*
X-4016854Y2798403D01*
X-4025400Y2766509D01*
Y2762700D01*
X-3912700D01*
Y2875400D01*
D02*
G37*
G36*
X-3883491D02*
X-3887300D01*
Y2750000D01*
Y2624600D01*
X-3883491D01*
X-3851597Y2633146D01*
X-3823003Y2649655D01*
X-3799655Y2673003D01*
X-3783146Y2701598D01*
X-3779367Y2715700D01*
X-3766219D01*
X-3762481Y2701752D01*
X-3746025Y2673248D01*
X-3722752Y2649975D01*
X-3694248Y2633518D01*
X-3662456Y2625000D01*
X-3629543D01*
X-3597752Y2633518D01*
X-3569248Y2649975D01*
X-3545975Y2673248D01*
X-3529518Y2701752D01*
X-3525574Y2716473D01*
X-3512426D01*
X-3508481Y2701752D01*
X-3492025Y2673248D01*
X-3468752Y2649975D01*
X-3440248Y2633518D01*
X-3430438Y2630890D01*
Y690196D01*
X-3574196Y546439D01*
X-3602180D01*
X-3607441Y559139D01*
X-3592980Y573599D01*
X-3579815Y596402D01*
X-3573000Y621835D01*
Y648165D01*
X-3579815Y673598D01*
X-3592980Y696401D01*
X-3611599Y715020D01*
X-3634402Y728185D01*
X-3659835Y735000D01*
X-3686165D01*
X-3711598Y728185D01*
X-3734401Y715020D01*
X-3753020Y696401D01*
X-3766185Y673598D01*
X-3773000Y648165D01*
Y621835D01*
X-3766185Y596402D01*
X-3753020Y573599D01*
X-3738559Y559139D01*
X-3743820Y546439D01*
X-3799999D01*
X-3800000Y546439D01*
X-3814710Y543513D01*
X-3827180Y535180D01*
X-3827181Y535180D01*
X-3888258Y474102D01*
X-3888402Y474185D01*
X-3913835Y481000D01*
X-3940165D01*
X-3965598Y474185D01*
X-3988401Y461020D01*
X-4007020Y442401D01*
X-4020185Y419598D01*
X-4027000Y394165D01*
Y367835D01*
X-4020185Y342402D01*
X-4007020Y319599D01*
X-3988401Y300980D01*
X-3965598Y287815D01*
X-3940165Y281000D01*
X-3913835D01*
X-3888402Y287815D01*
X-3865599Y300980D01*
X-3846980Y319599D01*
X-3833815Y342402D01*
X-3827000Y367835D01*
Y394165D01*
X-3833815Y419598D01*
X-3833898Y419742D01*
X-3784078Y469561D01*
X-3743820D01*
X-3738559Y456861D01*
X-3753020Y442401D01*
X-3766185Y419598D01*
X-3773000Y394165D01*
Y367835D01*
X-3766185Y342402D01*
X-3753020Y319599D01*
X-3734401Y300980D01*
X-3711598Y287815D01*
X-3686165Y281000D01*
X-3659835D01*
X-3634402Y287815D01*
X-3611599Y300980D01*
X-3592980Y319599D01*
X-3579815Y342402D01*
X-3573000Y367835D01*
Y394165D01*
X-3579815Y419598D01*
X-3592980Y442401D01*
X-3607441Y456861D01*
X-3602180Y469561D01*
X-3558275D01*
X-3558274Y469561D01*
X-3543564Y472487D01*
X-3531094Y480820D01*
X-3364820Y647093D01*
X-3364820Y647094D01*
X-3356487Y659564D01*
X-3353561Y674274D01*
Y2630890D01*
X-3343752Y2633518D01*
X-3315248Y2649975D01*
X-3291975Y2673248D01*
X-3275518Y2701752D01*
X-3271574Y2716472D01*
X-3258426D01*
X-3254481Y2701752D01*
X-3238025Y2673248D01*
X-3214752Y2649975D01*
X-3186248Y2633518D01*
X-3176438Y2630890D01*
Y177922D01*
X-3569922Y-215561D01*
X-3602180D01*
X-3607441Y-202861D01*
X-3592980Y-188401D01*
X-3579815Y-165598D01*
X-3573000Y-140165D01*
Y-113835D01*
X-3579815Y-88402D01*
X-3592980Y-65599D01*
X-3611599Y-46980D01*
X-3634402Y-33815D01*
X-3659835Y-27000D01*
X-3686165D01*
X-3711598Y-33815D01*
X-3734401Y-46980D01*
X-3753020Y-65599D01*
X-3766185Y-88402D01*
X-3773000Y-113835D01*
Y-140165D01*
X-3766185Y-165598D01*
X-3753020Y-188401D01*
X-3738559Y-202861D01*
X-3743820Y-215561D01*
X-3799999D01*
X-3800000Y-215561D01*
X-3814710Y-218487D01*
X-3827180Y-226820D01*
X-3827181Y-226820D01*
X-3888258Y-287898D01*
X-3888402Y-287815D01*
X-3913835Y-281000D01*
X-3940165D01*
X-3965598Y-287815D01*
X-3988401Y-300980D01*
X-4007020Y-319599D01*
X-4020185Y-342402D01*
X-4027000Y-367835D01*
Y-394165D01*
X-4020185Y-419598D01*
X-4007020Y-442401D01*
X-3988401Y-461020D01*
X-3965598Y-474185D01*
X-3940165Y-481000D01*
X-3913835D01*
X-3888402Y-474185D01*
X-3865599Y-461020D01*
X-3846980Y-442401D01*
X-3833815Y-419598D01*
X-3827000Y-394165D01*
Y-367835D01*
X-3833815Y-342402D01*
X-3833898Y-342258D01*
X-3784078Y-292439D01*
X-3743820D01*
X-3738559Y-305139D01*
X-3753020Y-319599D01*
X-3766185Y-342402D01*
X-3773000Y-367835D01*
Y-394165D01*
X-3766185Y-419598D01*
X-3753020Y-442401D01*
X-3738559Y-456861D01*
X-3743820Y-469561D01*
X-3799999D01*
X-3800000Y-469561D01*
X-3814710Y-472487D01*
X-3827180Y-480820D01*
X-3827181Y-480820D01*
X-3888258Y-541898D01*
X-3888402Y-541815D01*
X-3913835Y-535000D01*
X-3940165D01*
X-3965598Y-541815D01*
X-3988401Y-554980D01*
X-4007020Y-573599D01*
X-4020185Y-596402D01*
X-4027000Y-621835D01*
Y-648165D01*
X-4020185Y-673598D01*
X-4007020Y-696401D01*
X-3988401Y-715020D01*
X-3965598Y-728185D01*
X-3940165Y-735000D01*
X-3913835D01*
X-3888402Y-728185D01*
X-3865599Y-715020D01*
X-3846980Y-696401D01*
X-3833815Y-673598D01*
X-3827000Y-648165D01*
Y-621835D01*
X-3833815Y-596402D01*
X-3833898Y-596258D01*
X-3784078Y-546439D01*
X-3743820D01*
X-3738559Y-559139D01*
X-3753020Y-573599D01*
X-3766185Y-596402D01*
X-3773000Y-621835D01*
Y-648165D01*
X-3766185Y-673598D01*
X-3753020Y-696401D01*
X-3738559Y-710861D01*
X-3743820Y-723561D01*
X-3799999D01*
X-3800000Y-723561D01*
X-3814710Y-726487D01*
X-3827180Y-734820D01*
X-3827181Y-734820D01*
X-3888258Y-795898D01*
X-3888402Y-795815D01*
X-3913835Y-789000D01*
X-3940165D01*
X-3965598Y-795815D01*
X-3988401Y-808980D01*
X-4007020Y-827599D01*
X-4020185Y-850402D01*
X-4027000Y-875835D01*
Y-902165D01*
X-4020185Y-927598D01*
X-4007020Y-950401D01*
X-3988401Y-969020D01*
X-3965598Y-982185D01*
X-3940165Y-989000D01*
X-3913835D01*
X-3888402Y-982185D01*
X-3865599Y-969020D01*
X-3846980Y-950401D01*
X-3833815Y-927598D01*
X-3827000Y-902165D01*
Y-875835D01*
X-3833815Y-850402D01*
X-3833898Y-850258D01*
X-3784078Y-800439D01*
X-3743820D01*
X-3738559Y-813139D01*
X-3753020Y-827599D01*
X-3766185Y-850402D01*
X-3773000Y-875835D01*
Y-902165D01*
X-3766185Y-927598D01*
X-3753020Y-950401D01*
X-3734401Y-969020D01*
X-3711598Y-982185D01*
X-3686165Y-989000D01*
X-3659835D01*
X-3634402Y-982185D01*
X-3611599Y-969020D01*
X-3592980Y-950401D01*
X-3579815Y-927598D01*
X-3573000Y-902165D01*
Y-875835D01*
X-3579815Y-850402D01*
X-3592980Y-827599D01*
X-3607441Y-813139D01*
X-3602180Y-800439D01*
X-3562001D01*
X-3562000Y-800439D01*
X-3547290Y-797513D01*
X-3534820Y-789180D01*
X-2602820Y142819D01*
X-2602820Y142820D01*
X-2594487Y155291D01*
X-2591561Y170000D01*
X-2591561Y170001D01*
Y2630890D01*
X-2581752Y2633518D01*
X-2553248Y2649975D01*
X-2529975Y2673248D01*
X-2513518Y2701752D01*
X-2509574Y2716473D01*
X-2496426D01*
X-2492481Y2701752D01*
X-2476025Y2673248D01*
X-2452752Y2649975D01*
X-2424248Y2633518D01*
X-2392456Y2625000D01*
X-2359543D01*
X-2327752Y2633518D01*
X-2299248Y2649975D01*
X-2275975Y2673248D01*
X-2259518Y2701752D01*
X-2255574Y2716473D01*
X-2242426D01*
X-2238481Y2701752D01*
X-2222025Y2673248D01*
X-2198752Y2649975D01*
X-2170248Y2633518D01*
X-2138456Y2625000D01*
X-2105543D01*
X-2073751Y2633518D01*
X-2045248Y2649975D01*
X-2021975Y2673248D01*
X-2005518Y2701752D01*
X-2001574Y2716472D01*
X-1988426D01*
X-1984482Y2701752D01*
X-1968025Y2673248D01*
X-1944752Y2649975D01*
X-1916248Y2633518D01*
X-1884457Y2625000D01*
X-1851543D01*
X-1819752Y2633518D01*
X-1791248Y2649975D01*
X-1767975Y2673248D01*
X-1751518Y2701752D01*
X-1747574Y2716473D01*
X-1734426D01*
X-1730481Y2701752D01*
X-1714025Y2673248D01*
X-1690752Y2649975D01*
X-1662248Y2633518D01*
X-1630456Y2625000D01*
X-1597543D01*
X-1565752Y2633518D01*
X-1537248Y2649975D01*
X-1513975Y2673248D01*
X-1497518Y2701752D01*
X-1493574Y2716473D01*
X-1480426D01*
X-1476481Y2701752D01*
X-1460025Y2673248D01*
X-1436752Y2649975D01*
X-1408248Y2633518D01*
X-1376456Y2625000D01*
X-1343543D01*
X-1311752Y2633518D01*
X-1283248Y2649975D01*
X-1259975Y2673248D01*
X-1243518Y2701752D01*
X-1239574Y2716473D01*
X-1226426D01*
X-1222481Y2701752D01*
X-1206025Y2673248D01*
X-1182752Y2649975D01*
X-1154248Y2633518D01*
X-1122456Y2625000D01*
X-1089543D01*
X-1057752Y2633518D01*
X-1029248Y2649975D01*
X-1005975Y2673248D01*
X-989518Y2701752D01*
X-985574Y2716472D01*
X-972426D01*
X-968481Y2701752D01*
X-952025Y2673248D01*
X-928752Y2649975D01*
X-900248Y2633518D01*
X-868456Y2625000D01*
X-835543D01*
X-803752Y2633518D01*
X-775248Y2649975D01*
X-751975Y2673248D01*
X-735518Y2701752D01*
X-731574Y2716472D01*
X-718426D01*
X-714481Y2701752D01*
X-698025Y2673248D01*
X-674752Y2649975D01*
X-646248Y2633518D01*
X-614456Y2625000D01*
X-581543D01*
X-549752Y2633518D01*
X-521248Y2649975D01*
X-497975Y2673248D01*
X-481518Y2701752D01*
X-477574Y2716473D01*
X-464426D01*
X-460481Y2701752D01*
X-444025Y2673248D01*
X-420752Y2649975D01*
X-392248Y2633518D01*
X-360456Y2625000D01*
X-327543D01*
X-295752Y2633518D01*
X-267248Y2649975D01*
X-243975Y2673248D01*
X-227518Y2701752D01*
X-223574Y2716473D01*
X-210426D01*
X-206481Y2701752D01*
X-190025Y2673248D01*
X-166752Y2649975D01*
X-138248Y2633518D01*
X-106456Y2625000D01*
X-73543D01*
X-41752Y2633518D01*
X-13248Y2649975D01*
X10025Y2673248D01*
X26482Y2701752D01*
X35000Y2733543D01*
Y2766457D01*
X26482Y2798248D01*
X10025Y2826752D01*
X-13248Y2850025D01*
X-41752Y2866482D01*
X-73543Y2875000D01*
X-106456D01*
X-138248Y2866482D01*
X-166752Y2850025D01*
X-190025Y2826752D01*
X-206481Y2798248D01*
X-210426Y2783528D01*
X-223574D01*
X-227518Y2798248D01*
X-243975Y2826752D01*
X-267248Y2850025D01*
X-295752Y2866482D01*
X-327543Y2875000D01*
X-360456D01*
X-392248Y2866482D01*
X-420752Y2850025D01*
X-444025Y2826752D01*
X-460481Y2798248D01*
X-464426Y2783528D01*
X-477574D01*
X-481518Y2798248D01*
X-497975Y2826752D01*
X-521248Y2850025D01*
X-549752Y2866482D01*
X-581543Y2875000D01*
X-614456D01*
X-646248Y2866482D01*
X-674752Y2850025D01*
X-698025Y2826752D01*
X-714481Y2798248D01*
X-718426Y2783528D01*
X-731574D01*
X-735518Y2798248D01*
X-751975Y2826752D01*
X-775248Y2850025D01*
X-803752Y2866481D01*
X-835543Y2875000D01*
X-868456D01*
X-900248Y2866481D01*
X-928752Y2850025D01*
X-952025Y2826752D01*
X-968481Y2798248D01*
X-972426Y2783528D01*
X-985574D01*
X-989518Y2798248D01*
X-1005975Y2826752D01*
X-1029248Y2850025D01*
X-1057752Y2866482D01*
X-1089543Y2875000D01*
X-1122456D01*
X-1154248Y2866482D01*
X-1182752Y2850025D01*
X-1206025Y2826752D01*
X-1222481Y2798248D01*
X-1226426Y2783528D01*
X-1239574D01*
X-1243518Y2798248D01*
X-1259975Y2826752D01*
X-1283248Y2850025D01*
X-1311752Y2866482D01*
X-1343543Y2875000D01*
X-1376456D01*
X-1408248Y2866482D01*
X-1436752Y2850025D01*
X-1460025Y2826752D01*
X-1476481Y2798248D01*
X-1480426Y2783528D01*
X-1493574D01*
X-1497518Y2798248D01*
X-1513975Y2826752D01*
X-1537248Y2850025D01*
X-1565752Y2866482D01*
X-1597543Y2875000D01*
X-1630456D01*
X-1662248Y2866482D01*
X-1690752Y2850025D01*
X-1714025Y2826752D01*
X-1730481Y2798248D01*
X-1734426Y2783527D01*
X-1747574D01*
X-1751518Y2798248D01*
X-1767975Y2826752D01*
X-1791248Y2850025D01*
X-1819752Y2866482D01*
X-1851543Y2875000D01*
X-1884457D01*
X-1916248Y2866482D01*
X-1944752Y2850025D01*
X-1968025Y2826752D01*
X-1984482Y2798248D01*
X-1988426Y2783529D01*
X-2001574D01*
X-2005518Y2798248D01*
X-2021975Y2826752D01*
X-2045248Y2850025D01*
X-2073751Y2866482D01*
X-2105543Y2875000D01*
X-2138456D01*
X-2170248Y2866482D01*
X-2198752Y2850025D01*
X-2222025Y2826752D01*
X-2238481Y2798248D01*
X-2242426Y2783527D01*
X-2255574D01*
X-2259518Y2798248D01*
X-2275975Y2826752D01*
X-2299248Y2850025D01*
X-2327752Y2866482D01*
X-2359543Y2875000D01*
X-2392456D01*
X-2424248Y2866482D01*
X-2452752Y2850025D01*
X-2476025Y2826752D01*
X-2492481Y2798248D01*
X-2496426Y2783528D01*
X-2509574D01*
X-2513518Y2798248D01*
X-2529975Y2826752D01*
X-2553248Y2850025D01*
X-2581752Y2866482D01*
X-2613543Y2875000D01*
X-2646456D01*
X-2678248Y2866482D01*
X-2706752Y2850025D01*
X-2730025Y2826752D01*
X-2746481Y2798248D01*
X-2750426Y2783528D01*
X-2763574D01*
X-2767518Y2798248D01*
X-2783975Y2826752D01*
X-2807248Y2850025D01*
X-2835752Y2866482D01*
X-2867543Y2875000D01*
X-2900456D01*
X-2932248Y2866482D01*
X-2960752Y2850025D01*
X-2984025Y2826752D01*
X-3000481Y2798248D01*
X-3004426Y2783528D01*
X-3017574D01*
X-3021518Y2798248D01*
X-3037975Y2826752D01*
X-3061248Y2850025D01*
X-3089752Y2866481D01*
X-3121543Y2875000D01*
X-3154456D01*
X-3186248Y2866481D01*
X-3214752Y2850025D01*
X-3238025Y2826752D01*
X-3254481Y2798248D01*
X-3258426Y2783528D01*
X-3271574D01*
X-3275518Y2798248D01*
X-3291975Y2826752D01*
X-3315248Y2850025D01*
X-3343752Y2866482D01*
X-3375543Y2875000D01*
X-3408456D01*
X-3440248Y2866482D01*
X-3468752Y2850025D01*
X-3492025Y2826752D01*
X-3508481Y2798248D01*
X-3512426Y2783528D01*
X-3525574D01*
X-3529518Y2798248D01*
X-3545975Y2826752D01*
X-3569248Y2850025D01*
X-3597752Y2866482D01*
X-3629543Y2875000D01*
X-3662456D01*
X-3694248Y2866482D01*
X-3722752Y2850025D01*
X-3746025Y2826752D01*
X-3762481Y2798248D01*
X-3766219Y2784300D01*
X-3779367D01*
X-3783146Y2798403D01*
X-3799655Y2826997D01*
X-3823003Y2850345D01*
X-3851597Y2866854D01*
X-3883491Y2875400D01*
D02*
G37*
G36*
X-3912700Y2737300D02*
X-4025400D01*
Y2733491D01*
X-4016854Y2701598D01*
X-4000345Y2673003D01*
X-3976997Y2649655D01*
X-3948402Y2633146D01*
X-3916509Y2624600D01*
X-3912700D01*
Y2737300D01*
D02*
G37*
G36*
X4671643Y3025000D02*
X4628357D01*
X4585604Y3018229D01*
X4544436Y3004853D01*
X4505868Y2985201D01*
X4470849Y2959758D01*
X4440242Y2929151D01*
X4414799Y2894132D01*
X4395147Y2855564D01*
X4381771Y2814396D01*
X4375000Y2771643D01*
Y2728357D01*
X4381771Y2685604D01*
X4395147Y2644437D01*
X4414799Y2605869D01*
X4440242Y2570850D01*
X4470849Y2540242D01*
X4505868Y2514799D01*
X4544436Y2495148D01*
X4585604Y2481772D01*
X4628357Y2475000D01*
X4671643D01*
X4714396Y2481772D01*
X4755563Y2495148D01*
X4794131Y2514799D01*
X4829150Y2540242D01*
X4859758Y2570850D01*
X4885201Y2605869D01*
X4904852Y2644437D01*
X4918228Y2685604D01*
X4925000Y2728357D01*
Y2771643D01*
X4918228Y2814396D01*
X4904852Y2855564D01*
X4885201Y2894132D01*
X4859758Y2929151D01*
X4829150Y2959758D01*
X4794131Y2985201D01*
X4755563Y3004853D01*
X4714396Y3018229D01*
X4671643Y3025000D01*
D02*
G37*
G36*
X-4628357D02*
X-4671643D01*
X-4714396Y3018229D01*
X-4755563Y3004853D01*
X-4794131Y2985201D01*
X-4829150Y2959758D01*
X-4859758Y2929151D01*
X-4885201Y2894132D01*
X-4904852Y2855564D01*
X-4918228Y2814396D01*
X-4925000Y2771643D01*
Y2728357D01*
X-4918228Y2685604D01*
X-4904852Y2644437D01*
X-4885201Y2605869D01*
X-4859758Y2570850D01*
X-4829150Y2540242D01*
X-4794131Y2514799D01*
X-4755563Y2495148D01*
X-4714396Y2481772D01*
X-4671643Y2475000D01*
X-4628357D01*
X-4585604Y2481772D01*
X-4544436Y2495148D01*
X-4505868Y2514799D01*
X-4470849Y2540242D01*
X-4440242Y2570850D01*
X-4414799Y2605869D01*
X-4395147Y2644437D01*
X-4381771Y2685604D01*
X-4375000Y2728357D01*
Y2771643D01*
X-4381771Y2814396D01*
X-4395147Y2855564D01*
X-4414799Y2894132D01*
X-4440242Y2929151D01*
X-4470849Y2959758D01*
X-4505868Y2985201D01*
X-4544436Y3004853D01*
X-4585604Y3018229D01*
X-4628357Y3025000D01*
D02*
G37*
G36*
X-3659835Y989000D02*
X-3686165D01*
X-3711598Y982185D01*
X-3734401Y969020D01*
X-3753020Y950401D01*
X-3766185Y927598D01*
X-3773000Y902165D01*
Y875835D01*
X-3766185Y850402D01*
X-3753020Y827599D01*
X-3734401Y808980D01*
X-3711598Y795815D01*
X-3686165Y789000D01*
X-3659835D01*
X-3634402Y795815D01*
X-3611599Y808980D01*
X-3592980Y827599D01*
X-3579815Y850402D01*
X-3573000Y875835D01*
Y902165D01*
X-3579815Y927598D01*
X-3592980Y950401D01*
X-3611599Y969020D01*
X-3634402Y982185D01*
X-3659835Y989000D01*
D02*
G37*
G36*
X-3750000Y1275647D02*
X-3769579Y1273069D01*
X-3787824Y1265512D01*
X-3803491Y1253491D01*
X-3803492Y1253489D01*
X-3980491Y1076491D01*
X-3992512Y1060824D01*
X-4000069Y1042579D01*
X-4002647Y1023000D01*
Y954774D01*
X-4007020Y950401D01*
X-4020185Y927598D01*
X-4027000Y902165D01*
Y875835D01*
X-4020185Y850402D01*
X-4007020Y827599D01*
X-3988401Y808980D01*
X-3965598Y795815D01*
X-3940165Y789000D01*
X-3913835D01*
X-3888402Y795815D01*
X-3865599Y808980D01*
X-3846980Y827599D01*
X-3833815Y850402D01*
X-3827000Y875835D01*
Y902165D01*
X-3833815Y927598D01*
X-3846980Y950401D01*
X-3851353Y954774D01*
Y991666D01*
X-3718666Y1124353D01*
X-3550000D01*
X-3545084Y1125000D01*
X-3540126D01*
X-3535337Y1126283D01*
X-3530421Y1126930D01*
X-3525841Y1128828D01*
X-3521051Y1130111D01*
X-3516756Y1132591D01*
X-3512177Y1134488D01*
X-3508244Y1137505D01*
X-3503949Y1139985D01*
X-3500443Y1143491D01*
X-3496509Y1146509D01*
X-3493491Y1150443D01*
X-3489985Y1153949D01*
X-3487506Y1158243D01*
X-3484488Y1162176D01*
X-3482591Y1166756D01*
X-3480111Y1171051D01*
X-3478828Y1175841D01*
X-3476931Y1180421D01*
X-3476283Y1185336D01*
X-3475000Y1190126D01*
Y1195084D01*
X-3474353Y1200000D01*
X-3475000Y1204916D01*
Y1209874D01*
X-3476283Y1214663D01*
X-3476931Y1219579D01*
X-3478828Y1224159D01*
X-3480111Y1228949D01*
X-3482591Y1233243D01*
X-3484488Y1237824D01*
X-3487506Y1241757D01*
X-3489985Y1246051D01*
X-3493491Y1249556D01*
X-3496509Y1253491D01*
X-3500443Y1256509D01*
X-3503949Y1260015D01*
X-3508244Y1262494D01*
X-3512177Y1265512D01*
X-3516756Y1267409D01*
X-3521051Y1269889D01*
X-3525841Y1271172D01*
X-3530421Y1273069D01*
X-3535337Y1273717D01*
X-3540126Y1275000D01*
X-3545084D01*
X-3550000Y1275647D01*
X-3749998D01*
X-3750000Y1275647D01*
D02*
G37*
G36*
X-3850000Y1475647D02*
X-3869579Y1473069D01*
X-3887824Y1465512D01*
X-3903491Y1453491D01*
X-4203491Y1153490D01*
X-4215512Y1137823D01*
X-4223070Y1119579D01*
X-4225647Y1100000D01*
Y750000D01*
X-4223070Y730421D01*
X-4215512Y712177D01*
X-4203491Y696510D01*
X-4088490Y581509D01*
X-4072823Y569488D01*
X-4054579Y561931D01*
X-4035000Y559353D01*
X-3992774D01*
X-3988401Y554980D01*
X-3965598Y541815D01*
X-3940165Y535000D01*
X-3913835D01*
X-3888402Y541815D01*
X-3865599Y554980D01*
X-3846980Y573599D01*
X-3833815Y596402D01*
X-3827000Y621835D01*
Y648165D01*
X-3833815Y673598D01*
X-3846980Y696401D01*
X-3865599Y715020D01*
X-3888402Y728185D01*
X-3913835Y735000D01*
X-3940165D01*
X-3965598Y728185D01*
X-3988401Y715020D01*
X-3992774Y710647D01*
X-4003666D01*
X-4074353Y781334D01*
Y1068666D01*
X-3818666Y1324353D01*
X-3550000D01*
X-3545084Y1325000D01*
X-3540126D01*
X-3535337Y1326283D01*
X-3530421Y1326931D01*
X-3525841Y1328828D01*
X-3521051Y1330111D01*
X-3516756Y1332591D01*
X-3512177Y1334488D01*
X-3508244Y1337506D01*
X-3503949Y1339985D01*
X-3500443Y1343491D01*
X-3496509Y1346509D01*
X-3493491Y1350444D01*
X-3489985Y1353949D01*
X-3487506Y1358243D01*
X-3484488Y1362176D01*
X-3482591Y1366756D01*
X-3480111Y1371051D01*
X-3478828Y1375841D01*
X-3476931Y1380421D01*
X-3476283Y1385337D01*
X-3475000Y1390126D01*
Y1395084D01*
X-3474353Y1400000D01*
X-3475000Y1404916D01*
Y1409874D01*
X-3476283Y1414663D01*
X-3476931Y1419579D01*
X-3478828Y1424159D01*
X-3480111Y1428949D01*
X-3482591Y1433244D01*
X-3484488Y1437824D01*
X-3487506Y1441757D01*
X-3489985Y1446051D01*
X-3493491Y1449556D01*
X-3496509Y1453491D01*
X-3500443Y1456509D01*
X-3503949Y1460015D01*
X-3508244Y1462494D01*
X-3512177Y1465512D01*
X-3516756Y1467409D01*
X-3521051Y1469889D01*
X-3525841Y1471172D01*
X-3530421Y1473069D01*
X-3535337Y1473717D01*
X-3540126Y1475000D01*
X-3545084D01*
X-3550000Y1475647D01*
X-3849998D01*
X-3850000Y1475647D01*
D02*
G37*
G36*
X-3913782Y227400D02*
X-3914300D01*
Y139701D01*
X-3826600D01*
Y140218D01*
X-3833442Y165753D01*
X-3846660Y188647D01*
X-3865353Y207340D01*
X-3888247Y220558D01*
X-3913782Y227400D01*
D02*
G37*
G36*
X-3939700D02*
X-3940218D01*
X-3965753Y220558D01*
X-3988647Y207340D01*
X-4007340Y188647D01*
X-4020558Y165753D01*
X-4027400Y140218D01*
Y139701D01*
X-3939700D01*
Y227400D01*
D02*
G37*
G36*
X-3659835Y227000D02*
X-3686165D01*
X-3711598Y220185D01*
X-3734401Y207020D01*
X-3753020Y188401D01*
X-3766185Y165598D01*
X-3773000Y140165D01*
Y113835D01*
X-3766185Y88402D01*
X-3753020Y65599D01*
X-3734401Y46980D01*
X-3711598Y33815D01*
X-3686165Y27000D01*
X-3659835D01*
X-3634402Y33815D01*
X-3611599Y46980D01*
X-3592980Y65599D01*
X-3579815Y88402D01*
X-3573000Y113835D01*
Y140165D01*
X-3579815Y165598D01*
X-3592980Y188401D01*
X-3611599Y207020D01*
X-3634402Y220185D01*
X-3659835Y227000D01*
D02*
G37*
G36*
X-3826600Y114301D02*
X-3914300D01*
Y26600D01*
X-3913782D01*
X-3888247Y33442D01*
X-3865353Y46660D01*
X-3846660Y65353D01*
X-3833442Y88247D01*
X-3826600Y113782D01*
Y114301D01*
D02*
G37*
G36*
X-3939700D02*
X-4027400D01*
Y113782D01*
X-4020558Y88247D01*
X-4007340Y65353D01*
X-3988647Y46660D01*
X-3965753Y33442D01*
X-3940218Y26600D01*
X-3939700D01*
Y114301D01*
D02*
G37*
G36*
X-4500000Y2225647D02*
X-4504916Y2225000D01*
X-4509874D01*
X-4514663Y2223717D01*
X-4519579Y2223069D01*
X-4524159Y2221172D01*
X-4528949Y2219889D01*
X-4533244Y2217409D01*
X-4537823Y2215512D01*
X-4541756Y2212494D01*
X-4546051Y2210015D01*
X-4549557Y2206509D01*
X-4553491Y2203491D01*
X-4556509Y2199557D01*
X-4560015Y2196051D01*
X-4562494Y2191756D01*
X-4565512Y2187823D01*
X-4567409Y2183244D01*
X-4569889Y2178949D01*
X-4571172Y2174159D01*
X-4573069Y2169579D01*
X-4573717Y2164663D01*
X-4575000Y2159874D01*
Y2154916D01*
X-4575647Y2150000D01*
Y150000D01*
X-4573069Y130421D01*
X-4565512Y112176D01*
X-4553491Y96509D01*
X-4276492Y-180490D01*
X-4276491Y-180491D01*
X-4260824Y-192512D01*
X-4242579Y-200069D01*
X-4223000Y-202647D01*
X-4222998Y-202647D01*
X-3992774D01*
X-3988401Y-207020D01*
X-3965598Y-220185D01*
X-3940165Y-227000D01*
X-3913835D01*
X-3888402Y-220185D01*
X-3865599Y-207020D01*
X-3846980Y-188401D01*
X-3833815Y-165598D01*
X-3827000Y-140165D01*
Y-113835D01*
X-3833815Y-88402D01*
X-3846980Y-65599D01*
X-3865599Y-46980D01*
X-3888402Y-33815D01*
X-3913835Y-27000D01*
X-3940165D01*
X-3965598Y-33815D01*
X-3988401Y-46980D01*
X-3992774Y-51353D01*
X-4191666D01*
X-4424353Y181334D01*
Y2150000D01*
X-4425000Y2154916D01*
Y2159874D01*
X-4426283Y2164663D01*
X-4426930Y2169579D01*
X-4428828Y2174159D01*
X-4430111Y2178949D01*
X-4432591Y2183244D01*
X-4434488Y2187823D01*
X-4437505Y2191756D01*
X-4439985Y2196051D01*
X-4443491Y2199557D01*
X-4446509Y2203491D01*
X-4450443Y2206509D01*
X-4453949Y2210015D01*
X-4458244Y2212494D01*
X-4462176Y2215512D01*
X-4466756Y2217409D01*
X-4471051Y2219889D01*
X-4475841Y2221172D01*
X-4480421Y2223069D01*
X-4485336Y2223717D01*
X-4490126Y2225000D01*
X-4495084D01*
X-4500000Y2225647D01*
D02*
G37*
G36*
X4671643Y-2475000D02*
X4628357D01*
X4585604Y-2481771D01*
X4544437Y-2495147D01*
X4505869Y-2514799D01*
X4470850Y-2540242D01*
X4440242Y-2570849D01*
X4414799Y-2605868D01*
X4395148Y-2644436D01*
X4381772Y-2685604D01*
X4375000Y-2728357D01*
Y-2771643D01*
X4381772Y-2814396D01*
X4395148Y-2855563D01*
X4414799Y-2894131D01*
X4440242Y-2929150D01*
X4470850Y-2959758D01*
X4505869Y-2985201D01*
X4544437Y-3004852D01*
X4585604Y-3018228D01*
X4628357Y-3025000D01*
X4671643D01*
X4714396Y-3018228D01*
X4755564Y-3004852D01*
X4794132Y-2985201D01*
X4829151Y-2959758D01*
X4859758Y-2929150D01*
X4885201Y-2894131D01*
X4904853Y-2855563D01*
X4918229Y-2814396D01*
X4925000Y-2771643D01*
Y-2728357D01*
X4918229Y-2685604D01*
X4904853Y-2644436D01*
X4885201Y-2605868D01*
X4859758Y-2570849D01*
X4829151Y-2540242D01*
X4794132Y-2514799D01*
X4755564Y-2495147D01*
X4714396Y-2481771D01*
X4671643Y-2475000D01*
D02*
G37*
G36*
X-4628357D02*
X-4671643D01*
X-4714396Y-2481771D01*
X-4755563Y-2495147D01*
X-4794131Y-2514799D01*
X-4829150Y-2540242D01*
X-4859758Y-2570849D01*
X-4885201Y-2605868D01*
X-4904852Y-2644436D01*
X-4918228Y-2685604D01*
X-4925000Y-2728357D01*
Y-2771643D01*
X-4918228Y-2814396D01*
X-4904852Y-2855563D01*
X-4885201Y-2894131D01*
X-4859758Y-2929150D01*
X-4829150Y-2959758D01*
X-4794131Y-2985201D01*
X-4755563Y-3004852D01*
X-4714396Y-3018228D01*
X-4671643Y-3025000D01*
X-4628357D01*
X-4585604Y-3018228D01*
X-4544436Y-3004852D01*
X-4505868Y-2985201D01*
X-4470849Y-2959758D01*
X-4440242Y-2929150D01*
X-4414799Y-2894131D01*
X-4395147Y-2855563D01*
X-4381771Y-2814396D01*
X-4375000Y-2771643D01*
Y-2728357D01*
X-4381771Y-2685604D01*
X-4395147Y-2644436D01*
X-4414799Y-2605868D01*
X-4440242Y-2570849D01*
X-4470849Y-2540242D01*
X-4505868Y-2514799D01*
X-4544436Y-2495147D01*
X-4585604Y-2481771D01*
X-4628357Y-2475000D01*
D02*
G37*
%LPD*%
G36*
X-3000481Y2701752D02*
X-2984025Y2673248D01*
X-2960752Y2649975D01*
X-2932248Y2633518D01*
X-2922438Y2630890D01*
Y181922D01*
X-3573922Y-469561D01*
X-3602180D01*
X-3607441Y-456861D01*
X-3592980Y-442401D01*
X-3579815Y-419598D01*
X-3573000Y-394165D01*
Y-367835D01*
X-3579815Y-342402D01*
X-3592980Y-319599D01*
X-3607441Y-305139D01*
X-3602180Y-292439D01*
X-3554001D01*
X-3554000Y-292439D01*
X-3539290Y-289513D01*
X-3526820Y-281180D01*
X-3110820Y134819D01*
X-3110820Y134820D01*
X-3102487Y147290D01*
X-3099561Y162000D01*
Y2630890D01*
X-3089752Y2633518D01*
X-3061248Y2649975D01*
X-3037975Y2673248D01*
X-3021518Y2701752D01*
X-3017574Y2716472D01*
X-3004426D01*
X-3000481Y2701752D01*
D02*
G37*
G36*
X-2746481D02*
X-2730025Y2673248D01*
X-2706752Y2649975D01*
X-2678248Y2633518D01*
X-2668438Y2630890D01*
Y185922D01*
X-3577922Y-723561D01*
X-3602180D01*
X-3607441Y-710861D01*
X-3592980Y-696401D01*
X-3579815Y-673598D01*
X-3573000Y-648165D01*
Y-621835D01*
X-3579815Y-596402D01*
X-3592980Y-573599D01*
X-3607441Y-559139D01*
X-3602180Y-546439D01*
X-3558001D01*
X-3558000Y-546439D01*
X-3543290Y-543513D01*
X-3530820Y-535180D01*
X-2856820Y138820D01*
X-2848487Y151290D01*
X-2845561Y166000D01*
X-2845561Y166001D01*
Y2630890D01*
X-2835752Y2633518D01*
X-2807248Y2649975D01*
X-2783975Y2673248D01*
X-2767518Y2701752D01*
X-2763574Y2716473D01*
X-2750426D01*
X-2746481Y2701752D01*
D02*
G37*
D10*
X-3392000Y674274D02*
Y2750000D01*
X-3558274Y508000D02*
X-3392000Y674274D01*
X-3800000Y508000D02*
X-3558274D01*
X-3138000Y162000D02*
Y2750000D01*
X-3800000Y-254000D02*
X-3554000D01*
X-3138000Y162000D01*
X-2630000Y170000D02*
Y2750000D01*
X-3800000Y-762000D02*
X-3562000D01*
X-2630000Y170000D01*
X-3927000Y381000D02*
X-3800000Y508000D01*
X-3558000Y-508000D02*
X-2884000Y166000D01*
X-3800000Y-508000D02*
X-3558000D01*
X-2884000Y166000D02*
Y2750000D01*
X-3927000Y-381000D02*
X-3800000Y-254000D01*
X-3927000Y-635000D02*
X-3800000Y-508000D01*
X-3927000Y-889000D02*
X-3800000Y-762000D01*
D11*
X-4500000Y150000D02*
Y2150000D01*
X-3750000Y1200000D02*
X-3550000D01*
X-3927000Y1023000D02*
X-3750000Y1200000D01*
X-3927000Y889000D02*
Y1023000D01*
X-4150000Y750000D02*
Y1100000D01*
X-3850000Y1400000D01*
X-3550000D01*
X-4150000Y750000D02*
X-4035000Y635000D01*
X-3927000D01*
X-4500000Y150000D02*
X-4223000Y-127000D01*
X-3927000D01*
D12*
Y889000D02*
D03*
X-3673000D02*
D03*
X-3927000Y635000D02*
D03*
X-3673000D02*
D03*
X-3927000Y381000D02*
D03*
X-3673000D02*
D03*
X-3927000Y127000D02*
D03*
X-3673000D02*
D03*
X-3927000Y-127000D02*
D03*
X-3673000D02*
D03*
X-3927000Y-381000D02*
D03*
X-3673000D02*
D03*
X-3927000Y-635000D02*
D03*
X-3673000D02*
D03*
X-3927000Y-889000D02*
D03*
X-3673000D02*
D03*
D13*
X-3900000Y2750000D02*
D03*
X-3646000D02*
D03*
X-3392000D02*
D03*
X-3138000Y2750000D02*
D03*
X-2884000Y2750000D02*
D03*
X-2630000D02*
D03*
X-2376000D02*
D03*
X-2122000D02*
D03*
X-1868000D02*
D03*
X-1614000D02*
D03*
X-1360000D02*
D03*
X-1106000D02*
D03*
X-852000Y2750000D02*
D03*
X-598000Y2750000D02*
D03*
X-344000D02*
D03*
X-90000D02*
D03*
D14*
X4650000Y-2750000D02*
D03*
X-4650000Y2750000D02*
D03*
Y-2750000D02*
D03*
X4650000Y2750000D02*
D03*
D15*
X-4500000Y2150000D02*
D03*
X-3550000Y1400000D02*
D03*
Y1200000D02*
D03*
%TF.MD5,fe1ed87d86654f6b42c873d5784dab29*%
M02*
