%TF.GenerationSoftware,Altium Limited,Altium Designer,26.3.0 (6)*%
G04 Layer_Color=8388736*
%FSLAX45Y45*%
%MOMM*%
%TF.SameCoordinates,B802E6D7-E220-4502-B456-AB3D52F6952B*%
%TF.FilePolarity,Negative*%
%TF.FileFunction,Soldermask,Top*%
%TF.Part,Single*%
G01*
G75*
%TA.AperFunction,ComponentPad*%
%ADD19C,1.90000*%
%ADD20C,2.40000*%
%ADD21C,5.40000*%
D19*
X-3927000Y889000D02*
D03*
X-3673000D02*
D03*
X-3927000Y635000D02*
D03*
X-3673000D02*
D03*
X-3927000Y381000D02*
D03*
X-3673000D02*
D03*
X-3927000Y127000D02*
D03*
X-3673000D02*
D03*
X-3927000Y-127000D02*
D03*
X-3673000D02*
D03*
X-3927000Y-381000D02*
D03*
X-3673000D02*
D03*
X-3927000Y-635000D02*
D03*
X-3673000D02*
D03*
X-3927000Y-889000D02*
D03*
X-3673000D02*
D03*
D20*
X-3900000Y2750000D02*
D03*
X-3646000D02*
D03*
X-3392000D02*
D03*
X-3138000Y2750000D02*
D03*
X-2884000Y2750000D02*
D03*
X-2630000D02*
D03*
X-2376000D02*
D03*
X-2122000D02*
D03*
X-1868000D02*
D03*
X-1614000D02*
D03*
X-1360000D02*
D03*
X-1106000D02*
D03*
X-852000Y2750000D02*
D03*
X-598000Y2750000D02*
D03*
X-344000D02*
D03*
X-90000D02*
D03*
D21*
X4650000Y-2750000D02*
D03*
X-4650000Y2750000D02*
D03*
Y-2750000D02*
D03*
X4650000Y2750000D02*
D03*
%TF.MD5,896d389a93cb92535080cc5f352f6837*%
M02*
