%TF.GenerationSoftware,Altium Limited,Altium Designer,26.3.0 (6)*%
G04 Layer_Color=0*
%FSLAX45Y45*%
%MOMM*%
%TF.SameCoordinates,B802E6D7-E220-4502-B456-AB3D52F6952B*%
%TF.FilePolarity,Positive*%
%TF.FileFunction,Plated,1,2,PTH,Drill*%
%TF.Part,Single*%
G01*
G75*
%TA.AperFunction,ComponentDrill*%
%ADD23C,0.90000*%
%ADD24C,1.00000*%
%ADD25C,2.50000*%
%TA.AperFunction,ViaDrill,NotFilled*%
%ADD26C,0.50000*%
D23*
X-3927000Y889000D02*
D03*
X-3673000D02*
D03*
X-3927000Y635000D02*
D03*
X-3673000D02*
D03*
X-3927000Y381000D02*
D03*
X-3673000D02*
D03*
X-3927000Y127000D02*
D03*
X-3673000D02*
D03*
X-3927000Y-127000D02*
D03*
X-3673000D02*
D03*
X-3927000Y-381000D02*
D03*
X-3673000D02*
D03*
X-3927000Y-635000D02*
D03*
X-3673000D02*
D03*
X-3927000Y-889000D02*
D03*
X-3673000D02*
D03*
D24*
X-3900000Y2750000D02*
D03*
X-3646000D02*
D03*
X-3392000D02*
D03*
X-3138000Y2750000D02*
D03*
X-2884000Y2750000D02*
D03*
X-2630000D02*
D03*
X-2376000D02*
D03*
X-2122000D02*
D03*
X-1868000D02*
D03*
X-1614000D02*
D03*
X-1360000D02*
D03*
X-1106000D02*
D03*
X-852000Y2750000D02*
D03*
X-598000Y2750000D02*
D03*
X-344000D02*
D03*
X-90000D02*
D03*
D25*
X4650000Y-2750000D02*
D03*
X-4650000Y2750000D02*
D03*
Y-2750000D02*
D03*
X4650000Y2750000D02*
D03*
D26*
X-4500000Y2150000D02*
D03*
X-3550000Y1400000D02*
D03*
Y1200000D02*
D03*
%TF.MD5,41a84b424b71fb4ccd5b722141ef2dd2*%
M02*
